M48
;Layer_Color=9474304
;FILE_FORMAT=4:3
METRIC,TZ
;TYPE=PLATED
T1F00S00C0.300
T2F00S00C0.500
T3F00S00C0.900
T4F00S00C1.400
T5F00S00C1.600
T6F00S00C2.000
%
T01
X26677Y28756
X30886Y30810
X33700Y32700
X34442Y29210
X32900Y24700
X39599Y33071
Y34290
X39878Y30734
X40970Y30709
X40986Y29343
X39869
X40919Y26187
X40945Y25375
X41885Y25400
X41834Y26187
X39702Y25222
X45161Y29108
X45187Y32385
X44374Y32410
X43612Y32385
Y33553
X44374Y33579
X45263Y33553
X46050Y32944
X50935Y32385
X52300Y32461
Y34417
Y36600
X50935Y36627
X52300Y38400
X53735Y35500
X56500Y34595
Y32512
Y30150
X54331
X52300Y30201
Y27254
X54331
X56500
Y24663
X58395
X60681
X63094
X65557
Y30810
X63094Y30836
X60681
X61503Y32512
Y34595
Y36678
Y39346
X56500Y39300
Y36678
X66900Y34700
X67767Y33604
X66040Y33579
X73381
X73508Y36195
X75825Y37400
X78613Y36195
X78578Y32631
X76937Y32563
X54332Y24663
X52300
X79400Y58395
X76740Y55018
X76600Y52100
X73050Y52172
X71911Y51308
X71890Y49149
X71896Y46772
X71918Y45253
X70612Y43400
X68047Y43713
X68377Y44526
Y45768
Y47139
Y49149
Y51029
Y52400
Y54102
X67900Y55347
X64211
X62179
X59293
X57493Y53980
X57607Y51257
X57429Y48743
X57900Y47295
X56447
X59400
X60900
X62320Y45926
X63279Y44800
X64979
X66700
X66079Y46121
X65866Y40566
X67300Y40600
X62988Y41104
X60710Y43964
X57760Y43704
X57055Y43593
X56325Y43574
X55169Y43586
X52377Y44905
X52300Y42200
X50935Y42189
X52300Y40400
X45402Y39700
X43802
X43832Y45194
X41123Y45110
X42000Y49500
X41447Y51357
X44400Y51414
X45900Y51400
X44700Y48100
X48902Y48126
X48795Y47257
X49581Y47600
X49682Y48641
X49701Y49562
X52959Y49454
X53721Y48844
X52908Y52857
X53823Y53924
X53814Y56455
X53150Y59475
X50673Y57836
X47660Y59129
X46235Y59179
X46177Y62332
X51791
X59670Y62170
X59389Y59200
X58396Y59851
X62184Y59200
X64199Y59202
X66933Y59804
X67897Y59200
X68005Y62170
X65534Y62495
X62642Y62495
X71000Y62075
X71890Y54154
X72998Y55149
X78816Y49098
X78791Y44298
X78689Y40488
X74344Y42022
X49632Y53848
X48400Y53775
Y55275
X47219Y54601
X44503Y55050
X43600
X41422Y55093
X37384Y54975
X34475Y56125
X34295Y57655
X32496Y53555
X32521Y51600
Y49928
X34468Y49886
X36703Y49606
X38368Y49497
X37390Y47016
X36400Y46900
X34442Y46914
X32521Y46428
Y44428
Y42500
X30521
X28500
X26500
X26642Y40477
X34142Y40377
X36975Y42250
X38035Y45179
X30496Y53555
X28496
X28042Y55042
X26496Y53555
T02
X61597Y48754
X62897Y50154
X61597Y51554
X64297
Y48754
T03
X27900Y34819
Y37359
X45120Y25400
X47660
X50200
X37355Y61075
X34815
X32275
T04
X71300Y27800
T05
X68725Y25225
Y30375
X73875
Y25225
T06
X28500Y26400
X77500
Y60825
X28500
M30
