G04*
G04 #@! TF.GenerationSoftware,Altium Limited,Altium Designer,21.6.1 (37)*
G04*
G04 Layer_Physical_Order=1*
G04 Layer_Color=255*
%FSLAX43Y43*%
%MOMM*%
G71*
G04*
G04 #@! TF.SameCoordinates,E4B45546-35E5-4839-ABBE-925A39E423B5*
G04*
G04*
G04 #@! TF.FilePolarity,Positive*
G04*
G01*
G75*
%ADD10C,0.200*%
%ADD12C,0.254*%
%ADD43C,1.000*%
%ADD44R,1.900X2.400*%
%ADD45R,1.000X0.600*%
%ADD46R,0.400X0.900*%
%ADD48R,0.800X1.600*%
%ADD49R,0.950X0.800*%
%ADD50R,1.400X0.900*%
%ADD51R,0.800X0.950*%
%ADD52R,0.600X0.600*%
G04:AMPARAMS|DCode=53|XSize=0.25mm|YSize=1mm|CornerRadius=0mm|HoleSize=0mm|Usage=FLASHONLY|Rotation=0.000|XOffset=0mm|YOffset=0mm|HoleType=Round|Shape=Octagon|*
%AMOCTAGOND53*
4,1,8,-0.063,0.500,0.063,0.500,0.125,0.438,0.125,-0.438,0.063,-0.500,-0.063,-0.500,-0.125,-0.438,-0.125,0.438,-0.063,0.500,0.0*
%
%ADD53OCTAGOND53*%

G04:AMPARAMS|DCode=54|XSize=0.25mm|YSize=1mm|CornerRadius=0mm|HoleSize=0mm|Usage=FLASHONLY|Rotation=270.000|XOffset=0mm|YOffset=0mm|HoleType=Round|Shape=Octagon|*
%AMOCTAGOND54*
4,1,8,0.500,0.063,0.500,-0.063,0.438,-0.125,-0.438,-0.125,-0.500,-0.063,-0.500,0.063,-0.438,0.125,0.438,0.125,0.500,0.063,0.0*
%
%ADD54OCTAGOND54*%

%ADD55R,1.000X2.500*%
G04:AMPARAMS|DCode=56|XSize=1.5mm|YSize=1.4mm|CornerRadius=0mm|HoleSize=0mm|Usage=FLASHONLY|Rotation=225.000|XOffset=0mm|YOffset=0mm|HoleType=Round|Shape=Rectangle|*
%AMROTATEDRECTD56*
4,1,4,0.035,1.025,1.025,0.035,-0.035,-1.025,-1.025,-0.035,0.035,1.025,0.0*
%
%ADD56ROTATEDRECTD56*%

%ADD57R,0.800X2.700*%
%ADD58R,0.600X0.600*%
%ADD59R,1.000X1.250*%
%ADD60R,0.750X0.850*%
%ADD61R,0.900X1.400*%
%ADD62R,0.900X1.000*%
%ADD63R,0.762X1.651*%
%ADD64R,5.000X5.000*%
%ADD65R,0.300X1.500*%
%ADD66R,1.500X0.300*%
%ADD98C,0.600*%
%ADD99C,0.248*%
%ADD100C,0.248*%
%ADD101C,0.500*%
%ADD102R,0.300X0.300*%
%ADD103R,6.400X6.400*%
%ADD104C,0.450*%
%ADD105C,0.400*%
%ADD106C,0.600*%
%ADD107C,1.500*%
%ADD108R,1.500X1.500*%
%ADD109R,1.500X1.500*%
%ADD110C,2.500*%
%ADD111C,4.000*%
G36*
X33019Y61185D02*
X33030Y61161D01*
X33043Y61140D01*
X33061Y61123D01*
X33081Y61107D01*
X33106Y61095D01*
X33133Y61085D01*
X33165Y61078D01*
X33199Y61074D01*
X33237Y61073D01*
Y60819D01*
X33190Y60818D01*
X33147Y60814D01*
X33107Y60808D01*
X33070Y60799D01*
X33037Y60788D01*
X33007Y60775D01*
X32981Y60759D01*
X32958Y60741D01*
X32939Y60720D01*
X32923Y60697D01*
X33013Y61211D01*
X33019Y61185D01*
D02*
G37*
G36*
X35224Y60439D02*
X35172Y60389D01*
X35126Y60338D01*
X35087Y60286D01*
X35053Y60232D01*
X35026Y60178D01*
X35004Y60123D01*
X34989Y60066D01*
X34980Y60009D01*
X34977Y59950D01*
X34723D01*
X34720Y60007D01*
X34710Y60063D01*
X34694Y60116D01*
X34672Y60169D01*
X34644Y60219D01*
X34609Y60268D01*
X34567Y60315D01*
X34520Y60361D01*
X34466Y60404D01*
X34405Y60447D01*
X35281Y60488D01*
X35224Y60439D01*
D02*
G37*
G36*
X58591Y59620D02*
X58577Y59602D01*
X58564Y59582D01*
X58554Y59560D01*
X58544Y59537D01*
X58537Y59513D01*
X58531Y59487D01*
X58527Y59459D01*
X58525Y59430D01*
X58524Y59400D01*
X58270Y59399D01*
X58269Y59430D01*
X58266Y59459D01*
X58262Y59486D01*
X58256Y59512D01*
X58249Y59537D01*
X58240Y59560D01*
X58229Y59581D01*
X58217Y59601D01*
X58202Y59620D01*
X58187Y59637D01*
X58607Y59637D01*
X58591Y59620D01*
D02*
G37*
G36*
X67128Y59576D02*
X67111Y59560D01*
X67096Y59542D01*
X67083Y59523D01*
X67071Y59502D01*
X67062Y59480D01*
X67054Y59456D01*
X67047Y59430D01*
X67043Y59403D01*
X67040Y59374D01*
X67039Y59343D01*
X66785Y59363D01*
X66785Y59393D01*
X66782Y59422D01*
X66779Y59450D01*
X66773Y59476D01*
X66766Y59501D01*
X66758Y59525D01*
X66748Y59547D01*
X66736Y59567D01*
X66723Y59587D01*
X66709Y59605D01*
X67128Y59576D01*
D02*
G37*
G36*
X53445Y59539D02*
X53455Y59522D01*
X53467Y59508D01*
X53483Y59495D01*
X53500Y59484D01*
X53521Y59475D01*
X53544Y59468D01*
X53570Y59463D01*
X53598Y59460D01*
X53630Y59459D01*
X53594Y59205D01*
X53248Y59192D01*
X53438Y59558D01*
X53445Y59539D01*
D02*
G37*
G36*
X68091Y58969D02*
X68077Y58951D01*
X68065Y58931D01*
X68054Y58909D01*
X68045Y58886D01*
X68037Y58861D01*
X68031Y58835D01*
X68027Y58808D01*
X68037Y58661D01*
X68040Y58653D01*
X68044Y58651D01*
X67750D01*
X67754Y58653D01*
X67757Y58661D01*
X67760Y58674D01*
X67763Y58691D01*
X67767Y58742D01*
X67768Y58795D01*
X67767Y58808D01*
X67763Y58835D01*
X67757Y58861D01*
X67749Y58886D01*
X67740Y58909D01*
X67729Y58931D01*
X67717Y58951D01*
X67703Y58969D01*
X67687Y58986D01*
X68107D01*
X68091Y58969D01*
D02*
G37*
G36*
X67044Y58651D02*
X66750D01*
X66757Y58653D01*
X66763Y58661D01*
X66768Y58674D01*
X66773Y58691D01*
X66777Y58714D01*
X66780Y58742D01*
X66784Y58813D01*
X66785Y58905D01*
X67039D01*
X67044Y58651D01*
D02*
G37*
G36*
X59586Y58972D02*
X59572Y58953D01*
X59560Y58933D01*
X59549Y58911D01*
X59540Y58888D01*
X59533Y58864D01*
X59527Y58837D01*
X59523Y58810D01*
X59523Y58809D01*
X59532Y58674D01*
X59535Y58661D01*
X59539Y58653D01*
X59544Y58651D01*
X59250D01*
X59253Y58653D01*
X59256Y58661D01*
X59258Y58674D01*
X59260Y58691D01*
X59263Y58742D01*
X59264Y58788D01*
X59263Y58806D01*
X59258Y58834D01*
X59252Y58859D01*
X59245Y58884D01*
X59236Y58907D01*
X59225Y58928D01*
X59212Y58948D01*
X59198Y58966D01*
X59182Y58983D01*
X59602Y58989D01*
X59586Y58972D01*
D02*
G37*
G36*
X58524Y58857D02*
X58537Y58661D01*
X58540Y58653D01*
X58544Y58651D01*
X58250D01*
X58254Y58653D01*
X58257Y58661D01*
X58260Y58674D01*
X58263Y58691D01*
X58267Y58742D01*
X58270Y58905D01*
X58524D01*
X58524Y58857D01*
D02*
G37*
G36*
X41280Y58879D02*
X41258Y58871D01*
X41239Y58858D01*
X41223Y58840D01*
X41209Y58817D01*
X41197Y58789D01*
X41188Y58755D01*
X41182Y58717D01*
X41178Y58673D01*
X41177Y58624D01*
X40923D01*
X40922Y58673D01*
X40918Y58717D01*
X40912Y58755D01*
X40903Y58789D01*
X40891Y58817D01*
X40877Y58840D01*
X40861Y58858D01*
X40842Y58871D01*
X40820Y58879D01*
X40796Y58881D01*
X41304D01*
X41280Y58879D01*
D02*
G37*
G36*
X41178Y58453D02*
X41186Y58371D01*
X41192Y58338D01*
X41201Y58310D01*
X41211Y58288D01*
X41224Y58270D01*
X41238Y58257D01*
X41254Y58249D01*
X41272Y58247D01*
X40796Y58244D01*
X40820Y58247D01*
X40842Y58254D01*
X40861Y58267D01*
X40877Y58285D01*
X40891Y58309D01*
X40903Y58337D01*
X40912Y58370D01*
X40918Y58409D01*
X40922Y58452D01*
X40923Y58501D01*
X41177D01*
X41178Y58453D01*
D02*
G37*
G36*
X47206Y58061D02*
X47204Y58085D01*
X47196Y58107D01*
X47183Y58126D01*
X47165Y58142D01*
X47142Y58156D01*
X47114Y58168D01*
X47080Y58177D01*
X47042Y58183D01*
X46998Y58187D01*
X46949Y58188D01*
Y58442D01*
X46998Y58443D01*
X47042Y58447D01*
X47080Y58453D01*
X47114Y58462D01*
X47142Y58474D01*
X47165Y58488D01*
X47183Y58504D01*
X47196Y58523D01*
X47204Y58545D01*
X47206Y58569D01*
Y58061D01*
D02*
G37*
G36*
X46639Y58545D02*
X46647Y58523D01*
X46660Y58504D01*
X46678Y58488D01*
X46700Y58474D01*
X46728Y58462D01*
X46761Y58453D01*
X46800Y58447D01*
X46843Y58443D01*
X46891Y58442D01*
Y58188D01*
X46843Y58187D01*
X46800Y58183D01*
X46761Y58177D01*
X46728Y58168D01*
X46700Y58156D01*
X46678Y58142D01*
X46660Y58126D01*
X46647Y58107D01*
X46639Y58085D01*
X46637Y58061D01*
Y58569D01*
X46639Y58545D01*
D02*
G37*
G36*
X44980Y57854D02*
X44958Y57846D01*
X44939Y57833D01*
X44923Y57815D01*
X44909Y57792D01*
X44897Y57764D01*
X44888Y57730D01*
X44882Y57692D01*
X44878Y57648D01*
X44878Y57625D01*
X44878Y57602D01*
X44882Y57558D01*
X44888Y57520D01*
X44897Y57486D01*
X44909Y57458D01*
X44923Y57435D01*
X44939Y57417D01*
X44958Y57404D01*
X44980Y57396D01*
X45004Y57394D01*
X44496D01*
X44520Y57396D01*
X44542Y57404D01*
X44561Y57417D01*
X44577Y57435D01*
X44591Y57458D01*
X44603Y57486D01*
X44612Y57520D01*
X44618Y57558D01*
X44622Y57602D01*
X44622Y57625D01*
X44622Y57648D01*
X44618Y57692D01*
X44612Y57730D01*
X44603Y57764D01*
X44591Y57792D01*
X44577Y57815D01*
X44561Y57833D01*
X44542Y57846D01*
X44520Y57854D01*
X44496Y57856D01*
X45004D01*
X44980Y57854D01*
D02*
G37*
G36*
X72715Y57433D02*
Y56418D01*
X72236Y55939D01*
X71667D01*
X71651Y55946D01*
X71597Y55947D01*
Y56027D01*
X70647D01*
X69697D01*
Y55804D01*
X69745D01*
Y55004D01*
X69697D01*
Y54781D01*
X70647D01*
Y54527D01*
X69697D01*
Y54304D01*
X69745D01*
Y53004D01*
X69697D01*
Y52781D01*
X70647D01*
X71597D01*
Y52861D01*
X71605Y52862D01*
X71649Y52862D01*
X71666Y52869D01*
X72204D01*
X72204Y52869D01*
X72313Y52891D01*
X72405Y52952D01*
X73519Y54066D01*
X73797Y53952D01*
Y52591D01*
X73592Y52512D01*
X73497Y52503D01*
X73362Y52638D01*
X73160Y52722D01*
X72941D01*
X72739Y52638D01*
X72584Y52483D01*
X72569Y52448D01*
X71667D01*
X71650Y52455D01*
X71597Y52455D01*
Y52527D01*
X70647D01*
X69697D01*
Y52304D01*
X69745D01*
Y52004D01*
X69697D01*
Y51781D01*
X70647D01*
Y51527D01*
X69697D01*
Y51304D01*
X69745D01*
Y50504D01*
X69697D01*
Y50281D01*
X70647D01*
Y50027D01*
X69697D01*
Y49804D01*
X69745D01*
Y49352D01*
Y48143D01*
X68019D01*
X66569Y49593D01*
Y53018D01*
X66019Y53568D01*
X59968D01*
X59369Y52969D01*
Y49643D01*
X57794Y48068D01*
X56094D01*
X56049Y48090D01*
Y48804D01*
X56097D01*
Y49027D01*
X55147D01*
Y49281D01*
X56097D01*
Y49504D01*
X56049D01*
Y50352D01*
Y51352D01*
Y52304D01*
X56097D01*
Y52527D01*
X55147D01*
Y52781D01*
X56097D01*
Y53004D01*
X56049D01*
Y53885D01*
X56050Y53885D01*
X56079Y53885D01*
X56111Y53899D01*
X56186Y53914D01*
X56278Y53975D01*
X56701Y54399D01*
X56763Y54491D01*
X56785Y54600D01*
X56785Y54600D01*
Y56505D01*
X56785Y56505D01*
X56763Y56614D01*
X56701Y56706D01*
X56701Y56706D01*
X56830Y57001D01*
X57547D01*
Y56954D01*
X57770D01*
Y57904D01*
Y58854D01*
X57547D01*
Y58806D01*
X56595D01*
Y57237D01*
X56295Y57113D01*
X53874Y59534D01*
X53796Y59586D01*
X53758Y59727D01*
X53672Y59876D01*
X53604Y59943D01*
X53661Y60166D01*
X53711Y60243D01*
X57639D01*
X57846Y59961D01*
Y59742D01*
X57930Y59540D01*
X58085Y59385D01*
X58112Y59374D01*
Y58924D01*
X58105Y58908D01*
X58104Y58854D01*
X58024D01*
Y57904D01*
Y56954D01*
X58247D01*
Y57001D01*
X58547D01*
Y56954D01*
X58770D01*
Y57904D01*
X59024D01*
Y56954D01*
X59247D01*
Y57001D01*
X59547D01*
Y56954D01*
X59770D01*
Y57904D01*
X60024D01*
Y56954D01*
X60270D01*
Y57904D01*
Y58854D01*
X60165D01*
X59939Y59091D01*
Y59310D01*
X59855Y59512D01*
X59700Y59667D01*
X59498Y59750D01*
X59279D01*
X59165Y59964D01*
X59396Y60243D01*
X66203D01*
X66396Y59943D01*
X66383Y59913D01*
Y59694D01*
X66467Y59492D01*
X66622Y59338D01*
X66628Y59335D01*
Y58924D01*
X66621Y58907D01*
X66620Y58854D01*
X66524D01*
Y57904D01*
Y56954D01*
X66747D01*
Y57001D01*
X67047D01*
Y56954D01*
X67270D01*
Y57904D01*
X67524D01*
Y56954D01*
X67747D01*
Y57001D01*
X68047D01*
Y56954D01*
X68270D01*
Y57904D01*
X68524D01*
Y56954D01*
X68770D01*
Y57904D01*
Y58854D01*
X68674D01*
X68447Y59091D01*
Y59310D01*
X68363Y59512D01*
X68209Y59667D01*
X68006Y59750D01*
X67788D01*
X67691Y59956D01*
X67913Y60243D01*
X69904D01*
X72715Y57433D01*
D02*
G37*
G36*
X47206Y56521D02*
X47204Y56545D01*
X47196Y56567D01*
X47183Y56586D01*
X47165Y56602D01*
X47142Y56616D01*
X47114Y56628D01*
X47080Y56637D01*
X47042Y56643D01*
X46998Y56647D01*
X46975Y56647D01*
X46952Y56647D01*
X46908Y56643D01*
X46870Y56637D01*
X46836Y56628D01*
X46808Y56616D01*
X46785Y56602D01*
X46767Y56586D01*
X46754Y56567D01*
X46746Y56545D01*
X46744Y56521D01*
Y57029D01*
X46746Y57005D01*
X46754Y56983D01*
X46767Y56964D01*
X46785Y56948D01*
X46808Y56934D01*
X46836Y56922D01*
X46870Y56913D01*
X46908Y56907D01*
X46952Y56903D01*
X46975Y56903D01*
X46998Y56903D01*
X47042Y56907D01*
X47080Y56913D01*
X47114Y56922D01*
X47142Y56934D01*
X47165Y56948D01*
X47183Y56964D01*
X47196Y56983D01*
X47204Y57005D01*
X47206Y57029D01*
Y56521D01*
D02*
G37*
G36*
X52639Y60166D02*
X52696Y59943D01*
X52628Y59876D01*
X52542Y59727D01*
X52498Y59561D01*
Y59389D01*
X52542Y59223D01*
X52628Y59074D01*
X52749Y58953D01*
X52898Y58867D01*
X53064Y58823D01*
X53236D01*
X53402Y58867D01*
X53551Y58953D01*
X53600Y59002D01*
X55798Y56804D01*
X55674Y56504D01*
X55274D01*
Y56154D01*
X55147D01*
Y56027D01*
X54400D01*
Y56007D01*
X54398Y56011D01*
X54390Y56014D01*
X54377Y56017D01*
X54359Y56020D01*
X54309Y56024D01*
X54197Y56026D01*
Y55943D01*
X54194Y55943D01*
X54151Y55943D01*
X54134Y55936D01*
X52512D01*
X52404Y55914D01*
X52312Y55853D01*
X48302Y51843D01*
X47929Y51878D01*
X47852Y51971D01*
Y52249D01*
X47790Y52311D01*
X47852Y52373D01*
Y52651D01*
X47790Y52713D01*
X47852Y52775D01*
Y53043D01*
X47911Y53055D01*
X48003Y53116D01*
X48164Y53277D01*
X48291Y53225D01*
X48509D01*
X48712Y53309D01*
X48866Y53463D01*
X48950Y53666D01*
Y53884D01*
X48866Y54087D01*
X48712Y54241D01*
X48509Y54325D01*
X48291D01*
X48088Y54241D01*
X47934Y54087D01*
X47850Y53884D01*
Y53760D01*
X47687Y53597D01*
X47599D01*
X47580Y53593D01*
X46879D01*
X46837Y53893D01*
X47012Y54040D01*
X47098Y54056D01*
X47109Y54051D01*
X47328D01*
X47530Y54135D01*
X47685Y54289D01*
X47769Y54492D01*
Y54704D01*
X47786Y54721D01*
X48027Y54870D01*
X48088Y54809D01*
X48291Y54725D01*
X48509D01*
X48712Y54809D01*
X48866Y54963D01*
X48950Y55166D01*
Y55384D01*
X48866Y55587D01*
X48712Y55741D01*
X48509Y55825D01*
X48291D01*
X48088Y55741D01*
X47934Y55587D01*
X47921Y55557D01*
X46858D01*
X46633Y55798D01*
X46633Y55800D01*
X46665Y55846D01*
X46902Y55998D01*
X46902Y55998D01*
X47048Y56233D01*
X48302D01*
Y57337D01*
X47137D01*
X47121Y57359D01*
X47127Y57530D01*
X47273Y57715D01*
X47548D01*
Y58315D01*
Y58671D01*
X47547Y58701D01*
X47546Y58712D01*
X47421D01*
X47445Y58714D01*
X47467Y58722D01*
X47486Y58735D01*
X47502Y58753D01*
X47516Y58775D01*
X47528Y58803D01*
X47526Y58807D01*
X47517Y58830D01*
X47505Y58851D01*
X47492Y58870D01*
X47478Y58888D01*
X47461Y58904D01*
X47546Y58908D01*
X47546Y58915D01*
X47105D01*
X46840Y59000D01*
X46735Y59000D01*
X46368D01*
X46371Y58966D01*
X46449Y58968D01*
X46433Y58950D01*
X46419Y58932D01*
X46407Y58911D01*
X46396Y58890D01*
X46391Y58877D01*
X46399Y58858D01*
X46413Y58835D01*
X46429Y58817D01*
X46448Y58804D01*
X46470Y58796D01*
X46494Y58794D01*
X46371D01*
X46370Y58788D01*
X46368Y58759D01*
X46367Y58729D01*
X46367D01*
Y58325D01*
X46240D01*
Y58198D01*
X45640D01*
Y57928D01*
X45461Y57795D01*
X45355Y57772D01*
X45262Y57830D01*
Y58952D01*
X44158D01*
Y57698D01*
X44158Y57698D01*
X44098Y57552D01*
X44098D01*
X44098Y57422D01*
Y55998D01*
X44193D01*
X44279Y55882D01*
X44241Y55618D01*
X44191Y55516D01*
X44051Y55376D01*
X43912Y55516D01*
X43709Y55600D01*
X43491D01*
X43480Y55596D01*
X43180Y55796D01*
Y59121D01*
X44303Y60243D01*
X52589D01*
X52639Y60166D01*
D02*
G37*
G36*
X46480Y56151D02*
X46458Y56143D01*
X46439Y56130D01*
X46423Y56112D01*
X46409Y56090D01*
X46397Y56062D01*
X46388Y56029D01*
X46382Y55990D01*
X46378Y55947D01*
X46377Y55899D01*
X46123D01*
X46122Y55947D01*
X46118Y55990D01*
X46112Y56029D01*
X46103Y56062D01*
X46091Y56090D01*
X46077Y56112D01*
X46061Y56130D01*
X46042Y56143D01*
X46020Y56151D01*
X45996Y56153D01*
X46504D01*
X46480Y56151D01*
D02*
G37*
G36*
X44980D02*
X44958Y56143D01*
X44939Y56130D01*
X44923Y56112D01*
X44909Y56090D01*
X44897Y56062D01*
X44888Y56029D01*
X44882Y55990D01*
X44878Y55947D01*
X44877Y55899D01*
X44623D01*
X44622Y55947D01*
X44618Y55990D01*
X44612Y56029D01*
X44603Y56062D01*
X44591Y56090D01*
X44577Y56112D01*
X44561Y56130D01*
X44542Y56143D01*
X44520Y56151D01*
X44496Y56153D01*
X45004D01*
X44980Y56151D01*
D02*
G37*
G36*
X41003Y55921D02*
X40982Y55913D01*
X40964Y55901D01*
X40947Y55883D01*
X40934Y55861D01*
X40923Y55834D01*
X40914Y55802D01*
X40908Y55764D01*
X40904Y55722D01*
X40903Y55675D01*
X40655D01*
X40654Y55722D01*
X40650Y55764D01*
X40644Y55802D01*
X40635Y55834D01*
X40624Y55861D01*
X40610Y55883D01*
X40594Y55901D01*
X40575Y55913D01*
X40554Y55921D01*
X40531Y55923D01*
X41027D01*
X41003Y55921D01*
D02*
G37*
G36*
X71396Y55797D02*
X71404Y55794D01*
X71417Y55791D01*
X71435Y55788D01*
X71485Y55784D01*
X71648Y55781D01*
Y55527D01*
X71600Y55527D01*
X71404Y55514D01*
X71396Y55511D01*
X71394Y55507D01*
Y55801D01*
X71396Y55797D01*
D02*
G37*
G36*
X54400Y55507D02*
X54398Y55511D01*
X54390Y55515D01*
X54378Y55519D01*
X54360Y55522D01*
X54338Y55524D01*
X54241Y55529D01*
X54152Y55530D01*
Y55778D01*
X54199Y55778D01*
X54378Y55789D01*
X54390Y55793D01*
X54398Y55796D01*
X54400Y55801D01*
Y55507D01*
D02*
G37*
G36*
X48186Y55065D02*
X48168Y55081D01*
X48149Y55096D01*
X48129Y55109D01*
X48107Y55120D01*
X48084Y55130D01*
X48059Y55137D01*
X48033Y55143D01*
X48006Y55148D01*
X47977Y55150D01*
X47947Y55151D01*
Y55399D01*
X47977Y55400D01*
X48006Y55402D01*
X48033Y55407D01*
X48059Y55413D01*
X48084Y55421D01*
X48107Y55430D01*
X48129Y55441D01*
X48149Y55454D01*
X48168Y55469D01*
X48186Y55485D01*
Y55065D01*
D02*
G37*
G36*
X71396Y55297D02*
X71404Y55293D01*
X71417Y55289D01*
X71435Y55286D01*
X71457Y55284D01*
X71557Y55279D01*
X71648Y55278D01*
Y55024D01*
X71600Y55024D01*
X71396Y55010D01*
X71394Y55007D01*
Y55301D01*
X71396Y55297D01*
D02*
G37*
G36*
X54400Y55007D02*
X54398Y55011D01*
X54390Y55015D01*
X54378Y55019D01*
X54360Y55022D01*
X54338Y55024D01*
X54241Y55029D01*
X54152Y55030D01*
Y55278D01*
X54199Y55278D01*
X54378Y55289D01*
X54390Y55293D01*
X54398Y55296D01*
X54400Y55301D01*
Y55007D01*
D02*
G37*
G36*
X72782Y54941D02*
X72765Y54956D01*
X72747Y54971D01*
X72727Y54983D01*
X72705Y54994D01*
X72682Y55003D01*
X72658Y55011D01*
X72632Y55017D01*
X72604Y55021D01*
X72576Y55023D01*
X72545Y55024D01*
X72547Y55278D01*
X72578Y55279D01*
X72607Y55282D01*
X72634Y55286D01*
X72660Y55291D01*
X72685Y55299D01*
X72708Y55308D01*
X72730Y55319D01*
X72750Y55331D01*
X72768Y55345D01*
X72786Y55361D01*
X72782Y54941D01*
D02*
G37*
G36*
X41508Y54812D02*
X41694Y54967D01*
X41694Y54965D01*
X41697Y54961D01*
X41701Y54956D01*
X41706Y54949D01*
X41748Y54904D01*
X41780Y54872D01*
X41604Y54697D01*
X41499Y54801D01*
X41497Y54800D01*
X41479Y54789D01*
X41464Y54776D01*
X41451Y54760D01*
X41440Y54742D01*
X41430Y54721D01*
X41423Y54698D01*
X41418Y54672D01*
X41415Y54644D01*
X41414Y54613D01*
X41166Y54643D01*
X41166Y54696D01*
X41150Y54952D01*
X41146Y54971D01*
X41141Y54987D01*
X41508Y54812D01*
D02*
G37*
G36*
X44804Y55023D02*
X44807Y54999D01*
X44812Y54976D01*
X44819Y54952D01*
X44829Y54929D01*
X44841Y54906D01*
X44855Y54884D01*
X44872Y54861D01*
X44890Y54839D01*
X44911Y54817D01*
X44736Y54642D01*
X44714Y54663D01*
X44691Y54681D01*
X44669Y54698D01*
X44646Y54712D01*
X44623Y54724D01*
X44600Y54733D01*
X44577Y54741D01*
X44553Y54746D01*
X44530Y54749D01*
X44506Y54750D01*
X44803Y55047D01*
X44804Y55023D01*
D02*
G37*
G36*
X43862Y54901D02*
X43854Y54881D01*
X43848Y54859D01*
X43837Y54812D01*
X43833Y54787D01*
X43828Y54732D01*
X43826Y54673D01*
X43578Y54571D01*
X43577Y54602D01*
X43574Y54630D01*
X43569Y54656D01*
X43562Y54680D01*
X43552Y54702D01*
X43541Y54722D01*
X43528Y54739D01*
X43512Y54754D01*
X43495Y54767D01*
X43475Y54777D01*
X43870Y54920D01*
X43862Y54901D01*
D02*
G37*
G36*
X47001Y54395D02*
X46984Y54411D01*
X46966Y54424D01*
X46947Y54437D01*
X46926Y54447D01*
X46903Y54456D01*
X46879Y54464D01*
X46853Y54470D01*
X46825Y54474D01*
X46796Y54476D01*
X46793Y54476D01*
X46773Y54456D01*
X46682Y54351D01*
X46661Y54322D01*
X46646Y54297D01*
X46636Y54275D01*
X46630Y54256D01*
X46630Y54240D01*
X46635Y54228D01*
X46455Y54497D01*
X46458Y54499D01*
X46465Y54504D01*
X46488Y54525D01*
X46638Y54672D01*
X46765Y54545D01*
Y54725D01*
X46796Y54726D01*
X46825Y54728D01*
X46853Y54732D01*
X46879Y54738D01*
X46903Y54746D01*
X46926Y54755D01*
X46947Y54765D01*
X46966Y54778D01*
X46984Y54791D01*
X47001Y54807D01*
Y54395D01*
D02*
G37*
G36*
X54400Y54507D02*
X54398Y54511D01*
X54390Y54515D01*
X54378Y54519D01*
X54360Y54522D01*
X54338Y54524D01*
X54241Y54529D01*
X54152Y54530D01*
Y54778D01*
X54199Y54778D01*
X54378Y54789D01*
X54390Y54793D01*
X54398Y54796D01*
X54400Y54801D01*
Y54507D01*
D02*
G37*
G36*
X71676Y53944D02*
X71659Y53960D01*
X71640Y53974D01*
X71620Y53986D01*
X71599Y53997D01*
X71576Y54006D01*
X71551Y54014D01*
X71525Y54019D01*
X71514Y54021D01*
X71404Y54014D01*
X71396Y54011D01*
X71394Y54007D01*
Y54301D01*
X71396Y54297D01*
X71404Y54294D01*
X71417Y54291D01*
X71435Y54288D01*
X71485Y54284D01*
X71494Y54284D01*
X71498Y54284D01*
X71525Y54288D01*
X71551Y54294D01*
X71576Y54302D01*
X71599Y54311D01*
X71620Y54322D01*
X71640Y54334D01*
X71659Y54348D01*
X71676Y54364D01*
X71676Y53944D01*
D02*
G37*
G36*
X56077Y54050D02*
X56042Y54049D01*
X55960Y54043D01*
X55940Y54039D01*
X55923Y54034D01*
X55910Y54029D01*
X55901Y54022D01*
X55896Y54015D01*
X55894Y54007D01*
Y54301D01*
X55896Y54301D01*
X55901Y54302D01*
X55923Y54303D01*
X56077Y54304D01*
Y54050D01*
D02*
G37*
G36*
X54123Y53903D02*
X54127Y53898D01*
X54133Y53890D01*
X54184Y53837D01*
X54217Y53803D01*
X54400Y53801D01*
Y53507D01*
X54398Y53515D01*
X54391Y53522D01*
X54379Y53529D01*
X54362Y53534D01*
X54341Y53539D01*
X54315Y53543D01*
X54249Y53548D01*
X54164Y53550D01*
Y53682D01*
X54074Y53587D01*
X54057Y53603D01*
X54005Y53649D01*
X53995Y53655D01*
X53986Y53660D01*
X53979Y53663D01*
X53973Y53663D01*
X53968Y53662D01*
X54122Y53905D01*
X54123Y53903D01*
D02*
G37*
G36*
X38938Y53572D02*
X39025Y53499D01*
X39065Y53472D01*
X39102Y53450D01*
X39137Y53435D01*
X39169Y53426D01*
X39199Y53423D01*
X39226Y53426D01*
X39250Y53435D01*
X38903Y53255D01*
X38901Y53256D01*
X38893Y53262D01*
X38881Y53273D01*
X38658Y53491D01*
X38891Y53618D01*
X38938Y53572D01*
D02*
G37*
G36*
X71396Y53297D02*
X71404Y53294D01*
X71417Y53291D01*
X71435Y53288D01*
X71485Y53284D01*
X71648Y53281D01*
Y53027D01*
X71600Y53027D01*
X71404Y53014D01*
X71396Y53011D01*
X71394Y53007D01*
Y53301D01*
X71396Y53297D01*
D02*
G37*
G36*
X54400Y53007D02*
X54398Y53011D01*
X54390Y53014D01*
X54377Y53017D01*
X54359Y53020D01*
X54309Y53024D01*
X54146Y53027D01*
Y53281D01*
X54194Y53281D01*
X54390Y53294D01*
X54398Y53297D01*
X54400Y53301D01*
Y53007D01*
D02*
G37*
G36*
X53139Y53052D02*
X53158Y53038D01*
X53178Y53025D01*
X53200Y53014D01*
X53223Y53005D01*
X53247Y52998D01*
X53273Y52992D01*
X53301Y52988D01*
X53329Y52985D01*
X53360Y52984D01*
Y52730D01*
X53329Y52730D01*
X53301Y52727D01*
X53273Y52723D01*
X53247Y52717D01*
X53223Y52710D01*
X53200Y52701D01*
X53178Y52690D01*
X53158Y52677D01*
X53139Y52663D01*
X53122Y52647D01*
Y53067D01*
X53139Y53052D01*
D02*
G37*
G36*
X71396Y52299D02*
X71404Y52297D01*
X71417Y52295D01*
X71457Y52293D01*
X71648Y52290D01*
Y52036D01*
X71600Y52035D01*
X71435Y52025D01*
X71417Y52022D01*
X71404Y52017D01*
X71396Y52012D01*
X71394Y52007D01*
Y52301D01*
X71396Y52299D01*
D02*
G37*
G36*
X72842Y51955D02*
X72825Y51971D01*
X72806Y51984D01*
X72786Y51996D01*
X72764Y52007D01*
X72741Y52016D01*
X72716Y52023D01*
X72690Y52029D01*
X72662Y52033D01*
X72633Y52035D01*
X72603Y52036D01*
X72595Y52290D01*
X72625Y52291D01*
X72654Y52293D01*
X72682Y52297D01*
X72707Y52303D01*
X72732Y52311D01*
X72755Y52320D01*
X72776Y52332D01*
X72795Y52344D01*
X72813Y52359D01*
X72830Y52375D01*
X72842Y51955D01*
D02*
G37*
G36*
X54400Y51507D02*
X54398Y51511D01*
X54390Y51515D01*
X54378Y51519D01*
X54360Y51522D01*
X54338Y51524D01*
X54241Y51529D01*
X54152Y51530D01*
Y51778D01*
X54199Y51778D01*
X54378Y51789D01*
X54390Y51793D01*
X54398Y51796D01*
X54400Y51801D01*
Y51507D01*
D02*
G37*
G36*
X71805Y51027D02*
X71791Y51032D01*
X71772Y51035D01*
X71749Y51039D01*
X71689Y51044D01*
X71576Y51048D01*
X71457Y51039D01*
X71435Y51034D01*
X71417Y51029D01*
X71404Y51022D01*
X71396Y51015D01*
X71394Y51007D01*
Y51301D01*
X71396Y51301D01*
X71404Y51302D01*
X71431Y51302D01*
X71431Y51304D01*
X71462Y51305D01*
X71491Y51308D01*
X71517Y51313D01*
X71540Y51320D01*
X71561Y51329D01*
X71579Y51340D01*
X71595Y51353D01*
X71608Y51367D01*
X71618Y51384D01*
X71626Y51403D01*
X71805Y51027D01*
D02*
G37*
G36*
X54400Y51007D02*
X54398Y51011D01*
X54390Y51015D01*
X54378Y51019D01*
X54360Y51022D01*
X54338Y51024D01*
X54241Y51029D01*
X54152Y51030D01*
Y51278D01*
X54199Y51278D01*
X54378Y51289D01*
X54390Y51293D01*
X54398Y51296D01*
X54400Y51301D01*
Y51007D01*
D02*
G37*
G36*
Y50507D02*
X54398Y50511D01*
X54390Y50515D01*
X54378Y50519D01*
X54360Y50522D01*
X54338Y50524D01*
X54241Y50529D01*
X54152Y50530D01*
Y50778D01*
X54199Y50778D01*
X54378Y50789D01*
X54390Y50793D01*
X54398Y50796D01*
X54400Y50801D01*
Y50507D01*
D02*
G37*
G36*
X71396Y50793D02*
X71404Y50785D01*
X71417Y50779D01*
X71435Y50773D01*
X71457Y50769D01*
X71485Y50765D01*
X71557Y50760D01*
X71648Y50758D01*
Y50504D01*
X71394Y50507D01*
Y50801D01*
X71396Y50793D01*
D02*
G37*
G36*
X79994Y24106D02*
X79781Y23894D01*
X75519Y23918D01*
Y24950D01*
X75819Y25041D01*
X75828Y25028D01*
X76128Y24728D01*
X76480Y24493D01*
X76872Y24330D01*
X77288Y24248D01*
X77712D01*
X78128Y24330D01*
X78520Y24493D01*
X78872Y24728D01*
X79172Y25028D01*
X79407Y25380D01*
X79570Y25772D01*
X79652Y26188D01*
Y26612D01*
X79570Y27028D01*
X79407Y27420D01*
X79172Y27772D01*
X78872Y28072D01*
X78520Y28307D01*
X78128Y28470D01*
X77712Y28552D01*
X77288D01*
X76872Y28470D01*
X76480Y28307D01*
X76128Y28072D01*
X75828Y27772D01*
X75819Y27759D01*
X75519Y27850D01*
Y31468D01*
X73994Y32993D01*
X63569D01*
X62694Y33868D01*
Y40268D01*
X62980Y40554D01*
X63098D01*
X63300Y40638D01*
X63381Y40719D01*
X63667Y40682D01*
X63713Y40658D01*
X63784Y40423D01*
X63996Y40028D01*
X64280Y39680D01*
X64628Y39396D01*
X65023Y39184D01*
X65453Y39054D01*
X65465Y39052D01*
X65450Y38752D01*
X63448D01*
Y36048D01*
X64170D01*
X64170Y36045D01*
X64174Y36021D01*
X64177Y35989D01*
X64178Y35945D01*
X64185Y35929D01*
Y35446D01*
X64178Y35430D01*
X64177Y35386D01*
X64174Y35354D01*
X64170Y35330D01*
X64170Y35327D01*
X63918D01*
Y34073D01*
X65022D01*
Y35327D01*
X64770D01*
X64770Y35330D01*
X64766Y35354D01*
X64763Y35386D01*
X64762Y35430D01*
X64755Y35446D01*
Y35929D01*
X64762Y35945D01*
X64763Y35989D01*
X64766Y36021D01*
X64770Y36045D01*
X64770Y36048D01*
X65652D01*
Y37099D01*
X65657Y37100D01*
X65680Y37104D01*
X65703Y37106D01*
X66000Y37114D01*
X66203Y37141D01*
X66277Y37171D01*
X66393Y37219D01*
X66556Y37344D01*
X66625Y37434D01*
X66730Y37460D01*
X66870D01*
X66975Y37434D01*
X67044Y37344D01*
X67207Y37219D01*
X67323Y37171D01*
X67397Y37141D01*
X67600Y37114D01*
X67897Y37106D01*
X67921Y37104D01*
X67945Y37100D01*
X67948Y37100D01*
Y36048D01*
X69065D01*
X69065Y36045D01*
X69069Y36021D01*
X69072Y35989D01*
X69073Y35945D01*
X69080Y35929D01*
Y35446D01*
X69073Y35430D01*
X69072Y35386D01*
X69069Y35354D01*
X69065Y35330D01*
X69065Y35327D01*
X68813D01*
Y34073D01*
X69917D01*
Y35327D01*
X69665D01*
X69665Y35330D01*
X69661Y35354D01*
X69658Y35386D01*
X69657Y35430D01*
X69650Y35446D01*
Y35929D01*
X69657Y35945D01*
X69658Y35989D01*
X69661Y36021D01*
X69665Y36045D01*
X69665Y36048D01*
X70152D01*
Y38752D01*
X67948D01*
Y37700D01*
X67945Y37700D01*
X67921Y37696D01*
X67898Y37694D01*
X67600Y37688D01*
X67388Y37900D01*
X67385Y38200D01*
Y38755D01*
X67391D01*
X67344Y39116D01*
X67204Y39453D01*
X67024Y39688D01*
X67107Y39867D01*
X67195Y39953D01*
X67214Y39948D01*
X67386D01*
X67552Y39992D01*
X67701Y40078D01*
X67747Y40125D01*
X75153D01*
Y40127D01*
X75419Y40393D01*
X76256Y41237D01*
X76244Y44530D01*
X76345Y44631D01*
X76345D01*
Y45736D01*
X76239D01*
X76238Y46054D01*
X76345Y46161D01*
X76345D01*
Y47266D01*
X76119D01*
X75219Y48143D01*
X71727D01*
X71655Y48351D01*
X71855Y48599D01*
X71999D01*
X72202Y48683D01*
X72356Y48837D01*
X72440Y49040D01*
Y49258D01*
X72356Y49461D01*
X72202Y49615D01*
X71999Y49699D01*
X71854D01*
X71749Y49742D01*
X71597Y49948D01*
Y50062D01*
X71648Y50339D01*
X71665Y50346D01*
X72481D01*
X72481Y50346D01*
X72590Y50368D01*
X72682Y50429D01*
X74283Y52030D01*
X74283Y52030D01*
X74345Y52122D01*
X74366Y52231D01*
X74366Y52231D01*
Y57619D01*
X74366Y57619D01*
X74345Y57728D01*
X74283Y57820D01*
X74283Y57820D01*
X71028Y61075D01*
X71063Y61241D01*
X71139Y61388D01*
X71270Y61423D01*
X71430Y61515D01*
X71560Y61645D01*
X71652Y61805D01*
X71691Y61948D01*
X71000D01*
X70309D01*
X70315Y61926D01*
X70160Y61667D01*
X70105Y61626D01*
X43612D01*
X43612Y61626D01*
X43503Y61604D01*
X43410Y61542D01*
X43410Y61542D01*
X42127Y60259D01*
X41827Y60384D01*
Y60427D01*
X40623D01*
Y58723D01*
X40623Y58723D01*
X40655Y58659D01*
X40479Y58402D01*
X40173D01*
Y57298D01*
X41427D01*
Y58211D01*
X41435Y58224D01*
X41435Y58242D01*
X41437Y58248D01*
X41427Y58402D01*
X41417Y58440D01*
X41555Y58613D01*
X41814Y58561D01*
Y56077D01*
X41514Y55881D01*
X41466Y55903D01*
X41427Y55939D01*
Y56872D01*
X40173D01*
Y55768D01*
X40319D01*
X40477Y55468D01*
X40466Y55413D01*
Y55161D01*
X40166Y55037D01*
X35185Y60018D01*
X35303Y60286D01*
X35334Y60316D01*
X35388Y60362D01*
X35393Y60372D01*
X35403Y60377D01*
X35409Y60393D01*
X35537Y60521D01*
X35656Y60727D01*
X35717Y60956D01*
Y61194D01*
X35656Y61423D01*
X35537Y61629D01*
X35369Y61797D01*
X35163Y61916D01*
X34934Y61977D01*
X34696D01*
X34467Y61916D01*
X34261Y61797D01*
X34093Y61629D01*
X33974Y61423D01*
X33913Y61194D01*
Y61098D01*
X33613Y60973D01*
X33439Y61147D01*
X33346Y61209D01*
X33275Y61223D01*
X33243Y61238D01*
X33212Y61239D01*
X33192Y61241D01*
X33179Y61244D01*
X33174Y61246D01*
X33172Y61252D01*
X33156Y61274D01*
X33148Y61302D01*
X33148Y61306D01*
X33147Y61306D01*
X33116Y61423D01*
X32997Y61629D01*
X32829Y61797D01*
X32623Y61916D01*
X32394Y61977D01*
X32156D01*
X31927Y61916D01*
X31721Y61797D01*
X31553Y61629D01*
X31434Y61423D01*
X31373Y61194D01*
Y60956D01*
X31434Y60727D01*
X31553Y60521D01*
X31721Y60353D01*
X31927Y60234D01*
X32156Y60173D01*
X32394D01*
X32623Y60234D01*
X32829Y60353D01*
X32997Y60521D01*
X33283Y60481D01*
X33318Y60462D01*
X38044Y55737D01*
X38033Y55698D01*
X37976Y55653D01*
X37690Y55573D01*
X37646Y55598D01*
X37480Y55643D01*
X37308D01*
X37142Y55598D01*
X36993Y55512D01*
X36872Y55391D01*
X36786Y55242D01*
X36741Y55076D01*
Y54905D01*
X36786Y54739D01*
X36872Y54590D01*
X36993Y54468D01*
X37142Y54382D01*
X37308Y54338D01*
X37480D01*
X37646Y54382D01*
X37794Y54468D01*
X37915Y54589D01*
X37918Y54589D01*
X38215Y54508D01*
Y53829D01*
X38215Y53829D01*
X38237Y53720D01*
X38299Y53628D01*
X38513Y53413D01*
X38513Y53413D01*
X38515Y53411D01*
X38535Y53391D01*
X38543Y53374D01*
X38594Y53323D01*
X38748Y53053D01*
Y52775D01*
X38810Y52713D01*
X38748Y52651D01*
Y52373D01*
X38810Y52311D01*
X38748Y52249D01*
Y51971D01*
X38810Y51909D01*
X38748Y51847D01*
Y51569D01*
X38810Y51507D01*
X38748Y51445D01*
Y51167D01*
X38810Y51105D01*
X38748Y51043D01*
Y50765D01*
X38810Y50703D01*
X38748Y50641D01*
Y50363D01*
X38572Y50114D01*
X38477Y50047D01*
X38258D01*
X38056Y49963D01*
X37901Y49809D01*
X37818Y49606D01*
Y49388D01*
X37875Y49250D01*
X37843Y49176D01*
X37663Y48950D01*
X37440D01*
Y48600D01*
X37186D01*
Y48950D01*
X36853D01*
Y48600D01*
X36726D01*
Y48473D01*
X36376D01*
Y48357D01*
X35852D01*
Y48552D01*
X34948D01*
Y48552D01*
X34852D01*
Y48552D01*
X34180D01*
X33941Y48593D01*
X33900Y48833D01*
Y48973D01*
X33400D01*
X32900D01*
Y48833D01*
X32859Y48593D01*
X32620Y48552D01*
X32000D01*
Y53000D01*
X26001D01*
X25994Y63081D01*
X26206Y63293D01*
X79994D01*
Y24106D01*
D02*
G37*
G36*
X54400Y50007D02*
X54398Y50011D01*
X54390Y50015D01*
X54378Y50019D01*
X54360Y50022D01*
X54338Y50024D01*
X54241Y50029D01*
X54152Y50030D01*
Y50278D01*
X54199Y50278D01*
X54378Y50289D01*
X54390Y50293D01*
X54398Y50296D01*
X54400Y50301D01*
Y50007D01*
D02*
G37*
G36*
Y49507D02*
X54398Y49511D01*
X54390Y49514D01*
X54377Y49517D01*
X54359Y49520D01*
X54309Y49524D01*
X54146Y49527D01*
Y49781D01*
X54194Y49781D01*
X54390Y49794D01*
X54398Y49797D01*
X54400Y49801D01*
Y49507D01*
D02*
G37*
G36*
X71674Y48941D02*
X71657Y48957D01*
X71639Y48971D01*
X71619Y48983D01*
X71597Y48994D01*
X71574Y49004D01*
X71550Y49011D01*
X71524Y49017D01*
X71509Y49019D01*
X71404Y49013D01*
X71396Y49010D01*
X71394Y49007D01*
Y49301D01*
X71396Y49297D01*
X71404Y49293D01*
X71417Y49289D01*
X71435Y49287D01*
X71457Y49284D01*
X71501Y49282D01*
X71526Y49286D01*
X71552Y49292D01*
X71577Y49299D01*
X71600Y49308D01*
X71622Y49319D01*
X71642Y49331D01*
X71660Y49345D01*
X71677Y49361D01*
X71674Y48941D01*
D02*
G37*
G36*
X38609Y49316D02*
X38598Y49295D01*
X38589Y49273D01*
X38581Y49249D01*
X38574Y49225D01*
X38569Y49200D01*
X38565Y49173D01*
X38560Y49116D01*
X38559Y49086D01*
X38311Y49022D01*
X38310Y49053D01*
X38307Y49082D01*
X38302Y49108D01*
X38295Y49133D01*
X38286Y49156D01*
X38275Y49177D01*
X38262Y49196D01*
X38247Y49213D01*
X38230Y49228D01*
X38211Y49241D01*
X38620Y49335D01*
X38609Y49316D01*
D02*
G37*
G36*
X54400Y48507D02*
X54398Y48511D01*
X54390Y48514D01*
X54377Y48517D01*
X54359Y48520D01*
X54309Y48524D01*
X54146Y48527D01*
Y48781D01*
X54194Y48781D01*
X54390Y48794D01*
X54398Y48797D01*
X54400Y48801D01*
Y48507D01*
D02*
G37*
G36*
Y48007D02*
X54398Y48011D01*
X54390Y48015D01*
X54378Y48019D01*
X54360Y48022D01*
X54338Y48024D01*
X54241Y48029D01*
X54152Y48030D01*
Y48278D01*
X54199Y48278D01*
X54378Y48289D01*
X54390Y48293D01*
X54398Y48296D01*
X54400Y48301D01*
Y48007D01*
D02*
G37*
G36*
X48714Y47892D02*
X48694Y47906D01*
X48674Y47919D01*
X48653Y47930D01*
X48630Y47940D01*
X48606Y47948D01*
X48580Y47955D01*
X48554Y47960D01*
X48526Y47964D01*
X48497Y47966D01*
X48467Y47967D01*
X48435Y48215D01*
X48465Y48216D01*
X48494Y48218D01*
X48521Y48223D01*
X48547Y48230D01*
X48570Y48238D01*
X48592Y48249D01*
X48613Y48261D01*
X48632Y48275D01*
X48649Y48291D01*
X48664Y48309D01*
X48714Y47892D01*
D02*
G37*
G36*
X36424Y47798D02*
X36683D01*
X36963Y47750D01*
X37041Y47482D01*
X37046Y47450D01*
X36924Y47328D01*
X36840Y47126D01*
Y46907D01*
X36924Y46705D01*
X37079Y46550D01*
X37101Y46541D01*
X37116Y46528D01*
X37231Y46191D01*
X37230Y46187D01*
X37054Y45900D01*
X36853Y45413D01*
X36778Y45101D01*
X36760Y45075D01*
X36751Y45032D01*
X36742Y45001D01*
X36734Y44976D01*
X36726Y44959D01*
X36722Y44952D01*
X36448D01*
Y43940D01*
X36400D01*
X36400Y43459D01*
X36400D01*
Y43152D01*
X36975D01*
Y43025D01*
X37102D01*
Y42606D01*
X37328D01*
X37304Y42603D01*
X37282Y42592D01*
X37263Y42574D01*
X37246Y42549D01*
X37232Y42517D01*
X37220Y42478D01*
X37212Y42432D01*
X37208Y42400D01*
X37550D01*
Y42448D01*
X38552D01*
Y42730D01*
X38554Y42731D01*
X38571Y42738D01*
X38596Y42745D01*
X38628Y42753D01*
X38670Y42760D01*
X38684Y42769D01*
X38890Y42854D01*
X38914Y42864D01*
X38914Y42864D01*
X38914Y42864D01*
X39119Y43022D01*
X39123Y43023D01*
X39132Y43038D01*
X39135Y43045D01*
X39329Y43270D01*
X39403Y43354D01*
X39743Y43863D01*
X39870Y44121D01*
X40170Y44051D01*
Y43425D01*
X40702D01*
X40826Y43125D01*
X40701Y42999D01*
X40640Y42908D01*
X40624Y42827D01*
X40611Y42799D01*
X40610Y42757D01*
X40607Y42726D01*
X40603Y42704D01*
X40603Y42702D01*
X39948D01*
Y41498D01*
X41652D01*
X41816Y41265D01*
Y41259D01*
X43013D01*
X43071Y41259D01*
X43073Y41256D01*
Y40836D01*
X43071Y40834D01*
X42984Y40834D01*
X41816D01*
X41816Y40834D01*
X41652Y40902D01*
Y40902D01*
X41544Y40902D01*
X39948D01*
Y39698D01*
X41652D01*
Y39698D01*
X41816Y39729D01*
X41816Y39729D01*
X42998D01*
X43157Y39642D01*
X43282Y39517D01*
X43335Y39388D01*
X43490Y39234D01*
X43692Y39150D01*
X43911D01*
X44113Y39234D01*
X44268Y39388D01*
X44352Y39591D01*
Y39788D01*
X44389Y40073D01*
X44389D01*
Y41327D01*
X44133D01*
X44129Y41350D01*
X44127Y41382D01*
X44125Y41424D01*
X44118Y41440D01*
Y41860D01*
X44125Y41876D01*
X44127Y41918D01*
X44129Y41950D01*
X44133Y41973D01*
X44389D01*
Y43227D01*
X44153D01*
X44150Y43250D01*
X44147Y43282D01*
X44146Y43324D01*
X44139Y43340D01*
Y44125D01*
X44439Y44249D01*
X45113Y43575D01*
X44989Y43275D01*
X44767D01*
Y42727D01*
X45367D01*
X45967D01*
Y43228D01*
X50026D01*
X50133Y43250D01*
X50225Y43311D01*
X51487Y44574D01*
X51805Y44508D01*
X51876Y44300D01*
X51369Y43793D01*
Y25683D01*
X51069Y25643D01*
X51041Y25748D01*
X50922Y25954D01*
X50754Y26122D01*
X50548Y26241D01*
X50319Y26302D01*
X50081D01*
X49852Y26241D01*
X49646Y26122D01*
X49478Y25954D01*
X49359Y25748D01*
X49298Y25519D01*
Y25281D01*
X49359Y25052D01*
X49478Y24846D01*
X49646Y24678D01*
X49852Y24559D01*
X50081Y24498D01*
X50319D01*
X50548Y24559D01*
X50754Y24678D01*
X50922Y24846D01*
X51041Y25052D01*
X51069Y25157D01*
X51369Y25117D01*
Y23918D01*
X38873Y23906D01*
X38652Y24206D01*
Y24234D01*
X38954Y24876D01*
X39244Y24902D01*
X39391Y24756D01*
X39593Y24672D01*
X39812D01*
X40014Y24756D01*
X40168Y24911D01*
X40193Y24969D01*
X40295Y25003D01*
X40529Y25012D01*
X40633Y24908D01*
X40835Y24825D01*
X41054D01*
X41256Y24908D01*
X41411Y25063D01*
X41438Y25068D01*
X41573Y24934D01*
X41775Y24850D01*
X41994D01*
X42196Y24934D01*
X42351Y25088D01*
X42435Y25291D01*
Y25509D01*
X42351Y25712D01*
X42243Y25819D01*
X42300Y25876D01*
X42384Y26078D01*
Y26297D01*
X42300Y26499D01*
X42145Y26654D01*
X41943Y26737D01*
X41724D01*
X41522Y26654D01*
X41377Y26508D01*
X41231Y26654D01*
X41029Y26737D01*
X40810D01*
X40608Y26654D01*
X40327Y26797D01*
Y26852D01*
X39262D01*
X39243Y26860D01*
X38881D01*
X38652Y27089D01*
Y27102D01*
X38639D01*
X38599Y27142D01*
X38482Y27191D01*
X37519D01*
X37509Y27200D01*
Y28175D01*
X37502Y28210D01*
Y28749D01*
X37487Y28764D01*
X37470Y28777D01*
X36900D01*
Y28825D01*
X36806D01*
X36795Y28805D01*
X36770Y28730D01*
X36755Y28645D01*
X36750Y28550D01*
X36627Y28735D01*
Y28175D01*
X36373D01*
Y28825D01*
X36100D01*
Y28777D01*
X35498D01*
Y28210D01*
X35491Y28175D01*
Y27643D01*
X35356Y27102D01*
X35348Y27102D01*
X35340Y27040D01*
X35343Y27022D01*
X35342Y27018D01*
X35335Y27000D01*
Y26900D01*
X35335Y26900D01*
X35348Y26870D01*
Y24202D01*
X35348Y24098D01*
X35129Y23902D01*
X26231Y23893D01*
X26019Y24105D01*
X26007Y42988D01*
X26219Y43200D01*
X32000D01*
Y47648D01*
X32852D01*
Y47648D01*
X32948D01*
Y47648D01*
X33852D01*
Y47648D01*
X33948D01*
Y47648D01*
X34852D01*
Y47648D01*
X34948D01*
Y47648D01*
X35852D01*
Y47843D01*
X36424D01*
Y47798D01*
D02*
G37*
G36*
X54400Y47507D02*
X54398Y47511D01*
X54390Y47515D01*
X54378Y47519D01*
X54360Y47522D01*
X54338Y47524D01*
X54241Y47529D01*
X54152Y47530D01*
Y47778D01*
X54199Y47778D01*
X54378Y47789D01*
X54390Y47793D01*
X54398Y47796D01*
X54400Y47801D01*
Y47507D01*
D02*
G37*
G36*
X37815Y47184D02*
X37791Y47160D01*
X37694Y47051D01*
X37690Y47045D01*
X37689Y47040D01*
X37525Y47285D01*
X37531Y47283D01*
X37538Y47283D01*
X37546Y47286D01*
X37556Y47290D01*
X37567Y47297D01*
X37579Y47306D01*
X37593Y47316D01*
X37623Y47344D01*
X37641Y47361D01*
X37815Y47184D01*
D02*
G37*
G36*
X48526Y47615D02*
X48548Y47596D01*
X48571Y47581D01*
X48593Y47568D01*
X48616Y47558D01*
X48638Y47551D01*
X48661Y47547D01*
X48684Y47545D01*
X48707Y47546D01*
X48730Y47550D01*
X48501Y47197D01*
X48496Y47220D01*
X48489Y47242D01*
X48480Y47265D01*
X48469Y47287D01*
X48457Y47309D01*
X48443Y47331D01*
X48427Y47353D01*
X48391Y47397D01*
X48370Y47418D01*
X48504Y47635D01*
X48526Y47615D01*
D02*
G37*
G36*
X54400Y47007D02*
X54398Y47011D01*
X54390Y47015D01*
X54378Y47019D01*
X54360Y47022D01*
X54338Y47024D01*
X54241Y47029D01*
X54152Y47030D01*
Y47278D01*
X54199Y47278D01*
X54378Y47289D01*
X54390Y47293D01*
X54398Y47296D01*
X54400Y47301D01*
Y47007D01*
D02*
G37*
G36*
X75248Y46406D02*
X75246Y46430D01*
X75238Y46452D01*
X75225Y46471D01*
X75207Y46487D01*
X75184Y46501D01*
X75156Y46512D01*
X75123Y46521D01*
X75084Y46528D01*
X75040Y46532D01*
X75020Y46532D01*
X74999Y46532D01*
X74955Y46528D01*
X74916Y46521D01*
X74883Y46512D01*
X74855Y46501D01*
X74832Y46487D01*
X74814Y46471D01*
X74801Y46452D01*
X74793Y46430D01*
X74790Y46406D01*
Y46914D01*
X74793Y46890D01*
X74801Y46868D01*
X74814Y46849D01*
X74832Y46833D01*
X74855Y46819D01*
X74883Y46807D01*
X74916Y46798D01*
X74955Y46792D01*
X74999Y46788D01*
X75020Y46788D01*
X75040Y46788D01*
X75084Y46792D01*
X75123Y46798D01*
X75156Y46807D01*
X75184Y46819D01*
X75207Y46833D01*
X75225Y46849D01*
X75238Y46868D01*
X75246Y46890D01*
X75248Y46914D01*
Y46406D01*
D02*
G37*
G36*
X43122Y46904D02*
X43101Y46896D01*
X43083Y46883D01*
X43067Y46866D01*
X43053Y46843D01*
X43042Y46816D01*
X43033Y46783D01*
X43027Y46745D01*
X43023Y46703D01*
X43022Y46655D01*
X42774D01*
X42773Y46703D01*
X42769Y46745D01*
X42763Y46783D01*
X42754Y46816D01*
X42743Y46843D01*
X42729Y46866D01*
X42713Y46883D01*
X42695Y46896D01*
X42674Y46904D01*
X42650Y46906D01*
X43146D01*
X43122Y46904D01*
D02*
G37*
G36*
X39803Y46307D02*
X39798Y46121D01*
X39798Y46121D01*
X39768Y45668D01*
X39663Y45140D01*
X39490Y44630D01*
X39252Y44147D01*
X38988Y43751D01*
X38892Y43731D01*
X38600Y43904D01*
Y44248D01*
X38025D01*
Y44375D01*
X37898D01*
Y44732D01*
X37898D01*
X37897Y44762D01*
X37895Y44791D01*
X37894Y44794D01*
X37822D01*
X37836Y44796D01*
X37849Y44802D01*
X37861Y44812D01*
X37871Y44827D01*
X37879Y44845D01*
X37882Y44856D01*
X37878Y44870D01*
X37869Y44893D01*
X37859Y44915D01*
X37847Y44935D01*
X37833Y44954D01*
X37818Y44972D01*
X37897Y44969D01*
X37898Y45000D01*
X37644D01*
X37466Y45168D01*
X37411Y45284D01*
X37560Y45643D01*
X37789Y46017D01*
X38065Y46340D01*
X38066Y46341D01*
X38066Y46341D01*
X38299Y46503D01*
X38466Y46572D01*
X38697Y46602D01*
X38698Y46602D01*
X39400D01*
X39422Y46607D01*
X39586D01*
X39803Y46307D01*
D02*
G37*
G36*
X47699Y46942D02*
X47704Y46935D01*
X47725Y46912D01*
X47872Y46762D01*
X47697Y46587D01*
X47651Y46631D01*
X47566Y46702D01*
X47527Y46729D01*
X47491Y46750D01*
X47457Y46765D01*
X47426Y46774D01*
X47397Y46777D01*
X47370Y46774D01*
X47346Y46765D01*
X47697Y46945D01*
X47699Y46942D01*
D02*
G37*
G36*
X54400Y46507D02*
X54398Y46511D01*
X54390Y46515D01*
X54378Y46519D01*
X54360Y46522D01*
X54338Y46524D01*
X54241Y46529D01*
X54152Y46530D01*
Y46778D01*
X54199Y46778D01*
X54378Y46789D01*
X54390Y46793D01*
X54398Y46796D01*
X54400Y46801D01*
Y46507D01*
D02*
G37*
G36*
X71760Y46505D02*
X71741Y46514D01*
X71722Y46521D01*
X71701Y46528D01*
X71678Y46534D01*
X71629Y46543D01*
X71603Y46546D01*
X71574Y46548D01*
X71457Y46539D01*
X71435Y46534D01*
X71417Y46529D01*
X71404Y46522D01*
X71396Y46515D01*
X71394Y46507D01*
Y46801D01*
X71396Y46801D01*
X71404Y46802D01*
X71418Y46802D01*
X71418Y46804D01*
X71449Y46805D01*
X71477Y46808D01*
X71504Y46813D01*
X71528Y46820D01*
X71550Y46829D01*
X71570Y46840D01*
X71587Y46853D01*
X71602Y46868D01*
X71615Y46884D01*
X71626Y46903D01*
X71760Y46505D01*
D02*
G37*
G36*
X54400Y46007D02*
X54398Y46011D01*
X54390Y46014D01*
X54377Y46017D01*
X54359Y46020D01*
X54309Y46024D01*
X54146Y46027D01*
Y46281D01*
X54194Y46281D01*
X54390Y46294D01*
X54398Y46297D01*
X54400Y46301D01*
Y46007D01*
D02*
G37*
G36*
X73074Y46188D02*
X73052Y46181D01*
X73033Y46168D01*
X73017Y46150D01*
X73003Y46127D01*
X72992Y46098D01*
X72983Y46065D01*
X72976Y46026D01*
X72972Y45983D01*
X72971Y45936D01*
X72972Y45889D01*
X72976Y45845D01*
X72983Y45807D01*
X72992Y45773D01*
X73003Y45745D01*
X73017Y45722D01*
X73033Y45704D01*
X73052Y45691D01*
X73074Y45683D01*
X73098Y45681D01*
X72590D01*
X72614Y45683D01*
X72636Y45691D01*
X72655Y45704D01*
X72671Y45722D01*
X72685Y45745D01*
X72697Y45773D01*
X72706Y45807D01*
X72712Y45845D01*
X72716Y45889D01*
X72717Y45936D01*
X72716Y45983D01*
X72712Y46026D01*
X72706Y46065D01*
X72697Y46098D01*
X72685Y46127D01*
X72671Y46150D01*
X72655Y46168D01*
X72636Y46181D01*
X72614Y46188D01*
X72590Y46191D01*
X73098D01*
X73074Y46188D01*
D02*
G37*
G36*
X41553Y45548D02*
X41831D01*
X42010Y45322D01*
X42028Y45248D01*
X42018Y45200D01*
Y44840D01*
X42011Y44824D01*
X42010Y44782D01*
X42007Y44750D01*
X42004Y44727D01*
X41748D01*
Y43812D01*
X41512Y43594D01*
X41476Y43580D01*
X41390Y43605D01*
X41370Y43622D01*
Y43973D01*
X40770D01*
Y44100D01*
X40643D01*
Y44569D01*
X40564D01*
X40588Y44571D01*
X40610Y44579D01*
X40629Y44592D01*
X40643Y44608D01*
Y44775D01*
X40454D01*
X40340Y44877D01*
X40227Y45075D01*
X40319Y45539D01*
X40347Y45548D01*
X40625D01*
X40749Y45548D01*
X41027D01*
X41089Y45610D01*
X41151Y45548D01*
X41429D01*
X41491Y45610D01*
X41553Y45548D01*
D02*
G37*
G36*
X62515Y45698D02*
X62499Y45682D01*
X62484Y45665D01*
X62470Y45646D01*
X62459Y45625D01*
X62449Y45602D01*
X62441Y45578D01*
X62435Y45553D01*
X62431Y45525D01*
X62428Y45496D01*
X62427Y45466D01*
X62173Y45485D01*
X62172Y45515D01*
X62170Y45544D01*
X62166Y45572D01*
X62161Y45598D01*
X62154Y45623D01*
X62145Y45646D01*
X62135Y45669D01*
X62124Y45689D01*
X62111Y45709D01*
X62096Y45726D01*
X62515Y45698D01*
D02*
G37*
G36*
X72450Y44933D02*
X72448Y44957D01*
X72440Y44978D01*
X72427Y44997D01*
X72409Y45014D01*
X72386Y45028D01*
X72358Y45039D01*
X72324Y45048D01*
X72286Y45055D01*
X72265Y45056D01*
X72241Y45054D01*
X72214Y45050D01*
X72189Y45045D01*
X72165Y45038D01*
X72142Y45031D01*
X72120Y45022D01*
X72100Y45012D01*
X72081Y45001D01*
X72174Y45410D01*
X72187Y45392D01*
X72201Y45375D01*
X72218Y45361D01*
X72237Y45348D01*
X72258Y45338D01*
X72281Y45329D01*
X72306Y45322D01*
X72307Y45322D01*
X72324Y45325D01*
X72358Y45334D01*
X72386Y45345D01*
X72409Y45359D01*
X72427Y45376D01*
X72440Y45395D01*
X72448Y45416D01*
X72450Y45441D01*
Y44933D01*
D02*
G37*
G36*
X43827Y45643D02*
X43830Y45615D01*
X43835Y45589D01*
X43842Y45566D01*
X43852Y45545D01*
X43863Y45526D01*
X43876Y45511D01*
X43892Y45497D01*
X43898Y45493D01*
X43905Y45498D01*
X43915Y45506D01*
X43957Y45543D01*
X44016Y45601D01*
X44192Y45426D01*
X44174Y45408D01*
X44117Y45341D01*
X44111Y45332D01*
X44108Y45325D01*
X44106Y45319D01*
X44107Y45314D01*
X43912Y45470D01*
X43552Y45301D01*
X43557Y45317D01*
X43561Y45337D01*
X43565Y45361D01*
X43571Y45422D01*
X43577Y45543D01*
X43578Y45645D01*
X43826Y45674D01*
X43827Y45643D01*
D02*
G37*
G36*
X71764Y44995D02*
X71745Y45006D01*
X71725Y45015D01*
X71704Y45023D01*
X71681Y45030D01*
X71657Y45036D01*
X71632Y45041D01*
X71577Y45048D01*
X71576Y45048D01*
X71457Y45039D01*
X71435Y45034D01*
X71417Y45029D01*
X71404Y45022D01*
X71396Y45015D01*
X71394Y45007D01*
Y45301D01*
X71396Y45301D01*
X71404Y45302D01*
X71443Y45303D01*
X71443Y45304D01*
X71474Y45305D01*
X71502Y45308D01*
X71529Y45313D01*
X71554Y45320D01*
X71576Y45328D01*
X71597Y45339D01*
X71615Y45352D01*
X71632Y45367D01*
X71646Y45383D01*
X71658Y45402D01*
X71764Y44995D01*
D02*
G37*
G36*
X52787Y45134D02*
X52766Y45112D01*
X52747Y45090D01*
X52730Y45067D01*
X52716Y45045D01*
X52704Y45022D01*
X52694Y45000D01*
X52687Y44977D01*
X52681Y44954D01*
X52678Y44931D01*
X52677Y44908D01*
X52380Y45205D01*
X52404Y45205D01*
X52427Y45209D01*
X52450Y45214D01*
X52472Y45222D01*
X52495Y45231D01*
X52518Y45243D01*
X52540Y45258D01*
X52563Y45274D01*
X52585Y45293D01*
X52607Y45314D01*
X52787Y45134D01*
D02*
G37*
G36*
X75248Y44907D02*
X75246Y44931D01*
X75238Y44953D01*
X75225Y44972D01*
X75207Y44988D01*
X75184Y45002D01*
X75156Y45014D01*
X75123Y45023D01*
X75084Y45029D01*
X75040Y45033D01*
X74991Y45034D01*
Y45288D01*
X75040Y45289D01*
X75084Y45293D01*
X75123Y45300D01*
X75156Y45309D01*
X75184Y45320D01*
X75207Y45334D01*
X75225Y45350D01*
X75238Y45369D01*
X75246Y45391D01*
X75248Y45415D01*
Y44907D01*
D02*
G37*
G36*
X37175Y45041D02*
X37168Y44994D01*
X37164Y44952D01*
X37164Y44915D01*
X37167Y44883D01*
X37173Y44856D01*
X37183Y44833D01*
X37196Y44816D01*
X37213Y44804D01*
X37233Y44796D01*
X37256Y44794D01*
X36752D01*
X36776Y44796D01*
X36799Y44804D01*
X36820Y44816D01*
X36839Y44833D01*
X36857Y44856D01*
X36873Y44883D01*
X36887Y44915D01*
X36900Y44952D01*
X36911Y44994D01*
X36921Y45041D01*
X37175Y45041D01*
D02*
G37*
G36*
X44044Y44980D02*
X44031Y44960D01*
X44019Y44938D01*
X44009Y44916D01*
X44001Y44892D01*
X43993Y44867D01*
X43988Y44841D01*
X43984Y44813D01*
X43982Y44784D01*
X43981Y44754D01*
X43733Y44731D01*
X43732Y44761D01*
X43729Y44790D01*
X43725Y44817D01*
X43718Y44843D01*
X43710Y44867D01*
X43700Y44889D01*
X43688Y44910D01*
X43674Y44929D01*
X43658Y44947D01*
X43641Y44963D01*
X44059Y44998D01*
X44044Y44980D01*
D02*
G37*
G36*
X42425Y44772D02*
X42429Y44730D01*
X42435Y44692D01*
X42444Y44659D01*
X42455Y44632D01*
X42469Y44609D01*
X42485Y44591D01*
X42503Y44579D01*
X42524Y44571D01*
X42548Y44569D01*
X42052D01*
X42076Y44571D01*
X42097Y44579D01*
X42115Y44591D01*
X42131Y44609D01*
X42145Y44632D01*
X42156Y44659D01*
X42165Y44692D01*
X42171Y44730D01*
X42175Y44772D01*
X42176Y44820D01*
X42424D01*
X42425Y44772D01*
D02*
G37*
G36*
X71396Y44793D02*
X71404Y44785D01*
X71417Y44779D01*
X71435Y44773D01*
X71457Y44769D01*
X71485Y44765D01*
X71557Y44760D01*
X71648Y44758D01*
Y44504D01*
X71394Y44507D01*
Y44801D01*
X71396Y44793D01*
D02*
G37*
G36*
X55896D02*
X55903Y44785D01*
X55913Y44779D01*
X55928Y44773D01*
X55948Y44769D01*
X55971Y44765D01*
X55999Y44762D01*
X56068Y44758D01*
X56109Y44758D01*
Y44504D01*
X55894Y44507D01*
Y44801D01*
X55896Y44793D01*
D02*
G37*
G36*
X74529Y44741D02*
X74507Y44733D01*
X74488Y44720D01*
X74472Y44702D01*
X74458Y44679D01*
X74446Y44651D01*
X74437Y44617D01*
X74431Y44579D01*
X74427Y44535D01*
X74426Y44486D01*
X74172D01*
X74171Y44535D01*
X74167Y44579D01*
X74161Y44617D01*
X74152Y44651D01*
X74140Y44679D01*
X74126Y44702D01*
X74110Y44720D01*
X74091Y44733D01*
X74069Y44741D01*
X74045Y44743D01*
X74553D01*
X74529Y44741D01*
D02*
G37*
G36*
X56464Y44019D02*
X56465Y43989D01*
X56467Y43960D01*
X56471Y43932D01*
X56477Y43906D01*
X56484Y43881D01*
X56493Y43858D01*
X56503Y43836D01*
X56515Y43816D01*
X56528Y43796D01*
X56543Y43779D01*
X56124Y43797D01*
X56140Y43813D01*
X56155Y43831D01*
X56168Y43850D01*
X56179Y43872D01*
X56189Y43894D01*
X56196Y43918D01*
X56202Y43944D01*
X56207Y43972D01*
X56209Y44001D01*
X56210Y44031D01*
X56464Y44019D01*
D02*
G37*
G36*
X55297Y44010D02*
X55423D01*
X55399Y44007D01*
X55377Y44000D01*
X55358Y43987D01*
X55342Y43969D01*
X55328Y43946D01*
X55316Y43917D01*
X55314Y43909D01*
X55317Y43901D01*
X55326Y43878D01*
X55336Y43856D01*
X55349Y43836D01*
X55363Y43818D01*
X55379Y43801D01*
X55297D01*
X55296Y43753D01*
X55042D01*
X55041Y43801D01*
X54959D01*
X54975Y43818D01*
X54989Y43836D01*
X55001Y43856D01*
X55012Y43878D01*
X55021Y43901D01*
X55024Y43909D01*
X55021Y43917D01*
X55010Y43946D01*
X54996Y43969D01*
X54980Y43987D01*
X54961Y44000D01*
X54939Y44007D01*
X54915Y44010D01*
X55041D01*
X55042Y44038D01*
X55296D01*
X55297Y44010D01*
D02*
G37*
G36*
X60773Y43670D02*
X60752Y43665D01*
X60731Y43658D01*
X60709Y43649D01*
X60688Y43638D01*
X60666Y43626D01*
X60644Y43611D01*
X60623Y43596D01*
X60579Y43558D01*
X60557Y43537D01*
X60332Y43671D01*
X60353Y43694D01*
X60371Y43716D01*
X60387Y43739D01*
X60400Y43761D01*
X60410Y43783D01*
X60417Y43806D01*
X60421Y43828D01*
X60423Y43850D01*
X60422Y43872D01*
X60418Y43894D01*
X60773Y43670D01*
D02*
G37*
G36*
X42289Y43628D02*
X42268Y43621D01*
X42250Y43608D01*
X42234Y43590D01*
X42220Y43568D01*
X42209Y43540D01*
X42200Y43508D01*
X42194Y43470D01*
X42190Y43428D01*
X42189Y43380D01*
X41941D01*
X41941Y43427D01*
X41932Y43566D01*
X41927Y43588D01*
X41922Y43606D01*
X41917Y43618D01*
X41910Y43626D01*
X41903Y43628D01*
X42313Y43631D01*
X42289Y43628D01*
D02*
G37*
G36*
X57816Y43409D02*
X57794Y43404D01*
X57773Y43397D01*
X57751Y43389D01*
X57729Y43378D01*
X57708Y43366D01*
X57686Y43352D01*
X57664Y43337D01*
X57620Y43300D01*
X57598Y43279D01*
X57378Y43418D01*
X57399Y43440D01*
X57417Y43462D01*
X57433Y43485D01*
X57446Y43507D01*
X57456Y43530D01*
X57463Y43552D01*
X57468Y43574D01*
X57470Y43597D01*
X57470Y43619D01*
X57466Y43641D01*
X57816Y43409D01*
D02*
G37*
G36*
X66524Y43313D02*
X66534Y43169D01*
X66537Y43159D01*
X66540Y43153D01*
X66544Y43151D01*
X66250D01*
X66254Y43153D01*
X66257Y43159D01*
X66260Y43169D01*
X66263Y43183D01*
X66265Y43201D01*
X66268Y43249D01*
X66270Y43351D01*
X66524D01*
X66524Y43313D01*
D02*
G37*
G36*
X65025Y43299D02*
X65034Y43167D01*
X65037Y43158D01*
X65040Y43153D01*
X65044Y43151D01*
X64750D01*
X64754Y43153D01*
X64758Y43158D01*
X64761Y43167D01*
X64764Y43180D01*
X64766Y43197D01*
X64769Y43240D01*
X64771Y43334D01*
X65025D01*
X65025Y43299D01*
D02*
G37*
G36*
X60526Y43357D02*
X60537Y43161D01*
X60540Y43153D01*
X60544Y43151D01*
X60250D01*
X60254Y43153D01*
X60258Y43161D01*
X60261Y43174D01*
X60264Y43191D01*
X60266Y43214D01*
X60271Y43313D01*
X60271Y43405D01*
X60526D01*
X60526Y43357D01*
D02*
G37*
G36*
X57026Y43366D02*
X57047D01*
X57047Y43355D01*
X57146Y43307D01*
X57127Y43299D01*
X57110Y43289D01*
X57096Y43276D01*
X57083Y43261D01*
X57072Y43243D01*
X57063Y43222D01*
X57056Y43199D01*
X57051Y43173D01*
X57048Y43144D01*
X57047Y43113D01*
X56793Y43145D01*
X56793Y43151D01*
X56750D01*
X56758Y43153D01*
X56766Y43159D01*
X56772Y43170D01*
X56778Y43185D01*
X56782Y43205D01*
X56786Y43228D01*
X56789Y43256D01*
X56789Y43261D01*
X56777Y43476D01*
X56773Y43489D01*
X57026Y43366D01*
D02*
G37*
G36*
X43982Y43272D02*
X43986Y43230D01*
X43992Y43192D01*
X44001Y43159D01*
X44012Y43132D01*
X44026Y43109D01*
X44042Y43091D01*
X44060Y43079D01*
X44081Y43071D01*
X44105Y43069D01*
X43609D01*
X43633Y43071D01*
X43654Y43079D01*
X43672Y43091D01*
X43688Y43109D01*
X43702Y43132D01*
X43713Y43159D01*
X43722Y43192D01*
X43728Y43230D01*
X43732Y43272D01*
X43733Y43320D01*
X43981D01*
X43982Y43272D01*
D02*
G37*
G36*
X38396Y43243D02*
X38404Y43224D01*
X38416Y43208D01*
X38433Y43196D01*
X38455Y43186D01*
X38482Y43179D01*
X38514Y43176D01*
X38551Y43175D01*
X38593Y43178D01*
X38639Y43184D01*
X38642Y42923D01*
X38595Y42914D01*
X38553Y42905D01*
X38516Y42893D01*
X38483Y42880D01*
X38456Y42865D01*
X38434Y42849D01*
X38416Y42831D01*
X38404Y42811D01*
X38396Y42790D01*
X38394Y42766D01*
Y43265D01*
X38396Y43243D01*
D02*
G37*
G36*
X41025Y42748D02*
X41029Y42706D01*
X41035Y42668D01*
X41044Y42636D01*
X41055Y42609D01*
X41069Y42587D01*
X41085Y42569D01*
X41103Y42557D01*
X41124Y42549D01*
X41148Y42547D01*
X40652D01*
X40676Y42549D01*
X40697Y42557D01*
X40715Y42569D01*
X40731Y42587D01*
X40745Y42609D01*
X40756Y42636D01*
X40765Y42668D01*
X40771Y42706D01*
X40775Y42748D01*
X40776Y42795D01*
X41024D01*
X41025Y42748D01*
D02*
G37*
G36*
X42522Y42409D02*
X42526Y42366D01*
X42532Y42328D01*
X42541Y42296D01*
X42552Y42268D01*
X42566Y42245D01*
X42582Y42228D01*
X42601Y42215D01*
X42622Y42208D01*
X42645Y42205D01*
X42149D01*
X42173Y42208D01*
X42194Y42215D01*
X42212Y42228D01*
X42229Y42245D01*
X42242Y42268D01*
X42253Y42296D01*
X42262Y42328D01*
X42268Y42366D01*
X42272Y42409D01*
X42273Y42456D01*
X42521D01*
X42522Y42409D01*
D02*
G37*
G36*
X44061Y42129D02*
X44040Y42121D01*
X44021Y42109D01*
X44005Y42091D01*
X43992Y42068D01*
X43980Y42041D01*
X43972Y42008D01*
X43966Y41970D01*
X43962Y41928D01*
X43961Y41880D01*
X43713D01*
X43711Y41928D01*
X43708Y41970D01*
X43701Y42008D01*
X43693Y42041D01*
X43682Y42068D01*
X43668Y42091D01*
X43652Y42109D01*
X43633Y42121D01*
X43612Y42129D01*
X43589Y42131D01*
X44085D01*
X44061Y42129D01*
D02*
G37*
G36*
X66042Y41655D02*
X66040Y41650D01*
X66038Y41641D01*
X66037Y41629D01*
X66034Y41571D01*
X66033Y41482D01*
X65779D01*
X65779Y41516D01*
X65772Y41613D01*
X65769Y41629D01*
X65765Y41641D01*
X65761Y41650D01*
X65756Y41655D01*
X65750Y41657D01*
X66044D01*
X66042Y41655D01*
D02*
G37*
G36*
X65041Y41655D02*
X65038Y41650D01*
X65035Y41641D01*
X65033Y41628D01*
X65031Y41612D01*
X65028Y41568D01*
X65027Y41476D01*
X64773D01*
X64772Y41510D01*
X64764Y41628D01*
X64762Y41641D01*
X64758Y41650D01*
X64754Y41655D01*
X64750Y41657D01*
X65044D01*
X65041Y41655D01*
D02*
G37*
G36*
X64542Y41654D02*
X64541Y41647D01*
X64539Y41634D01*
X64537Y41593D01*
X64535Y41403D01*
X64281D01*
X64281Y41451D01*
X64270Y41616D01*
X64266Y41634D01*
X64261Y41647D01*
X64256Y41654D01*
X64250Y41657D01*
X64544D01*
X64542Y41654D01*
D02*
G37*
G36*
X64041D02*
X64038Y41647D01*
X64035Y41634D01*
X64033Y41616D01*
X64030Y41566D01*
X64027Y41403D01*
X63773D01*
X63773Y41451D01*
X63762Y41634D01*
X63758Y41647D01*
X63754Y41654D01*
X63750Y41657D01*
X64044D01*
X64041Y41654D01*
D02*
G37*
G36*
X59540D02*
X59537Y41647D01*
X59534Y41634D01*
X59531Y41616D01*
X59527Y41566D01*
X59524Y41403D01*
X59270D01*
X59270Y41451D01*
X59257Y41647D01*
X59254Y41654D01*
X59250Y41657D01*
X59544D01*
X59540Y41654D01*
D02*
G37*
G36*
X59040D02*
X59037Y41647D01*
X59034Y41634D01*
X59031Y41616D01*
X59027Y41566D01*
X59024Y41403D01*
X58770D01*
X58770Y41451D01*
X58757Y41647D01*
X58754Y41654D01*
X58750Y41657D01*
X59044D01*
X59040Y41654D01*
D02*
G37*
G36*
X63366Y41396D02*
X63345Y41373D01*
X63327Y41351D01*
X63311Y41329D01*
X63299Y41306D01*
X63289Y41284D01*
X63282Y41262D01*
X63277Y41240D01*
X63275Y41217D01*
X63276Y41195D01*
X63280Y41173D01*
X62925Y41397D01*
X62946Y41403D01*
X62968Y41410D01*
X62989Y41419D01*
X63011Y41429D01*
X63032Y41442D01*
X63054Y41456D01*
X63076Y41472D01*
X63119Y41509D01*
X63141Y41530D01*
X63366Y41396D01*
D02*
G37*
G36*
X43962Y41372D02*
X43966Y41330D01*
X43972Y41292D01*
X43980Y41259D01*
X43992Y41232D01*
X44005Y41209D01*
X44021Y41192D01*
X44040Y41179D01*
X44061Y41171D01*
X44085Y41169D01*
X43589D01*
X43612Y41171D01*
X43633Y41179D01*
X43652Y41192D01*
X43668Y41209D01*
X43682Y41232D01*
X43693Y41259D01*
X43701Y41292D01*
X43708Y41330D01*
X43711Y41372D01*
X43713Y41420D01*
X43961D01*
X43962Y41372D01*
D02*
G37*
G36*
X59818Y41015D02*
X59919Y40928D01*
X59966Y40892D01*
X60012Y40862D01*
X60056Y40838D01*
X60098Y40819D01*
X60138Y40805D01*
X60177Y40797D01*
X60213Y40794D01*
X59553Y40797D01*
X59552Y40821D01*
X59551Y40843D01*
X59548Y40864D01*
X59544Y40884D01*
X59538Y40903D01*
X59532Y40920D01*
X59524Y40936D01*
X59516Y40951D01*
X59506Y40964D01*
X59495Y40977D01*
X59764Y41066D01*
X59818Y41015D01*
D02*
G37*
G36*
X58770Y40947D02*
X58653Y40813D01*
X58648Y40804D01*
X58647Y40797D01*
X58081Y40794D01*
X58116Y40796D01*
X58152Y40802D01*
X58188Y40811D01*
X58224Y40824D01*
X58259Y40840D01*
X58295Y40860D01*
X58331Y40884D01*
X58368Y40911D01*
X58404Y40942D01*
X58440Y40977D01*
X58799D01*
X58770Y40947D01*
D02*
G37*
G36*
X65620Y40937D02*
X65642Y40918D01*
X65664Y40902D01*
X65687Y40889D01*
X65709Y40878D01*
X65732Y40870D01*
X65755Y40864D01*
X65777Y40861D01*
X65800Y40861D01*
X65823Y40863D01*
X65568Y40529D01*
X65564Y40551D01*
X65558Y40574D01*
X65551Y40596D01*
X65541Y40619D01*
X65530Y40641D01*
X65517Y40663D01*
X65501Y40685D01*
X65484Y40707D01*
X65465Y40729D01*
X65444Y40751D01*
X65597Y40958D01*
X65620Y40937D01*
D02*
G37*
G36*
X66892Y40871D02*
X67202Y40883D01*
X67012Y40517D01*
X67005Y40536D01*
X66995Y40553D01*
X66983Y40567D01*
X66967Y40580D01*
X66950Y40591D01*
X66929Y40600D01*
X66906Y40607D01*
X66880Y40612D01*
X66852Y40615D01*
X66820Y40616D01*
X66824Y40644D01*
X66801Y40566D01*
X66799Y40576D01*
X66794Y40584D01*
X66786Y40591D01*
X66775Y40598D01*
X66761Y40603D01*
X66744Y40608D01*
X66724Y40611D01*
X66701Y40614D01*
X66646Y40616D01*
Y40870D01*
X66690Y40870D01*
X66849Y40881D01*
X66868Y40885D01*
X66883Y40890D01*
X66894Y40895D01*
X66901Y40901D01*
X66892Y40871D01*
D02*
G37*
G36*
X41974Y40027D02*
X41972Y40052D01*
X41964Y40073D01*
X41951Y40092D01*
X41933Y40109D01*
X41910Y40123D01*
X41882Y40134D01*
X41849Y40143D01*
X41810Y40149D01*
X41766Y40153D01*
X41734Y40154D01*
X41702Y40153D01*
X41658Y40149D01*
X41620Y40143D01*
X41586Y40134D01*
X41558Y40123D01*
X41535Y40109D01*
X41517Y40092D01*
X41504Y40073D01*
X41496Y40052D01*
X41494Y40027D01*
Y40535D01*
X41496Y40511D01*
X41504Y40490D01*
X41517Y40471D01*
X41535Y40454D01*
X41558Y40440D01*
X41586Y40429D01*
X41620Y40420D01*
X41658Y40413D01*
X41702Y40410D01*
X41734Y40409D01*
X41766Y40410D01*
X41810Y40413D01*
X41849Y40420D01*
X41882Y40429D01*
X41910Y40440D01*
X41933Y40454D01*
X41951Y40471D01*
X41964Y40490D01*
X41972Y40511D01*
X41974Y40535D01*
Y40027D01*
D02*
G37*
G36*
X66325Y52900D02*
Y49500D01*
X67925Y47875D01*
X69745D01*
Y47352D01*
Y46504D01*
X69697D01*
Y46281D01*
X70647D01*
Y46055D01*
X70774D01*
X70775Y46010D01*
X70901D01*
X70877Y46007D01*
X70855Y46000D01*
X70836Y45987D01*
X70820Y45969D01*
X70806Y45946D01*
X70794Y45917D01*
X70791Y45904D01*
X70794Y45890D01*
X70806Y45862D01*
X70820Y45839D01*
X70836Y45821D01*
X70855Y45808D01*
X70877Y45800D01*
X70901Y45798D01*
X70775D01*
X70774Y45753D01*
X70647D01*
Y45527D01*
X69697D01*
Y45304D01*
X69745D01*
Y44852D01*
Y43852D01*
X69894D01*
X70080Y43551D01*
X70062Y43509D01*
Y43290D01*
X70146Y43088D01*
X70300Y42933D01*
X70503Y42850D01*
X70721D01*
X70924Y42933D01*
X71078Y43088D01*
X71162Y43290D01*
Y43509D01*
X71144Y43551D01*
X71330Y43852D01*
X71549D01*
Y43937D01*
X71827Y44052D01*
X72036Y43842D01*
X72036Y43842D01*
X72129Y43780D01*
X72238Y43759D01*
X73863D01*
X73863Y43759D01*
X73972Y43780D01*
X74065Y43842D01*
X74500Y44278D01*
X74562Y44370D01*
X74579Y44455D01*
X74591Y44482D01*
X74592Y44526D01*
X74595Y44558D01*
X74599Y44582D01*
X74599Y44585D01*
X74809D01*
X74927Y44585D01*
X74927Y44585D01*
X75090Y44631D01*
X75090Y44631D01*
X75777D01*
X75989Y44419D01*
X75983Y43036D01*
X75975Y41275D01*
X75086Y40386D01*
X68051D01*
X67952Y40514D01*
Y40686D01*
X67908Y40852D01*
X67822Y41001D01*
X67701Y41122D01*
X67552Y41208D01*
X67615Y41501D01*
X69199D01*
Y43306D01*
X67247D01*
Y43354D01*
X67024D01*
Y42404D01*
X66770D01*
Y43354D01*
X66688D01*
X66675Y43385D01*
X66660Y43460D01*
X66598Y43553D01*
X66598Y43553D01*
X66450Y43701D01*
X66357Y43763D01*
X66248Y43785D01*
X66248Y43785D01*
X65065D01*
X64956Y43763D01*
X64863Y43701D01*
X64863Y43701D01*
X64697Y43535D01*
X64575Y43375D01*
X63575D01*
X63530Y43306D01*
X63247D01*
Y43354D01*
X63024D01*
Y42404D01*
X62770D01*
Y43354D01*
X62547D01*
Y43306D01*
X61863D01*
X61732Y43600D01*
X62501Y44369D01*
X62501Y44369D01*
X62563Y44462D01*
X62585Y44571D01*
Y45440D01*
X62585Y45440D01*
X62632Y45460D01*
X62786Y45615D01*
X62870Y45817D01*
Y46035D01*
X62786Y46238D01*
X62632Y46392D01*
X62430Y46476D01*
X62211D01*
X62009Y46392D01*
X61854Y46238D01*
X61770Y46035D01*
Y45817D01*
X61854Y45615D01*
X62009Y45460D01*
X62015Y45457D01*
Y44689D01*
X61530Y44204D01*
X61176Y44274D01*
X61176Y44275D01*
X61021Y44430D01*
X60819Y44514D01*
X60600D01*
X60398Y44430D01*
X60244Y44275D01*
X60160Y44073D01*
Y43854D01*
X60198Y43762D01*
X60190Y43756D01*
X60189Y43748D01*
X60135Y43668D01*
X60114Y43558D01*
X60024Y43465D01*
Y43404D01*
X60024Y43357D01*
X60037Y43161D01*
X60040Y43153D01*
X60044Y43151D01*
X60024D01*
Y42404D01*
X59770D01*
Y43151D01*
X59750D01*
X59754Y43153D01*
X59757Y43161D01*
X59760Y43174D01*
X59763Y43191D01*
X59767Y43242D01*
X59769Y43354D01*
X59547D01*
Y43306D01*
X58747D01*
Y43354D01*
X58535D01*
X58524Y43365D01*
X58524Y43357D01*
X58537Y43161D01*
X58540Y43153D01*
X58544Y43151D01*
X58250D01*
X58254Y43153D01*
X58257Y43161D01*
X58260Y43174D01*
X58263Y43191D01*
X58267Y43242D01*
X58270Y43405D01*
X58487D01*
X58310Y43595D01*
Y43813D01*
X58226Y44015D01*
X58071Y44170D01*
X57869Y44254D01*
X57650D01*
X57448Y44170D01*
X57346Y44068D01*
X57164Y44143D01*
X56945D01*
X56922Y44133D01*
X56622Y44330D01*
Y44403D01*
X56622Y44403D01*
X56600Y44512D01*
X56539Y44604D01*
X56539Y44604D01*
X56310Y44832D01*
X56218Y44894D01*
X56143Y44909D01*
X56111Y44923D01*
X56097Y44923D01*
Y45027D01*
X55147D01*
X54197D01*
Y44804D01*
X54245D01*
Y43852D01*
X54515D01*
X54619Y43696D01*
Y43477D01*
X54703Y43275D01*
X54857Y43120D01*
X55059Y43036D01*
X55278D01*
X55480Y43120D01*
X55560Y43199D01*
X55757Y43241D01*
X55926Y43194D01*
X56013Y43107D01*
X56215Y43024D01*
X56434D01*
X56595Y42916D01*
Y41501D01*
X57547D01*
Y41454D01*
X57770D01*
Y42404D01*
X57996D01*
Y42531D01*
X58041Y42532D01*
Y42658D01*
X58043Y42634D01*
X58051Y42612D01*
X58064Y42593D01*
X58082Y42577D01*
X58105Y42563D01*
X58133Y42551D01*
X58147Y42548D01*
X58161Y42551D01*
X58189Y42563D01*
X58212Y42577D01*
X58230Y42593D01*
X58243Y42612D01*
X58251Y42634D01*
X58253Y42658D01*
Y42532D01*
X58298Y42531D01*
Y42277D01*
X58253Y42276D01*
Y42150D01*
X58251Y42174D01*
X58243Y42196D01*
X58230Y42215D01*
X58212Y42231D01*
X58189Y42245D01*
X58161Y42257D01*
X58147Y42260D01*
X58133Y42257D01*
X58105Y42245D01*
X58082Y42231D01*
X58064Y42215D01*
X58051Y42196D01*
X58043Y42174D01*
X58041Y42150D01*
Y42276D01*
X58024Y42276D01*
Y41454D01*
X58270D01*
X58300Y41381D01*
X58323Y41134D01*
X58085Y40959D01*
X58072Y40959D01*
X58059Y40952D01*
X57598D01*
Y39248D01*
X57598D01*
X57698Y39052D01*
Y37348D01*
X57698Y37348D01*
X57634Y37163D01*
X57622Y37103D01*
X57615Y37082D01*
X57605Y37059D01*
X57365Y37045D01*
X57258Y37059D01*
X57184Y37182D01*
X57162Y37259D01*
X57150Y37364D01*
X57150Y37575D01*
Y38073D01*
X56627D01*
Y37300D01*
X56853D01*
X56877Y37300D01*
X57085Y37273D01*
X57160Y37150D01*
X57182Y37073D01*
X57194Y36968D01*
X57194Y36757D01*
Y35076D01*
X58136D01*
X58416Y35028D01*
X58541Y35028D01*
X58870D01*
Y36054D01*
X59124D01*
Y35028D01*
X59453D01*
X59578Y35028D01*
X59858Y35076D01*
X60800D01*
Y36756D01*
X60800Y36957D01*
X60816Y37087D01*
X60826Y37121D01*
X60921Y37266D01*
X61088Y37296D01*
X61122Y37300D01*
X61146Y37300D01*
X61373D01*
Y38073D01*
X60850D01*
Y37576D01*
X60850Y37375D01*
X60834Y37245D01*
X60824Y37210D01*
X60729Y37066D01*
X60651Y37052D01*
X60489Y37056D01*
X60475Y37089D01*
X60460Y37163D01*
X60398Y37255D01*
X60398Y37255D01*
X60302Y37351D01*
Y39052D01*
X60522Y39248D01*
X60602D01*
Y40952D01*
X60238D01*
X60226Y40958D01*
X60201Y40960D01*
X60183Y40964D01*
X60159Y40972D01*
X60131Y40985D01*
X60098Y41004D01*
X60061Y41028D01*
X60022Y41057D01*
X59929Y41137D01*
X59911Y41154D01*
X59931Y41302D01*
X59933Y41307D01*
X60024Y41454D01*
X60247D01*
Y41501D01*
X61047D01*
Y41454D01*
X61270D01*
Y42404D01*
X61524D01*
Y41454D01*
X61747D01*
Y41501D01*
X62233D01*
X62438Y41213D01*
Y40994D01*
X62522Y40792D01*
X62677Y40638D01*
X62686Y40593D01*
X62450Y40350D01*
Y33750D01*
X63475Y32725D01*
X73900D01*
X74713Y31912D01*
X74529Y31672D01*
X74435Y31726D01*
X74066Y31825D01*
X74002D01*
Y30375D01*
Y28925D01*
X74066D01*
X74435Y29024D01*
X74765Y29215D01*
X74975Y29424D01*
X75226Y29353D01*
X75275Y29319D01*
Y26281D01*
X75226Y26247D01*
X74975Y26176D01*
X74765Y26385D01*
X74435Y26576D01*
X74066Y26675D01*
X74002D01*
Y25225D01*
X73875D01*
Y25098D01*
X72425D01*
Y25034D01*
X72524Y24665D01*
X72715Y24335D01*
X72849Y24200D01*
X72725Y23900D01*
X69875D01*
X69751Y24200D01*
X69885Y24335D01*
X70076Y24665D01*
X70175Y25034D01*
Y25098D01*
X68725D01*
Y25225D01*
X68598D01*
Y26675D01*
X68534D01*
X68165Y26576D01*
X67835Y26385D01*
X67565Y26115D01*
X67527Y26051D01*
X67227Y26131D01*
Y26352D01*
X67227Y26461D01*
X67235Y26474D01*
X67235Y26491D01*
X67237Y26497D01*
X67227Y26652D01*
X67129Y26912D01*
X67217Y27073D01*
X67432Y27280D01*
X67475Y27283D01*
X67566Y27285D01*
X67576Y27290D01*
X69331D01*
X69339Y27285D01*
X69421Y27280D01*
X69500Y27266D01*
X69586Y27240D01*
X69679Y27204D01*
X69779Y27155D01*
X69886Y27095D01*
X69997Y27023D01*
X70243Y26840D01*
X70374Y26730D01*
X70392Y26724D01*
X70439Y26678D01*
X70759Y26493D01*
X71115Y26398D01*
X71485D01*
X71841Y26493D01*
X72161Y26678D01*
X72422Y26939D01*
X72607Y27259D01*
X72702Y27615D01*
Y27985D01*
X72607Y28341D01*
X72422Y28661D01*
X72161Y28922D01*
X71841Y29107D01*
X71485Y29202D01*
X71115D01*
X70759Y29107D01*
X70439Y28922D01*
X70236Y28719D01*
X70216Y28709D01*
X70111Y28589D01*
X70010Y28485D01*
X69911Y28394D01*
X69816Y28316D01*
X69723Y28252D01*
X69633Y28201D01*
X69548Y28163D01*
X69465Y28136D01*
X69386Y28120D01*
X69298Y28115D01*
X69297Y28114D01*
X69296Y28114D01*
X69288Y28110D01*
X67576D01*
X67566Y28115D01*
X67475Y28117D01*
X67432Y28120D01*
X67217Y28327D01*
X67135Y28593D01*
X67227Y28748D01*
X67237Y28903D01*
X67235Y28908D01*
X67235Y28926D01*
X67227Y28939D01*
Y29469D01*
X67527Y29549D01*
X67565Y29485D01*
X67835Y29215D01*
X68165Y29024D01*
X68534Y28925D01*
X68598D01*
Y30375D01*
Y31825D01*
X68534D01*
X68165Y31726D01*
X67835Y31535D01*
X67575Y31276D01*
X67528Y31278D01*
X67275Y31364D01*
Y31430D01*
X66727D01*
Y30830D01*
Y30230D01*
X66983D01*
X67011Y30200D01*
X67026Y30152D01*
X66806Y29852D01*
X65973D01*
Y29048D01*
X65973Y28931D01*
X65969Y28924D01*
X65969Y28910D01*
X65968Y28907D01*
X65973Y28748D01*
X65984D01*
X66163Y28503D01*
X66113Y28327D01*
X66103Y28172D01*
X66108Y28160D01*
X66107Y28135D01*
X66113Y28128D01*
Y27272D01*
X66107Y27265D01*
X66108Y27240D01*
X66103Y27228D01*
X66113Y27073D01*
X66166Y26889D01*
X65986Y26652D01*
X65973Y26652D01*
X65968Y26497D01*
X65969Y26494D01*
X65968Y26480D01*
X65973Y26472D01*
Y25548D01*
X67000D01*
X67013Y25541D01*
X67037Y25470D01*
X66823Y25170D01*
X66727D01*
Y24570D01*
X66600D01*
Y24443D01*
X65925D01*
X65925Y23970D01*
X65654Y23900D01*
X65446D01*
X65175Y23970D01*
X65175Y24200D01*
Y24443D01*
X64500D01*
X63825D01*
X63825Y23970D01*
X63554Y23900D01*
X62646D01*
X62375Y23970D01*
X62375Y24200D01*
Y24443D01*
X61700D01*
X61025D01*
X61025Y23970D01*
X60754Y23900D01*
X60546D01*
X60275Y23970D01*
X60275Y24200D01*
Y24443D01*
X59600D01*
X58925D01*
X58925Y23970D01*
X58654Y23900D01*
X51625D01*
Y36073D01*
X51925Y36197D01*
X51988Y36134D01*
X52191Y36050D01*
X52409D01*
X52612Y36134D01*
X52766Y36288D01*
X52850Y36491D01*
Y36709D01*
X52766Y36912D01*
X52612Y37066D01*
X52409Y37150D01*
X52191D01*
X51988Y37066D01*
X51925Y37003D01*
X51625Y37127D01*
Y43700D01*
X52280Y44355D01*
X52487D01*
X52689Y44438D01*
X52844Y44593D01*
X52927Y44795D01*
Y45002D01*
X53700Y45775D01*
X54127D01*
X54197Y45504D01*
X54197D01*
Y45281D01*
X55147D01*
X56097D01*
Y45504D01*
X56060D01*
X56054Y45804D01*
X56125Y45875D01*
X56103Y47519D01*
X56380Y47800D01*
X57900D01*
X59625Y49525D01*
X59625Y52825D01*
X60100Y53300D01*
X65925D01*
X66325Y52900D01*
D02*
G37*
G36*
X44026Y40229D02*
X44005Y40221D01*
X43986Y40208D01*
X43970Y40191D01*
X43957Y40168D01*
X43945Y40141D01*
X43937Y40108D01*
X43932Y40077D01*
X43933Y40067D01*
X43939Y40041D01*
X43947Y40016D01*
X43957Y39993D01*
X43968Y39971D01*
X43981Y39951D01*
X43995Y39932D01*
X44012Y39914D01*
X43592D01*
X43608Y39932D01*
X43623Y39951D01*
X43635Y39971D01*
X43647Y39993D01*
X43656Y40016D01*
X43664Y40041D01*
X43670Y40067D01*
X43672Y40077D01*
X43666Y40108D01*
X43658Y40141D01*
X43647Y40168D01*
X43633Y40191D01*
X43617Y40208D01*
X43598Y40221D01*
X43577Y40229D01*
X43554Y40231D01*
X44050D01*
X44026Y40229D01*
D02*
G37*
G36*
X60092Y39404D02*
X60070Y39396D01*
X60051Y39383D01*
X60035Y39365D01*
X60021Y39342D01*
X60009Y39314D01*
X60000Y39280D01*
X59994Y39242D01*
X59990Y39198D01*
X59989Y39150D01*
X59990Y39102D01*
X59994Y39058D01*
X60000Y39020D01*
X60009Y38986D01*
X60021Y38958D01*
X60035Y38935D01*
X60051Y38917D01*
X60070Y38904D01*
X60092Y38896D01*
X60116Y38894D01*
X59608D01*
X59632Y38896D01*
X59654Y38904D01*
X59673Y38917D01*
X59689Y38935D01*
X59703Y38958D01*
X59715Y38986D01*
X59724Y39020D01*
X59730Y39058D01*
X59734Y39102D01*
X59735Y39150D01*
X59734Y39198D01*
X59730Y39242D01*
X59724Y39280D01*
X59715Y39314D01*
X59703Y39342D01*
X59689Y39365D01*
X59673Y39383D01*
X59654Y39396D01*
X59632Y39404D01*
X59608Y39406D01*
X60116D01*
X60092Y39404D01*
D02*
G37*
G36*
X58562D02*
X58540Y39396D01*
X58521Y39383D01*
X58505Y39365D01*
X58491Y39342D01*
X58479Y39314D01*
X58470Y39280D01*
X58464Y39242D01*
X58460Y39198D01*
X58459Y39150D01*
X58460Y39102D01*
X58464Y39058D01*
X58470Y39020D01*
X58479Y38986D01*
X58491Y38958D01*
X58505Y38935D01*
X58521Y38917D01*
X58540Y38904D01*
X58562Y38896D01*
X58586Y38894D01*
X58078D01*
X58102Y38896D01*
X58124Y38904D01*
X58143Y38917D01*
X58159Y38935D01*
X58173Y38958D01*
X58185Y38986D01*
X58194Y39020D01*
X58200Y39058D01*
X58204Y39102D01*
X58205Y39150D01*
X58204Y39198D01*
X58200Y39242D01*
X58194Y39280D01*
X58185Y39314D01*
X58173Y39342D01*
X58159Y39365D01*
X58143Y39383D01*
X58124Y39396D01*
X58102Y39404D01*
X58078Y39406D01*
X58586D01*
X58562Y39404D01*
D02*
G37*
G36*
X68106Y37146D02*
X68104Y37170D01*
X68096Y37192D01*
X68083Y37211D01*
X68065Y37227D01*
X68042Y37241D01*
X68014Y37253D01*
X67980Y37262D01*
X67942Y37268D01*
X67898Y37272D01*
X67849Y37273D01*
Y37527D01*
X67898Y37528D01*
X67942Y37532D01*
X67980Y37538D01*
X68014Y37547D01*
X68042Y37559D01*
X68065Y37573D01*
X68083Y37589D01*
X68096Y37608D01*
X68104Y37630D01*
X68106Y37654D01*
Y37146D01*
D02*
G37*
G36*
X65499Y37630D02*
X65507Y37608D01*
X65520Y37589D01*
X65538Y37573D01*
X65560Y37559D01*
X65588Y37547D01*
X65621Y37538D01*
X65660Y37532D01*
X65703Y37528D01*
X65751Y37527D01*
Y37273D01*
X65703Y37272D01*
X65660Y37268D01*
X65621Y37262D01*
X65588Y37253D01*
X65560Y37241D01*
X65538Y37227D01*
X65520Y37211D01*
X65507Y37192D01*
X65499Y37170D01*
X65497Y37146D01*
Y37654D01*
X65499Y37630D01*
D02*
G37*
G36*
X60325Y37020D02*
X60329Y36963D01*
X60332Y36940D01*
X60337Y36921D01*
X60342Y36905D01*
X60349Y36892D01*
X60356Y36883D01*
X60365Y36878D01*
X60375Y36876D01*
X60019D01*
X60029Y36878D01*
X60038Y36883D01*
X60045Y36892D01*
X60052Y36905D01*
X60057Y36921D01*
X60062Y36940D01*
X60065Y36963D01*
X60068Y36990D01*
X60070Y37054D01*
X60324D01*
X60325Y37020D01*
D02*
G37*
G36*
X58025D02*
X58029Y36963D01*
X58032Y36940D01*
X58037Y36921D01*
X58042Y36905D01*
X58049Y36892D01*
X58056Y36883D01*
X58065Y36878D01*
X58075Y36876D01*
X57719D01*
X57729Y36878D01*
X57738Y36883D01*
X57745Y36892D01*
X57752Y36905D01*
X57757Y36921D01*
X57762Y36940D01*
X57765Y36963D01*
X57768Y36990D01*
X57770Y37054D01*
X58024D01*
X58025Y37020D01*
D02*
G37*
G36*
X69595Y36204D02*
X69573Y36196D01*
X69554Y36183D01*
X69538Y36165D01*
X69524Y36142D01*
X69512Y36114D01*
X69503Y36080D01*
X69497Y36042D01*
X69493Y35998D01*
X69492Y35949D01*
X69238D01*
X69237Y35998D01*
X69233Y36042D01*
X69227Y36080D01*
X69218Y36114D01*
X69206Y36142D01*
X69192Y36165D01*
X69176Y36183D01*
X69157Y36196D01*
X69135Y36204D01*
X69111Y36206D01*
X69619D01*
X69595Y36204D01*
D02*
G37*
G36*
X64700Y36204D02*
X64678Y36196D01*
X64659Y36183D01*
X64643Y36165D01*
X64629Y36142D01*
X64617Y36114D01*
X64608Y36080D01*
X64602Y36042D01*
X64598Y35998D01*
X64597Y35949D01*
X64343D01*
X64342Y35998D01*
X64338Y36042D01*
X64332Y36080D01*
X64323Y36114D01*
X64311Y36142D01*
X64297Y36165D01*
X64281Y36183D01*
X64262Y36196D01*
X64240Y36204D01*
X64216Y36206D01*
X64724D01*
X64700Y36204D01*
D02*
G37*
G36*
X69493Y35377D02*
X69497Y35333D01*
X69503Y35295D01*
X69512Y35261D01*
X69524Y35233D01*
X69538Y35210D01*
X69554Y35192D01*
X69573Y35179D01*
X69595Y35171D01*
X69619Y35169D01*
X69111D01*
X69135Y35171D01*
X69157Y35179D01*
X69176Y35192D01*
X69192Y35210D01*
X69206Y35233D01*
X69218Y35261D01*
X69227Y35295D01*
X69233Y35333D01*
X69237Y35377D01*
X69238Y35426D01*
X69492D01*
X69493Y35377D01*
D02*
G37*
G36*
X64598D02*
X64602Y35333D01*
X64608Y35295D01*
X64617Y35261D01*
X64629Y35233D01*
X64643Y35210D01*
X64659Y35192D01*
X64678Y35179D01*
X64700Y35171D01*
X64724Y35169D01*
X64216D01*
X64240Y35171D01*
X64262Y35179D01*
X64281Y35192D01*
X64297Y35210D01*
X64311Y35233D01*
X64323Y35261D01*
X64332Y35295D01*
X64338Y35333D01*
X64342Y35377D01*
X64343Y35426D01*
X64597D01*
X64598Y35377D01*
D02*
G37*
G36*
X67072Y28903D02*
X67036Y28898D01*
X67004Y28883D01*
X66975Y28858D01*
X66951Y28823D01*
X66930Y28778D01*
X66913Y28723D01*
X66900Y28658D01*
X66890Y28583D01*
X66887Y28543D01*
X66899Y28417D01*
X66911Y28352D01*
X66927Y28297D01*
X66947Y28252D01*
X66970Y28217D01*
X66997Y28192D01*
X67028Y28177D01*
X67062Y28172D01*
X66268D01*
X66290Y28177D01*
X66309Y28192D01*
X66326Y28217D01*
X66341Y28252D01*
X66354Y28297D01*
X66364Y28352D01*
X66372Y28417D01*
X66378Y28520D01*
X66372Y28584D01*
X66360Y28659D01*
X66342Y28725D01*
X66320Y28780D01*
X66293Y28825D01*
X66260Y28860D01*
X66223Y28886D01*
X66180Y28901D01*
X66132Y28906D01*
X67072Y28903D01*
D02*
G37*
G36*
X70480Y26856D02*
X70346Y26969D01*
X70091Y27159D01*
X69971Y27236D01*
X69856Y27302D01*
X69745Y27355D01*
X69639Y27397D01*
X69538Y27426D01*
X69442Y27444D01*
X69350Y27450D01*
X69309Y27950D01*
X69407Y27957D01*
X69507Y27976D01*
X69607Y28009D01*
X69708Y28054D01*
X69811Y28113D01*
X69915Y28184D01*
X70019Y28269D01*
X70125Y28367D01*
X70232Y28477D01*
X70340Y28601D01*
X70480Y26856D01*
D02*
G37*
G36*
X36300Y27000D02*
Y26800D01*
X35500Y26900D01*
Y27000D01*
X35700Y27800D01*
X36000D01*
X36300Y27000D01*
D02*
G37*
G36*
X67067Y28130D02*
X67082Y28092D01*
X67107Y28059D01*
X67142Y28030D01*
X67187Y28005D01*
X67242Y27986D01*
X67307Y27970D01*
X67382Y27959D01*
X67467Y27952D01*
X67562Y27950D01*
Y27450D01*
X67467Y27448D01*
X67382Y27441D01*
X67307Y27430D01*
X67242Y27414D01*
X67187Y27395D01*
X67142Y27370D01*
X67107Y27341D01*
X67082Y27308D01*
X67067Y27270D01*
X67062Y27228D01*
X67028Y27223D01*
X66997Y27208D01*
X66970Y27183D01*
X66947Y27148D01*
X66927Y27103D01*
X66911Y27048D01*
X66899Y26983D01*
X66890Y26908D01*
X66887Y26871D01*
X66900Y26742D01*
X66913Y26677D01*
X66930Y26622D01*
X66951Y26577D01*
X66975Y26542D01*
X67004Y26517D01*
X67036Y26502D01*
X67072Y26497D01*
X66132D01*
X66180Y26502D01*
X66223Y26517D01*
X66260Y26542D01*
X66293Y26577D01*
X66320Y26622D01*
X66342Y26677D01*
X66360Y26742D01*
X66372Y26817D01*
X66378Y26874D01*
X66364Y27048D01*
X66354Y27103D01*
X66341Y27148D01*
X66326Y27183D01*
X66309Y27208D01*
X66290Y27223D01*
X66268Y27228D01*
X67062D01*
Y28172D01*
X67067Y28130D01*
D02*
G37*
G36*
X42052Y26514D02*
X42160Y26406D01*
X42219Y26264D01*
Y26111D01*
X42160Y25969D01*
X42127Y25936D01*
X42078Y25819D01*
X42127Y25702D01*
X42211Y25618D01*
X42270Y25477D01*
Y25323D01*
X42211Y25182D01*
X42103Y25074D01*
X41961Y25015D01*
X41808D01*
X41667Y25074D01*
X41555Y25185D01*
X41539Y25192D01*
X41530Y25206D01*
X41483Y25215D01*
X41438Y25233D01*
X41423Y25227D01*
X41406Y25230D01*
X41379Y25225D01*
X41339Y25198D01*
X41294Y25180D01*
X41163Y25048D01*
X41021Y24990D01*
X40868D01*
X40727Y25048D01*
X40646Y25129D01*
X40643Y25130D01*
X40641Y25134D01*
X40585Y25154D01*
X40529Y25177D01*
X40526Y25176D01*
X40523Y25177D01*
X40288Y25167D01*
X40267Y25158D01*
X40243Y25159D01*
X40141Y25126D01*
X40136Y25122D01*
X40130D01*
X40089Y25081D01*
X40045Y25044D01*
X40045Y25037D01*
X40040Y25032D01*
X40029Y25004D01*
X39920Y24896D01*
X39779Y24837D01*
X39626D01*
X39580Y24856D01*
X39551Y24917D01*
X39543Y24982D01*
X39548Y25007D01*
X39724Y25356D01*
X39727Y25396D01*
X39742Y25432D01*
X39742Y25433D01*
X39732Y25456D01*
X39734Y25482D01*
X39708Y25512D01*
X39692Y25549D01*
X39691Y25549D01*
X39668Y25558D01*
X39655Y25573D01*
X39669Y25700D01*
X40375D01*
Y26173D01*
X39700D01*
Y26427D01*
X40375D01*
Y26466D01*
X40483Y26532D01*
X40533Y26507D01*
X40540Y26506D01*
X40545Y26501D01*
X40602D01*
X40658Y26497D01*
X40664Y26501D01*
X40671D01*
X40843Y26572D01*
X40996D01*
X41138Y26514D01*
X41260Y26391D01*
X41377Y26343D01*
X41493Y26391D01*
X41616Y26514D01*
X41757Y26572D01*
X41910D01*
X42052Y26514D01*
D02*
G37*
G36*
X38813Y26695D02*
X39243D01*
Y25883D01*
X39026Y25420D01*
X39577Y25430D01*
X39395Y25070D01*
X38862D01*
X38481Y24257D01*
X37000Y26966D01*
X37060Y27026D01*
X38482D01*
X38813Y26695D01*
D02*
G37*
%LPC*%
G36*
X69247Y58854D02*
X69024D01*
Y58031D01*
X69247D01*
Y58854D01*
D02*
G37*
G36*
Y57777D02*
X69024D01*
Y56954D01*
X69247D01*
Y57777D01*
D02*
G37*
G36*
X66270Y58854D02*
X66024D01*
Y57904D01*
Y56954D01*
X66270D01*
Y57904D01*
Y58854D01*
D02*
G37*
G36*
X65770D02*
X65524D01*
Y57904D01*
Y56954D01*
X65770D01*
Y57904D01*
Y58854D01*
D02*
G37*
G36*
X64309Y59752D02*
X64090D01*
X63888Y59668D01*
X63733Y59513D01*
X63649Y59311D01*
Y59092D01*
X63524Y58960D01*
Y57904D01*
Y56954D01*
X63770D01*
Y57904D01*
X64024D01*
Y56954D01*
X64270D01*
Y57904D01*
X64524D01*
Y56954D01*
X64770D01*
Y57904D01*
X65024D01*
Y56954D01*
X65270D01*
Y57904D01*
Y58854D01*
X64975D01*
X64749Y59092D01*
Y59311D01*
X64665Y59513D01*
X64511Y59668D01*
X64309Y59752D01*
D02*
G37*
G36*
X62294Y59750D02*
X62075D01*
X61873Y59667D01*
X61718Y59512D01*
X61634Y59310D01*
Y59091D01*
X61516Y58928D01*
X61247Y58854D01*
Y58854D01*
X61024D01*
Y57904D01*
Y56954D01*
X61247D01*
Y57001D01*
X62047D01*
Y56954D01*
X62270D01*
Y57904D01*
X62524D01*
Y56954D01*
X62770D01*
Y57904D01*
X63024D01*
Y56954D01*
X63270D01*
Y57904D01*
Y58854D01*
X62961D01*
X62734Y59091D01*
Y59310D01*
X62650Y59512D01*
X62496Y59667D01*
X62294Y59750D01*
D02*
G37*
G36*
X60770Y58854D02*
X60524D01*
Y57904D01*
Y56954D01*
X60770D01*
Y57904D01*
Y58854D01*
D02*
G37*
G36*
X71597Y56504D02*
X70774D01*
Y56281D01*
X71597D01*
Y56504D01*
D02*
G37*
G36*
X70520D02*
X69697D01*
Y56281D01*
X70520D01*
Y56504D01*
D02*
G37*
G36*
X46112Y59000D02*
X45640D01*
Y58452D01*
X46113D01*
Y58725D01*
X46112Y58755D01*
X46110Y58784D01*
X46108Y58794D01*
X45986D01*
X46010Y58796D01*
X46032Y58804D01*
X46051Y58817D01*
X46067Y58835D01*
X46081Y58858D01*
X46087Y58873D01*
X46083Y58885D01*
X46072Y58906D01*
X46059Y58926D01*
X46045Y58944D01*
X46029Y58961D01*
X46108Y58962D01*
X46112Y59000D01*
D02*
G37*
G36*
X47872Y58915D02*
X47866Y58907D01*
X47852Y58888D01*
X47840Y58867D01*
X47830Y58845D01*
X47822Y58822D01*
X47819Y58814D01*
X47822Y58803D01*
X47834Y58775D01*
X47848Y58753D01*
X47864Y58735D01*
X47883Y58722D01*
X47905Y58714D01*
X47929Y58712D01*
X47803D01*
X47802Y58684D01*
X47802D01*
Y58442D01*
X48350D01*
Y58915D01*
X47872D01*
D02*
G37*
G36*
X48350Y58188D02*
X47802D01*
Y57715D01*
X48350D01*
Y58188D01*
D02*
G37*
G36*
X55020Y56504D02*
X54197D01*
Y56281D01*
X54390Y56294D01*
X54398Y56297D01*
X54400Y56301D01*
Y56281D01*
X55020D01*
Y56504D01*
D02*
G37*
G36*
X71127Y62766D02*
Y62202D01*
X71691D01*
X71652Y62345D01*
X71560Y62505D01*
X71430Y62635D01*
X71270Y62727D01*
X71127Y62766D01*
D02*
G37*
G36*
X70873Y62766D02*
X70730Y62727D01*
X70570Y62635D01*
X70440Y62505D01*
X70348Y62345D01*
X70309Y62202D01*
X70873D01*
Y62766D01*
D02*
G37*
G36*
X38305Y62025D02*
X37482D01*
Y61202D01*
X38305D01*
Y62025D01*
D02*
G37*
G36*
X37228D02*
X36405D01*
Y61202D01*
X37228D01*
Y62025D01*
D02*
G37*
G36*
X38305Y60948D02*
X37482D01*
Y60125D01*
X38305D01*
Y60948D01*
D02*
G37*
G36*
X37228D02*
X36405D01*
Y60125D01*
X37228D01*
Y60948D01*
D02*
G37*
G36*
X40075Y60475D02*
X39552D01*
Y59702D01*
X40075D01*
Y60475D01*
D02*
G37*
G36*
X39298D02*
X38775D01*
Y59702D01*
X39298D01*
Y60475D01*
D02*
G37*
G36*
X40075Y59448D02*
X39552D01*
Y58675D01*
X40075D01*
Y59448D01*
D02*
G37*
G36*
X39298D02*
X38775D01*
Y58675D01*
X39298D01*
Y59448D01*
D02*
G37*
G36*
X77712Y62977D02*
X77288D01*
X76872Y62895D01*
X76480Y62732D01*
X76128Y62497D01*
X75828Y62197D01*
X75593Y61845D01*
X75430Y61453D01*
X75348Y61037D01*
Y60613D01*
X75430Y60197D01*
X75593Y59805D01*
X75828Y59453D01*
X76128Y59153D01*
X76480Y58918D01*
X76872Y58755D01*
X77288Y58673D01*
X77712D01*
X78128Y58755D01*
X78520Y58918D01*
X78872Y59153D01*
X79172Y59453D01*
X79407Y59805D01*
X79570Y60197D01*
X79652Y60613D01*
Y61037D01*
X79570Y61453D01*
X79407Y61845D01*
X79172Y62197D01*
X78872Y62497D01*
X78520Y62732D01*
X78128Y62895D01*
X77712Y62977D01*
D02*
G37*
G36*
X33775Y58425D02*
X33252D01*
Y57852D01*
X33569D01*
Y57979D01*
X33571Y57955D01*
X33579Y57933D01*
X33592Y57914D01*
X33610Y57898D01*
X33633Y57884D01*
X33661Y57872D01*
X33695Y57863D01*
X33733Y57857D01*
X33775Y57853D01*
Y58425D01*
D02*
G37*
G36*
X28712Y62977D02*
X28288D01*
X27872Y62895D01*
X27480Y62732D01*
X27128Y62497D01*
X26828Y62197D01*
X26593Y61845D01*
X26430Y61453D01*
X26348Y61037D01*
Y60613D01*
X26430Y60197D01*
X26593Y59805D01*
X26828Y59453D01*
X27128Y59153D01*
X27480Y58918D01*
X27872Y58755D01*
X28261Y58678D01*
X28354Y58473D01*
X28370Y58421D01*
X28153Y58237D01*
X28075Y58237D01*
X27750D01*
Y57638D01*
Y57037D01*
X28080D01*
X28111Y57036D01*
X28211Y56784D01*
X28104Y56660D01*
X26995D01*
Y55555D01*
X28250D01*
X28423Y55473D01*
Y55473D01*
X29627D01*
Y55890D01*
X29630Y55890D01*
X29654Y55894D01*
X29686Y55897D01*
X29730Y55898D01*
X29746Y55905D01*
X32404D01*
X32420Y55898D01*
X32464Y55897D01*
X32496Y55894D01*
X32520Y55890D01*
X32523Y55890D01*
Y55473D01*
X33727D01*
Y55709D01*
X33937Y55787D01*
X34027Y55795D01*
X34163Y55659D01*
X34366Y55575D01*
X34584D01*
X34787Y55659D01*
X34941Y55813D01*
X35025Y56016D01*
Y56234D01*
X34941Y56437D01*
X34787Y56591D01*
X34584Y56675D01*
X34366D01*
X34163Y56591D01*
X34027Y56455D01*
X33937Y56463D01*
X33727Y56541D01*
Y56745D01*
X33775Y57025D01*
X33775Y57058D01*
Y57597D01*
X33733Y57593D01*
X33695Y57587D01*
X33661Y57578D01*
X33633Y57566D01*
X33610Y57552D01*
X33592Y57536D01*
X33579Y57517D01*
X33571Y57495D01*
X33569Y57471D01*
Y57598D01*
X33125D01*
X32681D01*
Y57471D01*
X32679Y57495D01*
X32671Y57517D01*
X32658Y57536D01*
X32640Y57552D01*
X32617Y57566D01*
X32589Y57578D01*
X32555Y57587D01*
X32517Y57593D01*
X32475Y57597D01*
Y57058D01*
X32475Y57025D01*
X32517Y56775D01*
X32516Y56757D01*
X32511Y56730D01*
X32504Y56710D01*
X32229Y56475D01*
X29921D01*
X29646Y56710D01*
X29639Y56730D01*
X29634Y56757D01*
X29633Y56775D01*
X29675Y57025D01*
X29675Y57058D01*
Y57597D01*
X29633Y57593D01*
X29595Y57587D01*
X29561Y57578D01*
X29533Y57566D01*
X29510Y57552D01*
X29492Y57536D01*
X29479Y57517D01*
X29471Y57495D01*
X29469Y57471D01*
Y57598D01*
X29025D01*
Y57852D01*
X29469D01*
Y57979D01*
X29471Y57955D01*
X29479Y57933D01*
X29492Y57914D01*
X29510Y57898D01*
X29533Y57884D01*
X29561Y57872D01*
X29595Y57863D01*
X29633Y57857D01*
X29675Y57853D01*
Y58425D01*
X29005D01*
X28975Y58725D01*
X29128Y58755D01*
X29520Y58918D01*
X29872Y59153D01*
X30172Y59453D01*
X30407Y59805D01*
X30570Y60197D01*
X30652Y60613D01*
Y61037D01*
X30570Y61453D01*
X30407Y61845D01*
X30172Y62197D01*
X29872Y62497D01*
X29520Y62732D01*
X29128Y62895D01*
X28712Y62977D01*
D02*
G37*
G36*
X32998Y58425D02*
X32475D01*
Y57853D01*
X32517Y57857D01*
X32555Y57863D01*
X32589Y57872D01*
X32617Y57884D01*
X32640Y57898D01*
X32658Y57914D01*
X32671Y57933D01*
X32679Y57955D01*
X32681Y57979D01*
Y57852D01*
X32998D01*
Y58425D01*
D02*
G37*
G36*
X27496Y58237D02*
X26948D01*
Y57764D01*
X27496D01*
Y58237D01*
D02*
G37*
G36*
Y57511D02*
X26948D01*
Y57037D01*
X27496D01*
Y57511D01*
D02*
G37*
G36*
X33900Y49600D02*
X33527D01*
Y49227D01*
X33900D01*
Y49600D01*
D02*
G37*
G36*
X33273D02*
X32900D01*
Y49227D01*
X33273D01*
Y49600D01*
D02*
G37*
G36*
X36599Y48950D02*
X36376D01*
Y48727D01*
X36599D01*
Y48950D01*
D02*
G37*
G36*
X75911Y38052D02*
X75739D01*
X75573Y38008D01*
X75424Y37922D01*
X75303Y37801D01*
X75217Y37652D01*
X75173Y37486D01*
Y37314D01*
X75217Y37148D01*
X75303Y36999D01*
X75424Y36878D01*
X75573Y36792D01*
X75739Y36748D01*
X75911D01*
X76077Y36792D01*
X76226Y36878D01*
X76347Y36999D01*
X76433Y37148D01*
X76477Y37314D01*
Y37486D01*
X76433Y37652D01*
X76347Y37801D01*
X76226Y37922D01*
X76077Y38008D01*
X75911Y38052D01*
D02*
G37*
G36*
X66600Y35375D02*
X66127D01*
Y34827D01*
X66394D01*
Y35150D01*
X66398Y35107D01*
X66412Y35069D01*
X66435Y35035D01*
X66466Y35006D01*
X66507Y34981D01*
X66557Y34961D01*
X66600Y34950D01*
Y35375D01*
D02*
G37*
G36*
X68435D02*
X67962D01*
Y34827D01*
X68435D01*
Y35375D01*
D02*
G37*
G36*
X65873D02*
X65400D01*
Y34827D01*
X65873D01*
Y35375D01*
D02*
G37*
G36*
X67708D02*
X67235D01*
Y34950D01*
X67278Y34961D01*
X67328Y34981D01*
X67369Y35006D01*
X67400Y35035D01*
X67423Y35069D01*
X67437Y35107D01*
X67441Y35150D01*
Y34827D01*
X67708D01*
Y35375D01*
D02*
G37*
G36*
Y34573D02*
X67441D01*
Y34250D01*
X67437Y34293D01*
X67423Y34331D01*
X67400Y34365D01*
X67369Y34394D01*
X67328Y34419D01*
X67278Y34439D01*
X67235Y34451D01*
Y34025D01*
X67708D01*
Y34573D01*
D02*
G37*
G36*
X68435D02*
X67962D01*
Y34025D01*
X68435D01*
Y34573D01*
D02*
G37*
G36*
X66394D02*
X66127D01*
Y34025D01*
X66600D01*
Y34451D01*
X66557Y34439D01*
X66507Y34419D01*
X66466Y34394D01*
X66435Y34365D01*
X66412Y34331D01*
X66398Y34293D01*
X66394Y34250D01*
Y34573D01*
D02*
G37*
G36*
X65873D02*
X65400D01*
Y34025D01*
X65873D01*
Y34573D01*
D02*
G37*
%LPD*%
G36*
X28581Y57401D02*
X28579Y57425D01*
X28571Y57447D01*
X28558Y57466D01*
X28540Y57482D01*
X28517Y57496D01*
X28489Y57508D01*
X28455Y57517D01*
X28417Y57523D01*
X28373Y57527D01*
X28336Y57528D01*
X28300Y57527D01*
X28256Y57523D01*
X28217Y57517D01*
X28184Y57508D01*
X28156Y57496D01*
X28133Y57482D01*
X28115Y57466D01*
X28102Y57447D01*
X28094Y57425D01*
X28091Y57401D01*
Y57909D01*
X28094Y57885D01*
X28102Y57863D01*
X28115Y57844D01*
X28133Y57828D01*
X28156Y57814D01*
X28184Y57802D01*
X28217Y57793D01*
X28256Y57787D01*
X28300Y57783D01*
X28336Y57782D01*
X28373Y57783D01*
X28417Y57787D01*
X28455Y57793D01*
X28489Y57802D01*
X28517Y57814D01*
X28540Y57828D01*
X28558Y57844D01*
X28571Y57863D01*
X28579Y57885D01*
X28581Y57909D01*
Y57401D01*
D02*
G37*
G36*
Y55871D02*
X28579Y55895D01*
X28571Y55917D01*
X28558Y55936D01*
X28540Y55952D01*
X28517Y55966D01*
X28489Y55978D01*
X28455Y55987D01*
X28417Y55993D01*
X28373Y55997D01*
X28336Y55998D01*
X28300Y55997D01*
X28256Y55993D01*
X28217Y55987D01*
X28184Y55978D01*
X28156Y55966D01*
X28133Y55952D01*
X28115Y55936D01*
X28102Y55917D01*
X28094Y55895D01*
X28091Y55871D01*
Y56379D01*
X28094Y56355D01*
X28102Y56333D01*
X28115Y56314D01*
X28133Y56298D01*
X28156Y56284D01*
X28184Y56272D01*
X28217Y56263D01*
X28256Y56257D01*
X28300Y56253D01*
X28336Y56252D01*
X28373Y56253D01*
X28417Y56257D01*
X28455Y56263D01*
X28489Y56272D01*
X28517Y56284D01*
X28540Y56298D01*
X28558Y56314D01*
X28571Y56333D01*
X28579Y56355D01*
X28581Y56379D01*
Y55871D01*
D02*
G37*
G36*
X32681Y55936D02*
X32679Y55960D01*
X32671Y55982D01*
X32658Y56001D01*
X32640Y56017D01*
X32617Y56031D01*
X32589Y56043D01*
X32555Y56052D01*
X32517Y56058D01*
X32473Y56062D01*
X32424Y56063D01*
Y56317D01*
X32473Y56318D01*
X32517Y56322D01*
X32555Y56328D01*
X32589Y56337D01*
X32617Y56349D01*
X32640Y56363D01*
X32658Y56379D01*
X32671Y56398D01*
X32679Y56420D01*
X32681Y56444D01*
Y55936D01*
D02*
G37*
G36*
X29471Y56420D02*
X29479Y56398D01*
X29492Y56379D01*
X29510Y56363D01*
X29533Y56349D01*
X29561Y56337D01*
X29595Y56328D01*
X29633Y56322D01*
X29677Y56318D01*
X29726Y56317D01*
Y56063D01*
X29677Y56062D01*
X29633Y56058D01*
X29595Y56052D01*
X29561Y56043D01*
X29533Y56031D01*
X29510Y56017D01*
X29492Y56001D01*
X29479Y55982D01*
X29471Y55960D01*
X29469Y55936D01*
Y56444D01*
X29471Y56420D01*
D02*
G37*
G36*
X34262Y55914D02*
X34245Y55930D01*
X34226Y55944D01*
X34206Y55956D01*
X34184Y55967D01*
X34161Y55976D01*
X34137Y55984D01*
X34111Y55989D01*
X34083Y55993D01*
X34054Y55996D01*
X34024Y55997D01*
X34023Y56251D01*
X34053Y56252D01*
X34082Y56254D01*
X34110Y56258D01*
X34136Y56264D01*
X34160Y56272D01*
X34183Y56281D01*
X34204Y56292D01*
X34224Y56304D01*
X34243Y56318D01*
X34260Y56334D01*
X34262Y55914D01*
D02*
G37*
G36*
X33571Y56354D02*
X33579Y56332D01*
X33592Y56313D01*
X33610Y56296D01*
X33633Y56283D01*
X33661Y56271D01*
X33695Y56262D01*
X33733Y56256D01*
X33777Y56252D01*
X33826Y56251D01*
Y55997D01*
X33777Y55995D01*
X33733Y55992D01*
X33695Y55985D01*
X33661Y55976D01*
X33633Y55965D01*
X33610Y55951D01*
X33592Y55935D01*
X33579Y55915D01*
X33571Y55894D01*
X33569Y55870D01*
Y56378D01*
X33571Y56354D01*
D02*
G37*
%LPC*%
G36*
X36848Y42898D02*
X36400D01*
Y42400D01*
X36741D01*
X36738Y42432D01*
X36730Y42478D01*
X36718Y42517D01*
X36704Y42549D01*
X36687Y42574D01*
X36668Y42592D01*
X36646Y42603D01*
X36622Y42606D01*
X36848D01*
Y42898D01*
D02*
G37*
G36*
X45967Y42473D02*
X45494D01*
Y42131D01*
X45621D01*
X45596Y42129D01*
X45575Y42121D01*
X45556Y42108D01*
X45539Y42090D01*
X45525Y42067D01*
X45514Y42039D01*
X45505Y42005D01*
X45499Y41967D01*
X45495Y41925D01*
X45967D01*
Y42473D01*
D02*
G37*
G36*
X45240D02*
X44767D01*
Y41925D01*
X45238D01*
X45235Y41967D01*
X45228Y42005D01*
X45219Y42039D01*
X45208Y42067D01*
X45194Y42090D01*
X45177Y42108D01*
X45158Y42121D01*
X45137Y42129D01*
X45113Y42131D01*
X45240D01*
Y42473D01*
D02*
G37*
G36*
X45967Y41375D02*
X45495D01*
X45499Y41333D01*
X45505Y41295D01*
X45514Y41261D01*
X45525Y41233D01*
X45539Y41210D01*
X45556Y41192D01*
X45575Y41179D01*
X45596Y41171D01*
X45621Y41169D01*
X45494D01*
Y40827D01*
X45967D01*
Y41375D01*
D02*
G37*
G36*
X45238D02*
X44767D01*
Y40827D01*
X45240D01*
Y41169D01*
X45113D01*
X45137Y41171D01*
X45158Y41179D01*
X45177Y41192D01*
X45194Y41210D01*
X45208Y41233D01*
X45219Y41261D01*
X45228Y41295D01*
X45235Y41333D01*
X45238Y41375D01*
D02*
G37*
G36*
X31790Y41074D02*
X30686D01*
Y40731D01*
X29974D01*
X29958Y40738D01*
X29915Y40739D01*
X29883Y40742D01*
X29860Y40746D01*
X29855Y40747D01*
Y41074D01*
X28751D01*
Y39819D01*
X29855D01*
Y40145D01*
X29860Y40146D01*
X29883Y40150D01*
X29915Y40153D01*
X29958Y40154D01*
X29974Y40161D01*
X30686D01*
Y39819D01*
X31790D01*
Y41074D01*
D02*
G37*
G36*
X28373Y41121D02*
X27900D01*
Y40573D01*
X28373D01*
Y41121D01*
D02*
G37*
G36*
X27646D02*
X27173D01*
Y40575D01*
X27215Y40578D01*
X27253Y40585D01*
X27287Y40593D01*
X27315Y40605D01*
X27338Y40619D01*
X27356Y40635D01*
X27369Y40654D01*
X27377Y40676D01*
X27379Y40700D01*
Y40573D01*
X27646D01*
Y41121D01*
D02*
G37*
G36*
Y40319D02*
X27379D01*
Y40192D01*
X27377Y40216D01*
X27369Y40238D01*
X27356Y40257D01*
X27338Y40273D01*
X27315Y40287D01*
X27287Y40299D01*
X27253Y40308D01*
X27215Y40314D01*
X27173Y40318D01*
Y39771D01*
X27646D01*
Y40319D01*
D02*
G37*
G36*
X45967Y40573D02*
X45494D01*
Y40231D01*
X45656D01*
X45631Y40229D01*
X45610Y40221D01*
X45591Y40208D01*
X45574Y40190D01*
X45560Y40167D01*
X45549Y40139D01*
X45540Y40105D01*
X45535Y40073D01*
X45536Y40065D01*
X45542Y40039D01*
X45546Y40025D01*
X45967D01*
Y40573D01*
D02*
G37*
G36*
X45240D02*
X44767D01*
Y40025D01*
X45240D01*
Y40172D01*
X45229Y40190D01*
X45212Y40208D01*
X45193Y40221D01*
X45172Y40229D01*
X45148Y40231D01*
X45240D01*
Y40573D01*
D02*
G37*
G36*
X33320Y41074D02*
X32216D01*
Y39819D01*
X33320D01*
Y40161D01*
X33636D01*
X33676Y40066D01*
X33831Y39911D01*
X34033Y39827D01*
X34251D01*
X34454Y39911D01*
X34608Y40066D01*
X34692Y40268D01*
Y40487D01*
X34608Y40689D01*
X34454Y40843D01*
X34251Y40927D01*
X34033D01*
X33831Y40843D01*
X33718Y40731D01*
X33320D01*
Y41074D01*
D02*
G37*
G36*
X28373Y40319D02*
X27900D01*
Y39771D01*
X28373D01*
Y40319D01*
D02*
G37*
G36*
X44685Y38191D02*
X44653Y38159D01*
X43127Y37819D01*
X43124Y37820D01*
X43122Y37818D01*
X43118Y37817D01*
X42251D01*
X42228Y37827D01*
X42226Y37826D01*
X42225Y37827D01*
X41625Y37815D01*
X41616Y37811D01*
X40975D01*
X40930Y37802D01*
X40323D01*
Y36900D01*
X40275D01*
Y36663D01*
X40433Y36673D01*
X40458Y36680D01*
X40473Y36688D01*
X40478Y36697D01*
Y36527D01*
X40975D01*
X41675D01*
Y36648D01*
X41717Y36691D01*
X41989Y36778D01*
X42083Y36683D01*
X42200Y36635D01*
X43632D01*
X44436Y35831D01*
X44483Y35783D01*
X44483D01*
X44581Y35743D01*
X44615Y35709D01*
X44717Y35783D01*
X44835Y35902D01*
X45769Y36836D01*
X45817Y36883D01*
Y36883D01*
X45836Y36931D01*
X45891Y36985D01*
X45817Y37117D01*
X45719Y37214D01*
X44914Y38019D01*
X44817Y38117D01*
X44796Y38128D01*
X44789Y38139D01*
X44685Y38191D01*
D02*
G37*
G36*
X38685Y37865D02*
X34400D01*
X34283Y37817D01*
X34277Y37802D01*
X34248D01*
Y37730D01*
X34235Y37700D01*
Y34900D01*
X34256Y34850D01*
X34270Y34799D01*
X34643Y34319D01*
X34639Y34262D01*
X34557Y34069D01*
X34503Y34010D01*
X34285D01*
X34128Y33979D01*
X33995Y33890D01*
X33928Y33824D01*
X33917Y33818D01*
X33773Y33668D01*
X33410Y33305D01*
X33389Y33274D01*
X33299Y33222D01*
X33178Y33101D01*
X33092Y32952D01*
X33048Y32786D01*
Y32614D01*
X33092Y32448D01*
X33178Y32299D01*
X33299Y32178D01*
X33448Y32092D01*
X33614Y32048D01*
X33786D01*
X33952Y32092D01*
X34101Y32178D01*
X34222Y32299D01*
X34308Y32448D01*
X34352Y32614D01*
Y32730D01*
X34362Y32759D01*
X34358Y32825D01*
X34360Y32883D01*
X34366Y32937D01*
X34369Y32951D01*
X34534Y33185D01*
X34625Y33183D01*
X34700Y33177D01*
X34762Y33168D01*
X34811Y33156D01*
X34835Y33147D01*
Y31400D01*
X34883Y31283D01*
X34983Y31183D01*
X35100Y31135D01*
X35367D01*
X35390Y31112D01*
Y30100D01*
X35421Y29943D01*
X35498Y29828D01*
Y29823D01*
X35501D01*
X35510Y29810D01*
X35643Y29721D01*
X35800Y29690D01*
X35957Y29721D01*
X36100Y29775D01*
X36100Y29775D01*
X36373D01*
Y30425D01*
X36627D01*
Y29865D01*
X36750Y30050D01*
X36755Y29955D01*
X36770Y29870D01*
X36795Y29795D01*
X36806Y29775D01*
X36900D01*
Y29823D01*
X37470D01*
X37487Y29836D01*
X37502Y29851D01*
Y30218D01*
X37523Y30269D01*
X37561Y30339D01*
X37613Y30418D01*
X37709Y30533D01*
X38009Y30424D01*
Y30366D01*
X38117Y30493D01*
X38175Y30575D01*
X38217Y30650D01*
X38246Y30717D01*
X38260Y30776D01*
X38259Y30828D01*
X38245Y30873D01*
X38215Y30910D01*
X38557Y30596D01*
Y30629D01*
X38684D01*
Y30756D01*
X39359D01*
Y31229D01*
X39065D01*
X38919Y31529D01*
X38980Y31607D01*
X39012D01*
X39029Y31607D01*
X39048Y31602D01*
X39312Y31607D01*
Y31712D01*
X39312Y31712D01*
Y32712D01*
X38988D01*
X38986Y32715D01*
X38979Y32740D01*
X38971Y32776D01*
X38961Y32889D01*
X38959Y32959D01*
X38950Y32981D01*
X38924Y33112D01*
X38835Y33246D01*
X38190Y33890D01*
X38057Y33979D01*
X37900Y34010D01*
X37876D01*
X37866Y34015D01*
X37775Y34017D01*
X37768Y34018D01*
X37690Y34194D01*
X37684Y34325D01*
X37685Y34329D01*
X37696Y34341D01*
X37990Y34561D01*
X38775Y34998D01*
X38877Y34998D01*
X38959Y35155D01*
X38956Y35178D01*
X38965Y35200D01*
X38965Y35200D01*
X38965Y35261D01*
Y35800D01*
X38924Y35899D01*
X38925Y35900D01*
X38925D01*
Y36137D01*
X38767Y36127D01*
X38742Y36120D01*
X38727Y36112D01*
X38722Y36103D01*
Y36273D01*
X38225D01*
Y36527D01*
X38722D01*
Y36697D01*
X38727Y36688D01*
X38742Y36680D01*
X38767Y36673D01*
X38802Y36667D01*
X38847Y36662D01*
X38925Y36658D01*
Y36900D01*
X38925Y36900D01*
X38965Y37100D01*
Y37600D01*
X38917Y37717D01*
X38892Y37727D01*
X38877Y37741D01*
Y37802D01*
X38816D01*
X38802Y37817D01*
X38685Y37865D01*
D02*
G37*
G36*
X43327Y36287D02*
X42073D01*
Y36162D01*
X41972Y36109D01*
X41703Y36273D01*
X40975D01*
X40478D01*
Y36103D01*
X40473Y36112D01*
X40458Y36120D01*
X40433Y36127D01*
X40398Y36133D01*
X40353Y36138D01*
X40275Y36142D01*
Y35900D01*
X40323D01*
Y34998D01*
X40323D01*
X40490Y34745D01*
X40448Y34627D01*
X40438Y34472D01*
X40441Y34464D01*
X40441Y34443D01*
X40448Y34432D01*
Y33373D01*
X41552D01*
Y34432D01*
X41559Y34443D01*
X41559Y34464D01*
X41562Y34472D01*
X41552Y34627D01*
X41509Y34747D01*
X41565Y34866D01*
X41669Y35021D01*
X41883Y35035D01*
X41973Y35035D01*
X41984Y35040D01*
X42340D01*
X42497Y35071D01*
X42630Y35160D01*
X42653Y35183D01*
X43327D01*
Y36287D01*
D02*
G37*
G36*
X30048Y36072D02*
X29275D01*
Y35549D01*
X30048D01*
Y36072D01*
D02*
G37*
G36*
X28850Y35769D02*
X28027D01*
Y34946D01*
X28644D01*
Y35319D01*
X28649Y35271D01*
X28664Y35229D01*
X28689Y35191D01*
X28724Y35159D01*
X28770Y35131D01*
X28825Y35109D01*
X28850Y35102D01*
Y35769D01*
D02*
G37*
G36*
X27773D02*
X26950D01*
Y34946D01*
X27773D01*
Y35769D01*
D02*
G37*
G36*
X30048Y35295D02*
X29275D01*
Y34772D01*
X29604D01*
X29380Y34996D01*
X29399Y35013D01*
X29416Y35026D01*
X29430Y35035D01*
X29443Y35039D01*
X29454Y35040D01*
X29463Y35035D01*
X29469Y35027D01*
X29474Y35014D01*
X29477Y34997D01*
X29478Y34975D01*
X30025Y34978D01*
X30030Y34975D01*
X30028Y34965D01*
X30018Y34948D01*
X30000Y34924D01*
X29942Y34857D01*
X29859Y34772D01*
X30048D01*
Y35295D01*
D02*
G37*
G36*
X28019Y38261D02*
X27781D01*
X27552Y38200D01*
X27346Y38081D01*
X27178Y37913D01*
X27059Y37707D01*
X26998Y37478D01*
Y37240D01*
X27059Y37011D01*
X27178Y36805D01*
X27346Y36637D01*
X27552Y36518D01*
X27781Y36457D01*
X28019D01*
X28248Y36518D01*
X28454Y36637D01*
X28521Y36704D01*
X28550Y36715D01*
X28600Y36763D01*
X28647Y36802D01*
X28695Y36836D01*
X28743Y36865D01*
X28793Y36889D01*
X28843Y36909D01*
X28894Y36924D01*
X28934Y36933D01*
X29183Y36683D01*
X29300Y36635D01*
X29323D01*
Y36620D01*
X30817D01*
X30818Y36619D01*
X30821Y36620D01*
X30847D01*
X31109Y36358D01*
X30970Y36072D01*
X30302D01*
Y35422D01*
Y34772D01*
X31075Y34772D01*
X31255Y34998D01*
X31375Y34998D01*
X32552D01*
Y36770D01*
X32565Y36800D01*
Y37700D01*
X32552Y37730D01*
Y37802D01*
X32523D01*
X32517Y37817D01*
X32400Y37865D01*
X28723D01*
X28695Y37882D01*
X28647Y37916D01*
X28600Y37955D01*
X28550Y38003D01*
X28521Y38014D01*
X28454Y38081D01*
X28248Y38200D01*
X28019Y38261D01*
D02*
G37*
G36*
X47385Y35491D02*
X46457Y34563D01*
X46423Y34540D01*
X46294Y34410D01*
X43441D01*
X43431Y34415D01*
X43340Y34417D01*
X43265Y34423D01*
X43203Y34432D01*
X43154Y34444D01*
X43120Y34456D01*
X43100Y34467D01*
X43093Y34473D01*
X43091Y34491D01*
X43091Y34491D01*
X43082Y34506D01*
Y34627D01*
X42927Y34637D01*
X42922Y34635D01*
X42908Y34636D01*
X42893Y34627D01*
X41978D01*
Y33551D01*
X41968Y33527D01*
X41969Y33525D01*
X41968Y33522D01*
X41978Y33227D01*
X41978Y32927D01*
X41968Y32773D01*
X41973Y32762D01*
X41972Y32737D01*
X41978Y32729D01*
Y31673D01*
X42492D01*
X42519Y31661D01*
X42519Y31661D01*
X42520Y31661D01*
X45212D01*
X45257Y31680D01*
X45305Y31690D01*
X47284Y33039D01*
X47315Y33009D01*
X47475Y33169D01*
X47540Y33214D01*
X47555Y33236D01*
X47578Y33250D01*
X47586Y33281D01*
X48591Y34285D01*
X47385Y35491D01*
D02*
G37*
G36*
X28644Y34692D02*
X28027D01*
Y33869D01*
X28850D01*
Y34536D01*
X28825Y34529D01*
X28770Y34506D01*
X28724Y34479D01*
X28689Y34446D01*
X28664Y34409D01*
X28649Y34366D01*
X28644Y34319D01*
Y34692D01*
D02*
G37*
G36*
X27773D02*
X26950D01*
Y33869D01*
X27773D01*
Y34692D01*
D02*
G37*
G36*
X41600Y32975D02*
X41127D01*
Y32427D01*
X41600D01*
Y32975D01*
D02*
G37*
G36*
X40873D02*
X40400D01*
Y32712D01*
X40507Y32720D01*
X40541Y32728D01*
X40568Y32737D01*
X40588Y32747D01*
X40599Y32759D01*
X40603Y32772D01*
X40605Y32427D01*
X40873D01*
Y32975D01*
D02*
G37*
G36*
Y32173D02*
X40606D01*
X40606Y32066D01*
X40602Y32092D01*
X40590Y32115D01*
X40571Y32136D01*
X40544Y32153D01*
X40508Y32168D01*
X40493Y32173D01*
X40400D01*
Y31625D01*
X40873D01*
Y32173D01*
D02*
G37*
G36*
X41600D02*
X41127D01*
Y31625D01*
X41600D01*
Y32173D01*
D02*
G37*
G36*
X39359Y30502D02*
X38811D01*
Y30362D01*
X38949Y30236D01*
X38909Y30262D01*
X38862Y30275D01*
X38811Y30274D01*
Y30029D01*
X39359D01*
Y30502D01*
D02*
G37*
G36*
X38557Y30153D02*
X38525Y30131D01*
X38438Y30061D01*
X38404Y30029D01*
X38557D01*
Y30153D01*
D02*
G37*
G36*
X38009Y30076D02*
Y30029D01*
X38064D01*
X38009Y30076D01*
D02*
G37*
G36*
X40375Y28430D02*
X39827D01*
Y27957D01*
X40375D01*
Y28430D01*
D02*
G37*
G36*
X39573D02*
X39025D01*
Y28096D01*
X39066Y28104D01*
X39116Y28117D01*
X39156Y28133D01*
X39188Y28152D01*
X39210Y28174D01*
X39224Y28199D01*
X39228Y28227D01*
Y27957D01*
X39573D01*
Y28430D01*
D02*
G37*
G36*
Y27703D02*
X39228D01*
Y27433D01*
X39224Y27461D01*
X39210Y27486D01*
X39188Y27508D01*
X39156Y27527D01*
X39116Y27543D01*
X39066Y27556D01*
X39025Y27564D01*
Y27230D01*
X39573D01*
Y27703D01*
D02*
G37*
G36*
X40375D02*
X39827D01*
Y27230D01*
X40375D01*
Y27703D01*
D02*
G37*
G36*
X46070Y26350D02*
X45247D01*
Y25527D01*
X46070D01*
Y26350D01*
D02*
G37*
G36*
X44993D02*
X44170D01*
Y25527D01*
X44993D01*
Y26350D01*
D02*
G37*
G36*
X47779Y26302D02*
X47541D01*
X47312Y26241D01*
X47106Y26122D01*
X46938Y25954D01*
X46819Y25748D01*
X46758Y25519D01*
Y25281D01*
X46819Y25052D01*
X46938Y24846D01*
X47106Y24678D01*
X47312Y24559D01*
X47541Y24498D01*
X47779D01*
X48008Y24559D01*
X48214Y24678D01*
X48382Y24846D01*
X48501Y25052D01*
X48562Y25281D01*
Y25519D01*
X48501Y25748D01*
X48382Y25954D01*
X48214Y26122D01*
X48008Y26241D01*
X47779Y26302D01*
D02*
G37*
G36*
X46070Y25273D02*
X45247D01*
Y24450D01*
X46070D01*
Y25273D01*
D02*
G37*
G36*
X44993D02*
X44170D01*
Y24450D01*
X44993D01*
Y25273D01*
D02*
G37*
G36*
X28712Y28552D02*
X28288D01*
X27872Y28470D01*
X27480Y28307D01*
X27128Y28072D01*
X26828Y27772D01*
X26593Y27420D01*
X26430Y27028D01*
X26348Y26612D01*
Y26188D01*
X26430Y25772D01*
X26593Y25380D01*
X26828Y25028D01*
X27128Y24728D01*
X27480Y24493D01*
X27872Y24330D01*
X28288Y24248D01*
X28712D01*
X29128Y24330D01*
X29520Y24493D01*
X29872Y24728D01*
X30172Y25028D01*
X30407Y25380D01*
X30570Y25772D01*
X30652Y26188D01*
Y26612D01*
X30570Y27028D01*
X30407Y27420D01*
X30172Y27772D01*
X29872Y28072D01*
X29520Y28307D01*
X29128Y28470D01*
X28712Y28552D01*
D02*
G37*
%LPD*%
G36*
X29702Y40676D02*
X29710Y40654D01*
X29723Y40635D01*
X29741Y40619D01*
X29763Y40605D01*
X29791Y40593D01*
X29824Y40585D01*
X29863Y40578D01*
X29906Y40574D01*
X29954Y40573D01*
Y40319D01*
X29906Y40318D01*
X29863Y40314D01*
X29824Y40308D01*
X29791Y40299D01*
X29763Y40287D01*
X29741Y40273D01*
X29723Y40257D01*
X29710Y40238D01*
X29702Y40216D01*
X29700Y40192D01*
Y40700D01*
X29702Y40676D01*
D02*
G37*
G36*
X45700Y37000D02*
X44600Y35900D01*
X43700Y36800D01*
Y36800D01*
X42200D01*
X41973Y37027D01*
X41934Y37034D01*
X41844Y37043D01*
X41628Y37050D01*
Y37650D01*
X42228Y37662D01*
Y37100D01*
X43172D01*
Y37328D01*
X42900Y37600D01*
X43172Y37660D01*
Y37662D01*
X43172Y37661D01*
X44700Y38000D01*
X45700Y37000D01*
D02*
G37*
G36*
X37728Y36103D02*
X37724Y36112D01*
X37713Y36120D01*
X37693Y36127D01*
X37666Y36133D01*
X37631Y36138D01*
X37538Y36146D01*
X37340Y36150D01*
Y36650D01*
X37414Y36650D01*
X37666Y36667D01*
X37693Y36673D01*
X37713Y36680D01*
X37724Y36688D01*
X37728Y36697D01*
Y36103D01*
D02*
G37*
G36*
X37326Y36032D02*
X37227Y35929D01*
X37071Y35746D01*
X37014Y35664D01*
X36972Y35590D01*
X36944Y35523D01*
X36930Y35463D01*
Y35410D01*
X36944Y35364D01*
X36972Y35325D01*
X36265Y36032D01*
X36304Y36004D01*
X36350Y35990D01*
X36403D01*
X36463Y36004D01*
X36530Y36032D01*
X36604Y36074D01*
X36686Y36131D01*
X36774Y36202D01*
X36972Y36386D01*
X37326Y36032D01*
D02*
G37*
G36*
X38800Y35200D02*
X37900Y34700D01*
X37500Y34400D01*
X37200Y34800D01*
X37500Y35300D01*
X37700Y35800D01*
X38800D01*
Y35200D01*
D02*
G37*
G36*
X37367Y34030D02*
X37382Y33992D01*
X37407Y33959D01*
X37442Y33930D01*
X37487Y33905D01*
X37542Y33886D01*
X37607Y33870D01*
X37682Y33859D01*
X37767Y33852D01*
X37862Y33850D01*
Y33350D01*
X37767Y33348D01*
X37682Y33341D01*
X37607Y33330D01*
X37542Y33314D01*
X37487Y33295D01*
X37442Y33270D01*
X37407Y33241D01*
X37382Y33208D01*
X37367Y33170D01*
X37362Y33128D01*
Y34072D01*
X37367Y34030D01*
D02*
G37*
G36*
X34426Y33387D02*
X34376Y33333D01*
X34332Y33277D01*
X34294Y33219D01*
X34262Y33158D01*
X34236Y33095D01*
X34216Y33030D01*
X34203Y32963D01*
X34195Y32894D01*
X34193Y32823D01*
X34198Y32749D01*
X33522Y33167D01*
X34036Y33704D01*
X34426Y33387D01*
D02*
G37*
G36*
X38796Y32880D02*
X38808Y32752D01*
X38818Y32700D01*
X38832Y32656D01*
X38848Y32620D01*
X38868Y32592D01*
X38890Y32572D01*
X38915Y32560D01*
X38944Y32556D01*
X38212D01*
X38228Y32560D01*
X38242Y32572D01*
X38254Y32592D01*
X38265Y32620D01*
X38274Y32656D01*
X38281Y32700D01*
X38287Y32752D01*
X38294Y32880D01*
X38295Y32955D01*
X38795D01*
X38796Y32880D01*
D02*
G37*
G36*
X39024Y31765D02*
X38980Y31789D01*
X38931Y31799D01*
X38875Y31796D01*
X38814Y31780D01*
X38746Y31751D01*
X38672Y31709D01*
X38593Y31653D01*
X38507Y31585D01*
X38415Y31504D01*
X38316Y31409D01*
X37859Y31658D01*
X37963Y31766D01*
X38125Y31956D01*
X38183Y32039D01*
X38227Y32114D01*
X38255Y32181D01*
X38268Y32239D01*
X38265Y32289D01*
X38248Y32331D01*
X38215Y32365D01*
X39024Y31765D01*
D02*
G37*
G36*
X38785Y37600D02*
X38800D01*
Y37100D01*
X38700Y37000D01*
X37400Y36900D01*
X36900Y36700D01*
X36200D01*
X35400Y35900D01*
Y34400D01*
X36200D01*
X35900Y34100D01*
Y31479D01*
X35621Y31200D01*
X35600D01*
X35500Y31300D01*
X35100D01*
X35000Y31400D01*
Y33232D01*
X34993Y33241D01*
X34958Y33270D01*
X34913Y33295D01*
X34858Y33314D01*
X34793Y33330D01*
X34718Y33341D01*
X34633Y33348D01*
X34538Y33350D01*
Y33850D01*
X34633Y33852D01*
X34718Y33859D01*
X34793Y33870D01*
X34858Y33886D01*
X34913Y33905D01*
X34958Y33930D01*
X34993Y33959D01*
X35000Y33968D01*
Y34129D01*
X34400Y34900D01*
Y37700D01*
X38685D01*
X38785Y37600D01*
D02*
G37*
G36*
X37877Y30970D02*
X37755Y30844D01*
X37480Y30516D01*
X37419Y30424D01*
X37373Y30340D01*
X37343Y30264D01*
X37328Y30196D01*
X37328Y30137D01*
X37344Y30086D01*
X36953Y30872D01*
X36979Y30875D01*
X37010Y30886D01*
X37046Y30904D01*
X37086Y30929D01*
X37131Y30960D01*
X37235Y31045D01*
X37358Y31158D01*
X37426Y31226D01*
X37877Y30970D01*
D02*
G37*
G36*
X42228Y35338D02*
X42223Y35312D01*
X42208Y35288D01*
X42183Y35268D01*
X42148Y35250D01*
X42103Y35235D01*
X42048Y35222D01*
X41983Y35212D01*
X41972Y35211D01*
Y35200D01*
X41877Y35200D01*
X41517Y35177D01*
X41492Y35170D01*
X41477Y35162D01*
X41472Y35153D01*
Y35747D01*
X41477Y35738D01*
X41492Y35730D01*
X41517Y35723D01*
X41552Y35717D01*
X41597Y35712D01*
X41792Y35702D01*
X41797Y35702D01*
X41823Y35702D01*
X41909Y35710D01*
X41984Y35722D01*
X42049Y35740D01*
X42105Y35763D01*
X42150Y35790D01*
X42185Y35822D01*
X42211Y35860D01*
X42226Y35903D01*
X42231Y35950D01*
X42228Y35338D01*
D02*
G37*
G36*
X41472Y35153D02*
X41430Y35148D01*
X41392Y35133D01*
X41359Y35108D01*
X41330Y35073D01*
X41305Y35028D01*
X41286Y34973D01*
X41270Y34908D01*
X41259Y34833D01*
X41257Y34806D01*
X41263Y34717D01*
X41274Y34652D01*
X41287Y34597D01*
X41303Y34552D01*
X41322Y34517D01*
X41344Y34492D01*
X41369Y34477D01*
X41397Y34472D01*
X40603D01*
X40631Y34477D01*
X40656Y34492D01*
X40678Y34517D01*
X40697Y34552D01*
X40713Y34597D01*
X40726Y34652D01*
X40737Y34717D01*
X40744Y34790D01*
X40740Y34834D01*
X40728Y34909D01*
X40710Y34975D01*
X40688Y35030D01*
X40660Y35075D01*
X40627Y35111D01*
X40590Y35136D01*
X40548Y35151D01*
X40500Y35156D01*
X41472Y35153D01*
D02*
G37*
G36*
X28490Y37832D02*
X28547Y37785D01*
X28605Y37744D01*
X28664Y37708D01*
X28681Y37700D01*
X32400D01*
Y36800D01*
X31500D01*
Y36167D01*
X31400Y36300D01*
X30900Y36800D01*
X30890D01*
X30877Y36789D01*
X30872Y36775D01*
X30872Y36800D01*
X29300D01*
X29000Y37100D01*
X28936D01*
X28920Y37098D01*
X28853Y37084D01*
X28789Y37065D01*
X28726Y37040D01*
X28664Y37010D01*
X28605Y36974D01*
X28547Y36933D01*
X28490Y36886D01*
X28436Y36834D01*
Y37486D01*
X28400Y37700D01*
X28436D01*
Y37884D01*
X28490Y37832D01*
D02*
G37*
G36*
X42932Y34430D02*
X42947Y34392D01*
X42972Y34359D01*
X43007Y34330D01*
X43052Y34305D01*
X43107Y34286D01*
X43172Y34270D01*
X43247Y34259D01*
X43332Y34252D01*
X43427Y34250D01*
Y34000D01*
X46600D01*
X46713Y33913D01*
X46800Y34000D01*
X47042Y33661D01*
X47447Y33350D01*
X45212Y31826D01*
X42520D01*
X42524Y32770D01*
X42133Y32772D01*
X42136Y32777D01*
X42139Y32792D01*
X42142Y32817D01*
X42147Y32952D01*
X42148Y33077D01*
X42133Y33528D01*
X42528Y33530D01*
X42530Y34000D01*
X42927D01*
Y34472D01*
X42932Y34430D01*
D02*
G37*
%LPC*%
G36*
X38600Y45000D02*
X38152D01*
Y45000D01*
X38153Y44961D01*
X38153Y44960D01*
X38238Y44957D01*
X38222Y44941D01*
X38207Y44923D01*
X38194Y44903D01*
X38183Y44882D01*
X38173Y44859D01*
X38170Y44849D01*
X38171Y44845D01*
X38179Y44827D01*
X38189Y44812D01*
X38201Y44802D01*
X38214Y44796D01*
X38228Y44794D01*
X38157D01*
X38155Y44782D01*
X38153Y44753D01*
X38152Y44722D01*
Y44502D01*
X38600D01*
Y45000D01*
D02*
G37*
G36*
X41370Y44775D02*
X40946D01*
X40950Y44733D01*
X40956Y44695D01*
X40965Y44661D01*
X40977Y44633D01*
X40991Y44610D01*
X41007Y44592D01*
X41026Y44579D01*
X41048Y44571D01*
X41072Y44569D01*
X40897D01*
Y44227D01*
X41370D01*
Y44775D01*
D02*
G37*
G36*
X65597Y52854D02*
X63024D01*
Y50281D01*
X65597D01*
Y52854D01*
D02*
G37*
G36*
X62770D02*
X60197D01*
Y50281D01*
X62770D01*
Y52854D01*
D02*
G37*
G36*
X65597Y50027D02*
X63024D01*
Y47454D01*
X65597D01*
Y50027D01*
D02*
G37*
G36*
X62770D02*
X60197D01*
Y47454D01*
X62770D01*
Y50027D01*
D02*
G37*
G36*
X70519Y46027D02*
X69697D01*
Y45781D01*
X70519D01*
X70519Y45798D01*
X70393D01*
X70417Y45800D01*
X70439Y45808D01*
X70458Y45821D01*
X70474Y45839D01*
X70488Y45862D01*
X70500Y45890D01*
X70503Y45904D01*
X70500Y45917D01*
X70488Y45946D01*
X70474Y45969D01*
X70458Y45987D01*
X70439Y46000D01*
X70417Y46007D01*
X70393Y46010D01*
X70519D01*
X70519Y46027D01*
D02*
G37*
G36*
X62150Y39100D02*
X61686D01*
X61683Y39096D01*
X61671Y39076D01*
X61660Y39055D01*
X61651Y39032D01*
X61644Y39010D01*
X61650Y38986D01*
X61662Y38958D01*
X61676Y38935D01*
X61692Y38917D01*
X61711Y38904D01*
X61733Y38896D01*
X61757Y38894D01*
X61627D01*
Y38327D01*
X62150D01*
Y39100D01*
D02*
G37*
G36*
X61320D02*
X60850D01*
Y38327D01*
X61373D01*
Y38894D01*
X61249D01*
X61273Y38896D01*
X61295Y38904D01*
X61314Y38917D01*
X61330Y38935D01*
X61344Y38958D01*
X61356Y38986D01*
X61362Y39010D01*
X61355Y39032D01*
X61346Y39055D01*
X61335Y39076D01*
X61323Y39096D01*
X61320Y39100D01*
D02*
G37*
G36*
X57150D02*
X56628D01*
X56630Y39086D01*
X56710D01*
X56694Y39069D01*
X56680Y39050D01*
X56668Y39030D01*
X56657Y39009D01*
X56648Y38986D01*
X56648Y38986D01*
X56659Y38958D01*
X56673Y38935D01*
X56689Y38917D01*
X56708Y38904D01*
X56730Y38896D01*
X56754Y38894D01*
X56629D01*
X56628Y38879D01*
X56627Y38848D01*
X56627D01*
Y38327D01*
X57150D01*
Y39100D01*
D02*
G37*
G36*
X56372D02*
X55850D01*
Y38327D01*
X56373D01*
Y38848D01*
X56372Y38879D01*
X56371Y38894D01*
X56246D01*
X56270Y38896D01*
X56292Y38904D01*
X56311Y38917D01*
X56327Y38935D01*
X56341Y38958D01*
X56352Y38986D01*
X56352Y38986D01*
X56343Y39009D01*
X56332Y39030D01*
X56320Y39050D01*
X56306Y39069D01*
X56290Y39086D01*
X56370D01*
X56372Y39100D01*
D02*
G37*
G36*
X62150Y38073D02*
X61627D01*
Y37300D01*
X62150D01*
Y38073D01*
D02*
G37*
G36*
X56373Y38073D02*
X55850D01*
Y37300D01*
X56373D01*
Y38073D01*
D02*
G37*
G36*
X53844Y36050D02*
X53626D01*
X53423Y35966D01*
X53269Y35811D01*
X53185Y35609D01*
Y35390D01*
X53269Y35188D01*
X53423Y35034D01*
X53626Y34950D01*
X53844D01*
X54047Y35034D01*
X54201Y35188D01*
X54285Y35390D01*
Y35609D01*
X54201Y35811D01*
X54047Y35966D01*
X53844Y36050D01*
D02*
G37*
G36*
X60848Y34031D02*
X60394D01*
Y33133D01*
X60848D01*
Y34031D01*
D02*
G37*
G36*
X60140D02*
X59686D01*
Y33133D01*
X60140D01*
Y34031D01*
D02*
G37*
G36*
X60848Y32879D02*
X60394D01*
Y31980D01*
X60848D01*
Y32879D01*
D02*
G37*
G36*
X60140D02*
X59686D01*
Y31980D01*
X60140D01*
Y32879D01*
D02*
G37*
G36*
X62375Y31465D02*
X61827D01*
Y30992D01*
X62375D01*
Y31465D01*
D02*
G37*
G36*
X61573D02*
X61025D01*
Y30992D01*
X61573D01*
Y31465D01*
D02*
G37*
G36*
X60275Y31430D02*
X59727D01*
Y30957D01*
X60275D01*
Y31430D01*
D02*
G37*
G36*
X65175D02*
X64627D01*
Y30957D01*
X65175D01*
Y31430D01*
D02*
G37*
G36*
X64373D02*
X63825D01*
Y30957D01*
X64373D01*
Y31430D01*
D02*
G37*
G36*
X66473D02*
X65925D01*
Y30957D01*
X66473D01*
Y31430D01*
D02*
G37*
G36*
X59473D02*
X58925D01*
Y30957D01*
X59473D01*
Y31430D01*
D02*
G37*
G36*
X73748Y31825D02*
X73684D01*
X73315Y31726D01*
X72985Y31535D01*
X72715Y31265D01*
X72524Y30935D01*
X72425Y30566D01*
Y30502D01*
X73748D01*
Y31825D01*
D02*
G37*
G36*
X68916D02*
X68852D01*
Y30502D01*
X70175D01*
Y30566D01*
X70076Y30935D01*
X69885Y31265D01*
X69615Y31535D01*
X69285Y31726D01*
X68916Y31825D01*
D02*
G37*
G36*
X58260Y33984D02*
X57194D01*
Y32328D01*
X57194Y32226D01*
X57187Y32217D01*
X57188Y32193D01*
X57184Y32183D01*
X57194Y32028D01*
X57282D01*
X57285Y32017D01*
X57293Y31979D01*
X57311Y31770D01*
X57312Y31713D01*
X57310Y31641D01*
X57303Y31568D01*
X57293Y31507D01*
X57281Y31460D01*
X57267Y31426D01*
X57255Y31407D01*
X57247Y31398D01*
X57243Y31396D01*
X57239Y31394D01*
X57211Y31391D01*
X57211Y31391D01*
X57195Y31382D01*
X57073D01*
X57063Y31227D01*
X57065Y31223D01*
X57064Y31210D01*
X57073Y31194D01*
Y30278D01*
X58327D01*
Y31082D01*
X58327Y31191D01*
X58335Y31205D01*
X58335Y31222D01*
X58337Y31227D01*
X58327Y31382D01*
X58208D01*
X58194Y31390D01*
X58194Y31390D01*
X58190Y31391D01*
X58190Y31392D01*
X58179Y31413D01*
X58168Y31449D01*
X58158Y31497D01*
X58144Y31642D01*
X58142Y31710D01*
X58143Y31772D01*
X58153Y31922D01*
X58160Y31975D01*
X58169Y32017D01*
X58172Y32028D01*
X58260Y32028D01*
X58270Y32183D01*
X58266Y32193D01*
X58267Y32217D01*
X58260Y32226D01*
Y33984D01*
D02*
G37*
G36*
X62375Y30738D02*
X61827D01*
Y30265D01*
X62375D01*
Y30738D01*
D02*
G37*
G36*
X61573D02*
X61025D01*
Y30265D01*
X61573D01*
Y30738D01*
D02*
G37*
G36*
X65175Y30703D02*
X64627D01*
Y30230D01*
X65175D01*
Y30703D01*
D02*
G37*
G36*
X64373D02*
X63825D01*
Y30230D01*
X64373D01*
Y30703D01*
D02*
G37*
G36*
X60275D02*
X59727D01*
Y30230D01*
X60275D01*
Y30703D01*
D02*
G37*
G36*
X59473D02*
X58925D01*
Y30230D01*
X59473D01*
Y30703D01*
D02*
G37*
G36*
X66473D02*
X65925D01*
Y30230D01*
X66473D01*
Y30703D01*
D02*
G37*
G36*
X73748Y30248D02*
X72425D01*
Y30184D01*
X72524Y29815D01*
X72715Y29485D01*
X72985Y29215D01*
X73315Y29024D01*
X73684Y28925D01*
X73748D01*
Y30248D01*
D02*
G37*
G36*
X70175D02*
X68852D01*
Y28925D01*
X68916D01*
X69285Y29024D01*
X69615Y29215D01*
X69885Y29485D01*
X70076Y29815D01*
X70175Y30184D01*
Y30248D01*
D02*
G37*
G36*
X60227Y29852D02*
X58973D01*
Y29048D01*
X58973Y28939D01*
X58965Y28925D01*
X58965Y28908D01*
X58963Y28903D01*
X58973Y28748D01*
X59089Y28496D01*
X59018Y28327D01*
X58803Y28120D01*
X58760Y28117D01*
X58669Y28115D01*
X58659Y28110D01*
X58333D01*
X58305Y28135D01*
X58113Y28333D01*
X58127Y28594D01*
X58132Y28627D01*
X58144Y28676D01*
X58156Y28710D01*
X58167Y28730D01*
X58173Y28737D01*
X58191Y28739D01*
X58191Y28739D01*
X58206Y28748D01*
X58327D01*
X58337Y28903D01*
X58335Y28908D01*
X58336Y28922D01*
X58327Y28937D01*
Y29852D01*
X57073D01*
Y29048D01*
X57073Y28937D01*
X57064Y28922D01*
X57065Y28908D01*
X57063Y28903D01*
X57073Y28748D01*
X57194D01*
X57209Y28739D01*
X57209Y28739D01*
X57227Y28737D01*
X57233Y28730D01*
X57244Y28710D01*
X57256Y28676D01*
X57268Y28627D01*
X57273Y28593D01*
X57289Y28300D01*
X57323Y28038D01*
X57332Y28018D01*
X57424Y27794D01*
X57585Y27585D01*
X57794Y27424D01*
X58018Y27332D01*
X58038Y27323D01*
X58300Y27289D01*
Y27290D01*
X58659D01*
X58669Y27285D01*
X58760Y27283D01*
X58803Y27280D01*
X59018Y27073D01*
X59048Y26785D01*
X58973Y26652D01*
X58963Y26497D01*
X58965Y26492D01*
X58964Y26478D01*
X58973Y26463D01*
Y25548D01*
X60227D01*
Y26352D01*
X60227Y26463D01*
X60236Y26478D01*
X60235Y26492D01*
X60237Y26497D01*
X60227Y26652D01*
X60227Y26652D01*
X60066Y26890D01*
X60122Y27073D01*
X60132Y27228D01*
X60127Y27239D01*
X60128Y27264D01*
X60122Y27272D01*
Y28132D01*
X60129Y28143D01*
X60129Y28164D01*
X60132Y28172D01*
X60122Y28327D01*
X60050Y28506D01*
X60223Y28748D01*
X60227Y28748D01*
X60235Y28907D01*
X60233Y28910D01*
X60234Y28924D01*
X60227Y28936D01*
Y29852D01*
D02*
G37*
G36*
X65127D02*
X63873D01*
Y29048D01*
X63873Y28937D01*
X63864Y28922D01*
X63865Y28908D01*
X63863Y28903D01*
X63873Y28748D01*
X63922Y28589D01*
X63705Y28327D01*
X63348D01*
Y27073D01*
X63705D01*
X63922Y26811D01*
X63873Y26652D01*
X63863Y26497D01*
X63865Y26492D01*
X63864Y26478D01*
X63873Y26463D01*
Y25548D01*
X65127D01*
Y26352D01*
X65127Y26463D01*
X65136Y26478D01*
X65135Y26492D01*
X65137Y26497D01*
X65127Y26652D01*
X65078Y26811D01*
X65295Y27073D01*
X65687D01*
Y28327D01*
X65295D01*
X65078Y28589D01*
X65127Y28748D01*
X65137Y28903D01*
X65135Y28908D01*
X65136Y28922D01*
X65127Y28937D01*
Y29852D01*
D02*
G37*
G36*
X62327Y29887D02*
X61073D01*
Y29083D01*
X61073Y28962D01*
X61071Y28959D01*
X61071Y28944D01*
X61070Y28942D01*
X61073Y28783D01*
X61077D01*
X61109Y28753D01*
X61174Y28617D01*
X61084Y28414D01*
X61071Y28397D01*
X60984Y28327D01*
X60548D01*
Y27073D01*
X60931D01*
X61128Y26828D01*
X61137Y26803D01*
X61073Y26652D01*
X61070Y26497D01*
X61071Y26494D01*
X61071Y26480D01*
X61073Y26477D01*
Y25548D01*
X62327D01*
Y26352D01*
X62327Y26461D01*
X62335Y26474D01*
X62335Y26491D01*
X62337Y26497D01*
X62327Y26652D01*
X62308Y26821D01*
X62544Y27073D01*
X62922D01*
Y28327D01*
X62477D01*
X62268Y28562D01*
X62327Y28783D01*
X62337Y28938D01*
X62335Y28943D01*
X62335Y28961D01*
X62327Y28974D01*
Y29887D01*
D02*
G37*
G36*
X73748Y26675D02*
X73684D01*
X73315Y26576D01*
X72985Y26385D01*
X72715Y26115D01*
X72524Y25785D01*
X72425Y25416D01*
Y25352D01*
X73748D01*
Y26675D01*
D02*
G37*
G36*
X68916D02*
X68852D01*
Y25352D01*
X70175D01*
Y25416D01*
X70076Y25785D01*
X69885Y26115D01*
X69615Y26385D01*
X69285Y26576D01*
X68916Y26675D01*
D02*
G37*
G36*
X62375Y25170D02*
X61827D01*
Y24697D01*
X62375D01*
Y25170D01*
D02*
G37*
G36*
X60275D02*
X59727D01*
Y24697D01*
X60275D01*
Y25170D01*
D02*
G37*
G36*
X65175D02*
X64627D01*
Y24697D01*
X65175D01*
Y25170D01*
D02*
G37*
G36*
X64373D02*
X63825D01*
Y24697D01*
X64373D01*
Y25170D01*
D02*
G37*
G36*
X66473D02*
X65925D01*
Y24697D01*
X66473D01*
Y25170D01*
D02*
G37*
G36*
X61573D02*
X61025D01*
Y24697D01*
X61573D01*
Y25170D01*
D02*
G37*
G36*
X59473D02*
X58925D01*
Y24697D01*
X59473D01*
Y25170D01*
D02*
G37*
%LPD*%
G36*
X58081Y32178D02*
X58059Y32163D01*
X58040Y32138D01*
X58023Y32103D01*
X58009Y32058D01*
X57997Y32003D01*
X57989Y31938D01*
X57978Y31778D01*
X57977Y31710D01*
X57979Y31632D01*
X57995Y31472D01*
X58008Y31407D01*
X58026Y31352D01*
X58047Y31307D01*
X58073Y31272D01*
X58102Y31247D01*
X58135Y31232D01*
X58172Y31227D01*
X57228D01*
X57275Y31232D01*
X57318Y31247D01*
X57355Y31272D01*
X57387Y31307D01*
X57415Y31352D01*
X57437Y31407D01*
X57455Y31472D01*
X57467Y31547D01*
X57475Y31632D01*
X57477Y31712D01*
X57476Y31778D01*
X57457Y32003D01*
X57445Y32058D01*
X57431Y32103D01*
X57414Y32138D01*
X57395Y32163D01*
X57373Y32178D01*
X57349Y32183D01*
X58105D01*
X58081Y32178D01*
D02*
G37*
G36*
X58130Y28898D02*
X58092Y28883D01*
X58059Y28858D01*
X58030Y28823D01*
X58005Y28778D01*
X57986Y28723D01*
X57970Y28658D01*
X57959Y28583D01*
X57952Y28498D01*
X57950Y28403D01*
X57450D01*
X57448Y28498D01*
X57441Y28583D01*
X57430Y28658D01*
X57414Y28723D01*
X57395Y28778D01*
X57370Y28823D01*
X57341Y28858D01*
X57308Y28883D01*
X57270Y28898D01*
X57228Y28903D01*
X58172D01*
X58130Y28898D01*
D02*
G37*
G36*
X60022Y28901D02*
X59980Y28886D01*
X59943Y28860D01*
X59910Y28825D01*
X59882Y28780D01*
X59860Y28725D01*
X59842Y28659D01*
X59830Y28584D01*
X59825Y28528D01*
X59833Y28417D01*
X59844Y28352D01*
X59857Y28297D01*
X59873Y28252D01*
X59892Y28217D01*
X59914Y28192D01*
X59939Y28177D01*
X59967Y28172D01*
X59173D01*
X59201Y28177D01*
X59226Y28192D01*
X59248Y28217D01*
X59267Y28252D01*
X59283Y28297D01*
X59296Y28352D01*
X59307Y28417D01*
X59314Y28492D01*
X59315Y28527D01*
X59303Y28658D01*
X59289Y28723D01*
X59272Y28778D01*
X59251Y28823D01*
X59226Y28858D01*
X59197Y28883D01*
X59165Y28898D01*
X59128Y28903D01*
X60070Y28906D01*
X60022Y28901D01*
D02*
G37*
G36*
X59173Y27228D02*
X59967D01*
X59945Y27223D01*
X59925Y27208D01*
X59907Y27183D01*
X59892Y27148D01*
X59879Y27103D01*
X59869Y27048D01*
X59861Y26983D01*
X59854Y26876D01*
X59859Y26817D01*
X59870Y26742D01*
X59886Y26677D01*
X59905Y26622D01*
X59930Y26577D01*
X59959Y26542D01*
X59992Y26517D01*
X60030Y26502D01*
X60072Y26497D01*
X59128D01*
X59170Y26502D01*
X59208Y26517D01*
X59241Y26542D01*
X59270Y26577D01*
X59295Y26622D01*
X59314Y26677D01*
X59330Y26742D01*
X59341Y26817D01*
X59345Y26863D01*
X59334Y26983D01*
X59322Y27048D01*
X59306Y27103D01*
X59286Y27148D01*
X59263Y27183D01*
X59237Y27208D01*
X59207Y27223D01*
X59173Y27228D01*
X59168Y27270D01*
X59153Y27308D01*
X59128Y27341D01*
X59093Y27370D01*
X59048Y27395D01*
X58993Y27414D01*
X58928Y27430D01*
X58853Y27441D01*
X58768Y27448D01*
X58673Y27450D01*
Y27950D01*
X58768Y27952D01*
X58853Y27959D01*
X58928Y27970D01*
X58993Y27986D01*
X59048Y28005D01*
X59093Y28030D01*
X59128Y28059D01*
X59153Y28092D01*
X59168Y28130D01*
X59173Y28172D01*
Y27228D01*
D02*
G37*
G36*
X64930Y28898D02*
X64892Y28883D01*
X64859Y28858D01*
X64830Y28823D01*
X64805Y28778D01*
X64786Y28723D01*
X64770Y28658D01*
X64759Y28583D01*
X64752Y28498D01*
X64751Y28433D01*
X64754Y28355D01*
X64765Y28270D01*
X64785Y28195D01*
X64812Y28130D01*
X64846Y28075D01*
X64889Y28030D01*
X64939Y27995D01*
X64996Y27970D01*
X65062Y27955D01*
X65135Y27950D01*
Y27450D01*
X65062Y27445D01*
X64996Y27430D01*
X64939Y27405D01*
X64889Y27370D01*
X64846Y27325D01*
X64812Y27270D01*
X64785Y27205D01*
X64765Y27130D01*
X64754Y27045D01*
X64751Y26967D01*
X64752Y26902D01*
X64759Y26817D01*
X64770Y26742D01*
X64786Y26677D01*
X64805Y26622D01*
X64830Y26577D01*
X64859Y26542D01*
X64892Y26517D01*
X64930Y26502D01*
X64972Y26497D01*
X64028D01*
X64070Y26502D01*
X64108Y26517D01*
X64141Y26542D01*
X64170Y26577D01*
X64195Y26622D01*
X64214Y26677D01*
X64230Y26742D01*
X64241Y26817D01*
X64248Y26902D01*
X64249Y26968D01*
X64246Y27045D01*
X64236Y27130D01*
X64218Y27205D01*
X64194Y27270D01*
X64162Y27325D01*
X64124Y27370D01*
X64078Y27405D01*
X64026Y27430D01*
X63966Y27445D01*
X63900Y27450D01*
Y27950D01*
X63966Y27955D01*
X64026Y27970D01*
X64078Y27995D01*
X64124Y28030D01*
X64162Y28075D01*
X64194Y28130D01*
X64218Y28195D01*
X64236Y28270D01*
X64246Y28355D01*
X64249Y28432D01*
X64248Y28498D01*
X64241Y28583D01*
X64230Y28658D01*
X64214Y28723D01*
X64195Y28778D01*
X64170Y28823D01*
X64141Y28858D01*
X64108Y28883D01*
X64070Y28898D01*
X64028Y28903D01*
X64972D01*
X64930Y28898D01*
D02*
G37*
G36*
X62172Y28938D02*
X62136Y28933D01*
X62105Y28918D01*
X62077Y28893D01*
X62052Y28858D01*
X62032Y28813D01*
X62015Y28758D01*
X62002Y28693D01*
X61992Y28618D01*
X61987Y28533D01*
X61985Y28438D01*
X61485D01*
X61482Y28533D01*
X61475Y28619D01*
X61463Y28694D01*
X61445Y28760D01*
X61423Y28815D01*
X61395Y28860D01*
X61362Y28895D01*
X61325Y28921D01*
X61283Y28936D01*
X61235Y28941D01*
X62172Y28938D01*
D02*
G37*
G36*
X61987Y26902D02*
X62002Y26742D01*
X62015Y26677D01*
X62032Y26622D01*
X62052Y26577D01*
X62077Y26542D01*
X62105Y26517D01*
X62136Y26502D01*
X62172Y26497D01*
X61235D01*
X61283Y26502D01*
X61325Y26517D01*
X61362Y26542D01*
X61395Y26577D01*
X61423Y26622D01*
X61445Y26677D01*
X61463Y26742D01*
X61475Y26817D01*
X61482Y26902D01*
X61485Y26997D01*
X61985D01*
X61987Y26902D01*
D02*
G37*
D10*
X37900Y48100D02*
X39400D01*
X35400Y48100D02*
X36726D01*
X29900D02*
X31400D01*
X27588Y56073D02*
X27623Y56107D01*
X33400Y48100D02*
X34400D01*
X32400D02*
X33400D01*
D12*
X66776Y39537D02*
G03*
X66089Y39821I-687J-688D01*
G01*
X67100Y38755D02*
G03*
X66776Y39537I-1105J0D01*
G01*
X64408Y41315D02*
G03*
X66089Y39821I1681J198D01*
G01*
X44750Y58178D02*
G03*
X44710Y58275I-137J0D01*
G01*
X47551Y56775D02*
G03*
X47575Y56785I0J34D01*
G01*
X63900Y41300D02*
G03*
X65900Y39300I2000J0D01*
G01*
X66500Y38700D02*
G03*
X65900Y39300I-600J0D01*
G01*
X66000Y37400D02*
G03*
X66500Y37900I0J500D01*
G01*
X67100D02*
G03*
X67600Y37400I500J0D01*
G01*
X29303Y40446D02*
X31238D01*
X72844Y45212D02*
Y46637D01*
X72867Y46660D01*
X75841D02*
X75997Y46815D01*
X74397Y46660D02*
X75867D01*
X74828Y45161D02*
X75692D01*
X37313Y47716D02*
Y48100D01*
X37287Y47690D02*
X37313Y47716D01*
X43600Y54956D02*
Y55050D01*
Y54956D02*
X43702Y54854D01*
X33126Y56124D02*
X34475D01*
X33125Y56125D02*
X33126Y56124D01*
X33060Y56190D02*
X33125Y56125D01*
X38500Y53829D02*
X38989Y53340D01*
X40081Y54381D02*
Y54719D01*
X42899Y59242D02*
Y59243D01*
X44185Y60528D01*
X43612Y61341D02*
X70359D01*
X42096Y59538D02*
Y59825D01*
X43612Y61341D01*
X58397Y57904D02*
Y59851D01*
X70022Y60528D02*
X73000Y57551D01*
X43835Y60935D02*
X70191D01*
X44185Y60528D02*
X70022D01*
X70359Y61341D02*
X74081Y57619D01*
X58397Y57904D02*
X58397Y57904D01*
X42502Y59602D02*
X43835Y60935D01*
X58396Y59851D02*
X58397Y59851D01*
X70191Y60935D02*
X73675Y57450D01*
X66912Y59732D02*
X66928Y59747D01*
X66897Y57904D02*
X66912Y57919D01*
Y59732D01*
X70670Y44631D02*
X71650D01*
X71749Y45177D02*
X71825Y45253D01*
X70670Y45177D02*
X71749D01*
X72238Y44044D02*
X73863D01*
X71650Y44631D02*
X72238Y44044D01*
X71825Y45253D02*
X71918D01*
X70647Y45154D02*
X70670Y45177D01*
X62988Y41198D02*
X63374Y41583D01*
X62988Y41104D02*
Y41198D01*
X63374Y41583D02*
Y42381D01*
X57420Y43280D02*
X57760Y43620D01*
X57397Y42404D02*
X57420Y42427D01*
Y43280D01*
X62300Y44571D02*
Y45900D01*
X60920Y42427D02*
Y43222D01*
X61162Y43433D02*
X62300Y44571D01*
X60920Y43222D02*
X61131Y43433D01*
X61162D01*
X52377Y44905D02*
X52891Y45419D01*
Y45533D02*
X53512Y46154D01*
X52891Y45419D02*
Y45533D01*
X53512Y46154D02*
X55147D01*
X70650Y55151D02*
X72995D01*
X70647Y55154D02*
X70650Y55151D01*
X72204Y53154D02*
X73675Y54625D01*
X72995Y55151D02*
X72998Y55149D01*
X73675Y54625D02*
Y57450D01*
X73000Y56300D02*
Y57551D01*
X74081Y52231D02*
Y57619D01*
X53293Y59332D02*
X53672D01*
X56500Y54600D02*
Y56505D01*
X53150Y59475D02*
X53293Y59332D01*
X53672D02*
X56500Y56505D01*
X38500Y53829D02*
Y55683D01*
X32275Y61075D02*
X32404Y60946D01*
X33237D01*
X38500Y55683D01*
X34850Y59950D02*
X40081Y54719D01*
X34850Y59950D02*
Y60875D01*
X34750Y60975D02*
X34850Y60875D01*
X53821Y56455D02*
X54123Y56154D01*
X55147D01*
X53814Y56455D02*
X53821D01*
X57760Y43620D02*
Y43704D01*
X58397Y42404D02*
Y43419D01*
X58538Y43560D01*
Y43815D01*
X57897Y42404D02*
X58397D01*
X59893Y43459D02*
X59897Y43456D01*
Y42404D02*
Y43456D01*
X60398Y42405D02*
Y43558D01*
X60710Y43870D01*
Y43964D01*
X60897Y42404D02*
X60920Y42427D01*
X60397Y42404D02*
X60398Y42405D01*
X70670Y46677D02*
X71707D01*
X71802Y46772D01*
X71896D01*
X70647Y46654D02*
X70670Y46677D01*
X52959Y49454D02*
X53053D01*
X53253Y49654D02*
X55147D01*
X53053Y49454D02*
X53253Y49654D01*
X64897Y42404D02*
X64898Y42405D01*
Y43334D02*
X65065Y43500D01*
X64898Y42405D02*
Y43334D01*
X65065Y43500D02*
X66248D01*
X64897Y42404D02*
X64900Y42401D01*
Y41476D02*
X65810Y40566D01*
X65866D01*
X66646Y40743D02*
X67157D01*
X65897Y42404D02*
X65906Y42395D01*
Y41482D02*
Y42395D01*
Y41482D02*
X66646Y40743D01*
X64900Y41476D02*
Y42401D01*
X70670Y51177D02*
X71686D01*
X71817Y51308D02*
X71911D01*
X71686Y51177D02*
X71817Y51308D01*
X70670Y50631D02*
X72481D01*
X74081Y52231D01*
X70656Y52163D02*
X73042D01*
X70647Y52154D02*
X70656Y52163D01*
X73042D02*
X73050Y52172D01*
X70647Y54154D02*
X71890D01*
X71890Y45187D02*
X72574D01*
X72822Y44939D01*
X71888Y49151D02*
X71890Y49149D01*
X70649Y49151D02*
X71888D01*
X71890Y54154D02*
X71890Y54154D01*
X56920Y43366D02*
X57055Y43500D01*
Y43593D01*
X56920Y42427D02*
Y43366D01*
X56897Y42404D02*
X56920Y42427D01*
X56325Y43574D02*
X56337Y43586D01*
Y44403D01*
X55170Y44631D02*
X56109D01*
X55147Y44654D02*
X55170Y44631D01*
X56109D02*
X56337Y44403D01*
X55147Y44154D02*
X55169Y44132D01*
Y43586D02*
Y44132D01*
X53642Y52857D02*
X53939Y53154D01*
X52908Y52857D02*
X53642D01*
X53939Y53154D02*
X55147D01*
X54164Y53677D02*
X55124D01*
X53823Y53924D02*
X53916D01*
X54164Y53677D01*
X59389Y59085D02*
X59393Y59081D01*
Y57908D02*
X59397Y57904D01*
X59393Y57908D02*
Y59081D01*
X67897Y57904D02*
Y59078D01*
Y57904D02*
X67897Y57904D01*
X70647Y51154D02*
X70670Y51177D01*
X67157Y40743D02*
X67300Y40600D01*
X63374Y42381D02*
X63397Y42404D01*
X70647Y50654D02*
X70670Y50631D01*
X70647Y49154D02*
X70649Y49151D01*
X53788Y48844D02*
X53978Y48654D01*
X55147D01*
X53721Y48844D02*
X53788D01*
X55124Y53677D02*
X55147Y53654D01*
X41080Y45110D02*
X41123D01*
X40818Y44848D02*
X41080Y45110D01*
X40818Y44148D02*
Y44848D01*
X40770Y44100D02*
X40818Y44148D01*
X40819Y40281D02*
X42443D01*
X40800Y40300D02*
X40819Y40281D01*
X74377Y45187D02*
X74403Y45161D01*
X74299Y45108D02*
X74377Y45187D01*
X74299Y44479D02*
Y45108D01*
X73863Y44044D02*
X74299Y44479D01*
X70647Y44654D02*
X70670Y44631D01*
X74403Y45161D02*
X74828D01*
X44750Y55760D02*
Y56775D01*
Y58178D01*
X46250Y55775D02*
Y56775D01*
X70647Y53154D02*
X72204D01*
X70647Y55654D02*
X72354D01*
X73000Y56300D01*
X67100Y37900D02*
Y38755D01*
X38025Y44375D02*
Y45000D01*
Y44375D02*
X38025D01*
X46240Y58315D02*
X47635D01*
X47655Y58335D01*
X47675Y58315D02*
Y59025D01*
X46240Y58325D02*
Y59100D01*
X46250D01*
X47625Y58305D02*
X47635Y58315D01*
X47675D01*
X46240D02*
Y58325D01*
X34475Y56124D02*
Y56125D01*
X41050Y59400D02*
X41225Y59575D01*
X41050Y58100D02*
Y59400D01*
X40800Y57850D02*
X41050Y58100D01*
X44710Y58325D02*
X44710Y58325D01*
X46250Y56775D02*
X47551D01*
X69365Y34700D02*
Y37085D01*
X69050Y37400D02*
X69365Y37085D01*
X64470Y37320D02*
X64550Y37400D01*
X64470Y34700D02*
Y37320D01*
X67600Y37400D02*
X69050D01*
X64550Y37400D02*
X66000D01*
X64397Y42404D02*
X64408Y42393D01*
X63900Y41300D02*
Y42044D01*
X64408Y41315D02*
Y42393D01*
X66500Y37900D02*
Y38700D01*
X45367Y40700D02*
X45402Y40665D01*
Y39700D02*
Y40665D01*
X56500Y38399D02*
Y39300D01*
X61503Y38230D02*
Y39346D01*
X66248Y43500D02*
X66397Y43351D01*
Y42404D02*
Y43351D01*
X42443Y41546D02*
X42559Y41662D01*
X33400Y49100D02*
X33400Y49100D01*
X56077Y54177D02*
X56500Y54600D01*
X55170Y54177D02*
X56077D01*
X55147Y54154D02*
X55170Y54177D01*
X29025Y57725D02*
X34175D01*
X61396Y42405D02*
X61397Y42404D01*
X55147Y52654D02*
X55170Y52631D01*
X70647Y45654D02*
Y46154D01*
X37313Y48600D02*
X37900D01*
X37900Y48600D01*
X36726Y48600D02*
X37313D01*
Y48100D02*
Y48600D01*
X57897Y42404D02*
X57905Y42412D01*
X45367Y40800D02*
Y42600D01*
Y40800D02*
X45367Y40800D01*
X26846Y40446D02*
X27773D01*
X26800Y40400D02*
X26846Y40446D01*
X33954D02*
X34000Y40400D01*
X32768Y40446D02*
X33954D01*
X58332Y38189D02*
Y39954D01*
X58297Y38154D02*
X58332Y38189D01*
X59832Y37419D02*
Y38154D01*
X58332Y39954D02*
Y40689D01*
X59397Y41254D02*
X59862Y40789D01*
X57897Y37054D02*
X58297Y37454D01*
X57897Y36224D02*
Y37054D01*
X59862Y39954D02*
Y40789D01*
X58332Y40689D02*
X58897Y41254D01*
X59832Y37419D02*
X60197Y37054D01*
X59397Y41254D02*
Y42404D01*
X60197Y36124D02*
X60267Y36054D01*
X60197Y36124D02*
Y37054D01*
X59832Y38154D02*
X59862Y38184D01*
X58297Y37454D02*
Y38154D01*
X57727Y36054D02*
X57897Y36224D01*
X58897Y41254D02*
Y42404D01*
X59862Y38184D02*
Y39954D01*
X29090Y56190D02*
X33060D01*
X27640Y56125D02*
X29025D01*
X28955Y57655D02*
X29090Y57790D01*
X27640Y57655D02*
X28955D01*
X29025Y56125D02*
X29090Y56190D01*
D43*
X33700Y32700D02*
D03*
X53150Y59475D02*
D03*
X67300Y40600D02*
D03*
X71000Y62075D02*
D03*
X37394Y54990D02*
D03*
X75825Y37400D02*
D03*
D44*
X64550D02*
D03*
X69050D02*
D03*
D45*
X38225Y37350D02*
D03*
Y36400D02*
D03*
Y35450D02*
D03*
X40975D02*
D03*
Y36400D02*
D03*
Y37350D02*
D03*
D46*
X35850Y30425D02*
D03*
X36500D02*
D03*
X37150D02*
D03*
Y28175D02*
D03*
X36500D02*
D03*
X35850D02*
D03*
D48*
X26600Y48100D02*
D03*
X30000D02*
D03*
D49*
X36500Y37165D02*
D03*
Y35635D02*
D03*
X39700Y26300D02*
D03*
Y27830D02*
D03*
X38684Y30629D02*
D03*
Y32159D02*
D03*
X47675Y56785D02*
D03*
Y58315D02*
D03*
X27623Y57638D02*
D03*
Y56107D02*
D03*
X59600Y30830D02*
D03*
Y29300D02*
D03*
X61700Y29335D02*
D03*
Y30865D02*
D03*
X64500Y29300D02*
D03*
Y30830D02*
D03*
X66600Y29300D02*
D03*
Y30830D02*
D03*
X59600Y24570D02*
D03*
Y26100D02*
D03*
X61700Y24570D02*
D03*
Y26100D02*
D03*
X64500Y24570D02*
D03*
Y26100D02*
D03*
X66600Y24570D02*
D03*
Y26100D02*
D03*
X42443Y41811D02*
D03*
Y40281D02*
D03*
X42700Y37265D02*
D03*
Y35735D02*
D03*
X57700Y29300D02*
D03*
Y30830D02*
D03*
X40800Y56320D02*
D03*
Y57850D02*
D03*
X75717Y46714D02*
D03*
Y45184D02*
D03*
D50*
X30175Y35422D02*
D03*
Y37222D02*
D03*
X40800Y42100D02*
D03*
Y40300D02*
D03*
D51*
X42530Y34000D02*
D03*
X41000D02*
D03*
X42530Y32300D02*
D03*
X41000D02*
D03*
X35454Y31900D02*
D03*
X36984D02*
D03*
X45367Y42600D02*
D03*
X43837D02*
D03*
X43837Y40700D02*
D03*
X45367D02*
D03*
X40770Y44100D02*
D03*
X42300D02*
D03*
X44710Y58325D02*
D03*
X46240D02*
D03*
X64470Y34700D02*
D03*
X66000D02*
D03*
X69365D02*
D03*
X67835D02*
D03*
X59570Y27700D02*
D03*
X61100D02*
D03*
X62370D02*
D03*
X63900D02*
D03*
X65135D02*
D03*
X66665D02*
D03*
X27773Y40446D02*
D03*
X29303D02*
D03*
X35435Y33600D02*
D03*
X36965D02*
D03*
X31238Y40446D02*
D03*
X32768D02*
D03*
X72844Y45212D02*
D03*
X74374D02*
D03*
X74397Y46660D02*
D03*
X72867D02*
D03*
D52*
X34400Y48100D02*
D03*
X35400D02*
D03*
X32400D02*
D03*
X31400D02*
D03*
D53*
X46516Y46200D02*
D03*
X46114D02*
D03*
X45712D02*
D03*
X45310D02*
D03*
X44908D02*
D03*
X44506D02*
D03*
X44104D02*
D03*
X43702D02*
D03*
X43300D02*
D03*
X42898D02*
D03*
X42496D02*
D03*
X42094D02*
D03*
X41692D02*
D03*
X41290D02*
D03*
X40888D02*
D03*
X40486D02*
D03*
X40084D02*
D03*
Y54000D02*
D03*
X40486D02*
D03*
X40888D02*
D03*
X41290D02*
D03*
X41692D02*
D03*
X42094D02*
D03*
X42496D02*
D03*
X42898D02*
D03*
X43300D02*
D03*
X43702D02*
D03*
X44104D02*
D03*
X44506D02*
D03*
X44908D02*
D03*
X45310D02*
D03*
X45712D02*
D03*
X46114D02*
D03*
X46516D02*
D03*
D54*
X39400Y46884D02*
D03*
X47200Y53316D02*
D03*
Y52914D02*
D03*
Y52512D02*
D03*
Y52110D02*
D03*
Y51708D02*
D03*
Y51306D02*
D03*
Y50904D02*
D03*
Y50502D02*
D03*
Y50100D02*
D03*
Y49698D02*
D03*
Y49296D02*
D03*
Y48894D02*
D03*
Y48492D02*
D03*
Y48090D02*
D03*
Y47688D02*
D03*
Y47286D02*
D03*
Y46884D02*
D03*
X39400Y47286D02*
D03*
Y47688D02*
D03*
Y48090D02*
D03*
Y48492D02*
D03*
Y48894D02*
D03*
Y49296D02*
D03*
Y49698D02*
D03*
Y50100D02*
D03*
Y50502D02*
D03*
Y50904D02*
D03*
Y51306D02*
D03*
Y51708D02*
D03*
Y52110D02*
D03*
Y52512D02*
D03*
Y52914D02*
D03*
Y53316D02*
D03*
D55*
X34900Y36400D02*
D03*
X31900D02*
D03*
D56*
X47350Y34250D02*
D03*
X44650Y36950D02*
D03*
D57*
X38100Y25600D02*
D03*
X35900D02*
D03*
D58*
X33400Y48100D02*
D03*
Y49100D02*
D03*
D59*
X46250Y56775D02*
D03*
X44750D02*
D03*
D60*
X36975Y44375D02*
D03*
Y43025D02*
D03*
X38025D02*
D03*
Y44375D02*
D03*
D61*
X59700Y38200D02*
D03*
X61500D02*
D03*
X58200Y40100D02*
D03*
X60000D02*
D03*
X56500Y38200D02*
D03*
X58300D02*
D03*
X39425Y59575D02*
D03*
X41225D02*
D03*
D62*
X29025Y56125D02*
D03*
X33125D02*
D03*
Y57725D02*
D03*
X29025D02*
D03*
D63*
X57727Y36054D02*
D03*
X58997D02*
D03*
X60267D02*
D03*
Y33006D02*
D03*
X57727D02*
D03*
D64*
X62897Y50154D02*
D03*
D65*
X68897Y42404D02*
D03*
X68397D02*
D03*
X67897D02*
D03*
X67397D02*
D03*
X66897D02*
D03*
X66397D02*
D03*
X65897D02*
D03*
X65397D02*
D03*
X64897D02*
D03*
X63397D02*
D03*
X62897D02*
D03*
X62397D02*
D03*
X61897D02*
D03*
X61397D02*
D03*
X60897D02*
D03*
X60397D02*
D03*
X59897D02*
D03*
X59397D02*
D03*
X58897D02*
D03*
X58397D02*
D03*
X57897D02*
D03*
X57397D02*
D03*
X56897D02*
D03*
Y57904D02*
D03*
X57397D02*
D03*
X57897D02*
D03*
X58397D02*
D03*
X58897D02*
D03*
X59397D02*
D03*
X59897D02*
D03*
X60397D02*
D03*
X60897D02*
D03*
X61397D02*
D03*
X61897D02*
D03*
X62397D02*
D03*
X62897D02*
D03*
X63397D02*
D03*
X63897D02*
D03*
X64397D02*
D03*
X64897D02*
D03*
X65397D02*
D03*
X65897D02*
D03*
X66397D02*
D03*
X66897D02*
D03*
X67397D02*
D03*
X67897D02*
D03*
X68397D02*
D03*
X68897D02*
D03*
X64397Y42404D02*
D03*
X63897D02*
D03*
D66*
X55147Y44154D02*
D03*
Y44654D02*
D03*
Y45154D02*
D03*
Y45654D02*
D03*
Y46154D02*
D03*
Y46654D02*
D03*
Y47154D02*
D03*
Y47654D02*
D03*
Y48154D02*
D03*
Y48654D02*
D03*
Y49154D02*
D03*
Y49654D02*
D03*
Y50154D02*
D03*
Y50654D02*
D03*
Y51154D02*
D03*
Y51654D02*
D03*
Y52154D02*
D03*
Y52654D02*
D03*
Y53154D02*
D03*
Y53654D02*
D03*
Y54154D02*
D03*
Y54654D02*
D03*
Y55154D02*
D03*
Y55654D02*
D03*
Y56154D02*
D03*
X70647D02*
D03*
Y55654D02*
D03*
Y55154D02*
D03*
Y54654D02*
D03*
Y54154D02*
D03*
Y53654D02*
D03*
Y53154D02*
D03*
Y52654D02*
D03*
Y52154D02*
D03*
Y51654D02*
D03*
Y51154D02*
D03*
Y50654D02*
D03*
Y50154D02*
D03*
Y49654D02*
D03*
Y49154D02*
D03*
Y48654D02*
D03*
Y48154D02*
D03*
Y47654D02*
D03*
Y47154D02*
D03*
Y46654D02*
D03*
Y46154D02*
D03*
Y45654D02*
D03*
Y45154D02*
D03*
Y44654D02*
D03*
Y44154D02*
D03*
D98*
X62897Y50154D02*
D03*
X64297Y48754D02*
D03*
X61597D02*
D03*
X64297Y51554D02*
D03*
X61597D02*
D03*
X36400Y46900D02*
D03*
X34468Y49886D02*
D03*
X36703Y49606D02*
D03*
X34442Y46914D02*
D03*
X37390Y47016D02*
D03*
X38368Y49497D02*
D03*
X28042Y55042D02*
D03*
X41422Y55093D02*
D03*
X47219Y54601D02*
D03*
X49701Y49562D02*
D03*
X48902Y48126D02*
D03*
X43832Y45194D02*
D03*
X39702Y25222D02*
D03*
X46050Y32944D02*
D03*
X43612Y33553D02*
D03*
X44374Y33579D02*
D03*
X45263Y33553D02*
D03*
X44374Y32410D02*
D03*
X45187Y32385D02*
D03*
X40945Y25375D02*
D03*
X41834Y26187D02*
D03*
X79400Y58395D02*
D03*
X26677Y28756D02*
D03*
X50935Y42189D02*
D03*
Y36627D02*
D03*
Y32385D02*
D03*
X49581Y47600D02*
D03*
X48795Y47257D02*
D03*
X58396Y59851D02*
D03*
X66933Y59804D02*
D03*
X71918Y45253D02*
D03*
X62988Y41104D02*
D03*
X52377Y44905D02*
D03*
X72998Y55149D02*
D03*
X59670Y62170D02*
D03*
X68005D02*
D03*
X73050Y52172D02*
D03*
X76600Y52100D02*
D03*
X45161Y29108D02*
D03*
X30886Y30810D02*
D03*
X74344Y42022D02*
D03*
X41885Y25400D02*
D03*
X40919Y26187D02*
D03*
X43612Y32385D02*
D03*
X53814Y56455D02*
D03*
X57760Y43704D02*
D03*
X60710Y43964D02*
D03*
X40986Y29343D02*
D03*
X39869D02*
D03*
X34442Y29210D02*
D03*
X39599Y34290D02*
D03*
X39878Y30734D02*
D03*
X39599Y33071D02*
D03*
X40970Y30709D02*
D03*
X73381Y33579D02*
D03*
X57607Y51257D02*
D03*
X50673Y57836D02*
D03*
X51791Y62332D02*
D03*
X46177D02*
D03*
X78816Y49098D02*
D03*
X78791Y44298D02*
D03*
X78689Y40488D02*
D03*
X78613Y36195D02*
D03*
X73508D02*
D03*
X66040Y33579D02*
D03*
X67767Y33604D02*
D03*
X76937Y32563D02*
D03*
X71896Y46772D02*
D03*
X65866Y40566D02*
D03*
X71911Y51308D02*
D03*
X49682Y48641D02*
D03*
X44503Y55050D02*
D03*
X71890Y54154D02*
D03*
Y49149D02*
D03*
X62184Y59200D02*
D03*
X64199Y59202D02*
D03*
X67897Y59200D02*
D03*
X57055Y43593D02*
D03*
X56325Y43574D02*
D03*
X55169Y43586D02*
D03*
X68047Y43713D02*
D03*
X68377Y49149D02*
D03*
Y51029D02*
D03*
Y54102D02*
D03*
X56447Y47295D02*
D03*
X52959Y49454D02*
D03*
X52908Y52857D02*
D03*
X53823Y53924D02*
D03*
X49632Y53848D02*
D03*
X59389Y59200D02*
D03*
X70612Y43400D02*
D03*
X62179Y55347D02*
D03*
X57429Y48743D02*
D03*
X53721Y48844D02*
D03*
X37384Y54975D02*
D03*
X41123Y45110D02*
D03*
X56500Y30150D02*
D03*
X54331D02*
D03*
Y27254D02*
D03*
X56500D02*
D03*
X52300Y24663D02*
D03*
X54332D02*
D03*
X58395D02*
D03*
X56500D02*
D03*
X52300Y32461D02*
D03*
Y34417D02*
D03*
Y30201D02*
D03*
Y27254D02*
D03*
X56500Y32512D02*
D03*
Y34595D02*
D03*
X61503Y32512D02*
D03*
Y34595D02*
D03*
Y36678D02*
D03*
X56500D02*
D03*
X63094Y30836D02*
D03*
X65557Y30810D02*
D03*
X60681Y30836D02*
D03*
Y24663D02*
D03*
X65557D02*
D03*
X63094D02*
D03*
X68377Y45768D02*
D03*
Y44526D02*
D03*
X43600Y55050D02*
D03*
X48400Y55275D02*
D03*
X75825Y37400D02*
D03*
X38035Y45179D02*
D03*
X47660Y59129D02*
D03*
X46235Y59179D02*
D03*
X53150Y59475D02*
D03*
X36975Y42250D02*
D03*
X48400Y53775D02*
D03*
X34475Y56125D02*
D03*
X65534Y62495D02*
D03*
X62642Y62495D02*
D03*
X66900Y34700D02*
D03*
X67300Y40600D02*
D03*
X45402Y39700D02*
D03*
X43802D02*
D03*
X28500Y42500D02*
D03*
X26500D02*
D03*
X32521Y51600D02*
D03*
X60900Y47295D02*
D03*
X59400D02*
D03*
X57900D02*
D03*
X52300Y36600D02*
D03*
X66700Y44800D02*
D03*
X32900Y24700D02*
D03*
X52300Y42200D02*
D03*
Y40400D02*
D03*
Y38400D02*
D03*
X53735Y35500D02*
D03*
X56500Y39300D02*
D03*
X61503Y39346D02*
D03*
X68377Y47139D02*
D03*
X32496Y53555D02*
D03*
X30496D02*
D03*
X28496D02*
D03*
X26496D02*
D03*
X32521Y49928D02*
D03*
Y46428D02*
D03*
Y44428D02*
D03*
Y42500D02*
D03*
X30521D02*
D03*
X64979Y44800D02*
D03*
X71000Y62075D02*
D03*
X78578Y32631D02*
D03*
X68377Y52400D02*
D03*
X76740Y55018D02*
D03*
X63279Y44800D02*
D03*
X66079Y46121D02*
D03*
X62320Y45926D02*
D03*
X33700Y32700D02*
D03*
X57493Y53980D02*
D03*
X59293Y55347D02*
D03*
X67900D02*
D03*
X64211D02*
D03*
X34295Y57655D02*
D03*
X26642Y40477D02*
D03*
X34142Y40377D02*
D03*
X41447Y51357D02*
D03*
X42000Y49500D02*
D03*
X44700Y48100D02*
D03*
X45900Y51400D02*
D03*
X44400Y51414D02*
D03*
D99*
X37867Y46540D02*
D03*
D100*
X36990Y44677D02*
G03*
X36990Y44676I248J-13D01*
G01*
X37867Y46540D02*
G03*
X36991Y44683I2181J-2165D01*
G01*
X38698Y46884D02*
G03*
X37867Y46540I0J-1175D01*
G01*
X43853Y45069D02*
G03*
X43857Y45048I245J40D01*
G01*
X38924Y43230D02*
G03*
X40083Y46115I-3237J2975D01*
G01*
X38302Y43025D02*
G03*
X38919Y43224I115J699D01*
G01*
D02*
G03*
X38924Y43230I-177J174D01*
G01*
X36545Y47674D02*
X36990D01*
X36400Y47528D02*
X36545Y47674D01*
X36400Y46900D02*
Y47528D01*
X37007Y47690D02*
X37287D01*
X36990Y47674D02*
X37007Y47690D01*
X36990Y44677D02*
X36991Y44683D01*
X36990Y44676D02*
Y44676D01*
X37543Y47088D02*
X37728Y47273D01*
X37390Y47016D02*
X37543Y47088D01*
X38849Y48491D02*
X38944D01*
X38435Y48906D02*
X38849Y48491D01*
X38435Y48906D02*
Y49430D01*
X38368Y49497D02*
X38435Y49430D01*
X37287Y47690D02*
X37619D01*
X43702Y54000D02*
Y54854D01*
X44907Y54001D02*
Y54645D01*
X44503Y55050D02*
X44907Y54645D01*
X41422Y55061D02*
Y55093D01*
Y55055D02*
Y55061D01*
X41453Y55093D01*
X41290Y54930D02*
X41422Y55061D01*
X44104Y45513D02*
Y46200D01*
X43857Y45267D02*
X44104Y45513D01*
X43855Y45267D02*
X43857D01*
X43702Y45420D02*
X43855Y45267D01*
X43702Y45420D02*
Y46200D01*
X43857Y42620D02*
Y44398D01*
X43832Y45194D02*
X43853Y45069D01*
X43857Y45048D02*
X43857Y44398D01*
X42898Y49698D02*
X43300Y50100D01*
X42898Y46200D02*
Y49698D01*
X42094Y54000D02*
X42095Y54001D01*
Y54812D01*
X41422Y55055D02*
X41692Y54785D01*
X40748Y54813D02*
X40887Y54674D01*
Y54001D02*
Y54674D01*
X42096Y54813D02*
Y59538D01*
X40748Y54813D02*
Y55413D01*
X42095Y54812D02*
X42096Y54813D01*
X40748Y55413D02*
X40779Y55444D01*
Y56299D01*
X40887Y54001D02*
X40888Y54000D01*
X40779Y56299D02*
X40800Y56320D01*
X41692Y54000D02*
Y54785D01*
X41290Y54000D02*
Y54930D01*
X46516Y54375D02*
X46742Y54601D01*
X47219D01*
X46516Y54000D02*
Y54375D01*
X46114Y54725D02*
X46664Y55275D01*
X48400D01*
X46114Y54000D02*
Y54725D01*
X45310Y54000D02*
Y55200D01*
X44750Y55760D02*
X45310Y55200D01*
X45712Y54000D02*
Y55237D01*
X46250Y55775D01*
X44907Y54001D02*
X44908Y54000D01*
X38276Y43025D02*
X38302D01*
X38025Y43025D02*
X38276Y43025D01*
X40083Y46115D02*
X40083D01*
X40084Y46200D01*
X38698Y46884D02*
X39400D01*
X37619Y47690D02*
X37636Y47674D01*
X36975Y44375D02*
X36990Y44676D01*
X38164Y47674D02*
X38180Y47689D01*
X37636Y47674D02*
X38164D01*
X37728Y47273D02*
X38330D01*
X39399Y47689D02*
X39400Y47688D01*
X38343Y47286D02*
X39400D01*
X38180Y47689D02*
X39399D01*
X38330Y47273D02*
X38343Y47286D01*
X47804Y53315D02*
X48104Y53616D01*
X48146D01*
X48305Y53775D01*
X47599Y53315D02*
X47804D01*
X48305Y53775D02*
X48400D01*
X47200Y50904D02*
X47201Y50905D01*
X47762D01*
X52512Y55654D01*
X47557Y50501D02*
X47934D01*
X52586Y55154D01*
X48107Y50100D02*
X52661Y54654D01*
X47200Y50100D02*
X48107D01*
X47897Y49297D02*
X50727Y52127D01*
X47200Y49296D02*
X47201Y49297D01*
X47897D01*
X47752Y48491D02*
X47752Y48491D01*
X47787Y47285D02*
X48497Y46575D01*
X47201Y48491D02*
X47752D01*
X47752Y48491D02*
X48311D01*
X47200Y47688D02*
X48276D01*
X47201Y48091D02*
X48866D01*
X47200Y48894D02*
X48075D01*
X48276Y47688D02*
X48707Y47257D01*
X55147Y51654D02*
X55679D01*
X47201Y47285D02*
X47787D01*
X48075Y48894D02*
X50835Y51654D01*
X48866Y48091D02*
X48902Y48126D01*
X48707Y47257D02*
X48795D01*
X47200Y48090D02*
X47201Y48091D01*
X50835Y51654D02*
X55147D01*
X47200Y48492D02*
X47201Y48491D01*
X48311Y48491D02*
X48640Y48820D01*
X49199D02*
X49311Y48708D01*
X48640Y48820D02*
X49199D01*
X49615Y48708D02*
X49682Y48641D01*
X49311Y48708D02*
X49615D01*
X47200Y47286D02*
X47201Y47285D01*
X48358Y46101D02*
X49673D01*
X47200Y46884D02*
X47575D01*
X48358Y46101D01*
X46516Y46200D02*
X46517Y46199D01*
Y45632D02*
Y46199D01*
Y45632D02*
X46649Y45500D01*
X45712Y45488D02*
Y46200D01*
Y45488D02*
X46287Y44913D01*
X45310Y45244D02*
X46048Y44506D01*
X45310Y45244D02*
Y46200D01*
X44908Y44992D02*
Y46200D01*
Y44992D02*
X45800Y44100D01*
X43158Y43658D02*
Y45473D01*
X42397Y42897D02*
X43158Y43658D01*
Y45473D02*
X43299Y45615D01*
Y46199D01*
X44506Y44581D02*
X45577Y43510D01*
X44506Y44581D02*
Y46200D01*
X43837Y42600D02*
X43857Y42620D01*
X45800Y44100D02*
X50041D01*
X43299Y46199D02*
X43300Y46200D01*
X42300Y45200D02*
X42494Y45394D01*
Y45735D01*
X42499Y59371D02*
Y59599D01*
X42496Y59368D02*
X42499Y59371D01*
X42496Y54000D02*
Y59368D01*
X42898Y59240D02*
X42899Y59242D01*
X42898Y54000D02*
Y59240D01*
X42499Y59599D02*
X42502Y59602D01*
X50394Y47396D02*
Y50194D01*
X49673Y46101D02*
X50825Y47253D01*
X49572Y46575D02*
X50394Y47396D01*
X48497Y46575D02*
X49572D01*
X50825Y47253D02*
Y49825D01*
X51300Y47109D02*
Y49600D01*
X49691Y45500D02*
X51300Y47109D01*
X46649Y45500D02*
X49691D01*
X52512Y55654D02*
X55147D01*
X52661Y54654D02*
X55147D01*
X52586Y55154D02*
X55147D01*
X50727Y52127D02*
X54400D01*
X50394Y50194D02*
X51354Y51154D01*
X50041Y44100D02*
X53095Y47154D01*
X45577Y43510D02*
X50026D01*
X53169Y46654D01*
X46287Y44913D02*
X49704D01*
X53020Y47654D02*
X55128D01*
X53169Y46654D02*
X55147D01*
X46048Y44506D02*
X49872D01*
X52945Y48154D02*
X55147D01*
X53095Y47154D02*
X55147D01*
X49704Y44913D02*
X52945Y48154D01*
X49872Y44506D02*
X53020Y47654D01*
X50825Y49825D02*
X51654Y50654D01*
X51300Y49600D02*
X51854Y50154D01*
X54400Y52127D02*
X54404Y52131D01*
X55124D01*
X55147Y52154D01*
X41200Y43100D02*
X41800D01*
X40800Y42100D02*
X40900Y42200D01*
Y42800D02*
X41200Y43100D01*
X40900Y42200D02*
Y42800D01*
X42300Y44100D02*
Y45200D01*
X43802Y40765D02*
X43837Y40800D01*
X43802Y39700D02*
Y40765D01*
X43837Y40800D02*
Y42500D01*
X42397Y42164D02*
Y42897D01*
X41800Y43100D02*
X42065Y43365D01*
Y44100D01*
X42100Y44135D01*
X51854Y50154D02*
X55147D01*
X51354Y51154D02*
X55147D01*
X51654Y50654D02*
X55147D01*
D101*
X59600Y27670D02*
G03*
X59570Y27700I-30J0D01*
G01*
X59600Y29300D02*
G03*
X59570Y29270I0J-30D01*
G01*
X57700Y28300D02*
G03*
X58300Y27700I600J0D01*
G01*
X38545Y32309D02*
X38689Y32165D01*
X37900Y33600D02*
X38545Y32955D01*
Y32309D02*
Y32955D01*
X38689Y32165D02*
X38719D01*
X39599Y33071D02*
X40217Y32453D01*
X40850D02*
X41000Y32303D01*
X40217Y32453D02*
X40850D01*
X41000Y32300D02*
Y32303D01*
X39599Y33071D02*
Y34290D01*
X42530Y32300D02*
X42680D01*
X43500Y32300D02*
X43585Y32385D01*
X42680Y32300D02*
X43500D01*
X42680Y32300D02*
X42680Y32300D01*
X43585Y32385D02*
X43612D01*
X39599Y34290D02*
X39600Y34291D01*
Y36400D01*
X39700Y26300D02*
X39800Y26200D01*
X38100Y26300D02*
Y26550D01*
Y25600D02*
Y26300D01*
X57727Y30857D02*
Y33006D01*
X64500Y26100D02*
Y27700D01*
Y29300D01*
Y27700D02*
X65135D01*
X63900D02*
X64500D01*
X29557Y34819D02*
X29850Y35112D01*
Y35235D02*
X30050Y35435D01*
X27900Y34819D02*
X29557D01*
X29850Y35112D02*
Y35235D01*
X30050Y35435D02*
X30300D01*
X66632Y27667D02*
X66665Y27700D01*
X66600Y26100D02*
X66632Y26132D01*
Y27667D01*
Y29257D02*
X66675Y29300D01*
X66632Y27733D02*
X66665Y27700D01*
X66632Y27733D02*
Y29257D01*
X66665Y27700D02*
X70900D01*
X71000Y27800D01*
X61735Y26135D02*
Y27700D01*
X61700Y26100D02*
X61735Y26135D01*
X61700Y29335D02*
X61735Y29300D01*
Y27700D02*
Y29300D01*
X61800Y27700D02*
X62370D01*
X61700D02*
X61735D01*
X61100D02*
X61700D01*
X61735D02*
X61800D01*
X58300D02*
X59570D01*
Y29270D01*
X59600Y26100D02*
Y27670D01*
X57700Y28300D02*
Y29300D01*
X42400Y33870D02*
X42530Y34000D01*
X42400Y32430D02*
X42530Y32300D01*
X42400Y32430D02*
Y33870D01*
X37501Y26700D02*
X37950D01*
X38100Y26550D01*
Y26150D02*
X38250Y26300D01*
X42340Y35450D02*
X42625Y35735D01*
X40975Y35450D02*
X42340D01*
X42625Y35735D02*
X42700D01*
X35200Y34600D02*
X35400D01*
X37975Y35400D02*
X38025Y35450D01*
X37375Y34600D02*
X37975Y35200D01*
Y35400D01*
X35400Y34600D02*
X37375D01*
X38025Y35450D02*
X38225D01*
X35800Y30100D02*
Y31282D01*
X35454Y31900D02*
X35604Y31750D01*
X35435Y31919D02*
X35454Y31900D01*
X35604Y31478D02*
X35800Y31282D01*
X35604Y31478D02*
Y31750D01*
X35435Y31919D02*
Y33600D01*
X34285D02*
X35435D01*
X33700Y33015D02*
X34285Y33600D01*
X33700Y32700D02*
Y33015D01*
X37199Y30645D02*
X38569Y32015D01*
X38575D01*
X38719Y32159D01*
X42530Y34000D02*
X46464D01*
X46714Y34250D01*
X47350D01*
X34900Y34900D02*
X35200Y34600D01*
X35400Y34400D01*
X38225Y36400D02*
X39600D01*
X36500Y35635D02*
X36575D01*
X38225Y37350D02*
X38425D01*
X39600Y36400D02*
X40975D01*
X38779Y27830D02*
X39700D01*
X37309Y29300D02*
X38779Y27830D01*
X35850Y25650D02*
X35900Y25600D01*
X36500Y29300D02*
Y30425D01*
Y28175D02*
Y29300D01*
X37309D02*
X38644Y30635D01*
X36500Y29300D02*
X37309D01*
X38644Y30635D02*
X38719D01*
X36984Y31825D02*
Y31900D01*
X36500Y30425D02*
Y31341D01*
X36984Y31825D01*
X36965Y33600D02*
X37900D01*
X35400Y33635D02*
Y34400D01*
Y33635D02*
X35435Y33600D01*
X34900Y34900D02*
Y36400D01*
X40975Y35450D02*
X41000Y35425D01*
Y34000D02*
Y35425D01*
X36575Y35635D02*
X37340Y36400D01*
X38225D01*
X37450Y37350D02*
X38225D01*
X37265Y37165D02*
X37450Y37350D01*
X36500Y37165D02*
X37265D01*
X34900Y36792D02*
X35273Y37165D01*
X36500D01*
X34900Y36400D02*
Y36792D01*
X31527Y37100D02*
X31900Y36727D01*
Y36400D02*
Y36727D01*
X30300Y37100D02*
X31527D01*
X29400D02*
X30300D01*
X29141Y37359D02*
X29400Y37100D01*
X27900Y37359D02*
X29141D01*
D102*
X36726Y48100D02*
D03*
Y48600D02*
D03*
X37313D02*
D03*
Y48100D02*
D03*
X37900Y48600D02*
D03*
Y48100D02*
D03*
D103*
X43300Y50100D02*
D03*
D104*
X36975Y42250D02*
Y42999D01*
X36949Y43025D02*
X36975Y42999D01*
X66900Y34700D02*
X67835D01*
X66000D02*
X66900D01*
D105*
X37150Y27051D02*
X37501Y26700D01*
X37150Y27051D02*
Y28175D01*
X35850Y25650D02*
Y28175D01*
D106*
X42615Y37350D02*
X42700Y37265D01*
X43735D01*
X40975Y37350D02*
X42615D01*
X44050Y36950D02*
X44650D01*
X43735Y37265D02*
X44050Y36950D01*
D107*
X27900Y37359D02*
D03*
X50200Y25400D02*
D03*
X47660D02*
D03*
X32275Y61075D02*
D03*
X34815D02*
D03*
D108*
X27900Y34819D02*
D03*
D109*
X45120Y25400D02*
D03*
X37355Y61075D02*
D03*
D110*
X73875Y30375D02*
D03*
X68725D02*
D03*
X73875Y25225D02*
D03*
X68725D02*
D03*
X71300Y27800D02*
D03*
D111*
X28500Y26400D02*
D03*
X77500D02*
D03*
Y60825D02*
D03*
X28500D02*
D03*
M02*
