G04*
G04 #@! TF.GenerationSoftware,Altium Limited,Altium Designer,21.6.1 (37)*
G04*
G04 Layer_Color=16711935*
%FSLAX43Y43*%
%MOMM*%
G71*
G04*
G04 #@! TF.SameCoordinates,E4B45546-35E5-4839-ABBE-925A39E423B5*
G04*
G04*
G04 #@! TF.FilePolarity,Negative*
G04*
G01*
G75*
%ADD73R,1.050X0.900*%
%ADD74R,1.500X1.000*%
%ADD75R,0.900X1.050*%
%ADD86R,1.000X1.500*%
%ADD92C,1.600*%
%ADD93R,1.600X1.600*%
%ADD94R,1.600X1.600*%
%ADD95C,2.600*%
%ADD96C,4.100*%
%ADD97C,0.700*%
%ADD98C,0.600*%
D73*
X46900Y51435D02*
D03*
Y52965D02*
D03*
X48475Y51445D02*
D03*
Y52975D02*
D03*
X43815Y48009D02*
D03*
Y46479D02*
D03*
X41500Y52335D02*
D03*
Y53865D02*
D03*
X40800Y48000D02*
D03*
Y46470D02*
D03*
X42400Y48000D02*
D03*
Y46470D02*
D03*
X67900Y58265D02*
D03*
Y56735D02*
D03*
X59297Y58219D02*
D03*
Y56689D02*
D03*
X56400Y46365D02*
D03*
Y44835D02*
D03*
X57900D02*
D03*
Y46365D02*
D03*
X59400Y44835D02*
D03*
Y46365D02*
D03*
X67005Y62157D02*
D03*
Y60627D02*
D03*
X58420Y62157D02*
D03*
Y60627D02*
D03*
X63297Y43719D02*
D03*
Y42189D02*
D03*
X64997D02*
D03*
Y43719D02*
D03*
X70637Y42703D02*
D03*
Y41173D02*
D03*
X72263Y42675D02*
D03*
Y41145D02*
D03*
X73127Y47114D02*
D03*
Y48644D02*
D03*
X44400Y52235D02*
D03*
Y53765D02*
D03*
X76962Y29486D02*
D03*
Y31016D02*
D03*
X28042Y56410D02*
D03*
Y57940D02*
D03*
X78600Y29500D02*
D03*
Y31030D02*
D03*
X29693Y56407D02*
D03*
Y57937D02*
D03*
X60900Y46365D02*
D03*
Y44835D02*
D03*
D74*
X62179Y56428D02*
D03*
Y58228D02*
D03*
X64211Y58239D02*
D03*
Y56439D02*
D03*
X68986Y43013D02*
D03*
Y41213D02*
D03*
X66700Y42100D02*
D03*
Y43900D02*
D03*
X50200Y27300D02*
D03*
Y29100D02*
D03*
X48100D02*
D03*
Y27300D02*
D03*
X64084Y62495D02*
D03*
Y60695D02*
D03*
X61417Y60670D02*
D03*
Y62470D02*
D03*
D75*
X45635Y48100D02*
D03*
X47165D02*
D03*
X40965Y49500D02*
D03*
X39435D02*
D03*
X69370Y49100D02*
D03*
X70900D02*
D03*
X69435Y51000D02*
D03*
X70965D02*
D03*
X69435Y54100D02*
D03*
X70965D02*
D03*
X56400Y53900D02*
D03*
X54870D02*
D03*
X56366Y48692D02*
D03*
X54836D02*
D03*
X55165Y42200D02*
D03*
X53635D02*
D03*
X74035Y52100D02*
D03*
X75565D02*
D03*
X75670Y55118D02*
D03*
X74140D02*
D03*
X50470Y49600D02*
D03*
X52000D02*
D03*
X70869Y45822D02*
D03*
X69339D02*
D03*
X69314Y47193D02*
D03*
X70844D02*
D03*
X40186Y54966D02*
D03*
X38656D02*
D03*
X55200Y36600D02*
D03*
X53670D02*
D03*
X67200Y52400D02*
D03*
X65670D02*
D03*
X63535Y46100D02*
D03*
X65065D02*
D03*
X32900Y27900D02*
D03*
X31370D02*
D03*
X32900Y26100D02*
D03*
X31370D02*
D03*
X50335Y52900D02*
D03*
X51865D02*
D03*
X74219Y61978D02*
D03*
X72689D02*
D03*
X74219Y60178D02*
D03*
X72689D02*
D03*
X69339Y44425D02*
D03*
X70869D02*
D03*
D86*
X53400Y38400D02*
D03*
X55200D02*
D03*
X55200Y40400D02*
D03*
X53400D02*
D03*
D92*
X27900Y37359D02*
D03*
X50200Y25400D02*
D03*
X47660D02*
D03*
X32275Y61075D02*
D03*
X34815D02*
D03*
D93*
X27900Y34819D02*
D03*
D94*
X45120Y25400D02*
D03*
X37355Y61075D02*
D03*
D95*
X73875Y30375D02*
D03*
X68725D02*
D03*
X73875Y25225D02*
D03*
X68725D02*
D03*
X71300Y27800D02*
D03*
D96*
X28500Y26400D02*
D03*
X77500D02*
D03*
Y60825D02*
D03*
X28500D02*
D03*
D97*
X62897Y50154D02*
D03*
D98*
X30886Y30810D02*
D03*
X74344Y42022D02*
D03*
X70612Y43400D02*
D03*
M02*
