G04*
G04 #@! TF.GenerationSoftware,Altium Limited,Altium Designer,21.6.1 (37)*
G04*
G04 Layer_Physical_Order=3*
G04 Layer_Color=128*
%FSLAX43Y43*%
%MOMM*%
G71*
G04*
G04 #@! TF.SameCoordinates,E4B45546-35E5-4839-ABBE-925A39E423B5*
G04*
G04*
G04 #@! TF.FilePolarity,Negative*
G04*
G01*
G75*
%ADD12C,0.254*%
%ADD95C,2.600*%
%ADD107C,1.500*%
%ADD112C,1.016*%
%ADD115C,2.000*%
%ADD116C,0.900*%
%ADD117C,2.200*%
%ADD118C,1.100*%
G36*
X25500Y43200D02*
X32000D01*
Y53000D01*
X25500D01*
Y43200D01*
D02*
G37*
D12*
X39650Y32950D02*
X43000Y29600D01*
X39650Y32950D02*
Y38150D01*
X43000Y29600D02*
X53900D01*
X72492Y48692D02*
Y63398D01*
X71780Y47981D02*
X72492Y48692D01*
X71780Y47955D02*
Y47981D01*
X63215Y47955D02*
X71780D01*
X62620Y47320D02*
X63215Y47955D01*
X25574Y29900D02*
X33900D01*
X58500Y42900D02*
X59000Y43400D01*
X58500Y41600D02*
Y42900D01*
X58100Y41200D02*
X58500Y41600D01*
X56700Y41200D02*
X58100D01*
X55900Y40400D02*
X56700Y41200D01*
X55900Y40300D02*
Y40400D01*
X59000Y43400D02*
X61000D01*
X61725Y44125D01*
Y46425D01*
X62620Y47320D01*
X32700Y39300D02*
X33100D01*
X55900Y31600D02*
Y40300D01*
X53900Y29600D02*
X55900Y31600D01*
X33900Y29900D02*
X36600D01*
X38481Y39319D02*
X39650Y38150D01*
X25496Y39319D02*
X38481D01*
X36600Y29900D02*
X39600Y32900D01*
X39700D01*
D95*
X28500Y26400D02*
D03*
X77500D02*
D03*
Y60825D02*
D03*
X28500D02*
D03*
D107*
X27900Y37359D02*
D03*
Y34819D02*
D03*
X50200Y25400D02*
D03*
X47660D02*
D03*
X45120D02*
D03*
X32275Y61075D02*
D03*
X34815D02*
D03*
X37355D02*
D03*
D112*
X80500Y23400D02*
Y63775D01*
X25500D02*
X80500D01*
X25500Y23400D02*
Y63775D01*
Y23400D02*
X80500D01*
D115*
X71300Y27800D02*
D03*
D116*
X36400Y46900D02*
D03*
X34468Y49886D02*
D03*
X36703Y49606D02*
D03*
X34442Y46914D02*
D03*
X28042Y55042D02*
D03*
X41422Y55093D02*
D03*
X49701Y49562D02*
D03*
X79400Y58395D02*
D03*
X26677Y28756D02*
D03*
X50935Y42189D02*
D03*
Y36627D02*
D03*
Y32385D02*
D03*
X49581Y47600D02*
D03*
X48795Y47257D02*
D03*
X58396Y59851D02*
D03*
X66933Y59804D02*
D03*
X71918Y45253D02*
D03*
X62988Y41104D02*
D03*
X52377Y44905D02*
D03*
X59670Y62170D02*
D03*
X68005D02*
D03*
X76600Y52100D02*
D03*
X45161Y29108D02*
D03*
X30886Y30810D02*
D03*
X74344Y42022D02*
D03*
X53814Y56455D02*
D03*
X57760Y43704D02*
D03*
X60710Y43964D02*
D03*
X40986Y29343D02*
D03*
X39869D02*
D03*
X34442Y29210D02*
D03*
X39599Y34290D02*
D03*
X39878Y30734D02*
D03*
X39599Y33071D02*
D03*
X40970Y30709D02*
D03*
X73381Y33579D02*
D03*
X57607Y51257D02*
D03*
X50673Y57836D02*
D03*
X51791Y62332D02*
D03*
X46177D02*
D03*
X78816Y49098D02*
D03*
X78791Y44298D02*
D03*
X78689Y40488D02*
D03*
X78613Y36195D02*
D03*
X73508D02*
D03*
X66040Y33579D02*
D03*
X67767Y33604D02*
D03*
X76937Y32563D02*
D03*
X71896Y46772D02*
D03*
X65866Y40566D02*
D03*
X49682Y48641D02*
D03*
X44503Y55050D02*
D03*
X57055Y43593D02*
D03*
X56325Y43574D02*
D03*
X55169Y43586D02*
D03*
X68047Y43713D02*
D03*
X68377Y49149D02*
D03*
Y51029D02*
D03*
Y54102D02*
D03*
X56447Y47295D02*
D03*
X52959Y49454D02*
D03*
X52908Y52857D02*
D03*
X49632Y53848D02*
D03*
X62179Y55347D02*
D03*
X57429Y48743D02*
D03*
X41123Y45110D02*
D03*
X56500Y30150D02*
D03*
X54331D02*
D03*
Y27254D02*
D03*
X56500D02*
D03*
X52300Y24663D02*
D03*
X54332D02*
D03*
X58395D02*
D03*
X56500D02*
D03*
X52300Y32461D02*
D03*
Y34417D02*
D03*
Y30201D02*
D03*
Y27254D02*
D03*
X56500Y32512D02*
D03*
Y34595D02*
D03*
X61503Y32512D02*
D03*
Y34595D02*
D03*
Y36678D02*
D03*
X56500D02*
D03*
X63094Y30836D02*
D03*
X65557Y30810D02*
D03*
X60681Y30836D02*
D03*
Y24663D02*
D03*
X65557D02*
D03*
X63094D02*
D03*
X68377Y45768D02*
D03*
Y44526D02*
D03*
X43600Y55050D02*
D03*
X48400Y55275D02*
D03*
X38035Y45179D02*
D03*
X47660Y59129D02*
D03*
X46235Y59179D02*
D03*
X53150Y59475D02*
D03*
X36975Y42250D02*
D03*
X34475Y56125D02*
D03*
X65534Y62495D02*
D03*
X62642Y62495D02*
D03*
X66900Y34700D02*
D03*
X67300Y40600D02*
D03*
X45402Y39700D02*
D03*
X28500Y42500D02*
D03*
X26500D02*
D03*
X32521Y51600D02*
D03*
X60900Y47295D02*
D03*
X59400D02*
D03*
X57900D02*
D03*
X66700Y44800D02*
D03*
X32900Y24700D02*
D03*
X52300Y42200D02*
D03*
Y40400D02*
D03*
Y38400D02*
D03*
X56500Y39300D02*
D03*
X61503Y39346D02*
D03*
X68377Y47139D02*
D03*
X32496Y53555D02*
D03*
X30496D02*
D03*
X28496D02*
D03*
X26496D02*
D03*
X32521Y49928D02*
D03*
Y46428D02*
D03*
Y44428D02*
D03*
Y42500D02*
D03*
X30521D02*
D03*
X64979Y44800D02*
D03*
X71000Y62075D02*
D03*
X78578Y32631D02*
D03*
X68377Y52400D02*
D03*
X76740Y55018D02*
D03*
X63279Y44800D02*
D03*
X66079Y46121D02*
D03*
X62320Y45926D02*
D03*
X57493Y53980D02*
D03*
X59293Y55347D02*
D03*
X67900D02*
D03*
X64211D02*
D03*
X34295Y57655D02*
D03*
X26642Y40477D02*
D03*
X41447Y51357D02*
D03*
X42000Y49500D02*
D03*
X44700Y48100D02*
D03*
X45900Y51400D02*
D03*
X44400Y51414D02*
D03*
D117*
X73875Y30375D02*
D03*
X68725D02*
D03*
X73875Y25225D02*
D03*
X68725D02*
D03*
D118*
X62897Y50154D02*
D03*
X64297Y48754D02*
D03*
X61597D02*
D03*
X64297Y51554D02*
D03*
X61597D02*
D03*
M02*
