G04*
G04 #@! TF.GenerationSoftware,Altium Limited,Altium Designer,21.6.1 (37)*
G04*
G04 Layer_Color=8421504*
%FSLAX43Y43*%
%MOMM*%
G71*
G04*
G04 #@! TF.SameCoordinates,E4B45546-35E5-4839-ABBE-925A39E423B5*
G04*
G04*
G04 #@! TF.FilePolarity,Positive*
G04*
G01*
G75*
%ADD39R,1.760X1.760*%
%ADD40R,1.760X1.760*%
%ADD41R,1.760X1.760*%
%ADD42R,1.760X1.760*%
%ADD43C,1.000*%
%ADD44R,1.900X2.400*%
%ADD45R,1.000X0.600*%
%ADD46R,0.400X0.900*%
%ADD47R,0.200X0.200*%
%ADD48R,0.800X1.600*%
%ADD49R,0.950X0.800*%
%ADD50R,1.400X0.900*%
%ADD51R,0.800X0.950*%
%ADD52R,0.600X0.600*%
G04:AMPARAMS|DCode=53|XSize=0.25mm|YSize=1mm|CornerRadius=0mm|HoleSize=0mm|Usage=FLASHONLY|Rotation=0.000|XOffset=0mm|YOffset=0mm|HoleType=Round|Shape=Octagon|*
%AMOCTAGOND53*
4,1,8,-0.063,0.500,0.063,0.500,0.125,0.438,0.125,-0.438,0.063,-0.500,-0.063,-0.500,-0.125,-0.438,-0.125,0.438,-0.063,0.500,0.0*
%
%ADD53OCTAGOND53*%

G04:AMPARAMS|DCode=54|XSize=0.25mm|YSize=1mm|CornerRadius=0mm|HoleSize=0mm|Usage=FLASHONLY|Rotation=270.000|XOffset=0mm|YOffset=0mm|HoleType=Round|Shape=Octagon|*
%AMOCTAGOND54*
4,1,8,0.500,0.063,0.500,-0.063,0.438,-0.125,-0.438,-0.125,-0.500,-0.063,-0.500,0.063,-0.438,0.125,0.438,0.125,0.500,0.063,0.0*
%
%ADD54OCTAGOND54*%

%ADD55R,1.000X2.500*%
G04:AMPARAMS|DCode=56|XSize=1.5mm|YSize=1.4mm|CornerRadius=0mm|HoleSize=0mm|Usage=FLASHONLY|Rotation=225.000|XOffset=0mm|YOffset=0mm|HoleType=Round|Shape=Rectangle|*
%AMROTATEDRECTD56*
4,1,4,0.035,1.025,1.025,0.035,-0.035,-1.025,-1.025,-0.035,0.035,1.025,0.0*
%
%ADD56ROTATEDRECTD56*%

%ADD57R,0.800X2.700*%
%ADD58R,0.600X0.600*%
%ADD59R,1.000X1.250*%
%ADD60R,0.750X0.850*%
%ADD61R,0.900X1.400*%
%ADD62R,0.900X1.000*%
%ADD63R,0.762X1.651*%
%ADD64R,5.000X5.000*%
%ADD65R,0.300X1.500*%
%ADD66R,1.500X0.300*%
D39*
X41280Y52120D02*
D03*
X41280Y50080D02*
D03*
X43280Y52120D02*
D03*
D40*
X41270Y48045D02*
D03*
X45280Y52120D02*
D03*
X45280Y50080D02*
D03*
D41*
X43280D02*
D03*
D42*
X43295Y48045D02*
D03*
X45280Y48045D02*
D03*
D43*
X33700Y32700D02*
D03*
X53150Y59475D02*
D03*
X67300Y40600D02*
D03*
X71000Y62075D02*
D03*
X37394Y54990D02*
D03*
X75825Y37400D02*
D03*
D44*
X64550D02*
D03*
X69050D02*
D03*
D45*
X38225Y37350D02*
D03*
Y36400D02*
D03*
Y35450D02*
D03*
X40975D02*
D03*
Y36400D02*
D03*
Y37350D02*
D03*
D46*
X35850Y30425D02*
D03*
X36500D02*
D03*
X37150D02*
D03*
Y28175D02*
D03*
X36500D02*
D03*
X35850D02*
D03*
D47*
X36726Y48100D02*
D03*
Y48600D02*
D03*
X37313D02*
D03*
Y48100D02*
D03*
X37900Y48600D02*
D03*
Y48100D02*
D03*
D48*
X26600D02*
D03*
X30000D02*
D03*
D49*
X36500Y37165D02*
D03*
Y35635D02*
D03*
X39700Y26300D02*
D03*
Y27830D02*
D03*
X38684Y30629D02*
D03*
Y32159D02*
D03*
X47675Y56785D02*
D03*
Y58315D02*
D03*
X27623Y57638D02*
D03*
Y56107D02*
D03*
X59600Y30830D02*
D03*
Y29300D02*
D03*
X61700Y29335D02*
D03*
Y30865D02*
D03*
X64500Y29300D02*
D03*
Y30830D02*
D03*
X66600Y29300D02*
D03*
Y30830D02*
D03*
X59600Y24570D02*
D03*
Y26100D02*
D03*
X61700Y24570D02*
D03*
Y26100D02*
D03*
X64500Y24570D02*
D03*
Y26100D02*
D03*
X66600Y24570D02*
D03*
Y26100D02*
D03*
X42443Y41811D02*
D03*
Y40281D02*
D03*
X42700Y37265D02*
D03*
Y35735D02*
D03*
X57700Y29300D02*
D03*
Y30830D02*
D03*
X40800Y56320D02*
D03*
Y57850D02*
D03*
X75717Y46714D02*
D03*
Y45184D02*
D03*
D50*
X30175Y35422D02*
D03*
Y37222D02*
D03*
X40800Y42100D02*
D03*
Y40300D02*
D03*
D51*
X42530Y34000D02*
D03*
X41000D02*
D03*
X42530Y32300D02*
D03*
X41000D02*
D03*
X35454Y31900D02*
D03*
X36984D02*
D03*
X45367Y42600D02*
D03*
X43837D02*
D03*
X43837Y40700D02*
D03*
X45367D02*
D03*
X40770Y44100D02*
D03*
X42300D02*
D03*
X44710Y58325D02*
D03*
X46240D02*
D03*
X64470Y34700D02*
D03*
X66000D02*
D03*
X69365D02*
D03*
X67835D02*
D03*
X59570Y27700D02*
D03*
X61100D02*
D03*
X62370D02*
D03*
X63900D02*
D03*
X65135D02*
D03*
X66665D02*
D03*
X27773Y40446D02*
D03*
X29303D02*
D03*
X35435Y33600D02*
D03*
X36965D02*
D03*
X31238Y40446D02*
D03*
X32768D02*
D03*
X72844Y45212D02*
D03*
X74374D02*
D03*
X74397Y46660D02*
D03*
X72867D02*
D03*
D52*
X34400Y48100D02*
D03*
X35400D02*
D03*
X32400D02*
D03*
X31400D02*
D03*
D53*
X46516Y46200D02*
D03*
X46114D02*
D03*
X45712D02*
D03*
X45310D02*
D03*
X44908D02*
D03*
X44506D02*
D03*
X44104D02*
D03*
X43702D02*
D03*
X43300D02*
D03*
X42898D02*
D03*
X42496D02*
D03*
X42094D02*
D03*
X41692D02*
D03*
X41290D02*
D03*
X40888D02*
D03*
X40486D02*
D03*
X40084D02*
D03*
Y54000D02*
D03*
X40486D02*
D03*
X40888D02*
D03*
X41290D02*
D03*
X41692D02*
D03*
X42094D02*
D03*
X42496D02*
D03*
X42898D02*
D03*
X43300D02*
D03*
X43702D02*
D03*
X44104D02*
D03*
X44506D02*
D03*
X44908D02*
D03*
X45310D02*
D03*
X45712D02*
D03*
X46114D02*
D03*
X46516D02*
D03*
D54*
X39400Y46884D02*
D03*
X47200Y53316D02*
D03*
Y52914D02*
D03*
Y52512D02*
D03*
Y52110D02*
D03*
Y51708D02*
D03*
Y51306D02*
D03*
Y50904D02*
D03*
Y50502D02*
D03*
Y50100D02*
D03*
Y49698D02*
D03*
Y49296D02*
D03*
Y48894D02*
D03*
Y48492D02*
D03*
Y48090D02*
D03*
Y47688D02*
D03*
Y47286D02*
D03*
Y46884D02*
D03*
X39400Y47286D02*
D03*
Y47688D02*
D03*
Y48090D02*
D03*
Y48492D02*
D03*
Y48894D02*
D03*
Y49296D02*
D03*
Y49698D02*
D03*
Y50100D02*
D03*
Y50502D02*
D03*
Y50904D02*
D03*
Y51306D02*
D03*
Y51708D02*
D03*
Y52110D02*
D03*
Y52512D02*
D03*
Y52914D02*
D03*
Y53316D02*
D03*
D55*
X34900Y36400D02*
D03*
X31900D02*
D03*
D56*
X47350Y34250D02*
D03*
X44650Y36950D02*
D03*
D57*
X38100Y25600D02*
D03*
X35900D02*
D03*
D58*
X33400Y48100D02*
D03*
Y49100D02*
D03*
D59*
X46250Y56775D02*
D03*
X44750D02*
D03*
D60*
X36975Y44375D02*
D03*
Y43025D02*
D03*
X38025D02*
D03*
Y44375D02*
D03*
D61*
X59700Y38200D02*
D03*
X61500D02*
D03*
X58200Y40100D02*
D03*
X60000D02*
D03*
X56500Y38200D02*
D03*
X58300D02*
D03*
X39425Y59575D02*
D03*
X41225D02*
D03*
D62*
X29025Y56125D02*
D03*
X33125D02*
D03*
Y57725D02*
D03*
X29025D02*
D03*
D63*
X57727Y36054D02*
D03*
X58997D02*
D03*
X60267D02*
D03*
Y33006D02*
D03*
X57727D02*
D03*
D64*
X62897Y50154D02*
D03*
D65*
X68897Y42404D02*
D03*
X68397D02*
D03*
X67897D02*
D03*
X67397D02*
D03*
X66897D02*
D03*
X66397D02*
D03*
X65897D02*
D03*
X65397D02*
D03*
X64897D02*
D03*
X63397D02*
D03*
X62897D02*
D03*
X62397D02*
D03*
X61897D02*
D03*
X61397D02*
D03*
X60897D02*
D03*
X60397D02*
D03*
X59897D02*
D03*
X59397D02*
D03*
X58897D02*
D03*
X58397D02*
D03*
X57897D02*
D03*
X57397D02*
D03*
X56897D02*
D03*
Y57904D02*
D03*
X57397D02*
D03*
X57897D02*
D03*
X58397D02*
D03*
X58897D02*
D03*
X59397D02*
D03*
X59897D02*
D03*
X60397D02*
D03*
X60897D02*
D03*
X61397D02*
D03*
X61897D02*
D03*
X62397D02*
D03*
X62897D02*
D03*
X63397D02*
D03*
X63897D02*
D03*
X64397D02*
D03*
X64897D02*
D03*
X65397D02*
D03*
X65897D02*
D03*
X66397D02*
D03*
X66897D02*
D03*
X67397D02*
D03*
X67897D02*
D03*
X68397D02*
D03*
X68897D02*
D03*
X64397Y42404D02*
D03*
X63897D02*
D03*
D66*
X55147Y44154D02*
D03*
Y44654D02*
D03*
Y45154D02*
D03*
Y45654D02*
D03*
Y46154D02*
D03*
Y46654D02*
D03*
Y47154D02*
D03*
Y47654D02*
D03*
Y48154D02*
D03*
Y48654D02*
D03*
Y49154D02*
D03*
Y49654D02*
D03*
Y50154D02*
D03*
Y50654D02*
D03*
Y51154D02*
D03*
Y51654D02*
D03*
Y52154D02*
D03*
Y52654D02*
D03*
Y53154D02*
D03*
Y53654D02*
D03*
Y54154D02*
D03*
Y54654D02*
D03*
Y55154D02*
D03*
Y55654D02*
D03*
Y56154D02*
D03*
X70647D02*
D03*
Y55654D02*
D03*
Y55154D02*
D03*
Y54654D02*
D03*
Y54154D02*
D03*
Y53654D02*
D03*
Y53154D02*
D03*
Y52654D02*
D03*
Y52154D02*
D03*
Y51654D02*
D03*
Y51154D02*
D03*
Y50654D02*
D03*
Y50154D02*
D03*
Y49654D02*
D03*
Y49154D02*
D03*
Y48654D02*
D03*
Y48154D02*
D03*
Y47654D02*
D03*
Y47154D02*
D03*
Y46654D02*
D03*
Y46154D02*
D03*
Y45654D02*
D03*
Y45154D02*
D03*
Y44654D02*
D03*
Y44154D02*
D03*
M02*
