G04*
G04 #@! TF.GenerationSoftware,Altium Limited,Altium Designer,21.6.1 (37)*
G04*
G04 Layer_Physical_Order=4*
G04 Layer_Color=16711680*
%FSLAX43Y43*%
%MOMM*%
G71*
G04*
G04 #@! TF.SameCoordinates,E4B45546-35E5-4839-ABBE-925A39E423B5*
G04*
G04*
G04 #@! TF.FilePolarity,Positive*
G04*
G01*
G75*
%ADD12C,0.254*%
%ADD49R,0.950X0.800*%
%ADD50R,1.400X0.900*%
%ADD51R,0.800X0.950*%
%ADD61R,0.900X1.400*%
%ADD98C,0.600*%
%ADD101C,0.500*%
%ADD104C,0.450*%
%ADD107C,1.500*%
%ADD108R,1.500X1.500*%
%ADD109R,1.500X1.500*%
%ADD110C,2.500*%
%ADD111C,4.000*%
G36*
X79994Y24035D02*
X79852Y23894D01*
X75519Y23918D01*
Y25130D01*
X75719Y25191D01*
X75828Y25028D01*
X76128Y24728D01*
X76480Y24493D01*
X76872Y24330D01*
X77288Y24248D01*
X77712D01*
X78128Y24330D01*
X78520Y24493D01*
X78872Y24728D01*
X79172Y25028D01*
X79407Y25380D01*
X79570Y25772D01*
X79652Y26188D01*
Y26612D01*
X79570Y27028D01*
X79407Y27420D01*
X79265Y27633D01*
Y29900D01*
X79227Y29991D01*
Y30052D01*
X79181D01*
X79117Y30117D01*
X79000Y30165D01*
X75900D01*
X75783Y30117D01*
X75719Y30052D01*
X75551Y30095D01*
X75519Y30114D01*
Y31468D01*
X73994Y32993D01*
X63569D01*
X62694Y33868D01*
Y40268D01*
X62980Y40554D01*
X63098D01*
X63300Y40638D01*
X63455Y40792D01*
X63538Y40994D01*
Y41213D01*
X63524Y41249D01*
X63560Y41304D01*
X63582Y41413D01*
X63582Y41413D01*
Y41518D01*
X63589Y41534D01*
X63590Y41577D01*
X63593Y41610D01*
X63597Y41634D01*
X63597Y41637D01*
X63924D01*
Y41888D01*
X63927Y41889D01*
X63951Y41893D01*
X63983Y41896D01*
X64027Y41897D01*
X64043Y41904D01*
X64251D01*
X64267Y41897D01*
X64311Y41896D01*
X64343Y41893D01*
X64367Y41889D01*
X64370Y41888D01*
Y41637D01*
X64586D01*
Y41217D01*
X65316Y40488D01*
Y40456D01*
X65399Y40254D01*
X65554Y40099D01*
X65756Y40016D01*
X65975D01*
X66177Y40099D01*
X66210Y40132D01*
X66993D01*
X67191Y40050D01*
X67409D01*
X67607Y40132D01*
X75160D01*
X76256Y41237D01*
X76234Y47058D01*
X76219Y47168D01*
X75219Y48143D01*
X73754D01*
Y49196D01*
X73351D01*
X73350Y49201D01*
X73346Y49224D01*
X73343Y49256D01*
X73342Y49299D01*
X73335Y49315D01*
Y51345D01*
X73483Y51473D01*
X74587D01*
Y52727D01*
X73483D01*
X73335Y52855D01*
Y54565D01*
X73387Y54600D01*
X73587Y54493D01*
Y54491D01*
X74692D01*
Y55745D01*
X73587D01*
Y55745D01*
X73387Y55698D01*
X73335Y55732D01*
Y57226D01*
X73314Y57335D01*
X73252Y57428D01*
X73252Y57428D01*
X70585Y60095D01*
X70492Y60156D01*
X70383Y60178D01*
X70383Y60178D01*
X67633D01*
Y61179D01*
X66378D01*
Y60164D01*
X64937D01*
Y61297D01*
X63232D01*
Y60162D01*
X62270D01*
Y61272D01*
X60565D01*
Y60162D01*
X59198D01*
X59198Y60162D01*
X59047Y60321D01*
Y61179D01*
X57793D01*
Y60131D01*
X55680D01*
X55571Y60109D01*
X55479Y60047D01*
X55479Y60047D01*
X51664Y56232D01*
X51602Y56140D01*
X51580Y56031D01*
X51580Y56031D01*
Y54885D01*
X51390Y54823D01*
X51380Y54823D01*
X50726Y55476D01*
X50634Y55538D01*
X50525Y55560D01*
X50525Y55560D01*
X48877D01*
X48866Y55587D01*
X48712Y55741D01*
X48509Y55825D01*
X48291D01*
X48088Y55741D01*
X47934Y55587D01*
X47850Y55384D01*
Y55166D01*
X47934Y54963D01*
X48088Y54809D01*
X48291Y54725D01*
X48509D01*
X48712Y54809D01*
X48866Y54963D01*
X48877Y54990D01*
X50407D01*
X50896Y54501D01*
Y53575D01*
X50462D01*
Y52900D01*
Y52225D01*
X50896D01*
Y50275D01*
X50597D01*
Y49600D01*
Y48925D01*
X50896D01*
Y46101D01*
X50896Y46101D01*
X50918Y45992D01*
X50980Y45900D01*
X51838Y45041D01*
X51827Y45014D01*
Y44795D01*
X51911Y44593D01*
X52040Y44464D01*
X51369Y43793D01*
Y23918D01*
X26161Y23893D01*
X26019Y24035D01*
X26007Y43059D01*
X26148Y43200D01*
X32000D01*
Y53000D01*
X26001D01*
X25994Y63152D01*
X26136Y63293D01*
X60453D01*
X60517Y63120D01*
X60517Y63093D01*
Y62597D01*
X61417D01*
Y62470D01*
D01*
Y62597D01*
X62111D01*
Y62749D01*
X62114Y62724D01*
X62121Y62703D01*
X62134Y62684D01*
X62152Y62667D01*
X62175Y62653D01*
X62204Y62642D01*
X62237Y62633D01*
X62269Y62628D01*
X62277Y62629D01*
X62303Y62635D01*
X62317Y62639D01*
Y63093D01*
X62317Y63120D01*
X62381Y63293D01*
X63059D01*
X63184Y63145D01*
X63184Y63093D01*
Y62622D01*
X64778D01*
Y62749D01*
X64781Y62725D01*
X64788Y62703D01*
X64801Y62684D01*
X64819Y62668D01*
X64842Y62654D01*
X64871Y62642D01*
X64904Y62633D01*
X64943Y62627D01*
X64984Y62623D01*
Y63093D01*
X64984Y63145D01*
X65109Y63293D01*
X79994D01*
Y24035D01*
D02*
G37*
G36*
X67061Y60233D02*
X67187D01*
X67163Y60230D01*
X67141Y60223D01*
X67122Y60210D01*
X67106Y60192D01*
X67092Y60169D01*
X67080Y60140D01*
X67077Y60129D01*
X67081Y60118D01*
X67090Y60095D01*
X67101Y60074D01*
X67113Y60054D01*
X67127Y60035D01*
X67143Y60018D01*
X67061D01*
X67060Y59976D01*
X66806D01*
X66805Y60018D01*
X66723D01*
X66739Y60035D01*
X66753Y60054D01*
X66765Y60074D01*
X66776Y60095D01*
X66785Y60118D01*
X66789Y60129D01*
X66786Y60140D01*
X66774Y60169D01*
X66760Y60192D01*
X66744Y60210D01*
X66725Y60223D01*
X66703Y60230D01*
X66679Y60233D01*
X66806D01*
X66806Y60256D01*
X67060D01*
X67061Y60233D01*
D02*
G37*
G36*
X64228Y60248D02*
X64354D01*
X64330Y60246D01*
X64308Y60238D01*
X64289Y60225D01*
X64273Y60207D01*
X64259Y60185D01*
X64247Y60157D01*
X64245Y60146D01*
X64250Y60130D01*
X64268Y60097D01*
X64290Y60069D01*
X64318Y60046D01*
X64351Y60029D01*
X64390Y60016D01*
X64433Y60008D01*
X64481Y60006D01*
X64100Y59752D01*
X63719Y60006D01*
X63767Y60008D01*
X63810Y60016D01*
X63849Y60029D01*
X63882Y60046D01*
X63910Y60069D01*
X63932Y60097D01*
X63950Y60130D01*
X63955Y60146D01*
X63953Y60157D01*
X63941Y60185D01*
X63927Y60207D01*
X63911Y60225D01*
X63892Y60238D01*
X63870Y60246D01*
X63846Y60248D01*
X63972D01*
X63973Y60260D01*
X64227D01*
X64228Y60248D01*
D02*
G37*
G36*
X61572Y60226D02*
X61698D01*
X61673Y60223D01*
X61652Y60215D01*
X61633Y60203D01*
X61616Y60185D01*
X61602Y60161D01*
X61592Y60135D01*
X61593Y60129D01*
X61611Y60096D01*
X61634Y60068D01*
X61662Y60045D01*
X61695Y60027D01*
X61733Y60014D01*
X61776Y60007D01*
X61825Y60004D01*
X61444Y59750D01*
X61063Y60004D01*
X61111Y60007D01*
X61154Y60014D01*
X61192Y60027D01*
X61225Y60045D01*
X61253Y60068D01*
X61276Y60096D01*
X61294Y60129D01*
X61296Y60135D01*
X61285Y60161D01*
X61271Y60185D01*
X61254Y60203D01*
X61235Y60215D01*
X61214Y60223D01*
X61190Y60226D01*
X61315D01*
X61317Y60258D01*
X61571D01*
X61572Y60226D01*
D02*
G37*
G36*
X58522Y60273D02*
X58525Y60244D01*
X58527Y60233D01*
X58649D01*
X58624Y60230D01*
X58603Y60223D01*
X58584Y60210D01*
X58567Y60192D01*
X58553Y60169D01*
X58547Y60154D01*
X58552Y60143D01*
X58563Y60122D01*
X58575Y60102D01*
X58589Y60084D01*
X58604Y60068D01*
X58621Y60053D01*
X58640Y60040D01*
X58660Y60028D01*
X58682Y60017D01*
X58705Y60009D01*
X58730Y60001D01*
X58756Y59996D01*
X58784Y59992D01*
X58813Y59989D01*
X58843Y59989D01*
X58853Y59735D01*
X58822Y59734D01*
X58793Y59731D01*
X58766Y59727D01*
X58740Y59721D01*
X58716Y59713D01*
X58693Y59704D01*
X58672Y59693D01*
X58652Y59680D01*
X58634Y59665D01*
X58618Y59649D01*
X58603Y60067D01*
X58526Y60066D01*
X58523Y60025D01*
X58522Y59976D01*
X58268D01*
X58266Y60025D01*
X58263Y60065D01*
X58185Y60064D01*
X58201Y60081D01*
X58215Y60100D01*
X58227Y60120D01*
X58238Y60142D01*
X58242Y60153D01*
X58236Y60169D01*
X58222Y60192D01*
X58205Y60210D01*
X58186Y60223D01*
X58165Y60230D01*
X58141Y60233D01*
X58263D01*
X58264Y60243D01*
X58267Y60272D01*
X58268Y60302D01*
X58522Y60304D01*
X58522Y60273D01*
D02*
G37*
G36*
X58186Y59637D02*
X58169Y59653D01*
X58150Y59667D01*
X58130Y59679D01*
X58108Y59689D01*
X58085Y59698D01*
X58060Y59706D01*
X58034Y59711D01*
X58007Y59716D01*
X57978Y59718D01*
X57947Y59719D01*
X57942Y59973D01*
X57973Y59974D01*
X58002Y59976D01*
X58029Y59980D01*
X58055Y59986D01*
X58079Y59994D01*
X58102Y60003D01*
X58124Y60014D01*
X58143Y60027D01*
X58162Y60041D01*
X58178Y60057D01*
X58186Y59637D01*
D02*
G37*
G36*
X72766Y57108D02*
Y55657D01*
X72762Y55651D01*
X72763Y55646D01*
X72686Y55615D01*
X72532Y55460D01*
X72448Y55258D01*
Y55039D01*
X72532Y54837D01*
X72686Y54682D01*
X72763Y54651D01*
X72762Y54646D01*
X72766Y54640D01*
Y52649D01*
X72739Y52638D01*
X72584Y52483D01*
X72500Y52281D01*
Y52062D01*
X72584Y51860D01*
X72739Y51705D01*
X72766Y51694D01*
Y49390D01*
X72669Y49257D01*
X72602Y49225D01*
X72577Y49220D01*
X72557Y49219D01*
X72466Y49250D01*
X72400Y49355D01*
X72356Y49461D01*
X72202Y49615D01*
X71999Y49699D01*
X71781D01*
X71652Y49646D01*
X71452Y49727D01*
Y49727D01*
X70348D01*
Y48473D01*
X71452D01*
Y48547D01*
X71652Y48652D01*
X71781Y48599D01*
X71999D01*
X72202Y48683D01*
X72299Y48780D01*
X72499Y48700D01*
Y48143D01*
X68019D01*
X66569Y49593D01*
Y51538D01*
X66600Y51725D01*
X66769Y51725D01*
X67073D01*
Y52400D01*
Y53075D01*
X66746D01*
X66600Y53075D01*
X66433Y53154D01*
X66019Y53568D01*
X59968D01*
X59369Y52969D01*
Y49643D01*
X57794Y48068D01*
X56966D01*
Y48565D01*
X56798D01*
X56785Y48553D01*
X56773Y48534D01*
X56765Y48513D01*
X56763Y48489D01*
Y48565D01*
X56366D01*
X55766D01*
Y48017D01*
X55766Y48017D01*
X55868Y47817D01*
X55856Y46917D01*
X55773D01*
Y46067D01*
X53619Y46043D01*
X52818Y45242D01*
X52689Y45371D01*
X52487Y45455D01*
X52268D01*
X52241Y45444D01*
X51466Y46219D01*
Y48973D01*
X52552D01*
X52552Y48973D01*
X52742Y48948D01*
X52850Y48904D01*
X53068D01*
X53099Y48883D01*
X53173Y48731D01*
X53255Y48533D01*
X53409Y48378D01*
X53612Y48294D01*
X53830D01*
X53969Y48351D01*
X54002Y48345D01*
X54002Y48345D01*
X54165D01*
X54180Y48338D01*
X54224Y48337D01*
X54257Y48334D01*
X54281Y48330D01*
X54283Y48329D01*
Y48064D01*
X55388D01*
Y49319D01*
X54283D01*
Y49319D01*
X54083Y49260D01*
X54033Y49310D01*
X53830Y49394D01*
X53612D01*
X53581Y49415D01*
X53507Y49567D01*
X53425Y49765D01*
X53271Y49920D01*
X53068Y50004D01*
X52850D01*
X52752Y49964D01*
X52552Y50086D01*
Y50227D01*
X52300D01*
X52300Y50230D01*
X52296Y50254D01*
X52293Y50286D01*
X52292Y50330D01*
X52285Y50346D01*
Y52079D01*
X52417Y52273D01*
X52417D01*
X52578Y52368D01*
X52617Y52383D01*
X52799Y52307D01*
X53018D01*
X53220Y52391D01*
X53374Y52546D01*
X53458Y52748D01*
Y52967D01*
X53374Y53169D01*
X53220Y53324D01*
X53018Y53407D01*
X52799D01*
X52617Y53332D01*
X52520Y53368D01*
X52417Y53427D01*
Y53527D01*
X52165D01*
X52165Y53530D01*
X52161Y53554D01*
X52158Y53586D01*
X52157Y53630D01*
X52150Y53646D01*
Y55913D01*
X55798Y59561D01*
X57921D01*
X57930Y59540D01*
X58085Y59385D01*
X58287Y59301D01*
X58506D01*
X58654Y59363D01*
X58678Y59356D01*
X58807Y59274D01*
X58839Y59239D01*
Y59091D01*
X58888Y58971D01*
X58779Y58771D01*
X58670D01*
Y57667D01*
X59924D01*
Y58771D01*
X59924D01*
X59889Y58971D01*
X59939Y59091D01*
Y59310D01*
X59904Y59392D01*
X60036Y59592D01*
X61405D01*
X61411Y59589D01*
X61431Y59592D01*
X61456D01*
X61476Y59589D01*
X61620Y59466D01*
X61668Y59392D01*
X61634Y59310D01*
Y59091D01*
X61659Y59030D01*
X61526Y58830D01*
X61327D01*
Y57625D01*
X63032D01*
Y58830D01*
X62843D01*
X62709Y59030D01*
X62734Y59091D01*
Y59310D01*
X62700Y59392D01*
X62831Y59592D01*
X63399D01*
X63399Y59592D01*
X63407Y59594D01*
X63552D01*
X63683Y59394D01*
X63649Y59311D01*
Y59092D01*
X63670Y59041D01*
X63537Y58841D01*
X63359D01*
Y57636D01*
X65064D01*
Y58841D01*
X64862D01*
X64728Y59041D01*
X64749Y59092D01*
Y59311D01*
X64715Y59394D01*
X64846Y59594D01*
X66425D01*
X66467Y59492D01*
X66622Y59338D01*
X66824Y59254D01*
X67043D01*
X67147Y59297D01*
X67347Y59179D01*
Y59091D01*
X67377Y59017D01*
X67273Y58817D01*
X67273D01*
Y57713D01*
X68527D01*
Y58817D01*
X68527D01*
X68417Y59017D01*
X68447Y59091D01*
Y59310D01*
X68406Y59408D01*
X68528Y59608D01*
X70265D01*
X72766Y57108D01*
D02*
G37*
G36*
X64393Y58971D02*
X64379Y58952D01*
X64367Y58932D01*
X64356Y58911D01*
X64347Y58888D01*
X64339Y58863D01*
X64334Y58837D01*
X64333Y58835D01*
X64338Y58809D01*
X64346Y58775D01*
X64358Y58747D01*
X64372Y58724D01*
X64388Y58706D01*
X64407Y58693D01*
X64429Y58685D01*
X64453Y58683D01*
X63945D01*
X63969Y58685D01*
X63991Y58693D01*
X64010Y58706D01*
X64026Y58724D01*
X64040Y58747D01*
X64052Y58775D01*
X64061Y58809D01*
X64065Y58835D01*
X64065Y58837D01*
X64059Y58863D01*
X64051Y58888D01*
X64042Y58911D01*
X64032Y58932D01*
X64019Y58952D01*
X64005Y58971D01*
X63989Y58988D01*
X64409D01*
X64393Y58971D01*
D02*
G37*
G36*
X62378Y58969D02*
X62364Y58951D01*
X62352Y58931D01*
X62341Y58909D01*
X62332Y58886D01*
X62324Y58861D01*
X62319Y58835D01*
X62318Y58829D01*
X62323Y58799D01*
X62331Y58766D01*
X62343Y58738D01*
X62357Y58715D01*
X62373Y58698D01*
X62392Y58685D01*
X62414Y58677D01*
X62438Y58675D01*
X61930D01*
X61954Y58677D01*
X61976Y58685D01*
X61995Y58698D01*
X62011Y58715D01*
X62025Y58738D01*
X62037Y58766D01*
X62046Y58799D01*
X62051Y58829D01*
X62050Y58835D01*
X62044Y58861D01*
X62036Y58886D01*
X62027Y58909D01*
X62016Y58931D01*
X62004Y58951D01*
X61990Y58969D01*
X61974Y58986D01*
X62394D01*
X62378Y58969D01*
D02*
G37*
G36*
X68091D02*
X68077Y58951D01*
X68065Y58931D01*
X68054Y58909D01*
X68045Y58886D01*
X68037Y58861D01*
X68031Y58835D01*
X68029Y58822D01*
X68035Y58785D01*
X68044Y58751D01*
X68056Y58723D01*
X68070Y58700D01*
X68086Y58682D01*
X68105Y58669D01*
X68127Y58661D01*
X68151Y58659D01*
X67643D01*
X67667Y58661D01*
X67689Y58669D01*
X67708Y58682D01*
X67724Y58700D01*
X67738Y58723D01*
X67750Y58751D01*
X67759Y58785D01*
X67765Y58822D01*
X67763Y58835D01*
X67757Y58861D01*
X67749Y58886D01*
X67740Y58909D01*
X67729Y58931D01*
X67717Y58951D01*
X67703Y58969D01*
X67687Y58986D01*
X68107D01*
X68091Y58969D01*
D02*
G37*
G36*
X59583D02*
X59569Y58951D01*
X59556Y58931D01*
X59546Y58909D01*
X59536Y58886D01*
X59529Y58861D01*
X59523Y58835D01*
X59519Y58808D01*
X59519Y58803D01*
X59521Y58777D01*
X59527Y58739D01*
X59536Y58705D01*
X59547Y58677D01*
X59561Y58654D01*
X59578Y58636D01*
X59597Y58623D01*
X59619Y58615D01*
X59643Y58613D01*
X59135D01*
X59159Y58615D01*
X59180Y58623D01*
X59200Y58636D01*
X59216Y58654D01*
X59230Y58677D01*
X59241Y58705D01*
X59250Y58739D01*
X59257Y58777D01*
X59259Y58803D01*
X59258Y58808D01*
X59254Y58835D01*
X59248Y58861D01*
X59241Y58886D01*
X59232Y58909D01*
X59221Y58931D01*
X59209Y58951D01*
X59194Y58969D01*
X59179Y58986D01*
X59599D01*
X59583Y58969D01*
D02*
G37*
G36*
X48631Y55469D02*
X48650Y55455D01*
X48670Y55443D01*
X48691Y55432D01*
X48714Y55423D01*
X48739Y55415D01*
X48765Y55409D01*
X48792Y55405D01*
X48821Y55403D01*
X48852Y55402D01*
Y55148D01*
X48821Y55147D01*
X48792Y55145D01*
X48765Y55141D01*
X48739Y55135D01*
X48714Y55127D01*
X48691Y55118D01*
X48670Y55107D01*
X48650Y55095D01*
X48631Y55081D01*
X48614Y55065D01*
Y55485D01*
X48631Y55469D01*
D02*
G37*
G36*
X73746Y54889D02*
X73743Y54914D01*
X73735Y54935D01*
X73723Y54954D01*
X73705Y54971D01*
X73681Y54985D01*
X73653Y54996D01*
X73620Y55005D01*
X73581Y55011D01*
X73537Y55015D01*
X73489Y55016D01*
Y55270D01*
X73537Y55272D01*
X73581Y55275D01*
X73620Y55282D01*
X73653Y55291D01*
X73681Y55302D01*
X73705Y55316D01*
X73723Y55333D01*
X73735Y55352D01*
X73743Y55373D01*
X73746Y55397D01*
Y54889D01*
D02*
G37*
G36*
X73177Y55569D02*
X73178Y55539D01*
X73183Y55482D01*
X73188Y55455D01*
X73194Y55430D01*
X73201Y55406D01*
X73209Y55383D01*
X73219Y55362D01*
X73230Y55342D01*
X73230Y55341D01*
X73233Y55339D01*
X73251Y55324D01*
X73271Y55312D01*
X73292Y55301D01*
X73315Y55292D01*
X73339Y55284D01*
X73365Y55278D01*
X73393Y55274D01*
X73422Y55271D01*
X73452Y55270D01*
X73447Y55016D01*
X73417Y55016D01*
X73388Y55013D01*
X73360Y55009D01*
X73334Y55003D01*
X73310Y54996D01*
X73286Y54987D01*
X73265Y54976D01*
X73245Y54964D01*
X73228Y54952D01*
X73219Y54935D01*
X73209Y54914D01*
X73201Y54891D01*
X73194Y54867D01*
X73188Y54842D01*
X73183Y54816D01*
X73180Y54788D01*
X73177Y54728D01*
X72923Y54678D01*
X72922Y54709D01*
X72920Y54738D01*
X72915Y54765D01*
X72908Y54790D01*
X72900Y54813D01*
X72889Y54834D01*
X72877Y54854D01*
X72863Y54871D01*
X72847Y54887D01*
X72829Y54901D01*
X73209Y54969D01*
X73215Y55328D01*
X72829Y55396D01*
X72847Y55410D01*
X72863Y55426D01*
X72877Y55444D01*
X72889Y55463D01*
X72900Y55484D01*
X72908Y55508D01*
X72915Y55533D01*
X72920Y55560D01*
X72922Y55589D01*
X72923Y55619D01*
X73177Y55569D01*
D02*
G37*
G36*
X51993Y53577D02*
X51997Y53533D01*
X52003Y53495D01*
X52012Y53461D01*
X52024Y53433D01*
X52038Y53410D01*
X52054Y53392D01*
X52073Y53379D01*
X52095Y53371D01*
X52119Y53369D01*
X51611D01*
X51635Y53371D01*
X51657Y53379D01*
X51676Y53392D01*
X51692Y53410D01*
X51706Y53433D01*
X51718Y53461D01*
X51727Y53495D01*
X51733Y53533D01*
X51737Y53577D01*
X51738Y53626D01*
X51992D01*
X51993Y53577D01*
D02*
G37*
G36*
X52261Y53130D02*
X52269Y53108D01*
X52282Y53089D01*
X52300Y53073D01*
X52323Y53059D01*
X52351Y53047D01*
X52385Y53038D01*
X52423Y53032D01*
X52467Y53028D01*
X52500Y53027D01*
X52511Y53028D01*
X52568Y53033D01*
X52595Y53038D01*
X52620Y53044D01*
X52644Y53052D01*
X52666Y53061D01*
X52687Y53071D01*
X52707Y53083D01*
X52726Y53096D01*
X52666Y52680D01*
X52652Y52698D01*
X52635Y52713D01*
X52617Y52727D01*
X52597Y52739D01*
X52576Y52750D01*
X52552Y52758D01*
X52527Y52765D01*
X52500Y52769D01*
X52473Y52772D01*
X52467Y52772D01*
X52423Y52768D01*
X52385Y52762D01*
X52351Y52753D01*
X52323Y52741D01*
X52300Y52727D01*
X52282Y52711D01*
X52269Y52692D01*
X52261Y52670D01*
X52259Y52646D01*
Y53154D01*
X52261Y53130D01*
D02*
G37*
G36*
X73178Y52593D02*
X73181Y52564D01*
X73185Y52536D01*
X73191Y52510D01*
X73198Y52486D01*
X73207Y52463D01*
X73218Y52441D01*
X73231Y52421D01*
X73245Y52403D01*
X73260Y52386D01*
X72840D01*
X72856Y52403D01*
X72870Y52421D01*
X72883Y52441D01*
X72894Y52463D01*
X72903Y52486D01*
X72910Y52510D01*
X72916Y52536D01*
X72920Y52564D01*
X72923Y52593D01*
X72923Y52623D01*
X73177D01*
X73178Y52593D01*
D02*
G37*
G36*
X73641Y51918D02*
X73639Y51942D01*
X73631Y51963D01*
X73618Y51982D01*
X73600Y51999D01*
X73577Y52013D01*
X73549Y52024D01*
X73515Y52033D01*
X73477Y52040D01*
X73450Y52042D01*
X73443Y52041D01*
X73415Y52037D01*
X73389Y52031D01*
X73365Y52024D01*
X73342Y52015D01*
X73320Y52004D01*
X73300Y51991D01*
X73282Y51977D01*
X73265Y51962D01*
Y52382D01*
X73282Y52366D01*
X73300Y52352D01*
X73320Y52339D01*
X73342Y52328D01*
X73365Y52319D01*
X73389Y52312D01*
X73415Y52306D01*
X73443Y52302D01*
X73450Y52301D01*
X73477Y52304D01*
X73515Y52310D01*
X73549Y52319D01*
X73577Y52330D01*
X73600Y52344D01*
X73618Y52361D01*
X73631Y52380D01*
X73639Y52401D01*
X73641Y52426D01*
Y51918D01*
D02*
G37*
G36*
X52230Y52429D02*
X52208Y52421D01*
X52189Y52408D01*
X52173Y52390D01*
X52159Y52367D01*
X52147Y52339D01*
X52138Y52305D01*
X52132Y52267D01*
X52128Y52223D01*
X52127Y52174D01*
X51873D01*
X51872Y52223D01*
X51868Y52267D01*
X51862Y52305D01*
X51853Y52339D01*
X51841Y52367D01*
X51827Y52390D01*
X51811Y52408D01*
X51792Y52421D01*
X51770Y52429D01*
X51746Y52431D01*
X52254D01*
X52230Y52429D01*
D02*
G37*
G36*
X73245Y51940D02*
X73231Y51922D01*
X73218Y51902D01*
X73207Y51880D01*
X73198Y51857D01*
X73191Y51833D01*
X73185Y51807D01*
X73181Y51779D01*
X73178Y51750D01*
X73177Y51720D01*
X72923D01*
X72923Y51750D01*
X72920Y51779D01*
X72916Y51807D01*
X72910Y51833D01*
X72903Y51857D01*
X72894Y51880D01*
X72883Y51902D01*
X72870Y51922D01*
X72856Y51940D01*
X72840Y51957D01*
X73260D01*
X73245Y51940D01*
D02*
G37*
G36*
X52128Y50277D02*
X52132Y50233D01*
X52138Y50195D01*
X52147Y50161D01*
X52159Y50133D01*
X52173Y50110D01*
X52189Y50092D01*
X52208Y50079D01*
X52230Y50071D01*
X52254Y50069D01*
X51746D01*
X51770Y50071D01*
X51792Y50079D01*
X51811Y50092D01*
X51827Y50110D01*
X51841Y50133D01*
X51853Y50161D01*
X51862Y50195D01*
X51868Y50233D01*
X51872Y50277D01*
X51873Y50326D01*
X52127D01*
X52128Y50277D01*
D02*
G37*
G36*
X52396Y49684D02*
X52404Y49662D01*
X52417Y49643D01*
X52435Y49627D01*
X52458Y49613D01*
X52486Y49601D01*
X52520Y49592D01*
X52558Y49586D01*
X52571Y49585D01*
X52594Y49588D01*
X52620Y49594D01*
X52645Y49602D01*
X52668Y49611D01*
X52689Y49621D01*
X52709Y49634D01*
X52728Y49648D01*
X52745Y49664D01*
Y49244D01*
X52728Y49260D01*
X52709Y49274D01*
X52689Y49286D01*
X52668Y49297D01*
X52645Y49306D01*
X52620Y49314D01*
X52594Y49319D01*
X52571Y49323D01*
X52558Y49322D01*
X52520Y49315D01*
X52486Y49306D01*
X52458Y49295D01*
X52435Y49281D01*
X52417Y49265D01*
X52404Y49246D01*
X52396Y49224D01*
X52394Y49200D01*
Y49708D01*
X52396Y49684D01*
D02*
G37*
G36*
X73179Y49247D02*
X73182Y49204D01*
X73189Y49165D01*
X73198Y49132D01*
X73209Y49104D01*
X73223Y49082D01*
X73240Y49064D01*
X73259Y49051D01*
X73280Y49043D01*
X73304Y49041D01*
X72796D01*
X72821Y49043D01*
X72842Y49051D01*
X72861Y49064D01*
X72878Y49082D01*
X72892Y49104D01*
X72903Y49132D01*
X72912Y49165D01*
X72918Y49204D01*
X72922Y49247D01*
X72923Y49295D01*
X73177D01*
X73179Y49247D01*
D02*
G37*
G36*
X71296Y49379D02*
X71304Y49357D01*
X71317Y49338D01*
X71335Y49322D01*
X71358Y49308D01*
X71386Y49296D01*
X71420Y49287D01*
X71458Y49281D01*
X71488Y49278D01*
X71498Y49279D01*
X71525Y49283D01*
X71551Y49289D01*
X71576Y49297D01*
X71599Y49306D01*
X71620Y49317D01*
X71640Y49329D01*
X71659Y49343D01*
X71676Y49359D01*
Y48939D01*
X71659Y48955D01*
X71640Y48969D01*
X71620Y48981D01*
X71599Y48992D01*
X71576Y49001D01*
X71551Y49009D01*
X71525Y49015D01*
X71498Y49019D01*
X71488Y49020D01*
X71458Y49017D01*
X71420Y49011D01*
X71386Y49002D01*
X71358Y48990D01*
X71335Y48976D01*
X71317Y48960D01*
X71304Y48941D01*
X71296Y48919D01*
X71294Y48895D01*
Y49403D01*
X71296Y49379D01*
D02*
G37*
G36*
X54442Y48376D02*
X54439Y48400D01*
X54431Y48421D01*
X54419Y48440D01*
X54401Y48457D01*
X54377Y48471D01*
X54349Y48482D01*
X54316Y48491D01*
X54277Y48498D01*
X54233Y48501D01*
X54185Y48503D01*
Y48757D01*
X54233Y48758D01*
X54277Y48762D01*
X54316Y48768D01*
X54349Y48777D01*
X54377Y48788D01*
X54401Y48802D01*
X54419Y48819D01*
X54431Y48838D01*
X54439Y48859D01*
X54442Y48884D01*
Y48376D01*
D02*
G37*
G36*
X71240Y47398D02*
X71248Y47376D01*
X71261Y47357D01*
X71279Y47341D01*
X71302Y47327D01*
X71330Y47315D01*
X71363Y47306D01*
X71402Y47300D01*
X71446Y47296D01*
X71495Y47295D01*
Y47041D01*
X71446Y47040D01*
X71402Y47036D01*
X71363Y47029D01*
X71330Y47020D01*
X71302Y47009D01*
X71279Y46995D01*
X71261Y46979D01*
X71248Y46960D01*
X71240Y46938D01*
X71238Y46914D01*
Y47422D01*
X71240Y47398D01*
D02*
G37*
G36*
X72658Y46838D02*
X72655Y46862D01*
X72647Y46883D01*
X72635Y46902D01*
X72617Y46919D01*
X72593Y46933D01*
X72565Y46944D01*
X72532Y46953D01*
X72493Y46960D01*
X72449Y46963D01*
X72401Y46965D01*
Y47219D01*
X72449Y47220D01*
X72493Y47224D01*
X72532Y47230D01*
X72565Y47239D01*
X72593Y47250D01*
X72617Y47264D01*
X72635Y47281D01*
X72647Y47300D01*
X72655Y47321D01*
X72658Y47346D01*
Y46838D01*
D02*
G37*
G36*
X71760Y47177D02*
X71804Y47140D01*
X71825Y47124D01*
X71847Y47110D01*
X71869Y47098D01*
X71891Y47087D01*
X71912Y47079D01*
X71934Y47072D01*
X71946Y47069D01*
X71961Y47067D01*
X71984Y47068D01*
X72007Y47071D01*
X72029Y47077D01*
X72052Y47085D01*
X72074Y47096D01*
X72097Y47109D01*
X72119Y47125D01*
X72142Y47144D01*
X72164Y47165D01*
X72317Y46959D01*
X72296Y46937D01*
X72260Y46893D01*
X72245Y46870D01*
X72231Y46848D01*
X72220Y46826D01*
X72211Y46804D01*
X72203Y46781D01*
X72197Y46759D01*
X72194Y46736D01*
X71945Y47060D01*
X71603Y46838D01*
X71607Y46860D01*
X71608Y46882D01*
X71606Y46904D01*
X71601Y46927D01*
X71594Y46949D01*
X71584Y46971D01*
X71571Y46994D01*
X71555Y47016D01*
X71537Y47039D01*
X71516Y47061D01*
X71738Y47198D01*
X71760Y47177D01*
D02*
G37*
G36*
X65828Y53275D02*
X65721Y53075D01*
X65070D01*
Y52529D01*
X65110Y52532D01*
X65149Y52538D01*
X65182Y52547D01*
X65210Y52559D01*
X65232Y52573D01*
X65250Y52589D01*
X65263Y52608D01*
X65271Y52630D01*
X65273Y52654D01*
Y52527D01*
X65670D01*
Y52400D01*
X65797D01*
Y51725D01*
X66270D01*
X66349Y51558D01*
Y49511D01*
X67949Y47886D01*
X68521D01*
X68714Y47868D01*
X68714Y47686D01*
Y47320D01*
X68885D01*
X68894Y47329D01*
X68906Y47348D01*
X68914Y47369D01*
X68917Y47393D01*
Y47320D01*
X69314D01*
Y47066D01*
X68917D01*
Y46885D01*
X68914Y46909D01*
X68906Y46931D01*
X68894Y46950D01*
X68876Y46967D01*
X68853Y46981D01*
X68825Y46992D01*
X68792Y47001D01*
X68756Y47007D01*
X68742Y47005D01*
X68716Y46999D01*
X68714Y46998D01*
Y46686D01*
X68714Y46518D01*
X68739Y46329D01*
Y45949D01*
X68910D01*
X68919Y45957D01*
X68932Y45976D01*
X68940Y45998D01*
X68942Y46022D01*
Y45949D01*
X69339D01*
Y45695D01*
X68942D01*
Y45514D01*
X68940Y45538D01*
X68932Y45559D01*
X68919Y45578D01*
X68901Y45595D01*
X68879Y45609D01*
X68851Y45620D01*
X68818Y45629D01*
X68779Y45636D01*
X68766Y45637D01*
X68742Y45633D01*
X68739Y45633D01*
Y45300D01*
X68739Y45147D01*
X68739Y44947D01*
Y44661D01*
X68742Y44661D01*
X68766Y44657D01*
X68779Y44658D01*
X68818Y44665D01*
X68851Y44674D01*
X68879Y44685D01*
X68901Y44699D01*
X68919Y44715D01*
X68932Y44734D01*
X68940Y44756D01*
X68942Y44780D01*
Y44552D01*
X69339D01*
Y44298D01*
X68942D01*
Y44272D01*
X68940Y44296D01*
X68939Y44298D01*
X68739D01*
Y43863D01*
X68739Y43750D01*
X68575Y43663D01*
X68349D01*
X68349Y43657D01*
X68354Y43634D01*
X68362Y43611D01*
X68371Y43588D01*
X68383Y43566D01*
X68397Y43543D01*
X68398Y43541D01*
X68436Y43510D01*
X68477Y43480D01*
X68515Y43459D01*
X68549Y43444D01*
X68579Y43436D01*
X68606Y43436D01*
X68629Y43443D01*
X68649Y43457D01*
X68332Y43140D01*
X68986D01*
Y43013D01*
X69113D01*
Y42363D01*
X69810D01*
X69886Y42363D01*
X70010Y42214D01*
Y42151D01*
X71265D01*
Y43256D01*
X71185D01*
X71162Y43290D01*
Y43509D01*
X71125Y43597D01*
X71254Y43797D01*
X71421D01*
Y43827D01*
X71621Y43867D01*
X71655Y43817D01*
X71978Y43494D01*
Y43346D01*
X71971Y43330D01*
X71970Y43286D01*
X71967Y43254D01*
X71963Y43230D01*
X71963Y43227D01*
X71636D01*
Y42123D01*
X72890D01*
Y43227D01*
X72563D01*
X72563Y43230D01*
X72559Y43254D01*
X72556Y43286D01*
X72555Y43330D01*
X72548Y43346D01*
Y43612D01*
X72548Y43612D01*
X72526Y43721D01*
X72464Y43813D01*
X72464Y43813D01*
X72141Y44136D01*
Y44738D01*
X72144Y44742D01*
X72143Y44750D01*
X72230Y44786D01*
X72385Y44941D01*
X72468Y45143D01*
Y45362D01*
X72385Y45564D01*
X72230Y45719D01*
X72028Y45803D01*
X71821D01*
X71718Y45906D01*
X71626Y45967D01*
X71553Y45982D01*
X71521Y45996D01*
X71478Y45997D01*
X71446Y46000D01*
X71441Y46001D01*
X71436Y46197D01*
X71489Y46236D01*
X71621Y46291D01*
X71787Y46222D01*
X72005D01*
X72207Y46306D01*
X72347Y46446D01*
X72499Y46562D01*
X73754D01*
Y47666D01*
X72499D01*
Y47392D01*
X72497Y47391D01*
X72473Y47387D01*
X72440Y47385D01*
X72396Y47383D01*
X72381Y47376D01*
X72271D01*
X72271Y47376D01*
X72162Y47355D01*
X72081Y47301D01*
X72066Y47297D01*
X72005Y47322D01*
X71838D01*
X71836Y47323D01*
X71790Y47369D01*
X71698Y47431D01*
X71589Y47453D01*
X71589Y47453D01*
X71396Y47604D01*
X71396Y47821D01*
X71569Y47886D01*
X75149D01*
X76024Y46986D01*
X75999Y41286D01*
X75074Y40361D01*
X68013D01*
X67850Y40491D01*
Y40709D01*
X67766Y40912D01*
X67612Y41066D01*
X67409Y41150D01*
X67191D01*
X66988Y41066D01*
X66834Y40912D01*
X66750Y40709D01*
Y40491D01*
X66687Y40397D01*
X66455D01*
X66416Y40456D01*
Y40675D01*
X66332Y40877D01*
X66177Y41032D01*
X65975Y41116D01*
X65787D01*
X65466Y41437D01*
X65549Y41637D01*
X65624D01*
Y41636D01*
X65711Y41663D01*
X65848Y41585D01*
Y41498D01*
X67552D01*
X67552Y41498D01*
Y41498D01*
X67705Y41392D01*
X67866Y41231D01*
X67866Y41231D01*
X67959Y41169D01*
X68032Y41154D01*
X68064Y41140D01*
X68103Y41139D01*
X68131Y41137D01*
X68134Y41137D01*
Y40611D01*
X69839D01*
Y40611D01*
X70010Y40621D01*
X70010Y40621D01*
X71265D01*
Y40845D01*
X71267Y40845D01*
X71291Y40849D01*
X71324Y40852D01*
X71368Y40853D01*
X71383Y40860D01*
X71517D01*
X71533Y40853D01*
X71577Y40852D01*
X71609Y40849D01*
X71633Y40845D01*
X71636Y40845D01*
Y40593D01*
X72890D01*
Y41697D01*
X71636D01*
Y41445D01*
X71633Y41445D01*
X71609Y41441D01*
X71577Y41438D01*
X71533Y41437D01*
X71517Y41430D01*
X71383D01*
X71368Y41437D01*
X71324Y41438D01*
X71291Y41441D01*
X71267Y41445D01*
X71265Y41445D01*
Y41726D01*
X70010D01*
Y41726D01*
X69839Y41795D01*
Y41816D01*
X68316D01*
X68313Y41818D01*
X68296Y41817D01*
X68293Y41819D01*
X68134Y41816D01*
X68101Y41802D01*
X67634Y42269D01*
X67552Y42324D01*
Y42702D01*
X65848D01*
Y42702D01*
X65775Y42695D01*
X65624Y42741D01*
Y42741D01*
X64819D01*
Y43119D01*
X64870D01*
Y43592D01*
X64322D01*
Y43386D01*
X63972D01*
Y43592D01*
X63297D01*
Y43719D01*
D01*
Y43592D01*
X62622D01*
Y43119D01*
X63209D01*
X63308Y42941D01*
X63247Y42741D01*
X62670D01*
Y41637D01*
X62580Y41474D01*
X62522Y41415D01*
X62438Y41213D01*
Y40994D01*
X62522Y40792D01*
X62677Y40638D01*
X62688Y40582D01*
X62474Y40361D01*
Y33761D01*
X63499Y32736D01*
X73924D01*
X75258Y31401D01*
X75244Y31304D01*
X75036Y31264D01*
X75035Y31265D01*
X74765Y31535D01*
X74435Y31726D01*
X74066Y31825D01*
X74002D01*
Y30375D01*
Y28925D01*
X74066D01*
X74435Y29024D01*
X74765Y29215D01*
X75035Y29485D01*
X75099Y29594D01*
X75299Y29541D01*
Y26059D01*
X75099Y26006D01*
X75035Y26115D01*
X74765Y26385D01*
X74435Y26576D01*
X74066Y26675D01*
X74002D01*
Y25225D01*
X73875D01*
Y25098D01*
X72425D01*
Y25034D01*
X72524Y24665D01*
X72715Y24335D01*
X72939Y24111D01*
X72874Y23911D01*
X69726D01*
X69661Y24111D01*
X69885Y24335D01*
X70076Y24665D01*
X70175Y25034D01*
Y25098D01*
X67275D01*
Y25034D01*
X67374Y24665D01*
X67565Y24335D01*
X67789Y24111D01*
X67724Y23911D01*
X51649D01*
Y36213D01*
X51780Y36266D01*
X51849Y36274D01*
X51988Y36134D01*
X52191Y36050D01*
X52409D01*
X52612Y36134D01*
X52693Y36215D01*
X52807D01*
X52819Y36210D01*
X52899Y36208D01*
X52964Y36202D01*
X53017Y36193D01*
X53058Y36182D01*
X53086Y36171D01*
X53101Y36162D01*
X53106Y36157D01*
X53106Y36157D01*
X53107Y36156D01*
X53109Y36133D01*
X53113Y36125D01*
X53118Y36114D01*
Y35972D01*
X53147D01*
X53197Y35906D01*
X53251Y35782D01*
X53250Y35767D01*
X53185Y35609D01*
Y35390D01*
X53269Y35188D01*
X53423Y35034D01*
X53626Y34950D01*
X53844D01*
X54047Y35034D01*
X54201Y35188D01*
X54285Y35390D01*
Y35609D01*
X54217Y35772D01*
X54222Y35972D01*
X54232Y36127D01*
X54228Y36137D01*
X54229Y36161D01*
X54222Y36170D01*
Y37227D01*
X53118D01*
Y37083D01*
X53109Y37067D01*
X53107Y37044D01*
X53106Y37043D01*
X53106Y37043D01*
X53101Y37038D01*
X53086Y37029D01*
X53058Y37018D01*
X53017Y37007D01*
X52964Y36998D01*
X52899Y36992D01*
X52819Y36990D01*
X52807Y36985D01*
X52693D01*
X52612Y37066D01*
X52409Y37150D01*
X52191D01*
X51988Y37066D01*
X51849Y36926D01*
X51780Y36934D01*
X51649Y36987D01*
Y43711D01*
X52293Y44355D01*
X52487D01*
X52689Y44438D01*
X52844Y44593D01*
X52927Y44795D01*
Y44989D01*
X53724Y45786D01*
X55725D01*
Y45765D01*
X56273D01*
Y46365D01*
Y46762D01*
X56193D01*
X56217Y46764D01*
X56239Y46772D01*
X56258Y46785D01*
X56273Y46801D01*
Y46965D01*
X56134D01*
X56125Y47631D01*
X56303Y47811D01*
X57924D01*
X59649Y49536D01*
Y52849D01*
X60111Y53311D01*
X65804D01*
X65828Y53275D01*
D02*
G37*
G36*
X71265Y45932D02*
X71273Y45910D01*
X71286Y45892D01*
X71304Y45876D01*
X71326Y45862D01*
X71354Y45851D01*
X71387Y45842D01*
X71425Y45836D01*
X71469Y45832D01*
X71517Y45831D01*
Y45577D01*
X71469Y45576D01*
X71425Y45572D01*
X71387Y45566D01*
X71354Y45557D01*
X71326Y45546D01*
X71304Y45533D01*
X71286Y45517D01*
X71273Y45498D01*
X71265Y45477D01*
X71263Y45453D01*
Y45955D01*
X71265Y45932D01*
D02*
G37*
G36*
X71750Y45652D02*
X71794Y45616D01*
X71816Y45601D01*
X71838Y45588D01*
X71861Y45576D01*
X71883Y45567D01*
X71906Y45560D01*
X71928Y45554D01*
X71951Y45551D01*
X71621Y45291D01*
X71623Y45314D01*
X71622Y45337D01*
X71618Y45359D01*
X71613Y45382D01*
X71604Y45405D01*
X71593Y45427D01*
X71580Y45450D01*
X71564Y45472D01*
X71545Y45495D01*
X71524Y45517D01*
X71728Y45673D01*
X71750Y45652D01*
D02*
G37*
G36*
X52170Y45293D02*
X52192Y45274D01*
X52215Y45258D01*
X52237Y45243D01*
X52260Y45231D01*
X52282Y45222D01*
X52305Y45214D01*
X52328Y45209D01*
X52351Y45205D01*
X52374Y45205D01*
X52077Y44908D01*
X52077Y44931D01*
X52073Y44954D01*
X52068Y44977D01*
X52060Y45000D01*
X52051Y45022D01*
X52039Y45045D01*
X52024Y45067D01*
X52008Y45090D01*
X51989Y45112D01*
X51968Y45134D01*
X52148Y45314D01*
X52170Y45293D01*
D02*
G37*
G36*
X72080Y45000D02*
X72061Y44986D01*
X72045Y44971D01*
X72031Y44954D01*
X72018Y44935D01*
X72008Y44914D01*
X71999Y44891D01*
X71992Y44866D01*
X71987Y44839D01*
X71985Y44810D01*
X71984Y44780D01*
X71730Y44839D01*
X71729Y44870D01*
X71724Y44927D01*
X71720Y44954D01*
X71714Y44979D01*
X71708Y45003D01*
X71700Y45026D01*
X71691Y45047D01*
X71680Y45067D01*
X71669Y45086D01*
X72080Y45000D01*
D02*
G37*
G36*
X71265Y44654D02*
X71273Y44633D01*
X71286Y44614D01*
X71304Y44597D01*
X71327Y44583D01*
X71355Y44572D01*
X71389Y44563D01*
X71427Y44557D01*
X71471Y44553D01*
X71520Y44552D01*
Y44298D01*
X71471Y44296D01*
X71427Y44293D01*
X71389Y44286D01*
X71355Y44277D01*
X71327Y44266D01*
X71304Y44252D01*
X71286Y44235D01*
X71273Y44216D01*
X71265Y44195D01*
X71263Y44171D01*
Y44679D01*
X71265Y44654D01*
D02*
G37*
G36*
X70875Y43332D02*
X70888Y43146D01*
X70893Y43126D01*
X70898Y43112D01*
X70904Y43103D01*
X70911Y43100D01*
X70338D01*
X70345Y43103D01*
X70351Y43112D01*
X70357Y43126D01*
X70362Y43146D01*
X70366Y43172D01*
X70371Y43241D01*
X70374Y43332D01*
X70375Y43387D01*
X70875D01*
X70875Y43332D01*
D02*
G37*
G36*
X72391Y43277D02*
X72395Y43233D01*
X72401Y43195D01*
X72410Y43161D01*
X72422Y43133D01*
X72436Y43110D01*
X72452Y43092D01*
X72471Y43079D01*
X72493Y43071D01*
X72517Y43069D01*
X72009D01*
X72033Y43071D01*
X72055Y43079D01*
X72074Y43092D01*
X72090Y43110D01*
X72104Y43133D01*
X72116Y43161D01*
X72125Y43195D01*
X72131Y43233D01*
X72135Y43277D01*
X72136Y43326D01*
X72390D01*
X72391Y43277D01*
D02*
G37*
G36*
X66006Y41935D02*
X66004Y41959D01*
X65996Y41981D01*
X65983Y42000D01*
X65965Y42016D01*
X65942Y42030D01*
X65914Y42042D01*
X65880Y42050D01*
X65842Y42057D01*
X65798Y42061D01*
X65749Y42062D01*
Y42316D01*
X65798Y42317D01*
X65842Y42321D01*
X65880Y42327D01*
X65914Y42336D01*
X65942Y42348D01*
X65965Y42362D01*
X65983Y42378D01*
X65996Y42397D01*
X66004Y42419D01*
X66006Y42443D01*
Y41935D01*
D02*
G37*
G36*
X65468Y42419D02*
X65476Y42397D01*
X65489Y42378D01*
X65507Y42362D01*
X65530Y42348D01*
X65558Y42336D01*
X65592Y42327D01*
X65630Y42321D01*
X65674Y42317D01*
X65723Y42316D01*
Y42062D01*
X65674Y42061D01*
X65630Y42057D01*
X65592Y42050D01*
X65558Y42042D01*
X65530Y42030D01*
X65507Y42016D01*
X65489Y42000D01*
X65476Y41981D01*
X65468Y41959D01*
X65466Y41935D01*
Y42443D01*
X65468Y42419D01*
D02*
G37*
G36*
X64528Y41935D02*
X64526Y41959D01*
X64518Y41981D01*
X64505Y42000D01*
X64487Y42016D01*
X64464Y42030D01*
X64436Y42042D01*
X64402Y42050D01*
X64364Y42057D01*
X64320Y42061D01*
X64271Y42062D01*
Y42316D01*
X64320Y42317D01*
X64364Y42321D01*
X64402Y42327D01*
X64436Y42336D01*
X64464Y42348D01*
X64487Y42362D01*
X64505Y42378D01*
X64518Y42397D01*
X64526Y42419D01*
X64528Y42443D01*
Y41935D01*
D02*
G37*
G36*
X63768Y42419D02*
X63776Y42397D01*
X63789Y42378D01*
X63807Y42362D01*
X63830Y42348D01*
X63858Y42336D01*
X63892Y42327D01*
X63930Y42321D01*
X63974Y42317D01*
X64023Y42316D01*
Y42062D01*
X63974Y42061D01*
X63930Y42057D01*
X63892Y42050D01*
X63858Y42042D01*
X63830Y42030D01*
X63807Y42016D01*
X63789Y42000D01*
X63776Y41981D01*
X63768Y41959D01*
X63766Y41935D01*
Y42443D01*
X63768Y42419D01*
D02*
G37*
G36*
X65227Y41792D02*
X65205Y41785D01*
X65186Y41772D01*
X65170Y41754D01*
X65156Y41731D01*
X65144Y41702D01*
X65135Y41669D01*
X65129Y41630D01*
X65125Y41587D01*
X65124Y41538D01*
X64870D01*
X64869Y41587D01*
X64865Y41630D01*
X64859Y41669D01*
X64850Y41702D01*
X64838Y41731D01*
X64824Y41754D01*
X64808Y41772D01*
X64789Y41785D01*
X64767Y41792D01*
X64743Y41795D01*
X65251D01*
X65227Y41792D01*
D02*
G37*
G36*
X63527D02*
X63505Y41785D01*
X63486Y41772D01*
X63470Y41754D01*
X63456Y41731D01*
X63444Y41702D01*
X63435Y41669D01*
X63429Y41630D01*
X63425Y41587D01*
X63424Y41538D01*
X63170D01*
X63169Y41587D01*
X63165Y41630D01*
X63159Y41669D01*
X63150Y41702D01*
X63138Y41731D01*
X63124Y41754D01*
X63108Y41772D01*
X63089Y41785D01*
X63067Y41792D01*
X63043Y41795D01*
X63551D01*
X63527Y41792D01*
D02*
G37*
G36*
X63387Y41323D02*
X63365Y41301D01*
X63315Y41243D01*
X63303Y41228D01*
X63294Y41213D01*
X63287Y41200D01*
X63282Y41189D01*
X63280Y41179D01*
X63281Y41171D01*
X63056Y41396D01*
X63064Y41396D01*
X63074Y41398D01*
X63085Y41402D01*
X63098Y41409D01*
X63112Y41419D01*
X63128Y41430D01*
X63164Y41461D01*
X63207Y41502D01*
X63387Y41323D01*
D02*
G37*
G36*
X68293Y41211D02*
X68290Y41229D01*
X68284Y41245D01*
X68272Y41259D01*
X68257Y41271D01*
X68236Y41282D01*
X68212Y41290D01*
X68182Y41297D01*
X68149Y41301D01*
X68110Y41304D01*
X68068Y41305D01*
Y41559D01*
X68110Y41560D01*
X68182Y41568D01*
X68212Y41574D01*
X68236Y41583D01*
X68257Y41593D01*
X68272Y41606D01*
X68284Y41620D01*
X68290Y41636D01*
X68293Y41654D01*
Y41211D01*
D02*
G37*
G36*
X70169Y40818D02*
X70166Y40842D01*
X70158Y40864D01*
X70145Y40883D01*
X70127Y40899D01*
X70104Y40913D01*
X70076Y40924D01*
X70043Y40933D01*
X70004Y40940D01*
X69960Y40944D01*
X69924Y40944D01*
X69889Y40944D01*
X69845Y40940D01*
X69806Y40933D01*
X69773Y40924D01*
X69745Y40913D01*
X69721Y40899D01*
X69703Y40883D01*
X69691Y40864D01*
X69683Y40842D01*
X69680Y40818D01*
Y41326D01*
X69683Y41302D01*
X69691Y41280D01*
X69703Y41261D01*
X69721Y41245D01*
X69745Y41231D01*
X69773Y41219D01*
X69806Y41210D01*
X69845Y41204D01*
X69889Y41200D01*
X69924Y41199D01*
X69960Y41200D01*
X70004Y41204D01*
X70043Y41210D01*
X70076Y41219D01*
X70104Y41231D01*
X70127Y41245D01*
X70145Y41261D01*
X70158Y41280D01*
X70166Y41302D01*
X70169Y41326D01*
Y40818D01*
D02*
G37*
G36*
X71794Y40891D02*
X71792Y40915D01*
X71784Y40937D01*
X71771Y40956D01*
X71753Y40972D01*
X71730Y40986D01*
X71702Y40998D01*
X71668Y41007D01*
X71630Y41013D01*
X71586Y41017D01*
X71537Y41018D01*
Y41272D01*
X71586Y41273D01*
X71630Y41277D01*
X71668Y41283D01*
X71702Y41292D01*
X71730Y41304D01*
X71753Y41318D01*
X71771Y41334D01*
X71784Y41353D01*
X71792Y41375D01*
X71794Y41399D01*
Y40891D01*
D02*
G37*
G36*
X71109Y41375D02*
X71117Y41353D01*
X71129Y41334D01*
X71147Y41318D01*
X71171Y41304D01*
X71199Y41292D01*
X71232Y41283D01*
X71271Y41277D01*
X71315Y41273D01*
X71363Y41272D01*
Y41018D01*
X71315Y41017D01*
X71271Y41013D01*
X71232Y41007D01*
X71199Y40998D01*
X71171Y40986D01*
X71147Y40972D01*
X71129Y40956D01*
X71117Y40937D01*
X71109Y40915D01*
X71106Y40891D01*
Y41399D01*
X71109Y41375D01*
D02*
G37*
G36*
X65713Y40968D02*
X65757Y40931D01*
X65779Y40916D01*
X65801Y40902D01*
X65823Y40891D01*
X65845Y40881D01*
X65867Y40873D01*
X65889Y40866D01*
X65911Y40862D01*
X65570Y40617D01*
X65573Y40640D01*
X65573Y40662D01*
X65570Y40685D01*
X65565Y40708D01*
X65557Y40730D01*
X65546Y40753D01*
X65533Y40775D01*
X65518Y40798D01*
X65499Y40820D01*
X65478Y40842D01*
X65691Y40989D01*
X65713Y40968D01*
D02*
G37*
G36*
X53273Y36150D02*
X53269Y36193D01*
X53255Y36231D01*
X53233Y36265D01*
X53201Y36294D01*
X53161Y36319D01*
X53111Y36339D01*
X53053Y36355D01*
X52985Y36366D01*
X52909Y36373D01*
X52823Y36375D01*
Y36825D01*
X52909Y36827D01*
X52985Y36834D01*
X53053Y36845D01*
X53111Y36861D01*
X53161Y36881D01*
X53201Y36906D01*
X53233Y36935D01*
X53255Y36969D01*
X53269Y37007D01*
X53273Y37050D01*
Y36150D01*
D02*
G37*
G36*
X54067Y36128D02*
X54045Y36123D01*
X54025Y36110D01*
X54008Y36087D01*
X53992Y36056D01*
X53980Y36015D01*
X53969Y35966D01*
X53961Y35907D01*
X53955Y35840D01*
X53950Y35678D01*
X53500D01*
X53498Y35764D01*
X53491Y35841D01*
X53480Y35909D01*
X53464Y35967D01*
X53444Y36017D01*
X53419Y36058D01*
X53390Y36090D01*
X53356Y36113D01*
X53318Y36126D01*
X53275Y36131D01*
X54067Y36128D01*
D02*
G37*
G36*
X79100Y29900D02*
Y27400D01*
X75800D01*
Y29900D01*
X75900Y30000D01*
X79000D01*
X79100Y29900D01*
D02*
G37*
%LPC*%
G36*
X67680Y62757D02*
X67132D01*
Y62284D01*
X67474D01*
Y62424D01*
X67477Y62400D01*
X67484Y62379D01*
X67497Y62360D01*
X67515Y62343D01*
X67538Y62329D01*
X67567Y62318D01*
X67600Y62309D01*
X67632Y62304D01*
X67640Y62305D01*
X67666Y62311D01*
X67680Y62315D01*
Y62757D01*
D02*
G37*
G36*
X59095D02*
X58547D01*
Y62284D01*
X58889D01*
Y62396D01*
X58891Y62372D01*
X58899Y62350D01*
X58912Y62331D01*
X58930Y62315D01*
X58953Y62301D01*
X58981Y62289D01*
X59001Y62284D01*
X59095D01*
Y62757D01*
D02*
G37*
G36*
X58293D02*
X57745D01*
Y62284D01*
X58293D01*
Y62757D01*
D02*
G37*
G36*
X66878D02*
X66330D01*
Y62284D01*
X66878D01*
Y62757D01*
D02*
G37*
G36*
X62317Y62343D02*
X62192D01*
X62175Y62336D01*
X62152Y62322D01*
X62134Y62305D01*
X62121Y62286D01*
X62114Y62265D01*
X62111Y62241D01*
Y62343D01*
X61544D01*
Y61820D01*
X62317D01*
Y62343D01*
D02*
G37*
G36*
X73289Y62653D02*
X72816D01*
Y62105D01*
X73289D01*
Y62653D01*
D02*
G37*
G36*
X72562D02*
X72089D01*
Y62317D01*
X72130Y62324D01*
X72179Y62337D01*
X72220Y62354D01*
X72251Y62373D01*
X72274Y62396D01*
X72287Y62421D01*
X72292Y62450D01*
Y62105D01*
X72562D01*
Y62653D01*
D02*
G37*
G36*
X67667Y62030D02*
X67592D01*
X67567Y62023D01*
X67538Y62012D01*
X67515Y61998D01*
X67497Y61981D01*
X67484Y61962D01*
X67477Y61941D01*
X67474Y61916D01*
Y62030D01*
X67132D01*
Y61557D01*
X67680D01*
Y62026D01*
X67667Y62030D01*
D02*
G37*
G36*
X64778Y62368D02*
X64211D01*
Y61845D01*
X64984D01*
Y62367D01*
X64943Y62363D01*
X64904Y62357D01*
X64871Y62348D01*
X64842Y62336D01*
X64819Y62322D01*
X64801Y62306D01*
X64788Y62287D01*
X64781Y62265D01*
X64778Y62241D01*
Y62368D01*
D02*
G37*
G36*
X63957D02*
X63184D01*
Y61845D01*
X63957D01*
Y62368D01*
D02*
G37*
G36*
X61290Y62343D02*
X60517D01*
Y61820D01*
X61290D01*
Y62343D01*
D02*
G37*
G36*
X72562Y61851D02*
X72292D01*
Y61625D01*
X72287Y61668D01*
X72274Y61706D01*
X72251Y61740D01*
X72220Y61769D01*
X72179Y61794D01*
X72130Y61814D01*
X72089Y61825D01*
Y61303D01*
X72445D01*
X72436Y61344D01*
X72421Y61394D01*
X72402Y61434D01*
X72380Y61466D01*
X72354Y61488D01*
X72325Y61502D01*
X72292Y61506D01*
X72562D01*
Y61851D01*
D02*
G37*
G36*
X66878Y62030D02*
X66330D01*
Y61557D01*
X66878D01*
Y62030D01*
D02*
G37*
G36*
X58889D02*
X58547D01*
Y61557D01*
X59095D01*
Y62013D01*
X59053Y62010D01*
X59015Y62003D01*
X58981Y61994D01*
X58953Y61983D01*
X58930Y61969D01*
X58912Y61953D01*
X58899Y61934D01*
X58891Y61912D01*
X58889Y61888D01*
Y62030D01*
D02*
G37*
G36*
X58293D02*
X57745D01*
Y61557D01*
X58293D01*
Y62030D01*
D02*
G37*
G36*
X73289Y61851D02*
X72816D01*
Y61506D01*
X73086D01*
X73053Y61502D01*
X73024Y61488D01*
X72998Y61466D01*
X72976Y61434D01*
X72957Y61394D01*
X72941Y61344D01*
X72933Y61303D01*
X73289D01*
Y61851D01*
D02*
G37*
G36*
X38305Y62025D02*
X37482D01*
Y61202D01*
X38305D01*
Y62025D01*
D02*
G37*
G36*
X37228D02*
X36405D01*
Y61202D01*
X37228D01*
Y62025D01*
D02*
G37*
G36*
X73289Y60853D02*
X72933D01*
X72941Y60812D01*
X72957Y60762D01*
X72976Y60722D01*
X72998Y60690D01*
X73024Y60668D01*
X73053Y60654D01*
X73086Y60650D01*
X72816D01*
Y60305D01*
X73289D01*
Y60853D01*
D02*
G37*
G36*
X72445D02*
X72089D01*
Y60305D01*
X72562D01*
Y60650D01*
X72292D01*
X72325Y60654D01*
X72354Y60668D01*
X72380Y60690D01*
X72402Y60722D01*
X72421Y60762D01*
X72436Y60812D01*
X72445Y60853D01*
D02*
G37*
G36*
X34934Y61977D02*
X34696D01*
X34467Y61916D01*
X34261Y61797D01*
X34093Y61629D01*
X33974Y61423D01*
X33913Y61194D01*
Y60956D01*
X33974Y60727D01*
X34093Y60521D01*
X34261Y60353D01*
X34467Y60234D01*
X34696Y60173D01*
X34934D01*
X35163Y60234D01*
X35369Y60353D01*
X35537Y60521D01*
X35656Y60727D01*
X35717Y60956D01*
Y61194D01*
X35656Y61423D01*
X35537Y61629D01*
X35369Y61797D01*
X35163Y61916D01*
X34934Y61977D01*
D02*
G37*
G36*
X32394D02*
X32156D01*
X31927Y61916D01*
X31721Y61797D01*
X31553Y61629D01*
X31434Y61423D01*
X31373Y61194D01*
Y60956D01*
X31434Y60727D01*
X31553Y60521D01*
X31721Y60353D01*
X31927Y60234D01*
X32156Y60173D01*
X32394D01*
X32623Y60234D01*
X32829Y60353D01*
X32997Y60521D01*
X33116Y60727D01*
X33177Y60956D01*
Y61194D01*
X33116Y61423D01*
X32997Y61629D01*
X32829Y61797D01*
X32623Y61916D01*
X32394Y61977D01*
D02*
G37*
G36*
X38305Y60948D02*
X37482D01*
Y60125D01*
X38305D01*
Y60948D01*
D02*
G37*
G36*
X37228D02*
X36405D01*
Y60125D01*
X37228D01*
Y60948D01*
D02*
G37*
G36*
X73289Y60051D02*
X72816D01*
Y59503D01*
X73289D01*
Y60051D01*
D02*
G37*
G36*
X72562D02*
X72089D01*
Y59503D01*
X72562D01*
Y60051D01*
D02*
G37*
G36*
X53259Y60025D02*
X53041D01*
X52838Y59941D01*
X52684Y59787D01*
X52600Y59584D01*
Y59366D01*
X52684Y59163D01*
X52838Y59009D01*
X53041Y58925D01*
X53259D01*
X53462Y59009D01*
X53616Y59163D01*
X53700Y59366D01*
Y59584D01*
X53616Y59787D01*
X53462Y59941D01*
X53259Y60025D01*
D02*
G37*
G36*
X77712Y62977D02*
X77288D01*
X76872Y62895D01*
X76499Y62740D01*
X73800D01*
X73683Y62692D01*
X73583Y62592D01*
X73535Y62475D01*
Y59775D01*
X73583Y59658D01*
X73666Y59575D01*
Y59551D01*
X73702D01*
X73800Y59510D01*
X75790D01*
X75828Y59453D01*
X76128Y59153D01*
X76480Y58918D01*
X76872Y58755D01*
X77288Y58673D01*
X77712D01*
X78128Y58755D01*
X78520Y58918D01*
X78872Y59153D01*
X79172Y59453D01*
X79407Y59805D01*
X79570Y60197D01*
X79652Y60613D01*
Y61037D01*
X79570Y61453D01*
X79407Y61845D01*
X79172Y62197D01*
X78872Y62497D01*
X78520Y62732D01*
X78128Y62895D01*
X77712Y62977D01*
D02*
G37*
G36*
X28712D02*
X28288D01*
X27872Y62895D01*
X27480Y62732D01*
X27128Y62497D01*
X26828Y62197D01*
X26593Y61845D01*
X26430Y61453D01*
X26348Y61037D01*
Y60613D01*
X26430Y60197D01*
X26593Y59805D01*
X26828Y59453D01*
X27128Y59153D01*
X27335Y59015D01*
Y57760D01*
X27383Y57643D01*
X27414Y57613D01*
Y57388D01*
X28669D01*
Y57391D01*
X29065D01*
Y57385D01*
X30320D01*
Y57828D01*
X30365Y57937D01*
Y59742D01*
X30407Y59805D01*
X30570Y60197D01*
X30652Y60613D01*
Y61037D01*
X30570Y61453D01*
X30407Y61845D01*
X30172Y62197D01*
X29872Y62497D01*
X29520Y62732D01*
X29128Y62895D01*
X28712Y62977D01*
D02*
G37*
G36*
X28717Y57010D02*
X28169D01*
Y56537D01*
X28514D01*
Y56807D01*
X28518Y56775D01*
X28532Y56745D01*
X28554Y56720D01*
X28586Y56697D01*
X28626Y56678D01*
X28676Y56663D01*
X28717Y56654D01*
Y57010D01*
D02*
G37*
G36*
X27915D02*
X27367D01*
Y56537D01*
X27915D01*
Y57010D01*
D02*
G37*
G36*
X30368Y57007D02*
X29820D01*
Y56534D01*
X30368D01*
Y57007D01*
D02*
G37*
G36*
X29566D02*
X29018D01*
Y56654D01*
X29059Y56662D01*
X29108Y56678D01*
X29149Y56696D01*
X29180Y56718D01*
X29203Y56744D01*
X29216Y56772D01*
X29221Y56804D01*
Y56534D01*
X29566D01*
Y57007D01*
D02*
G37*
G36*
Y56280D02*
X29221D01*
Y56010D01*
X29216Y56044D01*
X29203Y56073D01*
X29180Y56100D01*
X29149Y56122D01*
X29108Y56142D01*
X29059Y56157D01*
X29018Y56166D01*
Y55807D01*
X29566D01*
Y56280D01*
D02*
G37*
G36*
X28514Y56283D02*
X28169D01*
Y56013D01*
X28492D01*
X28449Y56009D01*
X28411Y55995D01*
X28377Y55973D01*
X28348Y55941D01*
X28323Y55901D01*
X28303Y55851D01*
X28292Y55810D01*
X28717D01*
Y56166D01*
X28676Y56158D01*
X28626Y56142D01*
X28586Y56124D01*
X28554Y56101D01*
X28532Y56075D01*
X28518Y56046D01*
X28514Y56013D01*
Y56283D01*
D02*
G37*
G36*
X27915D02*
X27367D01*
Y55810D01*
X27792D01*
X27781Y55851D01*
X27760Y55901D01*
X27736Y55941D01*
X27706Y55973D01*
X27673Y55995D01*
X27634Y56009D01*
X27592Y56013D01*
X27915D01*
Y56283D01*
D02*
G37*
G36*
X30368Y56280D02*
X29820D01*
Y55807D01*
X30368D01*
Y56280D01*
D02*
G37*
G36*
X38259Y55603D02*
X38103Y55593D01*
X38103Y55471D01*
X38095Y55455D01*
X38092Y55433D01*
X38088Y55428D01*
X38072Y55419D01*
X38045Y55408D01*
X38004Y55397D01*
X37950Y55388D01*
X37885Y55382D01*
X37805Y55380D01*
X37793Y55375D01*
X37761D01*
X37696Y55441D01*
X37494Y55525D01*
X37275D01*
X37073Y55441D01*
X36918Y55286D01*
X36834Y55084D01*
Y54865D01*
X36918Y54663D01*
X37073Y54508D01*
X37275Y54425D01*
X37494D01*
X37696Y54508D01*
X37793Y54606D01*
X37805Y54601D01*
X37885Y54598D01*
X37950Y54593D01*
X38003Y54584D01*
X38044Y54573D01*
X38072Y54562D01*
X38087Y54552D01*
X38092Y54548D01*
X38092Y54547D01*
X38092Y54547D01*
X38095Y54523D01*
X38103Y54507D01*
Y54338D01*
X39208D01*
Y55593D01*
X38303D01*
X38292Y55593D01*
X38276Y55602D01*
X38263Y55601D01*
X38259Y55603D01*
D02*
G37*
G36*
X76270Y55793D02*
X75797D01*
Y55245D01*
X76067D01*
Y55372D01*
X76069Y55348D01*
X76077Y55326D01*
X76089Y55307D01*
X76107Y55291D01*
X76130Y55277D01*
X76158Y55265D01*
X76191Y55256D01*
X76229Y55250D01*
X76270Y55247D01*
Y55793D01*
D02*
G37*
G36*
X75543D02*
X75070D01*
Y55245D01*
X75543D01*
Y55793D01*
D02*
G37*
G36*
X76067Y54991D02*
X75797D01*
Y54443D01*
X76270D01*
Y54989D01*
X76229Y54986D01*
X76191Y54980D01*
X76158Y54971D01*
X76130Y54959D01*
X76107Y54945D01*
X76089Y54929D01*
X76077Y54910D01*
X76069Y54888D01*
X76067Y54864D01*
Y54991D01*
D02*
G37*
G36*
X75543D02*
X75070D01*
Y54443D01*
X75543D01*
Y54991D01*
D02*
G37*
G36*
X50208Y53575D02*
X49925D01*
X49937Y53559D01*
X49955Y53536D01*
X49963Y53528D01*
X49990Y53501D01*
X50084Y53422D01*
X50125Y53394D01*
X50163Y53372D01*
X50197Y53358D01*
X50208Y53355D01*
Y53575D01*
D02*
G37*
G36*
X34584Y56675D02*
X34366D01*
X34163Y56591D01*
X34009Y56437D01*
X33925Y56234D01*
Y56016D01*
X34009Y55813D01*
X34163Y55659D01*
X34366Y55575D01*
X34584D01*
X34787Y55659D01*
X34941Y55813D01*
X34952Y55840D01*
X41306D01*
X41312Y55643D01*
X41110Y55559D01*
X40955Y55404D01*
X40938Y55401D01*
X40738Y55538D01*
Y55593D01*
X39633D01*
Y54338D01*
X40673Y54338D01*
D01*
X40738Y54338D01*
X40873Y54194D01*
Y53313D01*
X42127D01*
Y54417D01*
X41753D01*
X41753Y54420D01*
X41749Y54444D01*
X41746Y54476D01*
X41745Y54520D01*
X41738Y54536D01*
Y54631D01*
X41888Y54781D01*
X41972Y54983D01*
Y55202D01*
X41888Y55404D01*
X41733Y55559D01*
X41531Y55643D01*
X41537Y55840D01*
X42657D01*
X42963Y55535D01*
X42963Y55535D01*
X43135Y55362D01*
X43134Y55362D01*
X43050Y55159D01*
Y54941D01*
X43134Y54738D01*
X43288Y54584D01*
X43491Y54500D01*
X43709D01*
X43912Y54584D01*
X44033Y54706D01*
X44192Y54581D01*
X44199Y54517D01*
X44057Y54317D01*
X43773D01*
Y53213D01*
X45027D01*
Y54317D01*
X44949D01*
X44806Y54517D01*
X44814Y54584D01*
X44969Y54738D01*
X45053Y54941D01*
Y55159D01*
X44969Y55362D01*
X44814Y55516D01*
X44612Y55600D01*
X44393D01*
X44191Y55516D01*
X44051Y55376D01*
X43912Y55516D01*
X43709Y55600D01*
X43707D01*
X43637Y55676D01*
X43619Y55684D01*
X43365Y55937D01*
X43365Y55937D01*
X43365Y55937D01*
X42976Y56326D01*
X42884Y56388D01*
X42775Y56410D01*
X42775Y56410D01*
X34952D01*
X34941Y56437D01*
X34787Y56591D01*
X34584Y56675D01*
D02*
G37*
G36*
X50208Y53283D02*
X49952Y53027D01*
X50208D01*
Y53283D01*
D02*
G37*
G36*
X49735Y53394D02*
Y53027D01*
X49948D01*
X49952Y53033D01*
X49960Y53056D01*
Y53083D01*
X49952Y53113D01*
X49938Y53147D01*
X49917Y53185D01*
X49888Y53226D01*
X49852Y53271D01*
X49761Y53369D01*
X49742Y53388D01*
X49735Y53394D01*
D02*
G37*
G36*
X42175Y52935D02*
X41627D01*
Y52462D01*
X42175D01*
Y52935D01*
D02*
G37*
G36*
X41373D02*
X40825D01*
Y52462D01*
X41373D01*
Y52935D01*
D02*
G37*
G36*
X48509Y54325D02*
X48291D01*
X48088Y54241D01*
X47934Y54087D01*
X47850Y53884D01*
Y53666D01*
X47884Y53583D01*
X47848Y53527D01*
X47848D01*
Y52423D01*
X49102D01*
Y53527D01*
X49042D01*
X48950Y53666D01*
Y53884D01*
X48866Y54087D01*
X48712Y54241D01*
X48509Y54325D01*
D02*
G37*
G36*
X47328Y55151D02*
X47109D01*
X46907Y55067D01*
X46752Y54913D01*
X46669Y54710D01*
Y54555D01*
X46664Y54550D01*
X46581Y54426D01*
X46552Y54278D01*
Y53828D01*
X46547Y53816D01*
X46545Y53735D01*
X46539Y53670D01*
X46530Y53616D01*
X46519Y53575D01*
X46507Y53547D01*
X46498Y53531D01*
X46493Y53526D01*
X46493Y53526D01*
X46492Y53525D01*
X46469Y53523D01*
X46459Y53517D01*
X46273D01*
Y52413D01*
X47527D01*
Y53317D01*
X47527Y53328D01*
X47536Y53343D01*
X47535Y53358D01*
X47537Y53363D01*
X47527Y53517D01*
X47406Y53517D01*
X47390Y53526D01*
X47374Y53528D01*
X47373Y53530D01*
X47364Y53545D01*
X47353Y53574D01*
X47342Y53615D01*
X47334Y53669D01*
X47328Y53735D01*
X47326Y53816D01*
X47321Y53828D01*
Y54051D01*
X47328D01*
X47530Y54135D01*
X47685Y54289D01*
X47769Y54492D01*
Y54710D01*
X47685Y54913D01*
X47530Y55067D01*
X47328Y55151D01*
D02*
G37*
G36*
X45075Y52835D02*
X44527D01*
Y52362D01*
X45075D01*
Y52835D01*
D02*
G37*
G36*
X44273D02*
X43725D01*
Y52362D01*
X44273D01*
Y52835D01*
D02*
G37*
G36*
X76165Y52775D02*
X75692D01*
Y52227D01*
X75962D01*
Y52354D01*
X75964Y52330D01*
X75972Y52308D01*
X75985Y52289D01*
X76003Y52273D01*
X76025Y52259D01*
X76053Y52247D01*
X76086Y52238D01*
X76125Y52232D01*
X76165Y52229D01*
Y52775D01*
D02*
G37*
G36*
X75438D02*
X74965D01*
Y52227D01*
X75438D01*
Y52775D01*
D02*
G37*
G36*
X50208Y52773D02*
X49735D01*
Y52225D01*
X50208D01*
Y52773D01*
D02*
G37*
G36*
X42175Y52208D02*
X41627D01*
Y51938D01*
X41701D01*
X41677Y51936D01*
X41655Y51928D01*
X41636Y51915D01*
X41627Y51905D01*
Y51735D01*
X42175D01*
Y52208D01*
D02*
G37*
G36*
X41373D02*
X40825D01*
Y51735D01*
X41315D01*
X41317Y51749D01*
X41317Y51752D01*
X41315Y51775D01*
X41309Y51814D01*
X41300Y51847D01*
X41288Y51875D01*
X41274Y51897D01*
X41258Y51915D01*
X41239Y51928D01*
X41217Y51936D01*
X41193Y51938D01*
X41373D01*
Y52208D01*
D02*
G37*
G36*
X47575Y52035D02*
X47027D01*
Y51562D01*
X47372D01*
Y51832D01*
X47376Y51801D01*
X47390Y51774D01*
X47412Y51749D01*
X47444Y51728D01*
X47484Y51710D01*
X47534Y51696D01*
X47575Y51688D01*
Y52035D01*
D02*
G37*
G36*
X45075Y52108D02*
X44527D01*
Y51866D01*
X44527D01*
X44528Y51838D01*
X44654D01*
X44630Y51836D01*
X44609Y51828D01*
X44590Y51815D01*
X44573Y51797D01*
X44559Y51775D01*
X44548Y51747D01*
X44545Y51738D01*
X44548Y51728D01*
X44557Y51705D01*
X44568Y51684D01*
X44581Y51664D01*
X44595Y51645D01*
X44604Y51635D01*
X45075D01*
Y52108D01*
D02*
G37*
G36*
X44273D02*
X43725D01*
Y51635D01*
X44197D01*
X44206Y51645D01*
X44220Y51664D01*
X44233Y51684D01*
X44244Y51705D01*
X44253Y51728D01*
X44256Y51738D01*
X44253Y51747D01*
X44242Y51775D01*
X44228Y51797D01*
X44211Y51815D01*
X44192Y51828D01*
X44171Y51836D01*
X44146Y51838D01*
X44273D01*
X44273Y51848D01*
Y52108D01*
D02*
G37*
G36*
X49150Y52045D02*
X48602D01*
Y51572D01*
X49150D01*
Y52045D01*
D02*
G37*
G36*
X48348D02*
X47800D01*
Y51689D01*
X47841Y51698D01*
X47891Y51713D01*
X47931Y51732D01*
X47963Y51754D01*
X47985Y51780D01*
X47999Y51809D01*
X48003Y51842D01*
Y51572D01*
X48348D01*
Y52045D01*
D02*
G37*
G36*
X46773Y52035D02*
X46225D01*
Y51648D01*
X46266Y51658D01*
X46316Y51677D01*
X46356Y51700D01*
X46388Y51726D01*
X46410Y51757D01*
X46424Y51793D01*
X46428Y51832D01*
Y51562D01*
X46773D01*
Y52035D01*
D02*
G37*
G36*
X75962Y51973D02*
X75692D01*
Y51425D01*
X76165D01*
Y51971D01*
X76125Y51968D01*
X76086Y51962D01*
X76053Y51953D01*
X76025Y51941D01*
X76003Y51927D01*
X75985Y51911D01*
X75972Y51892D01*
X75964Y51870D01*
X75962Y51846D01*
Y51973D01*
D02*
G37*
G36*
X75438D02*
X74965D01*
Y51425D01*
X75438D01*
Y51973D01*
D02*
G37*
G36*
X48348Y51318D02*
X48003D01*
Y51048D01*
X47999Y51081D01*
X47985Y51110D01*
X47963Y51136D01*
X47931Y51158D01*
X47891Y51177D01*
X47841Y51192D01*
X47800Y51201D01*
Y50845D01*
X48348D01*
Y51318D01*
D02*
G37*
G36*
X46773Y51308D02*
X46428D01*
Y51038D01*
X46424Y51064D01*
X46410Y51087D01*
X46388Y51108D01*
X46356Y51126D01*
X46316Y51141D01*
X46266Y51153D01*
X46225Y51160D01*
Y50835D01*
X46773D01*
Y51308D01*
D02*
G37*
G36*
X49150Y51318D02*
X48602D01*
Y50845D01*
X49150D01*
Y51318D01*
D02*
G37*
G36*
X47372Y51308D02*
X47027D01*
Y50835D01*
X47575D01*
Y51200D01*
X47534Y51191D01*
X47484Y51175D01*
X47444Y51154D01*
X47412Y51131D01*
X47390Y51104D01*
X47376Y51073D01*
X47372Y51038D01*
Y51308D01*
D02*
G37*
G36*
X39987Y50127D02*
X38883D01*
Y50043D01*
X38725Y49964D01*
X38679Y49963D01*
X38477Y50047D01*
X38258D01*
X38056Y49963D01*
X37901Y49809D01*
X37818Y49606D01*
Y49388D01*
X37901Y49185D01*
X38056Y49031D01*
X38258Y48947D01*
X38477D01*
X38679Y49031D01*
X38716Y49031D01*
X38883Y48946D01*
Y48873D01*
X39987D01*
Y50127D01*
D02*
G37*
G36*
X41565Y50175D02*
X41092D01*
Y49627D01*
X41362D01*
Y49950D01*
X41366Y49907D01*
X41380Y49869D01*
X41402Y49835D01*
X41434Y49806D01*
X41474Y49781D01*
X41524Y49761D01*
X41565Y49750D01*
Y50175D01*
D02*
G37*
G36*
X50343Y50275D02*
X49870D01*
Y49727D01*
X49915D01*
Y49772D01*
X49932Y49757D01*
X49951Y49743D01*
X49971Y49730D01*
X49977Y49727D01*
X50019D01*
X50032Y49735D01*
X50050Y49752D01*
X50063Y49771D01*
X50071Y49792D01*
X50073Y49816D01*
Y49727D01*
X50343D01*
Y50275D01*
D02*
G37*
G36*
X40838Y50175D02*
X40365D01*
Y49627D01*
X40838D01*
Y50175D01*
D02*
G37*
G36*
X50343Y49473D02*
X50153D01*
Y49435D01*
X50122Y49435D01*
X50093Y49432D01*
X50073Y49429D01*
Y49308D01*
X50071Y49333D01*
X50063Y49354D01*
X50050Y49373D01*
X50032Y49390D01*
X50010Y49404D01*
X49999Y49408D01*
X49992Y49406D01*
X49971Y49395D01*
X49951Y49382D01*
X49932Y49368D01*
X49915Y49352D01*
Y49430D01*
X49910Y49430D01*
X49870Y49434D01*
Y49243D01*
X49792Y49191D01*
X49573D01*
X49371Y49107D01*
X49216Y48953D01*
X49165Y48829D01*
X49011Y48676D01*
X48792D01*
X48590Y48592D01*
X48435Y48437D01*
X48424Y48411D01*
X47836D01*
X47820Y48418D01*
X47776Y48419D01*
X47744Y48422D01*
X47720Y48426D01*
X47717Y48426D01*
Y48727D01*
X46613D01*
Y47473D01*
X47717D01*
Y47825D01*
X47720Y47826D01*
X47744Y47830D01*
X47776Y47833D01*
X47820Y47834D01*
X47836Y47841D01*
X48318D01*
X48401Y47641D01*
X48329Y47569D01*
X48245Y47367D01*
Y47148D01*
X48284Y47056D01*
X48276Y47050D01*
X48275Y47046D01*
X48172Y46943D01*
X48111Y46851D01*
X48089Y46742D01*
X48089Y46742D01*
Y46654D01*
X47899Y46464D01*
X47837Y46371D01*
X47815Y46262D01*
X47815Y46262D01*
Y29821D01*
X47808Y29805D01*
X47807Y29762D01*
X47804Y29730D01*
X47800Y29707D01*
X47799Y29702D01*
X47248D01*
Y28498D01*
X48952D01*
Y29702D01*
X48401D01*
X48400Y29707D01*
X48396Y29730D01*
X48393Y29762D01*
X48392Y29805D01*
X48385Y29821D01*
Y46144D01*
X48575Y46335D01*
X48575Y46335D01*
X48637Y46427D01*
X48659Y46536D01*
X48659Y46536D01*
Y46624D01*
X48740Y46706D01*
X48744Y46707D01*
X48905D01*
X49107Y46791D01*
X49262Y46946D01*
X49345Y47148D01*
Y47367D01*
X49262Y47569D01*
X49206Y47624D01*
X49213Y47660D01*
X49368Y47814D01*
X49419Y47938D01*
X49573Y48091D01*
X49792D01*
X49818Y48102D01*
X49973Y47948D01*
Y29821D01*
X49966Y29805D01*
X49965Y29762D01*
X49962Y29730D01*
X49958Y29707D01*
X49957Y29702D01*
X49348D01*
Y28498D01*
X51052D01*
Y29702D01*
X50559D01*
X50558Y29707D01*
X50554Y29730D01*
X50551Y29762D01*
X50550Y29805D01*
X50543Y29821D01*
Y48066D01*
X50543Y48066D01*
X50521Y48175D01*
X50459Y48267D01*
X50459Y48267D01*
X50221Y48505D01*
X50232Y48532D01*
Y48750D01*
X50229Y48759D01*
X50340Y48925D01*
X50343D01*
Y49473D01*
D02*
G37*
G36*
X41362Y49373D02*
X41092D01*
Y48825D01*
X41565D01*
Y49250D01*
X41524Y49239D01*
X41474Y49219D01*
X41434Y49194D01*
X41402Y49165D01*
X41380Y49131D01*
X41366Y49093D01*
X41362Y49050D01*
Y49373D01*
D02*
G37*
G36*
X40838D02*
X40365D01*
Y48825D01*
X40838D01*
Y49373D01*
D02*
G37*
G36*
X43942Y48609D02*
Y48136D01*
X44286D01*
X44287Y48406D01*
X44291Y48391D01*
X44305Y48377D01*
X44327Y48365D01*
X44359Y48354D01*
X44399Y48345D01*
X44449Y48338D01*
X44490Y48335D01*
Y48609D01*
X43942D01*
D02*
G37*
G36*
X46235Y48775D02*
X45762D01*
Y48227D01*
X46235D01*
Y48775D01*
D02*
G37*
G36*
X45508D02*
X45035D01*
Y48350D01*
X45076Y48361D01*
X45126Y48381D01*
X45166Y48406D01*
X45198Y48435D01*
X45220Y48469D01*
X45234Y48507D01*
X45238Y48550D01*
Y48227D01*
X45508D01*
Y48775D01*
D02*
G37*
G36*
X41475Y48600D02*
X40927D01*
Y48127D01*
X41269D01*
Y48254D01*
X41271Y48230D01*
X41279Y48208D01*
X41292Y48189D01*
X41310Y48173D01*
X41333Y48159D01*
X41361Y48147D01*
X41395Y48138D01*
X41433Y48132D01*
X41475Y48128D01*
Y48600D01*
D02*
G37*
G36*
X42273D02*
X41725D01*
Y48128D01*
X41767Y48132D01*
X41805Y48138D01*
X41839Y48147D01*
X41867Y48159D01*
X41890Y48173D01*
X41908Y48189D01*
X41921Y48208D01*
X41929Y48230D01*
X41931Y48254D01*
Y48127D01*
X42273D01*
Y48600D01*
D02*
G37*
G36*
X40673D02*
X40125D01*
Y48127D01*
X40673D01*
Y48600D01*
D02*
G37*
G36*
X42273Y47873D02*
X41931D01*
Y47746D01*
X41929Y47770D01*
X41921Y47792D01*
X41908Y47811D01*
X41890Y47827D01*
X41867Y47841D01*
X41839Y47853D01*
X41805Y47862D01*
X41767Y47868D01*
X41725Y47872D01*
Y47400D01*
X42273D01*
Y47873D01*
D02*
G37*
G36*
X40673D02*
X40331D01*
Y47653D01*
X40329Y47673D01*
X40322Y47691D01*
X40310Y47708D01*
X40293Y47722D01*
X40272Y47734D01*
X40245Y47743D01*
X40214Y47751D01*
X40179Y47756D01*
X40138Y47760D01*
X40125Y47760D01*
Y47400D01*
X40673D01*
Y47873D01*
D02*
G37*
G36*
X45508Y47973D02*
X45238D01*
Y47650D01*
X45234Y47693D01*
X45220Y47731D01*
X45198Y47765D01*
X45166Y47794D01*
X45126Y47819D01*
X45076Y47839D01*
X45035Y47850D01*
Y47425D01*
X45508D01*
Y47973D01*
D02*
G37*
G36*
X46235D02*
X45762D01*
Y47425D01*
X46235D01*
Y47973D01*
D02*
G37*
G36*
X44285Y47882D02*
X43942D01*
Y47409D01*
X44490D01*
Y47850D01*
X44447Y47839D01*
X44398Y47819D01*
X44357Y47794D01*
X44325Y47765D01*
X44302Y47731D01*
X44289Y47693D01*
X44284Y47650D01*
X44285Y47882D01*
D02*
G37*
G36*
X41269Y47873D02*
X40927D01*
Y47400D01*
X41475D01*
Y47872D01*
X41433Y47868D01*
X41395Y47862D01*
X41361Y47853D01*
X41333Y47841D01*
X41310Y47827D01*
X41292Y47811D01*
X41279Y47792D01*
X41271Y47770D01*
X41269Y47746D01*
Y47873D01*
D02*
G37*
G36*
X43140Y48609D02*
X42944Y48600D01*
X42527D01*
Y48000D01*
Y47400D01*
X42944D01*
X43075Y47400D01*
X43271Y47409D01*
X43688D01*
Y48009D01*
Y48609D01*
X43271D01*
X43141Y48609D01*
X43140D01*
D02*
G37*
G36*
X37500Y47566D02*
X37281D01*
X37079Y47483D01*
X36924Y47328D01*
X36840Y47126D01*
Y46907D01*
X36924Y46705D01*
X37079Y46550D01*
X37281Y46466D01*
X37500D01*
X37526Y46478D01*
X37712Y46292D01*
X37712Y46292D01*
X37804Y46230D01*
X37913Y46209D01*
X37913Y46209D01*
X40054D01*
X40070Y46202D01*
X40114Y46201D01*
X40146Y46198D01*
X40170Y46194D01*
X40173Y46193D01*
Y45918D01*
X41427D01*
Y46170D01*
X41430Y46170D01*
X41454Y46174D01*
X41486Y46177D01*
X41530Y46178D01*
X41546Y46185D01*
X41654D01*
X41670Y46178D01*
X41714Y46177D01*
X41746Y46174D01*
X41770Y46170D01*
X41773Y46170D01*
Y45918D01*
X42991D01*
X43027Y45918D01*
X43224Y45927D01*
X43386D01*
X43528Y45727D01*
X43520Y45661D01*
X43366Y45506D01*
X43282Y45304D01*
Y45085D01*
X43366Y44883D01*
X43520Y44728D01*
X43723Y44644D01*
X43941D01*
X44144Y44728D01*
X44298Y44883D01*
X44382Y45085D01*
Y45304D01*
X44298Y45506D01*
X44144Y45661D01*
X44136Y45727D01*
X44278Y45927D01*
X44442D01*
Y47031D01*
X43224D01*
X43188Y47031D01*
X42991Y47022D01*
X41773D01*
Y46770D01*
X41770Y46770D01*
X41746Y46766D01*
X41714Y46763D01*
X41670Y46762D01*
X41654Y46755D01*
X41546D01*
X41530Y46762D01*
X41486Y46763D01*
X41454Y46766D01*
X41430Y46770D01*
X41427Y46770D01*
Y47022D01*
X40173D01*
Y46794D01*
X40170Y46794D01*
X40146Y46790D01*
X40114Y46787D01*
X40070Y46786D01*
X40054Y46779D01*
X38089D01*
X37940Y46907D01*
Y47126D01*
X37856Y47328D01*
X37702Y47483D01*
X37500Y47566D01*
D02*
G37*
G36*
X34251Y40927D02*
X34033D01*
X33831Y40843D01*
X33676Y40689D01*
X33592Y40487D01*
Y40268D01*
X33676Y40066D01*
X33831Y39911D01*
X34033Y39827D01*
X34251D01*
X34454Y39911D01*
X34608Y40066D01*
X34692Y40268D01*
Y40487D01*
X34608Y40689D01*
X34454Y40843D01*
X34251Y40927D01*
D02*
G37*
G36*
X43911Y40250D02*
X43692D01*
X43490Y40166D01*
X43335Y40012D01*
X43252Y39809D01*
Y39591D01*
X43335Y39388D01*
X43490Y39234D01*
X43692Y39150D01*
X43911D01*
X44113Y39234D01*
X44268Y39388D01*
X44352Y39591D01*
Y39809D01*
X44268Y40012D01*
X44113Y40166D01*
X43911Y40250D01*
D02*
G37*
G36*
X75934Y37950D02*
X75716D01*
X75513Y37866D01*
X75359Y37712D01*
X75275Y37509D01*
Y37291D01*
X75359Y37088D01*
X75513Y36934D01*
X75716Y36850D01*
X75934D01*
X76137Y36934D01*
X76291Y37088D01*
X76375Y37291D01*
Y37509D01*
X76291Y37712D01*
X76137Y37866D01*
X75934Y37950D01*
D02*
G37*
G36*
X28019Y38261D02*
X27781D01*
X27552Y38200D01*
X27346Y38081D01*
X27178Y37913D01*
X27059Y37707D01*
X26998Y37478D01*
Y37240D01*
X27059Y37011D01*
X27178Y36805D01*
X27346Y36637D01*
X27552Y36518D01*
X27781Y36457D01*
X28019D01*
X28248Y36518D01*
X28454Y36637D01*
X28622Y36805D01*
X28741Y37011D01*
X28802Y37240D01*
Y37478D01*
X28741Y37707D01*
X28622Y37913D01*
X28454Y38081D01*
X28248Y38200D01*
X28019Y38261D01*
D02*
G37*
G36*
X28850Y35769D02*
X28027D01*
Y34946D01*
X28850D01*
Y35769D01*
D02*
G37*
G36*
X27773D02*
X26950D01*
Y34946D01*
X27773D01*
Y35769D01*
D02*
G37*
G36*
X44483Y34129D02*
X44264D01*
X44062Y34045D01*
X43980Y33963D01*
X43923Y34020D01*
X43721Y34103D01*
X43502D01*
X43300Y34020D01*
X43146Y33865D01*
X43062Y33663D01*
Y33444D01*
X43146Y33242D01*
X43300Y33087D01*
X43324Y33077D01*
Y32861D01*
X43300Y32851D01*
X43146Y32697D01*
X43062Y32494D01*
Y32276D01*
X43146Y32073D01*
X43300Y31919D01*
X43502Y31835D01*
X43721D01*
X43923Y31919D01*
X44006Y32001D01*
X44062Y31944D01*
X44264Y31860D01*
X44483D01*
X44685Y31944D01*
X44768Y32026D01*
X44875Y31919D01*
X45077Y31835D01*
X45296D01*
X45498Y31919D01*
X45653Y32073D01*
X45737Y32276D01*
X45937Y32396D01*
X45941Y32394D01*
X46160D01*
X46362Y32478D01*
X46516Y32632D01*
X46600Y32834D01*
Y33053D01*
X46516Y33255D01*
X46362Y33410D01*
X46160Y33494D01*
X45998D01*
X45941Y33494D01*
X45813Y33657D01*
Y33663D01*
X45729Y33865D01*
X45574Y34020D01*
X45372Y34103D01*
X45153D01*
X44951Y34020D01*
X44831Y33899D01*
X44685Y34045D01*
X44483Y34129D01*
D02*
G37*
G36*
X28850Y34692D02*
X28027D01*
Y33869D01*
X28850D01*
Y34692D01*
D02*
G37*
G36*
X27773D02*
X26950D01*
Y33869D01*
X27773D01*
Y34692D01*
D02*
G37*
G36*
X33809Y33250D02*
X33591D01*
X33388Y33166D01*
X33234Y33012D01*
X33150Y32809D01*
Y32591D01*
X33234Y32388D01*
X33388Y32234D01*
X33591Y32150D01*
X33809D01*
X34012Y32234D01*
X34166Y32388D01*
X34250Y32591D01*
Y32809D01*
X34166Y33012D01*
X34012Y33166D01*
X33809Y33250D01*
D02*
G37*
G36*
X77637Y31616D02*
X77089D01*
Y31143D01*
X77434D01*
Y31413D01*
X77438Y31383D01*
X77452Y31356D01*
X77474Y31333D01*
X77506Y31312D01*
X77546Y31295D01*
X77596Y31280D01*
X77637Y31273D01*
Y31616D01*
D02*
G37*
G36*
X79275Y31630D02*
X78815D01*
X78826Y31589D01*
X78846Y31539D01*
X78871Y31499D01*
X78900Y31467D01*
X78934Y31445D01*
X78972Y31431D01*
X79015Y31427D01*
X78727D01*
Y31157D01*
X79275D01*
Y31630D01*
D02*
G37*
G36*
X78316D02*
X77925D01*
Y31274D01*
X77966Y31283D01*
X78016Y31298D01*
X78056Y31317D01*
X78088Y31339D01*
X78110Y31365D01*
X78124Y31394D01*
X78128Y31427D01*
Y31157D01*
X78473D01*
Y31427D01*
X78128D01*
X78168Y31431D01*
X78204Y31445D01*
X78236Y31467D01*
X78264Y31499D01*
X78287Y31539D01*
X78306Y31589D01*
X78316Y31630D01*
D02*
G37*
G36*
X76835Y31616D02*
X76287D01*
Y31143D01*
X76835D01*
Y31616D01*
D02*
G37*
G36*
X78473Y30903D02*
X78128D01*
Y30633D01*
X78124Y30666D01*
X78110Y30695D01*
X78088Y30721D01*
X78056Y30743D01*
X78016Y30762D01*
X77966Y30777D01*
X77925Y30786D01*
Y30430D01*
X78473D01*
Y30903D01*
D02*
G37*
G36*
X79275D02*
X78727D01*
Y30430D01*
X79275D01*
Y30903D01*
D02*
G37*
G36*
X77434Y30889D02*
X77089D01*
Y30416D01*
X77637D01*
Y30784D01*
X77596Y30775D01*
X77546Y30759D01*
X77506Y30738D01*
X77474Y30714D01*
X77452Y30686D01*
X77438Y30655D01*
X77434Y30619D01*
Y30889D01*
D02*
G37*
G36*
X76835D02*
X76287D01*
Y30416D01*
X76835D01*
Y30889D01*
D02*
G37*
G36*
X31800Y28665D02*
X29600D01*
X29483Y28617D01*
X29275Y28409D01*
X29128Y28470D01*
X28712Y28552D01*
X28288D01*
X27872Y28470D01*
X27480Y28307D01*
X27128Y28072D01*
X26828Y27772D01*
X26593Y27420D01*
X26430Y27028D01*
X26348Y26612D01*
Y26188D01*
X26430Y25772D01*
X26593Y25380D01*
X26828Y25028D01*
X27128Y24728D01*
X27480Y24493D01*
X27872Y24330D01*
X28288Y24248D01*
X28712D01*
X29128Y24330D01*
X29520Y24493D01*
X29872Y24728D01*
X30172Y25028D01*
X30364Y25315D01*
X30380Y25327D01*
X30385Y25335D01*
X31800D01*
X31917Y25383D01*
X32017Y25483D01*
X32065Y25600D01*
Y28400D01*
X32017Y28517D01*
X31917Y28617D01*
X31800Y28665D01*
D02*
G37*
G36*
X33500Y28575D02*
X33027D01*
Y28027D01*
X33500D01*
Y28575D01*
D02*
G37*
G36*
X32773D02*
X32300D01*
Y28027D01*
X32773D01*
Y28575D01*
D02*
G37*
G36*
X33500Y27773D02*
X33027D01*
Y27428D01*
X33297D01*
X33264Y27424D01*
X33235Y27410D01*
X33209Y27388D01*
X33187Y27356D01*
X33168Y27316D01*
X33153Y27266D01*
X33144Y27225D01*
X33500D01*
Y27773D01*
D02*
G37*
G36*
X32773D02*
X32300D01*
Y27225D01*
X32656D01*
X32647Y27266D01*
X32632Y27316D01*
X32613Y27356D01*
X32591Y27388D01*
X32565Y27410D01*
X32536Y27424D01*
X32503Y27428D01*
X32773D01*
Y27773D01*
D02*
G37*
G36*
X41943Y26737D02*
X41724D01*
X41522Y26654D01*
X41377Y26508D01*
X41231Y26654D01*
X41029Y26737D01*
X40810D01*
X40608Y26654D01*
X40453Y26499D01*
X40369Y26297D01*
Y26078D01*
X40453Y25876D01*
X40561Y25768D01*
X40479Y25686D01*
X40400Y25497D01*
X40353Y25481D01*
X40195Y25470D01*
X40168Y25534D01*
X40014Y25688D01*
X39812Y25772D01*
X39593D01*
X39391Y25688D01*
X39236Y25534D01*
X39152Y25332D01*
Y25113D01*
X39236Y24911D01*
X39391Y24756D01*
X39593Y24672D01*
X39812D01*
X40014Y24756D01*
X40168Y24911D01*
X40247Y25100D01*
X40294Y25116D01*
X40452Y25127D01*
X40479Y25063D01*
X40633Y24908D01*
X40835Y24825D01*
X41054D01*
X41256Y24908D01*
X41411Y25063D01*
X41438Y25068D01*
X41573Y24934D01*
X41775Y24850D01*
X41994D01*
X42196Y24934D01*
X42351Y25088D01*
X42435Y25291D01*
Y25509D01*
X42351Y25712D01*
X42243Y25819D01*
X42300Y25876D01*
X42384Y26078D01*
Y26297D01*
X42300Y26499D01*
X42145Y26654D01*
X41943Y26737D01*
D02*
G37*
G36*
X33500Y26775D02*
X33144D01*
X33153Y26734D01*
X33168Y26684D01*
X33187Y26644D01*
X33209Y26612D01*
X33235Y26590D01*
X33264Y26576D01*
X33297Y26572D01*
X33027D01*
Y26227D01*
X33500D01*
Y26775D01*
D02*
G37*
G36*
X32656D02*
X32300D01*
Y26227D01*
X32773D01*
Y26572D01*
X32503D01*
X32536Y26576D01*
X32565Y26590D01*
X32591Y26612D01*
X32613Y26644D01*
X32632Y26684D01*
X32647Y26734D01*
X32656Y26775D01*
D02*
G37*
G36*
X46070Y26350D02*
X45247D01*
Y25527D01*
X46070D01*
Y26350D01*
D02*
G37*
G36*
X44993D02*
X44170D01*
Y25527D01*
X44993D01*
Y26350D01*
D02*
G37*
G36*
X33500Y25973D02*
X33027D01*
Y25628D01*
X33297D01*
X33264Y25624D01*
X33235Y25610D01*
X33209Y25588D01*
X33187Y25556D01*
X33168Y25516D01*
X33153Y25466D01*
X33144Y25425D01*
X33500D01*
Y25973D01*
D02*
G37*
G36*
X32773D02*
X32300D01*
Y25425D01*
X32656D01*
X32647Y25466D01*
X32632Y25516D01*
X32613Y25556D01*
X32591Y25588D01*
X32565Y25610D01*
X32536Y25624D01*
X32503Y25628D01*
X32773D01*
Y25973D01*
D02*
G37*
G36*
X51052Y27902D02*
X49348D01*
Y26698D01*
X49753D01*
X49818Y26638D01*
X49850Y26591D01*
X49889Y26498D01*
X49883Y26480D01*
X49862Y26433D01*
X49832Y26380D01*
X49795Y26322D01*
X49750Y26262D01*
X49630Y26125D01*
X49557Y26051D01*
X49545Y26022D01*
X49478Y25954D01*
X49359Y25748D01*
X49298Y25519D01*
Y25281D01*
X49359Y25052D01*
X49478Y24846D01*
X49646Y24678D01*
X49852Y24559D01*
X50081Y24498D01*
X50319D01*
X50548Y24559D01*
X50754Y24678D01*
X50922Y24846D01*
X51041Y25052D01*
X51102Y25281D01*
Y25519D01*
X51041Y25748D01*
X50922Y25954D01*
X50855Y26022D01*
X50843Y26051D01*
X50770Y26125D01*
X50650Y26262D01*
X50605Y26322D01*
X50568Y26380D01*
X50538Y26433D01*
X50516Y26480D01*
X50511Y26498D01*
X50550Y26591D01*
X50582Y26638D01*
X50647Y26698D01*
X51052D01*
Y27902D01*
D02*
G37*
G36*
X48952D02*
X47248D01*
Y26698D01*
X47800D01*
X47800Y26695D01*
X47804Y26671D01*
X47807Y26639D01*
X47808Y26595D01*
X47815Y26579D01*
Y26494D01*
X47779Y26302D01*
X47541D01*
X47312Y26241D01*
X47106Y26122D01*
X46938Y25954D01*
X46819Y25748D01*
X46758Y25519D01*
Y25281D01*
X46819Y25052D01*
X46938Y24846D01*
X47106Y24678D01*
X47312Y24559D01*
X47541Y24498D01*
X47779D01*
X48008Y24559D01*
X48214Y24678D01*
X48382Y24846D01*
X48501Y25052D01*
X48562Y25281D01*
Y25519D01*
X48501Y25748D01*
X48382Y25954D01*
X48325Y26011D01*
X48363Y26068D01*
X48385Y26177D01*
Y26579D01*
X48392Y26595D01*
X48393Y26639D01*
X48396Y26671D01*
X48400Y26695D01*
X48400Y26698D01*
X48952D01*
Y27902D01*
D02*
G37*
G36*
X46070Y25273D02*
X45247D01*
Y24450D01*
X46070D01*
Y25273D01*
D02*
G37*
G36*
X44993D02*
X44170D01*
Y24450D01*
X44993D01*
Y25273D01*
D02*
G37*
%LPD*%
G36*
X76100Y59675D02*
X73800D01*
X73700Y59775D01*
Y62475D01*
X73800Y62575D01*
X76600D01*
X76100Y59675D01*
D02*
G37*
G36*
X30200Y57937D02*
X29820Y57556D01*
X27704D01*
X27500Y57760D01*
Y60000D01*
X30200Y60700D01*
Y57937D01*
D02*
G37*
G36*
X38259Y54540D02*
X38254Y54583D01*
X38241Y54621D01*
X38218Y54655D01*
X38187Y54684D01*
X38146Y54709D01*
X38097Y54729D01*
X38038Y54745D01*
X37971Y54756D01*
X37894Y54763D01*
X37809Y54765D01*
Y55215D01*
X37894Y55218D01*
X37971Y55224D01*
X38038Y55235D01*
X38097Y55251D01*
X38146Y55271D01*
X38187Y55295D01*
X38218Y55324D01*
X38241Y55358D01*
X38254Y55395D01*
X38259Y55438D01*
Y54540D01*
D02*
G37*
G36*
X34706Y56319D02*
X34725Y56305D01*
X34745Y56293D01*
X34766Y56282D01*
X34789Y56273D01*
X34814Y56265D01*
X34840Y56259D01*
X34867Y56255D01*
X34896Y56253D01*
X34927Y56252D01*
Y55998D01*
X34896Y55997D01*
X34867Y55995D01*
X34840Y55991D01*
X34814Y55985D01*
X34789Y55977D01*
X34766Y55968D01*
X34745Y55957D01*
X34725Y55945D01*
X34706Y55931D01*
X34689Y55915D01*
Y56335D01*
X34706Y56319D01*
D02*
G37*
G36*
X43753Y55308D02*
X43359Y55229D01*
X43369Y55245D01*
X43375Y55261D01*
X43378Y55278D01*
X43377Y55296D01*
X43372Y55315D01*
X43365Y55335D01*
X43353Y55355D01*
X43339Y55377D01*
X43320Y55399D01*
X43299Y55422D01*
X43516Y55563D01*
X43753Y55308D01*
D02*
G37*
G36*
X41207Y54883D02*
X41190Y54898D01*
X41172Y54912D01*
X41152Y54925D01*
X41130Y54936D01*
X41107Y54945D01*
X41083Y54952D01*
X41057Y54958D01*
X41029Y54962D01*
X41000Y54965D01*
X40970Y54966D01*
Y55220D01*
X41000Y55220D01*
X41029Y55223D01*
X41057Y55227D01*
X41083Y55233D01*
X41107Y55240D01*
X41130Y55249D01*
X41152Y55260D01*
X41172Y55273D01*
X41190Y55287D01*
X41207Y55303D01*
Y54883D01*
D02*
G37*
G36*
X40582Y55322D02*
X40590Y55301D01*
X40603Y55282D01*
X40621Y55265D01*
X40644Y55251D01*
X40672Y55240D01*
X40706Y55231D01*
X40744Y55225D01*
X40788Y55221D01*
X40837Y55220D01*
Y54966D01*
X40788Y54964D01*
X40744Y54961D01*
X40706Y54954D01*
X40672Y54945D01*
X40644Y54934D01*
X40621Y54920D01*
X40603Y54903D01*
X40590Y54884D01*
X40582Y54863D01*
X40580Y54839D01*
Y55347D01*
X40582Y55322D01*
D02*
G37*
G36*
X41639Y54883D02*
X41626Y54863D01*
X41616Y54842D01*
X41606Y54820D01*
X41598Y54796D01*
X41591Y54771D01*
X41586Y54745D01*
X41583Y54717D01*
X41581Y54688D01*
X41580Y54658D01*
X41326Y54628D01*
X41325Y54659D01*
X41322Y54688D01*
X41318Y54715D01*
X41311Y54741D01*
X41303Y54764D01*
X41293Y54786D01*
X41281Y54807D01*
X41268Y54825D01*
X41252Y54842D01*
X41235Y54858D01*
X41653Y54901D01*
X41639Y54883D01*
D02*
G37*
G36*
X44697Y54819D02*
X44683Y54800D01*
X44670Y54780D01*
X44660Y54759D01*
X44650Y54736D01*
X44643Y54711D01*
X44637Y54685D01*
X44633Y54658D01*
X44631Y54629D01*
X44630Y54598D01*
X44376D01*
X44375Y54629D01*
X44372Y54658D01*
X44368Y54685D01*
X44362Y54711D01*
X44355Y54736D01*
X44346Y54759D01*
X44335Y54780D01*
X44323Y54800D01*
X44309Y54819D01*
X44293Y54836D01*
X44713D01*
X44697Y54819D01*
D02*
G37*
G36*
X41581Y54467D02*
X41585Y54423D01*
X41591Y54385D01*
X41600Y54351D01*
X41612Y54323D01*
X41626Y54300D01*
X41642Y54282D01*
X41661Y54269D01*
X41683Y54261D01*
X41707Y54259D01*
X41199D01*
X41223Y54261D01*
X41245Y54269D01*
X41264Y54282D01*
X41280Y54300D01*
X41294Y54323D01*
X41305Y54351D01*
X41314Y54385D01*
X41321Y54423D01*
X41325Y54467D01*
X41326Y54516D01*
X41580D01*
X41581Y54467D01*
D02*
G37*
G36*
X44631Y54367D02*
X44635Y54323D01*
X44641Y54285D01*
X44650Y54251D01*
X44661Y54223D01*
X44675Y54200D01*
X44692Y54182D01*
X44711Y54169D01*
X44733Y54161D01*
X44757Y54159D01*
X44249D01*
X44273Y54161D01*
X44294Y54169D01*
X44314Y54182D01*
X44330Y54200D01*
X44344Y54223D01*
X44355Y54251D01*
X44364Y54285D01*
X44371Y54323D01*
X44374Y54367D01*
X44376Y54416D01*
X44630D01*
X44631Y54367D01*
D02*
G37*
G36*
X48603Y53606D02*
X48657Y53620D01*
X48646Y53601D01*
X48637Y53581D01*
X48629Y53560D01*
X48622Y53537D01*
X48616Y53513D01*
X48613Y53498D01*
X48613Y53495D01*
X48622Y53461D01*
X48634Y53433D01*
X48648Y53410D01*
X48664Y53392D01*
X48683Y53379D01*
X48705Y53371D01*
X48729Y53369D01*
X48587D01*
X48348Y53300D01*
X48347Y53330D01*
X48344Y53359D01*
X48342Y53369D01*
X48221D01*
X48245Y53371D01*
X48267Y53379D01*
X48286Y53392D01*
X48302Y53410D01*
X48316Y53433D01*
X48319Y53441D01*
X48313Y53454D01*
X48300Y53472D01*
X48285Y53488D01*
X48269Y53503D01*
X48250Y53515D01*
X48343Y53539D01*
X48347Y53577D01*
X48348Y53626D01*
X48602D01*
X48603Y53606D01*
D02*
G37*
G36*
X47164Y53726D02*
X47170Y53650D01*
X47181Y53582D01*
X47195Y53524D01*
X47214Y53474D01*
X47237Y53434D01*
X47265Y53402D01*
X47296Y53380D01*
X47332Y53366D01*
X47372Y53362D01*
X46487Y53359D01*
X46529Y53364D01*
X46568Y53377D01*
X46601Y53400D01*
X46631Y53432D01*
X46655Y53473D01*
X46676Y53522D01*
X46691Y53581D01*
X46703Y53649D01*
X46709Y53726D01*
X46712Y53812D01*
X47162D01*
X47164Y53726D01*
D02*
G37*
G36*
X39041Y49049D02*
X39037Y49091D01*
X39023Y49130D01*
X39000Y49163D01*
X38969Y49193D01*
X38928Y49217D01*
X38878Y49238D01*
X38819Y49253D01*
X38751Y49265D01*
X38674Y49271D01*
X38588Y49274D01*
Y49724D01*
X38674Y49726D01*
X38751Y49733D01*
X38819Y49744D01*
X38878Y49760D01*
X38928Y49780D01*
X38969Y49805D01*
X39000Y49834D01*
X39023Y49868D01*
X39037Y49906D01*
X39041Y49949D01*
Y49049D01*
D02*
G37*
G36*
X49983Y48615D02*
X49986Y48592D01*
X49992Y48569D01*
X49999Y48546D01*
X50009Y48523D01*
X50021Y48501D01*
X50035Y48478D01*
X50052Y48456D01*
X50071Y48433D01*
X50092Y48411D01*
X49912Y48232D01*
X49890Y48253D01*
X49868Y48271D01*
X49845Y48288D01*
X49823Y48302D01*
X49800Y48314D01*
X49777Y48324D01*
X49755Y48332D01*
X49732Y48337D01*
X49709Y48340D01*
X49685Y48341D01*
X49982Y48638D01*
X49983Y48615D01*
D02*
G37*
G36*
X48687Y47916D02*
X48670Y47932D01*
X48652Y47946D01*
X48632Y47958D01*
X48610Y47969D01*
X48587Y47978D01*
X48563Y47986D01*
X48537Y47991D01*
X48509Y47995D01*
X48480Y47998D01*
X48450Y47999D01*
Y48253D01*
X48480Y48254D01*
X48509Y48256D01*
X48537Y48260D01*
X48563Y48266D01*
X48587Y48274D01*
X48610Y48283D01*
X48632Y48293D01*
X48652Y48306D01*
X48670Y48320D01*
X48687Y48336D01*
Y47916D01*
D02*
G37*
G36*
X47561Y48356D02*
X47569Y48334D01*
X47582Y48315D01*
X47600Y48299D01*
X47623Y48285D01*
X47651Y48273D01*
X47685Y48264D01*
X47723Y48258D01*
X47767Y48254D01*
X47816Y48253D01*
Y47999D01*
X47767Y47998D01*
X47723Y47994D01*
X47685Y47987D01*
X47651Y47979D01*
X47623Y47967D01*
X47600Y47953D01*
X47582Y47937D01*
X47569Y47918D01*
X47561Y47896D01*
X47559Y47872D01*
Y48380D01*
X47561Y48356D01*
D02*
G37*
G36*
X48859Y46964D02*
X48837Y46959D01*
X48816Y46951D01*
X48795Y46942D01*
X48773Y46932D01*
X48751Y46919D01*
X48730Y46905D01*
X48708Y46889D01*
X48664Y46852D01*
X48642Y46831D01*
X48417Y46965D01*
X48438Y46988D01*
X48457Y47010D01*
X48472Y47032D01*
X48485Y47055D01*
X48495Y47077D01*
X48502Y47099D01*
X48507Y47122D01*
X48508Y47144D01*
X48507Y47166D01*
X48503Y47188D01*
X48859Y46964D01*
D02*
G37*
G36*
X50386Y29753D02*
X50390Y29710D01*
X50396Y29671D01*
X50405Y29638D01*
X50417Y29610D01*
X50431Y29588D01*
X50447Y29570D01*
X50466Y29557D01*
X50488Y29549D01*
X50512Y29547D01*
X50004D01*
X50028Y29549D01*
X50050Y29557D01*
X50069Y29570D01*
X50085Y29588D01*
X50099Y29610D01*
X50110Y29638D01*
X50119Y29671D01*
X50126Y29710D01*
X50130Y29753D01*
X50131Y29801D01*
X50385D01*
X50386Y29753D01*
D02*
G37*
G36*
X48228D02*
X48232Y29710D01*
X48238Y29671D01*
X48247Y29638D01*
X48259Y29610D01*
X48273Y29588D01*
X48289Y29570D01*
X48308Y29557D01*
X48330Y29549D01*
X48354Y29547D01*
X47846D01*
X47870Y29549D01*
X47892Y29557D01*
X47911Y29570D01*
X47927Y29588D01*
X47941Y29610D01*
X47953Y29638D01*
X47962Y29671D01*
X47968Y29710D01*
X47972Y29753D01*
X47973Y29801D01*
X48227D01*
X48228Y29753D01*
D02*
G37*
G36*
X37691Y46990D02*
X37694Y46967D01*
X37700Y46944D01*
X37707Y46921D01*
X37717Y46899D01*
X37729Y46876D01*
X37743Y46854D01*
X37760Y46831D01*
X37779Y46809D01*
X37800Y46787D01*
X37620Y46607D01*
X37598Y46628D01*
X37576Y46647D01*
X37553Y46663D01*
X37531Y46678D01*
X37508Y46690D01*
X37485Y46700D01*
X37463Y46707D01*
X37440Y46712D01*
X37416Y46716D01*
X37393Y46716D01*
X37690Y47014D01*
X37691Y46990D01*
D02*
G37*
G36*
X40331Y46240D02*
X40329Y46264D01*
X40321Y46285D01*
X40308Y46304D01*
X40290Y46321D01*
X40267Y46335D01*
X40239Y46346D01*
X40205Y46355D01*
X40167Y46362D01*
X40123Y46365D01*
X40074Y46367D01*
Y46621D01*
X40123Y46622D01*
X40167Y46626D01*
X40205Y46632D01*
X40239Y46641D01*
X40267Y46652D01*
X40290Y46666D01*
X40308Y46683D01*
X40321Y46702D01*
X40329Y46724D01*
X40331Y46748D01*
Y46240D01*
D02*
G37*
G36*
X41931Y46216D02*
X41929Y46240D01*
X41921Y46262D01*
X41908Y46281D01*
X41890Y46297D01*
X41867Y46311D01*
X41839Y46323D01*
X41805Y46332D01*
X41767Y46338D01*
X41723Y46342D01*
X41674Y46343D01*
Y46597D01*
X41723Y46598D01*
X41767Y46602D01*
X41805Y46608D01*
X41839Y46617D01*
X41867Y46629D01*
X41890Y46643D01*
X41908Y46659D01*
X41921Y46678D01*
X41929Y46700D01*
X41931Y46724D01*
Y46216D01*
D02*
G37*
G36*
X41271Y46700D02*
X41279Y46678D01*
X41292Y46659D01*
X41310Y46643D01*
X41333Y46629D01*
X41361Y46617D01*
X41395Y46608D01*
X41433Y46602D01*
X41477Y46598D01*
X41526Y46597D01*
Y46343D01*
X41477Y46342D01*
X41433Y46338D01*
X41395Y46332D01*
X41361Y46323D01*
X41333Y46311D01*
X41310Y46297D01*
X41292Y46281D01*
X41279Y46262D01*
X41271Y46240D01*
X41269Y46216D01*
Y46724D01*
X41271Y46700D01*
D02*
G37*
G36*
X44062Y46083D02*
X44040Y46075D01*
X44021Y46062D01*
X44005Y46044D01*
X43991Y46021D01*
X43979Y45993D01*
X43970Y45959D01*
X43964Y45921D01*
X43960Y45877D01*
X43959Y45828D01*
X43705D01*
X43704Y45877D01*
X43700Y45921D01*
X43694Y45959D01*
X43685Y45993D01*
X43673Y46021D01*
X43659Y46044D01*
X43643Y46062D01*
X43624Y46075D01*
X43602Y46083D01*
X43578Y46085D01*
X44086D01*
X44062Y46083D01*
D02*
G37*
G36*
X43960Y45616D02*
X43962Y45587D01*
X43966Y45559D01*
X43972Y45533D01*
X43980Y45509D01*
X43989Y45486D01*
X44000Y45464D01*
X44012Y45444D01*
X44026Y45426D01*
X44042Y45409D01*
X43622D01*
X43638Y45426D01*
X43652Y45444D01*
X43664Y45464D01*
X43675Y45486D01*
X43684Y45509D01*
X43692Y45533D01*
X43698Y45559D01*
X43702Y45587D01*
X43704Y45616D01*
X43705Y45646D01*
X43959D01*
X43960Y45616D01*
D02*
G37*
G36*
X31900Y28400D02*
Y25600D01*
X31800Y25500D01*
X30293D01*
X30240Y25413D01*
X30249Y25500D01*
X30200D01*
X29100Y28000D01*
X29600Y28500D01*
X31800D01*
X31900Y28400D01*
D02*
G37*
G36*
X50430Y26854D02*
X50408Y26846D01*
X50389Y26833D01*
X50373Y26815D01*
X50359Y26792D01*
X50347Y26764D01*
X50338Y26730D01*
X50332Y26692D01*
X50328Y26648D01*
X50327Y26599D01*
X50073D01*
X50072Y26648D01*
X50068Y26692D01*
X50062Y26730D01*
X50053Y26764D01*
X50041Y26792D01*
X50027Y26815D01*
X50011Y26833D01*
X49992Y26846D01*
X49970Y26854D01*
X49946Y26856D01*
X50454D01*
X50430Y26854D01*
D02*
G37*
G36*
X50331Y26535D02*
X50343Y26479D01*
X50363Y26420D01*
X50391Y26358D01*
X50426Y26294D01*
X50470Y26227D01*
X50522Y26158D01*
X50649Y26012D01*
X50725Y25936D01*
X49675D01*
X49751Y26012D01*
X49878Y26158D01*
X49930Y26227D01*
X49973Y26294D01*
X50009Y26358D01*
X50037Y26420D01*
X50057Y26479D01*
X50069Y26535D01*
X50073Y26589D01*
X50327D01*
X50331Y26535D01*
D02*
G37*
G36*
X48330Y26854D02*
X48308Y26846D01*
X48289Y26833D01*
X48273Y26815D01*
X48259Y26792D01*
X48247Y26764D01*
X48238Y26730D01*
X48232Y26692D01*
X48228Y26648D01*
X48227Y26599D01*
X47973D01*
X47972Y26648D01*
X47968Y26692D01*
X47962Y26730D01*
X47953Y26764D01*
X47941Y26792D01*
X47927Y26815D01*
X47911Y26833D01*
X47892Y26846D01*
X47870Y26854D01*
X47846Y26856D01*
X48354D01*
X48330Y26854D01*
D02*
G37*
G36*
X48190Y26087D02*
X48174Y26071D01*
X48151Y26042D01*
X48142Y26029D01*
X48136Y26018D01*
X48132Y26007D01*
X48131Y25997D01*
X48132Y25989D01*
X48136Y25982D01*
X48141Y25975D01*
X47829Y26131D01*
X47837Y26131D01*
X47848Y26133D01*
X47861Y26139D01*
X47875Y26148D01*
X47893Y26161D01*
X47933Y26194D01*
X47982Y26240D01*
X48010Y26267D01*
X48190Y26087D01*
D02*
G37*
%LPC*%
G36*
X68575Y57335D02*
X68027D01*
Y56862D01*
X68575D01*
Y57335D01*
D02*
G37*
G36*
X67773D02*
X67225D01*
Y56862D01*
X67773D01*
Y57335D01*
D02*
G37*
G36*
X59972Y57289D02*
X59424D01*
Y56816D01*
X59972D01*
Y57289D01*
D02*
G37*
G36*
X59170D02*
X58622D01*
Y56816D01*
X59170D01*
Y57289D01*
D02*
G37*
G36*
X65111Y57089D02*
X64338D01*
Y56566D01*
X65111D01*
Y57089D01*
D02*
G37*
G36*
X64084D02*
X63311D01*
Y56566D01*
X64084D01*
Y57089D01*
D02*
G37*
G36*
X63079Y57078D02*
X62306D01*
Y56555D01*
X63079D01*
Y57078D01*
D02*
G37*
G36*
X62052D02*
X61279D01*
Y56555D01*
X62052D01*
Y57078D01*
D02*
G37*
G36*
X68575Y56608D02*
X68027D01*
Y56338D01*
X68154D01*
X68130Y56336D01*
X68108Y56328D01*
X68089Y56315D01*
X68073Y56297D01*
X68059Y56275D01*
X68047Y56247D01*
X68038Y56214D01*
X68032Y56175D01*
X68029Y56135D01*
X68575D01*
Y56608D01*
D02*
G37*
G36*
X67773D02*
X67225D01*
Y56135D01*
X67771D01*
X67768Y56175D01*
X67762Y56214D01*
X67753Y56247D01*
X67741Y56275D01*
X67727Y56297D01*
X67711Y56315D01*
X67692Y56328D01*
X67670Y56336D01*
X67646Y56338D01*
X67773D01*
Y56608D01*
D02*
G37*
G36*
X59972Y56562D02*
X59424D01*
Y56292D01*
X59551D01*
X59527Y56289D01*
X59505Y56282D01*
X59486Y56269D01*
X59470Y56251D01*
X59456Y56228D01*
X59444Y56201D01*
X59435Y56167D01*
X59429Y56129D01*
X59425Y56089D01*
X59972D01*
Y56562D01*
D02*
G37*
G36*
X59170D02*
X58622D01*
Y56089D01*
X59168D01*
X59165Y56129D01*
X59159Y56167D01*
X59150Y56201D01*
X59138Y56228D01*
X59124Y56251D01*
X59108Y56269D01*
X59089Y56282D01*
X59067Y56289D01*
X59043Y56292D01*
X59170D01*
Y56562D01*
D02*
G37*
G36*
X65111Y56312D02*
X64338D01*
Y55992D01*
X64465D01*
X64441Y55989D01*
X64419Y55982D01*
X64400Y55969D01*
X64384Y55951D01*
X64370Y55928D01*
X64359Y55900D01*
X64350Y55867D01*
X64343Y55829D01*
X64340Y55789D01*
X65111D01*
Y56312D01*
D02*
G37*
G36*
X64084D02*
X63311D01*
Y55789D01*
X64083D01*
X64079Y55829D01*
X64073Y55867D01*
X64064Y55900D01*
X64052Y55928D01*
X64038Y55951D01*
X64022Y55969D01*
X64003Y55982D01*
X63981Y55989D01*
X63957Y55992D01*
X64084D01*
Y56312D01*
D02*
G37*
G36*
X63079Y56301D02*
X62306D01*
Y55984D01*
X62433D01*
X62409Y55981D01*
X62387Y55974D01*
X62368Y55961D01*
X62352Y55943D01*
X62338Y55920D01*
X62327Y55891D01*
X62318Y55858D01*
X62311Y55819D01*
X62308Y55778D01*
X63079D01*
Y56301D01*
D02*
G37*
G36*
X62052D02*
X61279D01*
Y55778D01*
X62051D01*
X62047Y55819D01*
X62041Y55858D01*
X62032Y55891D01*
X62020Y55920D01*
X62006Y55943D01*
X61990Y55961D01*
X61971Y55974D01*
X61949Y55981D01*
X61925Y55984D01*
X62052D01*
Y56301D01*
D02*
G37*
G36*
X55422Y54527D02*
X54318D01*
Y54490D01*
X54202Y54427D01*
X54118Y54397D01*
X53932Y54474D01*
X53713D01*
X53511Y54390D01*
X53356Y54236D01*
X53273Y54034D01*
Y53815D01*
X53356Y53613D01*
X53511Y53458D01*
X53713Y53374D01*
X53932D01*
X54118Y53451D01*
X54202Y53421D01*
X54318Y53359D01*
Y53273D01*
X55422D01*
Y54527D01*
D02*
G37*
G36*
X70035Y54775D02*
X69562D01*
Y54227D01*
X70035D01*
Y54775D01*
D02*
G37*
G36*
X69308D02*
X68835D01*
Y54231D01*
X68875Y54234D01*
X68914Y54240D01*
X68947Y54249D01*
X68975Y54261D01*
X68997Y54275D01*
X69015Y54291D01*
X69028Y54310D01*
X69036Y54332D01*
X69038Y54356D01*
Y54227D01*
X69308D01*
Y54775D01*
D02*
G37*
G36*
X57000Y54575D02*
X56527D01*
Y54027D01*
X56797D01*
Y54254D01*
X56799Y54230D01*
X56807Y54208D01*
X56820Y54189D01*
X56838Y54173D01*
X56860Y54159D01*
X56888Y54147D01*
X56921Y54138D01*
X56960Y54132D01*
X57000Y54129D01*
Y54575D01*
D02*
G37*
G36*
X56273D02*
X55800D01*
Y54027D01*
X56273D01*
Y54575D01*
D02*
G37*
G36*
X69308Y53973D02*
X69038D01*
Y53848D01*
X69036Y53872D01*
X69028Y53894D01*
X69015Y53913D01*
X68997Y53929D01*
X68975Y53943D01*
X68947Y53955D01*
X68914Y53964D01*
X68875Y53970D01*
X68841Y53973D01*
X68835D01*
Y53425D01*
X69308D01*
Y53973D01*
D02*
G37*
G36*
X57000Y53773D02*
X56800D01*
X56799Y53770D01*
X56797Y53746D01*
Y53773D01*
X56527D01*
Y53225D01*
X57000D01*
Y53773D01*
D02*
G37*
G36*
X71517Y54727D02*
Y54727D01*
X70413D01*
Y53473D01*
X71517D01*
Y53496D01*
X71717Y53630D01*
X71781Y53604D01*
X71999D01*
X72202Y53688D01*
X72356Y53842D01*
X72440Y54044D01*
Y54263D01*
X72356Y54465D01*
X72202Y54620D01*
X71999Y54704D01*
X71781D01*
X71717Y54678D01*
X71517Y54727D01*
D02*
G37*
G36*
X70035Y53973D02*
X69562D01*
Y53425D01*
X70035D01*
Y53973D01*
D02*
G37*
G36*
X56273Y53773D02*
X55800D01*
Y53225D01*
X56273D01*
Y53773D01*
D02*
G37*
G36*
X67327Y53075D02*
Y52527D01*
X67594D01*
Y52654D01*
X67596Y52630D01*
X67604Y52608D01*
X67617Y52589D01*
X67635Y52573D01*
X67658Y52559D01*
X67686Y52547D01*
X67720Y52538D01*
X67736Y52536D01*
X67751Y52539D01*
X67769Y52544D01*
X67785Y52551D01*
X67799Y52558D01*
X67800Y52558D01*
Y53075D01*
X67327D01*
D02*
G37*
G36*
X67594Y52273D02*
X67327D01*
Y51725D01*
X67800D01*
Y52242D01*
X67799Y52242D01*
X67785Y52249D01*
X67769Y52256D01*
X67751Y52261D01*
X67736Y52264D01*
X67720Y52262D01*
X67686Y52253D01*
X67658Y52241D01*
X67635Y52227D01*
X67617Y52211D01*
X67604Y52192D01*
X67596Y52170D01*
X67594Y52146D01*
Y52273D01*
D02*
G37*
G36*
X70035Y51675D02*
X69562D01*
Y51127D01*
X70035D01*
Y51675D01*
D02*
G37*
G36*
X69308D02*
X68835D01*
Y51157D01*
X68875Y51161D01*
X68914Y51167D01*
X68947Y51176D01*
X68975Y51187D01*
X68997Y51201D01*
X69015Y51218D01*
X69028Y51237D01*
X69036Y51258D01*
X69038Y51283D01*
Y51127D01*
X69308D01*
Y51675D01*
D02*
G37*
G36*
Y50873D02*
X69038D01*
Y50775D01*
X69036Y50799D01*
X69028Y50820D01*
X69015Y50839D01*
X68997Y50856D01*
X68975Y50870D01*
X68967Y50873D01*
X68835D01*
Y50325D01*
X69308D01*
Y50873D01*
D02*
G37*
G36*
X72020Y51858D02*
X71801D01*
X71599Y51774D01*
X71453Y51627D01*
X70413D01*
Y50373D01*
X71517D01*
Y50702D01*
X71534Y50705D01*
X71565Y50707D01*
X71606Y50708D01*
X71638Y50722D01*
X71711Y50737D01*
X71765Y50773D01*
X71801Y50758D01*
X72020D01*
X72222Y50842D01*
X72377Y50996D01*
X72461Y51199D01*
Y51417D01*
X72377Y51619D01*
X72222Y51774D01*
X72020Y51858D01*
D02*
G37*
G36*
X70035Y50873D02*
X69562D01*
Y50325D01*
X70035D01*
Y50873D01*
D02*
G37*
G36*
X69970Y49775D02*
X69497D01*
Y49227D01*
X69970D01*
Y49775D01*
D02*
G37*
G36*
X69243D02*
X68770D01*
Y49279D01*
X68780Y49278D01*
X68810Y49281D01*
X68849Y49287D01*
X68882Y49296D01*
X68910Y49308D01*
X68932Y49322D01*
X68950Y49338D01*
X68963Y49357D01*
X68971Y49379D01*
X68973Y49403D01*
Y49227D01*
X69243D01*
Y49775D01*
D02*
G37*
G36*
Y48973D02*
X68973D01*
Y48895D01*
X68971Y48919D01*
X68963Y48941D01*
X68950Y48960D01*
X68936Y48973D01*
X68770D01*
Y48425D01*
X69243D01*
Y48973D01*
D02*
G37*
G36*
X56966Y49367D02*
X56493D01*
Y48819D01*
X56763D01*
Y48997D01*
X56765Y48972D01*
X56773Y48951D01*
X56785Y48932D01*
X56803Y48915D01*
X56826Y48901D01*
X56854Y48890D01*
X56887Y48881D01*
X56925Y48875D01*
X56966Y48871D01*
Y49367D01*
D02*
G37*
G36*
X56239D02*
X55766D01*
Y48819D01*
X56239D01*
Y49367D01*
D02*
G37*
G36*
X69970Y48973D02*
X69497D01*
Y48425D01*
X69970D01*
Y48973D01*
D02*
G37*
%LPD*%
G36*
X54476Y53670D02*
X54474Y53694D01*
X54466Y53716D01*
X54453Y53735D01*
X54435Y53751D01*
X54412Y53765D01*
X54384Y53777D01*
X54350Y53786D01*
X54312Y53792D01*
X54268Y53796D01*
X54247Y53796D01*
X54244Y53796D01*
X54215Y53794D01*
X54187Y53790D01*
X54161Y53784D01*
X54137Y53776D01*
X54114Y53767D01*
X54092Y53757D01*
X54072Y53744D01*
X54054Y53730D01*
X54037Y53714D01*
Y54134D01*
X54054Y54118D01*
X54072Y54104D01*
X54092Y54092D01*
X54114Y54081D01*
X54137Y54072D01*
X54161Y54064D01*
X54187Y54059D01*
X54215Y54055D01*
X54244Y54052D01*
X54247Y54052D01*
X54268Y54052D01*
X54312Y54056D01*
X54350Y54063D01*
X54384Y54072D01*
X54412Y54083D01*
X54435Y54097D01*
X54453Y54113D01*
X54466Y54132D01*
X54474Y54154D01*
X54476Y54178D01*
Y53670D01*
D02*
G37*
G36*
X71361Y54384D02*
X71369Y54362D01*
X71382Y54343D01*
X71400Y54327D01*
X71423Y54313D01*
X71451Y54301D01*
X71485Y54292D01*
X71517Y54287D01*
X71525Y54288D01*
X71551Y54294D01*
X71576Y54302D01*
X71599Y54311D01*
X71620Y54322D01*
X71640Y54334D01*
X71659Y54348D01*
X71676Y54364D01*
Y53944D01*
X71659Y53960D01*
X71640Y53974D01*
X71620Y53986D01*
X71599Y53997D01*
X71576Y54006D01*
X71551Y54014D01*
X71525Y54019D01*
X71517Y54021D01*
X71485Y54015D01*
X71451Y54007D01*
X71423Y53995D01*
X71400Y53981D01*
X71382Y53965D01*
X71369Y53946D01*
X71361Y53924D01*
X71359Y53900D01*
Y54408D01*
X71361Y54384D01*
D02*
G37*
G36*
X71842Y51016D02*
X71834Y51016D01*
X71825Y51014D01*
X71814Y51010D01*
X71801Y51003D01*
X71787Y50994D01*
X71771Y50982D01*
X71735Y50951D01*
X71692Y50910D01*
X71602Y51000D01*
Y50873D01*
X71556Y50872D01*
X71515Y50868D01*
X71478Y50863D01*
X71447Y50855D01*
X71420Y50845D01*
X71398Y50832D01*
X71381Y50817D01*
X71369Y50800D01*
X71361Y50781D01*
X71359Y50760D01*
Y51240D01*
X71361Y51219D01*
X71369Y51200D01*
X71381Y51183D01*
X71398Y51168D01*
X71420Y51155D01*
X71447Y51145D01*
X71478Y51137D01*
X71515Y51132D01*
X71548Y51129D01*
X71596Y51185D01*
X71606Y51199D01*
X71613Y51212D01*
X71617Y51223D01*
X71619Y51232D01*
X71619Y51240D01*
X71842Y51016D01*
D02*
G37*
%LPC*%
G36*
X65543Y52273D02*
X65273D01*
Y52146D01*
X65271Y52170D01*
X65263Y52192D01*
X65250Y52211D01*
X65232Y52227D01*
X65210Y52241D01*
X65182Y52253D01*
X65149Y52262D01*
X65110Y52268D01*
X65070Y52271D01*
Y51725D01*
X65543D01*
Y52273D01*
D02*
G37*
G36*
X60225Y46965D02*
X60075D01*
X60025Y46965D01*
X59543D01*
X59540Y46956D01*
X59534Y46930D01*
X59533Y46920D01*
X59538Y46886D01*
X59547Y46853D01*
X59559Y46825D01*
X59573Y46803D01*
X59589Y46785D01*
X59608Y46772D01*
X59630Y46764D01*
X59654Y46762D01*
X59527D01*
Y46365D01*
Y45765D01*
X60025D01*
X60075Y45765D01*
X60225D01*
X60275Y45765D01*
X60773D01*
Y46365D01*
Y46762D01*
X60646D01*
X60670Y46764D01*
X60692Y46772D01*
X60711Y46785D01*
X60727Y46803D01*
X60741Y46825D01*
X60753Y46853D01*
X60762Y46886D01*
X60767Y46920D01*
X60766Y46930D01*
X60760Y46956D01*
X60757Y46965D01*
X60275D01*
X60225Y46965D01*
D02*
G37*
G36*
X58725D02*
X58575D01*
X58525Y46965D01*
X58043D01*
X58040Y46956D01*
X58034Y46930D01*
X58033Y46920D01*
X58038Y46886D01*
X58047Y46853D01*
X58059Y46825D01*
X58073Y46803D01*
X58089Y46785D01*
X58108Y46772D01*
X58130Y46764D01*
X58154Y46762D01*
X58027D01*
Y46365D01*
Y45765D01*
X58525D01*
X58575Y45765D01*
X58725D01*
X58775Y45765D01*
X59273D01*
Y46365D01*
Y46762D01*
X59146D01*
X59170Y46764D01*
X59192Y46772D01*
X59211Y46785D01*
X59227Y46803D01*
X59241Y46825D01*
X59253Y46853D01*
X59262Y46886D01*
X59267Y46920D01*
X59266Y46930D01*
X59260Y46956D01*
X59257Y46965D01*
X58775D01*
X58725Y46965D01*
D02*
G37*
G36*
X61043Y46965D02*
X61040Y46956D01*
X61034Y46930D01*
X61033Y46920D01*
X61038Y46886D01*
X61047Y46853D01*
X61059Y46825D01*
X61073Y46803D01*
X61089Y46785D01*
X61108Y46772D01*
X61130Y46764D01*
X61154Y46762D01*
X61027D01*
Y46492D01*
X61575D01*
Y46965D01*
X61043D01*
D02*
G37*
G36*
X64087Y46727D02*
X62983D01*
Y46247D01*
X62783Y46242D01*
X62632Y46392D01*
X62430Y46476D01*
X62211D01*
X62009Y46392D01*
X61854Y46238D01*
X61770Y46035D01*
X61575Y46047D01*
Y46238D01*
X61027D01*
Y45765D01*
X61575D01*
Y45805D01*
X61770Y45817D01*
X61854Y45615D01*
X62009Y45460D01*
X62211Y45376D01*
X62430D01*
X62632Y45460D01*
X62783Y45611D01*
X62983Y45605D01*
Y45473D01*
X64087D01*
Y46727D01*
D02*
G37*
G36*
X65665Y46775D02*
X65192D01*
Y46227D01*
X65462D01*
Y46354D01*
X65464Y46330D01*
X65472Y46308D01*
X65485Y46289D01*
X65503Y46273D01*
X65525Y46259D01*
X65553Y46247D01*
X65586Y46238D01*
X65625Y46232D01*
X65660Y46229D01*
X65665Y46229D01*
Y46775D01*
D02*
G37*
G36*
X64938D02*
X64465D01*
Y46227D01*
X64938D01*
Y46775D01*
D02*
G37*
G36*
X57225Y46965D02*
X57075D01*
X57025Y46965D01*
X56590D01*
X56587Y46956D01*
X56581Y46930D01*
X56580Y46920D01*
X56585Y46886D01*
X56594Y46853D01*
X56606Y46825D01*
X56620Y46803D01*
X56636Y46785D01*
X56655Y46772D01*
X56677Y46764D01*
X56701Y46762D01*
X56527D01*
Y46365D01*
Y45765D01*
X57025D01*
X57075Y45765D01*
X57225D01*
X57275Y45765D01*
X57773D01*
Y46365D01*
Y46762D01*
X57646D01*
X57670Y46764D01*
X57692Y46772D01*
X57711Y46785D01*
X57727Y46803D01*
X57741Y46825D01*
X57753Y46853D01*
X57762Y46886D01*
X57767Y46920D01*
X57766Y46930D01*
X57760Y46956D01*
X57757Y46965D01*
X57275D01*
X57225Y46965D01*
D02*
G37*
G36*
X65462Y45973D02*
X65192D01*
Y45425D01*
X65665D01*
Y45971D01*
X65625Y45968D01*
X65586Y45962D01*
X65553Y45953D01*
X65525Y45941D01*
X65503Y45927D01*
X65485Y45911D01*
X65472Y45892D01*
X65464Y45870D01*
X65462Y45846D01*
Y45973D01*
D02*
G37*
G36*
X64938D02*
X64465D01*
Y45425D01*
X64938D01*
Y45973D01*
D02*
G37*
G36*
X67600Y44550D02*
X66880D01*
X66868Y44530D01*
X66857Y44509D01*
X66848Y44486D01*
X66841Y44463D01*
X66847Y44438D01*
X66859Y44410D01*
X66873Y44388D01*
X66889Y44370D01*
X66908Y44357D01*
X66930Y44349D01*
X66954Y44347D01*
X66827D01*
Y44027D01*
X67600D01*
Y44550D01*
D02*
G37*
G36*
X61527Y45387D02*
X60273D01*
Y44304D01*
X60244Y44275D01*
X60160Y44073D01*
Y43986D01*
X59858D01*
X59753Y44146D01*
X59822Y44283D01*
X60027D01*
Y45387D01*
X58773D01*
Y44283D01*
X58980D01*
X59044Y44183D01*
X59059Y44151D01*
X58945Y43985D01*
X58322D01*
X58253Y44083D01*
X58355Y44283D01*
X58527D01*
Y45387D01*
X57273D01*
Y44857D01*
X57227Y44807D01*
X57067Y44858D01*
X57053Y44870D01*
X57027Y44912D01*
Y45387D01*
X55773D01*
Y44283D01*
X55879D01*
X56019Y44083D01*
X56013Y44040D01*
X55858Y43885D01*
X55847Y43859D01*
X55651D01*
X55635Y43898D01*
X55480Y44053D01*
X55278Y44136D01*
X55059D01*
X54857Y44053D01*
X54703Y43898D01*
X54619Y43696D01*
Y43477D01*
X54703Y43275D01*
X54857Y43120D01*
X54867Y43027D01*
X54722Y42827D01*
X54613D01*
Y41573D01*
X54900D01*
X54900Y41570D01*
X54904Y41546D01*
X54907Y41514D01*
X54908Y41470D01*
X54915Y41454D01*
Y41371D01*
X54908Y41355D01*
X54907Y41311D01*
X54904Y41279D01*
X54900Y41255D01*
X54900Y41252D01*
X54598D01*
Y39548D01*
X54747D01*
X54831Y39400D01*
X54747Y39252D01*
X54598D01*
Y37548D01*
X54900D01*
X54900Y37545D01*
X54904Y37521D01*
X54907Y37489D01*
X54908Y37445D01*
X54915Y37429D01*
Y37346D01*
X54908Y37330D01*
X54907Y37286D01*
X54904Y37254D01*
X54900Y37229D01*
X54900Y37227D01*
X54648D01*
Y35972D01*
X55752D01*
Y37227D01*
X55500D01*
X55500Y37229D01*
X55496Y37254D01*
X55493Y37286D01*
X55492Y37330D01*
X55485Y37346D01*
Y37429D01*
X55492Y37445D01*
X55493Y37489D01*
X55496Y37521D01*
X55500Y37545D01*
X55500Y37548D01*
X55802D01*
Y39252D01*
X55653D01*
X55569Y39400D01*
X55653Y39548D01*
X55802D01*
Y41252D01*
X55500D01*
X55500Y41255D01*
X55496Y41279D01*
X55493Y41311D01*
X55492Y41355D01*
X55485Y41371D01*
Y41454D01*
X55492Y41470D01*
X55493Y41514D01*
X55496Y41546D01*
X55500Y41570D01*
X55500Y41573D01*
X55717D01*
Y42827D01*
X55615D01*
X55471Y43027D01*
X55480Y43120D01*
X55635Y43275D01*
X55641Y43289D01*
X55847D01*
X55858Y43262D01*
X56013Y43107D01*
X56215Y43024D01*
X56434D01*
X56636Y43107D01*
X56699Y43171D01*
X56743Y43126D01*
X56945Y43043D01*
X57164D01*
X57366Y43126D01*
X57469Y43229D01*
X57650Y43154D01*
X57869D01*
X58071Y43238D01*
X58226Y43392D01*
X58235Y43415D01*
X59363D01*
X59370Y43411D01*
X59390Y43415D01*
X59413D01*
X59432Y43411D01*
X59438Y43415D01*
X59771D01*
X59771Y43415D01*
X59778Y43416D01*
X60423D01*
X60423Y43416D01*
X60532Y43438D01*
X60535Y43440D01*
X60600Y43414D01*
X60819D01*
X61021Y43497D01*
X61176Y43652D01*
X61260Y43854D01*
Y44073D01*
X61256Y44083D01*
X61390Y44283D01*
X61527D01*
Y45387D01*
D02*
G37*
G36*
X63972Y44319D02*
X63425D01*
X63429Y44278D01*
X63435Y44240D01*
X63444Y44207D01*
X63456Y44179D01*
X63470Y44156D01*
X63486Y44139D01*
X63505Y44126D01*
X63527Y44118D01*
X63551Y44116D01*
X63424D01*
Y43846D01*
X63972D01*
Y44319D01*
D02*
G37*
G36*
X63168D02*
X62622D01*
Y43846D01*
X63170D01*
Y44116D01*
X63043D01*
X63067Y44118D01*
X63089Y44126D01*
X63108Y44139D01*
X63124Y44156D01*
X63138Y44179D01*
X63150Y44207D01*
X63159Y44240D01*
X63165Y44278D01*
X63168Y44319D01*
D02*
G37*
G36*
X64868D02*
X64322D01*
Y43846D01*
X64870D01*
Y44116D01*
X64743D01*
X64767Y44118D01*
X64789Y44126D01*
X64808Y44139D01*
X64824Y44156D01*
X64838Y44179D01*
X64850Y44207D01*
X64859Y44240D01*
X64865Y44278D01*
X64868Y44319D01*
D02*
G37*
G36*
X68305Y43663D02*
X68086D01*
Y43455D01*
X68305Y43663D01*
D02*
G37*
G36*
X67600Y43773D02*
X66827D01*
Y43250D01*
X67600D01*
Y43773D01*
D02*
G37*
G36*
X68086Y43409D02*
Y43140D01*
X68312D01*
X68313Y43144D01*
X68313Y43170D01*
X68306Y43201D01*
X68291Y43235D01*
X68269Y43273D01*
X68240Y43314D01*
X68209Y43352D01*
X68202Y43358D01*
X68179Y43372D01*
X68157Y43385D01*
X68134Y43395D01*
X68111Y43403D01*
X68088Y43408D01*
X68086Y43409D01*
D02*
G37*
G36*
X66520Y44550D02*
X65800D01*
Y44466D01*
X65672Y44319D01*
X65600Y44319D01*
X65126D01*
X65129Y44278D01*
X65135Y44240D01*
X65144Y44207D01*
X65156Y44179D01*
X65170Y44156D01*
X65186Y44139D01*
X65205Y44126D01*
X65227Y44118D01*
X65251Y44116D01*
X65124D01*
Y43719D01*
Y43119D01*
X65672Y43119D01*
X65818Y43250D01*
X65872Y43250D01*
X66573D01*
Y43900D01*
Y44347D01*
X66446D01*
X66470Y44349D01*
X66492Y44357D01*
X66511Y44370D01*
X66527Y44388D01*
X66541Y44410D01*
X66553Y44438D01*
X66559Y44463D01*
X66552Y44486D01*
X66543Y44509D01*
X66532Y44530D01*
X66520Y44550D01*
D02*
G37*
G36*
X68859Y42886D02*
X68086D01*
Y42363D01*
X68859D01*
Y42886D01*
D02*
G37*
G36*
X54235Y42875D02*
X53762D01*
Y42327D01*
X54235D01*
Y42875D01*
D02*
G37*
G36*
X53508D02*
X53035D01*
Y42329D01*
X53075Y42332D01*
X53114Y42338D01*
X53147Y42347D01*
X53175Y42359D01*
X53197Y42373D01*
X53215Y42389D01*
X53228Y42408D01*
X53236Y42430D01*
X53238Y42454D01*
Y42327D01*
X53508D01*
Y42875D01*
D02*
G37*
G36*
Y42073D02*
X53238D01*
Y41946D01*
X53236Y41970D01*
X53228Y41992D01*
X53215Y42011D01*
X53197Y42027D01*
X53175Y42041D01*
X53147Y42053D01*
X53114Y42062D01*
X53075Y42068D01*
X53035Y42071D01*
Y41525D01*
X53508D01*
Y42073D01*
D02*
G37*
G36*
X54235D02*
X53762D01*
Y41525D01*
X54235D01*
Y42073D01*
D02*
G37*
G36*
X54050Y41300D02*
X53527D01*
Y40527D01*
X54050D01*
Y41300D01*
D02*
G37*
G36*
X53273D02*
X52750D01*
Y40529D01*
X52790Y40532D01*
X52829Y40538D01*
X52862Y40547D01*
X52890Y40559D01*
X52912Y40573D01*
X52930Y40589D01*
X52943Y40608D01*
X52951Y40630D01*
X52953Y40654D01*
Y40527D01*
X53273D01*
Y41300D01*
D02*
G37*
G36*
Y40273D02*
X52953D01*
Y40146D01*
X52951Y40170D01*
X52943Y40192D01*
X52930Y40211D01*
X52912Y40227D01*
X52890Y40241D01*
X52862Y40253D01*
X52829Y40262D01*
X52790Y40268D01*
X52750Y40271D01*
Y39500D01*
X53273D01*
Y40273D01*
D02*
G37*
G36*
X54050D02*
X53527D01*
Y39500D01*
X54050D01*
Y40273D01*
D02*
G37*
G36*
X54050Y39300D02*
X53527D01*
Y38527D01*
X54050D01*
Y39300D01*
D02*
G37*
G36*
X53273D02*
X52750D01*
Y38528D01*
X52792Y38532D01*
X52830Y38538D01*
X52864Y38547D01*
X52892Y38559D01*
X52915Y38573D01*
X52933Y38589D01*
X52946Y38608D01*
X52954Y38630D01*
X52956Y38654D01*
Y38527D01*
X53273D01*
Y39300D01*
D02*
G37*
G36*
Y38273D02*
X52956D01*
Y38146D01*
X52954Y38170D01*
X52946Y38192D01*
X52933Y38211D01*
X52915Y38227D01*
X52892Y38241D01*
X52864Y38253D01*
X52830Y38262D01*
X52792Y38268D01*
X52750Y38272D01*
Y37500D01*
X53273D01*
Y38273D01*
D02*
G37*
G36*
X54050D02*
X53527D01*
Y37500D01*
X54050D01*
Y38273D01*
D02*
G37*
G36*
X73748Y31825D02*
X73684D01*
X73315Y31726D01*
X72985Y31535D01*
X72715Y31265D01*
X72524Y30935D01*
X72425Y30566D01*
Y30502D01*
X73748D01*
Y31825D01*
D02*
G37*
G36*
X68916D02*
X68852D01*
Y30502D01*
X70175D01*
Y30566D01*
X70076Y30935D01*
X69885Y31265D01*
X69615Y31535D01*
X69285Y31726D01*
X68916Y31825D01*
D02*
G37*
G36*
X68598D02*
X68534D01*
X68165Y31726D01*
X67835Y31535D01*
X67565Y31265D01*
X67374Y30935D01*
X67275Y30566D01*
Y30502D01*
X68598D01*
Y31825D01*
D02*
G37*
G36*
X73748Y30248D02*
X72425D01*
Y30184D01*
X72524Y29815D01*
X72715Y29485D01*
X72985Y29215D01*
X73315Y29024D01*
X73684Y28925D01*
X73748D01*
Y30248D01*
D02*
G37*
G36*
X70175D02*
X68852D01*
Y28925D01*
X68916D01*
X69285Y29024D01*
X69615Y29215D01*
X69885Y29485D01*
X70076Y29815D01*
X70175Y30184D01*
Y30248D01*
D02*
G37*
G36*
X68598D02*
X67275D01*
Y30184D01*
X67374Y29815D01*
X67565Y29485D01*
X67835Y29215D01*
X68165Y29024D01*
X68534Y28925D01*
X68598D01*
Y30248D01*
D02*
G37*
G36*
X71485Y29202D02*
X71115D01*
X70759Y29107D01*
X70439Y28922D01*
X70178Y28661D01*
X69993Y28341D01*
X69898Y27985D01*
Y27615D01*
X69993Y27259D01*
X70178Y26939D01*
X70439Y26678D01*
X70759Y26493D01*
X71115Y26398D01*
X71485D01*
X71841Y26493D01*
X72161Y26678D01*
X72422Y26939D01*
X72607Y27259D01*
X72702Y27615D01*
Y27985D01*
X72607Y28341D01*
X72422Y28661D01*
X72161Y28922D01*
X71841Y29107D01*
X71485Y29202D01*
D02*
G37*
G36*
X73748Y26675D02*
X73684D01*
X73315Y26576D01*
X72985Y26385D01*
X72715Y26115D01*
X72524Y25785D01*
X72425Y25416D01*
Y25352D01*
X73748D01*
Y26675D01*
D02*
G37*
G36*
X68916D02*
X68852D01*
Y25352D01*
X70175D01*
Y25416D01*
X70076Y25785D01*
X69885Y26115D01*
X69615Y26385D01*
X69285Y26576D01*
X68916Y26675D01*
D02*
G37*
G36*
X68598D02*
X68534D01*
X68165Y26576D01*
X67835Y26385D01*
X67565Y26115D01*
X67374Y25785D01*
X67275Y25416D01*
Y25352D01*
X68598D01*
Y26675D01*
D02*
G37*
%LPD*%
G36*
X62551Y46120D02*
X62570Y46106D01*
X62590Y46094D01*
X62612Y46083D01*
X62635Y46074D01*
X62659Y46066D01*
X62685Y46061D01*
X62713Y46056D01*
X62742Y46054D01*
X62772Y46053D01*
Y45799D01*
X62742Y45798D01*
X62713Y45796D01*
X62685Y45792D01*
X62659Y45786D01*
X62635Y45778D01*
X62612Y45769D01*
X62590Y45758D01*
X62570Y45746D01*
X62551Y45732D01*
X62534Y45716D01*
Y46136D01*
X62551Y46120D01*
D02*
G37*
G36*
X63141Y45672D02*
X63139Y45696D01*
X63131Y45718D01*
X63118Y45737D01*
X63100Y45753D01*
X63077Y45767D01*
X63049Y45779D01*
X63015Y45788D01*
X62977Y45794D01*
X62933Y45798D01*
X62884Y45799D01*
Y46053D01*
X62933Y46054D01*
X62977Y46058D01*
X63015Y46065D01*
X63049Y46073D01*
X63077Y46085D01*
X63100Y46099D01*
X63118Y46115D01*
X63131Y46134D01*
X63139Y46156D01*
X63141Y46180D01*
Y45672D01*
D02*
G37*
G36*
X57787Y44441D02*
X57768Y44455D01*
X57745Y44462D01*
X57718Y44462D01*
X57687Y44454D01*
X57653Y44440D01*
X57616Y44418D01*
X57574Y44389D01*
X57529Y44352D01*
X57428Y44258D01*
X57248Y44438D01*
X57299Y44490D01*
X57379Y44584D01*
X57408Y44626D01*
X57430Y44663D01*
X57444Y44697D01*
X57452Y44728D01*
X57452Y44755D01*
X57445Y44778D01*
X57431Y44797D01*
X57787Y44441D01*
D02*
G37*
G36*
X59630Y44439D02*
X59608Y44431D01*
X59589Y44418D01*
X59573Y44400D01*
X59559Y44377D01*
X59547Y44349D01*
X59538Y44315D01*
X59532Y44277D01*
X59528Y44233D01*
X59527Y44184D01*
X59273D01*
X59272Y44233D01*
X59268Y44277D01*
X59262Y44315D01*
X59253Y44349D01*
X59241Y44377D01*
X59227Y44400D01*
X59211Y44418D01*
X59192Y44431D01*
X59170Y44439D01*
X59146Y44441D01*
X59654D01*
X59630Y44439D01*
D02*
G37*
G36*
X56554D02*
X56533Y44431D01*
X56514Y44418D01*
X56497Y44400D01*
X56483Y44377D01*
X56472Y44349D01*
X56463Y44315D01*
X56457Y44277D01*
X56453Y44233D01*
X56451Y44184D01*
X56197D01*
X56196Y44233D01*
X56192Y44277D01*
X56186Y44315D01*
X56177Y44349D01*
X56166Y44377D01*
X56152Y44400D01*
X56135Y44418D01*
X56116Y44431D01*
X56095Y44439D01*
X56070Y44441D01*
X56578D01*
X56554Y44439D01*
D02*
G37*
G36*
X60940D02*
X60918Y44431D01*
X60899Y44418D01*
X60883Y44400D01*
X60869Y44377D01*
X60857Y44349D01*
X60848Y44315D01*
X60848Y44313D01*
X60850Y44302D01*
X60858Y44278D01*
X60867Y44255D01*
X60878Y44233D01*
X60890Y44213D01*
X60904Y44195D01*
X60920Y44178D01*
X60500D01*
X60516Y44195D01*
X60530Y44213D01*
X60542Y44233D01*
X60553Y44255D01*
X60562Y44278D01*
X60570Y44302D01*
X60572Y44313D01*
X60571Y44315D01*
X60563Y44349D01*
X60551Y44377D01*
X60537Y44400D01*
X60521Y44418D01*
X60502Y44431D01*
X60480Y44439D01*
X60456Y44441D01*
X60964D01*
X60940Y44439D01*
D02*
G37*
G36*
X59529Y44033D02*
X59537Y43990D01*
X59549Y43951D01*
X59566Y43918D01*
X59588Y43890D01*
X59615Y43868D01*
X59647Y43850D01*
X59683Y43837D01*
X59725Y43830D01*
X59771Y43827D01*
X59400Y43573D01*
X59019Y43827D01*
X59067Y43830D01*
X59110Y43837D01*
X59149Y43850D01*
X59182Y43868D01*
X59209Y43890D01*
X59232Y43918D01*
X59250Y43951D01*
X59263Y43990D01*
X59270Y44033D01*
X59273Y44081D01*
X59527D01*
X59529Y44033D01*
D02*
G37*
G36*
X57993Y43895D02*
X58012Y43881D01*
X58032Y43868D01*
X58053Y43857D01*
X58076Y43848D01*
X58100Y43840D01*
X58126Y43835D01*
X58154Y43830D01*
X58183Y43828D01*
X58213Y43827D01*
X58210Y43573D01*
X58179Y43572D01*
X58150Y43570D01*
X58123Y43566D01*
X58096Y43560D01*
X58072Y43553D01*
X58049Y43544D01*
X58027Y43533D01*
X58007Y43521D01*
X57988Y43507D01*
X57971Y43491D01*
X57977Y43911D01*
X57993Y43895D01*
D02*
G37*
G36*
X57248Y44002D02*
X57249Y43972D01*
X57253Y43915D01*
X57257Y43888D01*
X57263Y43863D01*
X57269Y43839D01*
X57277Y43816D01*
X57279Y43810D01*
X57287Y43806D01*
X57309Y43798D01*
X57333Y43791D01*
X57359Y43785D01*
X57372Y43783D01*
X57375Y43784D01*
X57400Y43791D01*
X57423Y43799D01*
X57444Y43810D01*
X57463Y43822D01*
X57481Y43836D01*
X57496Y43852D01*
X57510Y43871D01*
X57588Y43458D01*
X57569Y43470D01*
X57549Y43481D01*
X57528Y43490D01*
X57505Y43498D01*
X57481Y43505D01*
X57456Y43511D01*
X57443Y43513D01*
X57440Y43513D01*
X57415Y43506D01*
X57391Y43498D01*
X57370Y43487D01*
X57351Y43475D01*
X57333Y43460D01*
X57318Y43444D01*
X57304Y43426D01*
X57239Y43771D01*
X56897Y43848D01*
X56916Y43861D01*
X56932Y43876D01*
X56947Y43893D01*
X56959Y43912D01*
X56970Y43933D01*
X56978Y43955D01*
X56985Y43980D01*
X56990Y44007D01*
X56993Y44036D01*
X56994Y44067D01*
X57248Y44002D01*
D02*
G37*
G36*
X56452Y43995D02*
X56455Y43966D01*
X56459Y43939D01*
X56465Y43913D01*
X56472Y43888D01*
X56481Y43865D01*
X56492Y43843D01*
X56505Y43823D01*
X56519Y43805D01*
X56530Y43793D01*
X56543Y43782D01*
X56562Y43769D01*
X56583Y43758D01*
X56605Y43748D01*
X56628Y43739D01*
X56653Y43732D01*
X56679Y43727D01*
X56683Y43726D01*
X56690Y43727D01*
X56716Y43733D01*
X56740Y43741D01*
X56763Y43750D01*
X56785Y43760D01*
X56805Y43773D01*
X56823Y43787D01*
X56841Y43803D01*
Y43383D01*
X56823Y43399D01*
X56805Y43413D01*
X56785Y43425D01*
X56763Y43436D01*
X56740Y43445D01*
X56716Y43452D01*
X56695Y43457D01*
X56672Y43452D01*
X56648Y43444D01*
X56625Y43434D01*
X56604Y43423D01*
X56585Y43409D01*
X56568Y43394D01*
X56552Y43378D01*
X56526Y43788D01*
X56114D01*
X56130Y43805D01*
X56144Y43823D01*
X56157Y43843D01*
X56168Y43865D01*
X56177Y43888D01*
X56184Y43913D01*
X56190Y43939D01*
X56194Y43966D01*
X56197Y43995D01*
X56197Y44025D01*
X56451D01*
X56452Y43995D01*
D02*
G37*
G36*
X56110Y43364D02*
X56093Y43379D01*
X56075Y43394D01*
X56055Y43406D01*
X56033Y43417D01*
X56010Y43426D01*
X55986Y43433D01*
X55960Y43439D01*
X55932Y43443D01*
X55903Y43446D01*
X55873Y43447D01*
Y43701D01*
X55903Y43702D01*
X55932Y43704D01*
X55960Y43708D01*
X55986Y43714D01*
X56010Y43721D01*
X56033Y43731D01*
X56055Y43741D01*
X56075Y43754D01*
X56093Y43768D01*
X56110Y43784D01*
Y43364D01*
D02*
G37*
G36*
X55408Y43771D02*
X55426Y43756D01*
X55446Y43743D01*
X55467Y43732D01*
X55489Y43722D01*
X55514Y43715D01*
X55539Y43708D01*
X55567Y43704D01*
X55596Y43702D01*
X55626Y43701D01*
X55614Y43447D01*
X55584Y43446D01*
X55555Y43444D01*
X55527Y43440D01*
X55501Y43434D01*
X55476Y43427D01*
X55453Y43418D01*
X55431Y43408D01*
X55411Y43396D01*
X55392Y43383D01*
X55377Y43370D01*
X55363Y43355D01*
X55349Y43337D01*
X55336Y43317D01*
X55326Y43295D01*
X55317Y43272D01*
X55309Y43248D01*
X55303Y43222D01*
X55299Y43194D01*
X55297Y43165D01*
X55296Y43135D01*
X55042D01*
X55041Y43165D01*
X55038Y43194D01*
X55034Y43222D01*
X55029Y43248D01*
X55021Y43272D01*
X55012Y43295D01*
X55001Y43317D01*
X54989Y43337D01*
X54975Y43355D01*
X54959Y43372D01*
X55374D01*
X55392Y43787D01*
X55408Y43771D01*
D02*
G37*
G36*
X55297Y42877D02*
X55301Y42833D01*
X55307Y42795D01*
X55316Y42761D01*
X55328Y42733D01*
X55342Y42710D01*
X55358Y42692D01*
X55377Y42679D01*
X55399Y42671D01*
X55423Y42669D01*
X54915D01*
X54939Y42671D01*
X54961Y42679D01*
X54980Y42692D01*
X54996Y42710D01*
X55010Y42733D01*
X55021Y42761D01*
X55030Y42795D01*
X55037Y42833D01*
X55041Y42877D01*
X55042Y42926D01*
X55296D01*
X55297Y42877D01*
D02*
G37*
G36*
X55430Y41729D02*
X55408Y41721D01*
X55389Y41708D01*
X55373Y41690D01*
X55359Y41667D01*
X55347Y41639D01*
X55338Y41605D01*
X55332Y41567D01*
X55328Y41523D01*
X55327Y41474D01*
X55073D01*
X55072Y41523D01*
X55068Y41567D01*
X55062Y41605D01*
X55053Y41639D01*
X55041Y41667D01*
X55027Y41690D01*
X55011Y41708D01*
X54992Y41721D01*
X54970Y41729D01*
X54946Y41731D01*
X55454D01*
X55430Y41729D01*
D02*
G37*
G36*
X55328Y41302D02*
X55332Y41258D01*
X55338Y41220D01*
X55347Y41186D01*
X55359Y41158D01*
X55373Y41135D01*
X55389Y41117D01*
X55408Y41104D01*
X55430Y41096D01*
X55454Y41094D01*
X54946D01*
X54970Y41096D01*
X54992Y41104D01*
X55011Y41117D01*
X55027Y41135D01*
X55041Y41158D01*
X55053Y41186D01*
X55062Y41220D01*
X55068Y41258D01*
X55072Y41302D01*
X55073Y41351D01*
X55327D01*
X55328Y41302D01*
D02*
G37*
G36*
X55430Y39704D02*
X55408Y39696D01*
X55389Y39683D01*
X55373Y39665D01*
X55359Y39642D01*
X55347Y39614D01*
X55338Y39580D01*
X55332Y39542D01*
X55328Y39498D01*
X55327Y39449D01*
X55073D01*
X55072Y39498D01*
X55068Y39542D01*
X55062Y39580D01*
X55053Y39614D01*
X55041Y39642D01*
X55027Y39665D01*
X55011Y39683D01*
X54992Y39696D01*
X54970Y39704D01*
X54946Y39706D01*
X55454D01*
X55430Y39704D01*
D02*
G37*
G36*
X55328Y39302D02*
X55332Y39258D01*
X55338Y39220D01*
X55347Y39186D01*
X55359Y39158D01*
X55373Y39135D01*
X55389Y39117D01*
X55408Y39104D01*
X55430Y39096D01*
X55454Y39094D01*
X54946D01*
X54970Y39096D01*
X54992Y39104D01*
X55011Y39117D01*
X55027Y39135D01*
X55041Y39158D01*
X55053Y39186D01*
X55062Y39220D01*
X55068Y39258D01*
X55072Y39302D01*
X55073Y39351D01*
X55327D01*
X55328Y39302D01*
D02*
G37*
G36*
X55430Y37704D02*
X55408Y37696D01*
X55389Y37683D01*
X55373Y37665D01*
X55359Y37642D01*
X55347Y37614D01*
X55338Y37580D01*
X55332Y37542D01*
X55328Y37498D01*
X55327Y37449D01*
X55073D01*
X55072Y37498D01*
X55068Y37542D01*
X55062Y37580D01*
X55053Y37614D01*
X55041Y37642D01*
X55027Y37665D01*
X55011Y37683D01*
X54992Y37696D01*
X54970Y37704D01*
X54946Y37706D01*
X55454D01*
X55430Y37704D01*
D02*
G37*
G36*
X55328Y37277D02*
X55332Y37233D01*
X55338Y37195D01*
X55347Y37161D01*
X55359Y37133D01*
X55373Y37110D01*
X55389Y37092D01*
X55408Y37079D01*
X55430Y37071D01*
X55454Y37069D01*
X54946D01*
X54970Y37071D01*
X54992Y37079D01*
X55011Y37092D01*
X55027Y37110D01*
X55041Y37133D01*
X55053Y37161D01*
X55062Y37195D01*
X55068Y37233D01*
X55072Y37277D01*
X55073Y37326D01*
X55327D01*
X55328Y37277D01*
D02*
G37*
D12*
X69237Y44526D02*
X69339Y44425D01*
X68377Y44526D02*
X69237D01*
X36400Y46900D02*
Y46967D01*
X37913Y46494D02*
X40776D01*
X37390Y47016D02*
X37390D01*
X37913Y46494D01*
X43558Y55042D02*
Y55342D01*
Y55042D02*
X43600Y55000D01*
X44503Y53868D02*
Y55050D01*
X44400Y53765D02*
X44503Y53868D01*
X41453Y53912D02*
Y55093D01*
X41422D02*
X41453D01*
X40269D02*
X41422D01*
X41453Y53912D02*
X41500Y53865D01*
X40218Y55042D02*
X40269Y55093D01*
X50432Y49562D02*
X50470Y49600D01*
X49701Y49562D02*
X50432D01*
X47263Y48098D02*
X47291Y48126D01*
X48902D01*
X43815Y46479D02*
X43832Y46462D01*
Y45194D02*
Y46462D01*
X50200Y29100D02*
X50258Y29158D01*
Y48066D01*
X49682Y48641D02*
X50258Y48066D01*
X48374Y46742D02*
X48795Y47164D01*
Y47257D01*
X48100Y46262D02*
X48374Y46536D01*
Y46742D01*
X48100Y29300D02*
Y46262D01*
X55680Y59846D02*
X58391D01*
X58396Y59851D01*
X66862Y59813D02*
X66902Y59773D01*
X66672Y59813D02*
X66862D01*
X50525Y55275D02*
X51181Y54619D01*
Y46101D02*
Y54619D01*
Y46101D02*
X52377Y44905D01*
X71517Y45704D02*
X71918Y45303D01*
Y45253D02*
Y45303D01*
X71857Y44018D02*
Y44425D01*
Y45153D01*
X52377Y44905D02*
Y44905D01*
X73050Y52172D02*
Y55096D01*
X67242Y62117D02*
X67295Y62170D01*
X58795Y62142D02*
X59641D01*
X72998Y55149D02*
X73050Y55096D01*
X59641Y62142D02*
X59670Y62170D01*
X67295D02*
X68005D01*
X58397Y59862D02*
X59182D01*
X73050Y52172D02*
X73893D01*
X75565Y52100D02*
X76600D01*
X73893Y52172D02*
X73964Y52101D01*
X57773Y43700D02*
X59400D01*
X57055Y43593D02*
X57110Y43648D01*
X57726Y43653D02*
X57773Y43700D01*
X57110Y43648D02*
X57704D01*
X57760Y43704D01*
X60710Y43964D02*
Y44645D01*
X60900Y44835D01*
X60685Y43964D02*
X60710D01*
X60423Y43701D02*
X60685Y43964D01*
X59772Y43701D02*
X60423D01*
X59771Y43700D02*
X59772Y43701D01*
X59400Y43700D02*
X59771D01*
X72271Y47092D02*
X73104D01*
X71951Y46772D02*
X72271Y47092D01*
X70844Y47193D02*
X70869Y47168D01*
X71896Y46772D02*
X71951D01*
X71896D02*
Y46860D01*
X70869Y47168D02*
X71589D01*
X71896Y46860D01*
X64997Y41503D02*
X65866Y40634D01*
Y40566D02*
Y40634D01*
X71602Y51000D02*
X71910Y51308D01*
X71911D01*
X70965Y51000D02*
X71602D01*
X71857Y45153D02*
X71890Y45187D01*
X71019Y54154D02*
X71890D01*
X70949Y49149D02*
X71890D01*
X62184Y58233D02*
Y59200D01*
X62179Y58228D02*
X62184Y58233D01*
X64199Y58251D02*
X64211Y58239D01*
X64199Y58251D02*
Y59202D01*
X57055Y43593D02*
X57121Y43659D01*
Y44131D02*
X57825Y44835D01*
X57121Y43659D02*
Y44131D01*
X56344Y43593D02*
X57055D01*
X56325Y43574D02*
X56344Y43593D01*
X57825Y44835D02*
X57900D01*
X56325Y43574D02*
Y44759D01*
X56400Y44835D01*
X55181Y43574D02*
X56325D01*
X55169Y43586D02*
X55181Y43574D01*
X55169Y42204D02*
Y43586D01*
X55165Y42200D02*
X55169Y42204D01*
X68047Y43703D02*
Y43713D01*
Y43703D02*
X68736Y43013D01*
X69321Y49149D02*
X69370Y49100D01*
X68377Y49149D02*
X69321D01*
X69406Y51029D02*
X69435Y51000D01*
X68453Y51029D02*
X69406D01*
X69433Y54102D02*
X69435Y54100D01*
X68428Y54102D02*
X69433D01*
X51865Y56031D02*
X55680Y59846D01*
X51865Y52900D02*
Y56031D01*
X61444Y59877D02*
Y60469D01*
X59198Y59877D02*
X61444D01*
X63399D01*
X61444Y60469D02*
X61475Y60500D01*
X59182Y59862D02*
X59198Y59877D01*
X58395Y59868D02*
Y60626D01*
X58395Y60627D01*
X70383Y59893D02*
X73050Y57226D01*
X66933Y59804D02*
X66999Y59870D01*
X67232D01*
X67255Y59893D02*
X70383D01*
X67232Y59870D02*
X67255Y59893D01*
X66933Y59804D02*
Y60420D01*
X64100Y59879D02*
X66606D01*
X66672Y59813D01*
X63399Y59877D02*
X63400Y59879D01*
X56447Y46412D02*
Y47295D01*
X56400Y46365D02*
X56447Y46412D01*
X52000Y49600D02*
X52146Y49454D01*
X52959D01*
X51865Y52900D02*
X52866D01*
X52908Y52857D01*
X54846Y53924D02*
X54870Y53900D01*
X53823Y53924D02*
X54846D01*
X49698Y53612D02*
X50335Y52975D01*
X49632Y53848D02*
X49698Y53782D01*
Y53612D02*
Y53782D01*
X59389Y58311D02*
Y59085D01*
X59297Y58219D02*
X59389Y58311D01*
X63400Y59879D02*
X64100D01*
Y60500D01*
X67897Y58268D02*
Y59078D01*
X66933Y60420D02*
X67030Y60517D01*
X67897Y58268D02*
X67900Y58265D01*
X73050Y55143D02*
Y57226D01*
Y55143D02*
X74114D01*
X74140Y55118D01*
X62988Y41104D02*
X63297Y41413D01*
Y42189D01*
X73050Y48720D02*
Y52172D01*
Y48720D02*
X73127Y48644D01*
X70900Y49100D02*
X70949Y49149D01*
X62179Y55347D02*
Y56228D01*
X56366Y48692D02*
X56416Y48743D01*
X57429D01*
X53721Y48844D02*
X53788D01*
X54002Y48630D01*
X54773D01*
X54836Y48692D01*
X70965Y54100D02*
X71019Y54154D01*
X73104Y47092D02*
X73127Y47114D01*
X70869Y44425D02*
X71828D01*
X71857Y44453D01*
Y44018D02*
X72263Y43612D01*
Y42675D02*
Y43612D01*
X70869Y45822D02*
X70986Y45704D01*
X71517D01*
X69128Y41072D02*
X70637D01*
X70666Y41145D02*
X72263D01*
X70637Y41173D02*
X70666Y41145D01*
X66621Y42068D02*
X67432D01*
X68986Y41213D02*
X69128Y41072D01*
X43815Y48009D02*
X43906Y48100D01*
X68736Y43013D02*
X68986D01*
X66500Y42189D02*
X66621Y42068D01*
X67432D02*
X68068Y41432D01*
X68968D01*
X69000Y41400D01*
X69260Y47139D02*
X69314Y47193D01*
X68282Y47139D02*
X69260D01*
X55200Y40400D02*
Y42165D01*
Y38400D02*
Y40400D01*
X43164Y55736D02*
Y55736D01*
Y55736D02*
X43558Y55342D01*
X42775Y56125D02*
X43164Y55736D01*
X48400Y55275D02*
X50525D01*
X63297Y42189D02*
X64997D01*
Y41503D02*
Y42189D01*
X40688Y47888D02*
X40800Y48000D01*
X40093Y47888D02*
X40688D01*
X39957Y47752D02*
X40093Y47888D01*
X37150Y47750D02*
X39950D01*
X39952Y47752D02*
X39957D01*
X39950Y47750D02*
X39952Y47752D01*
X36773Y47373D02*
X37150Y47750D01*
X72178Y41060D02*
X72263Y41145D01*
X48475Y52975D02*
Y53775D01*
X48400D02*
X48475D01*
X74219Y60253D02*
X74847Y60881D01*
X74219Y61903D02*
Y61978D01*
X74847Y61075D02*
Y61275D01*
X77400Y61900D02*
X77500Y62000D01*
X74219Y61903D02*
X74847Y61275D01*
Y61075D02*
X77500D01*
X74847Y60881D02*
Y61075D01*
X74219Y60178D02*
Y60253D01*
X34475Y56125D02*
X42775D01*
X67142Y62217D02*
X67242Y62117D01*
X64309Y62495D02*
X65534D01*
X61417Y62470D02*
X61442Y62495D01*
X62642D01*
X47660Y25737D02*
X48100Y26177D01*
X47660Y25400D02*
Y25737D01*
X48100Y26177D02*
Y27300D01*
X50200Y25400D02*
Y27300D01*
X36773Y47340D02*
Y47373D01*
X36400Y46967D02*
X36773Y47340D01*
X40800Y48000D02*
X42400D01*
X60900Y46365D02*
Y47300D01*
X59400Y46365D02*
Y47300D01*
X57900Y46365D02*
Y47300D01*
X64363Y51620D02*
Y51763D01*
X65000Y52400D02*
X65670D01*
X64363Y51763D02*
X65000Y52400D01*
X64297Y51554D02*
X64363Y51620D01*
X66700Y43765D02*
Y44800D01*
X59400Y43700D02*
Y44835D01*
X55200Y36600D02*
Y38400D01*
X52300Y42200D02*
X53635D01*
X52300Y40400D02*
X53535D01*
X52300Y38400D02*
X53400D01*
X64997Y42189D02*
X66500D01*
X69191Y45768D02*
X69451Y46027D01*
X68307Y45768D02*
X69191D01*
X50100Y27535D02*
X50160Y27475D01*
X40776Y46494D02*
X40800Y46470D01*
X64997Y44597D02*
X65000Y44600D01*
X64997Y43719D02*
Y44597D01*
X76472Y29189D02*
X77026Y28635D01*
X76397Y29189D02*
X76472D01*
X78522Y29154D02*
X78597D01*
X77026Y26925D02*
Y28635D01*
X78249Y28881D02*
X78522Y29154D01*
X77697Y26254D02*
X78249Y26806D01*
X77026Y26925D02*
X77697Y26254D01*
X78249Y26806D02*
Y28881D01*
X67200Y52400D02*
X68000D01*
X52000Y49600D02*
Y52765D01*
X50335Y52900D02*
Y52975D01*
X76673Y55018D02*
X76740D01*
X75670Y55118D02*
X76573D01*
X76673Y55018D01*
X63297Y43719D02*
Y44697D01*
X63300Y44700D01*
X65065Y46100D02*
X66100D01*
X62320Y45926D02*
X63361D01*
X63535Y46100D01*
X55165Y42200D02*
X55200Y42165D01*
X51865Y52900D02*
X52000Y52765D01*
X56500Y54000D02*
X57500D01*
X56400Y53900D02*
X56500Y54000D01*
X59297Y55603D02*
Y56689D01*
Y55603D02*
X59300Y55600D01*
X67900D02*
Y56635D01*
X27900Y61700D02*
X28300Y62100D01*
X27900Y58634D02*
Y61700D01*
X29603Y58701D02*
X29700Y58603D01*
X29017Y59783D02*
X29603Y59197D01*
Y58701D02*
Y59197D01*
X64211Y55239D02*
Y56244D01*
X64274Y56306D01*
X29017Y59783D02*
Y61383D01*
X28300Y62100D02*
X29017Y61383D01*
X28300Y26900D02*
X29017Y26183D01*
X30322Y26175D02*
X31160D01*
X31235Y26100D01*
X29017Y26183D02*
X30314D01*
X30322Y26175D01*
X28300Y26900D02*
X29314D01*
X30239Y27825D01*
X31160D01*
X31235Y27900D01*
X41447Y51357D02*
Y52282D01*
X41500Y52335D01*
X46900Y52965D02*
X46937Y53002D01*
X39432Y49497D02*
X39435Y49500D01*
X40800Y46470D02*
X42400D01*
X44400Y51414D02*
Y52235D01*
X44400Y52235D02*
X44400Y52235D01*
D49*
X46900Y51435D02*
D03*
Y52965D02*
D03*
X48475Y51445D02*
D03*
Y52975D02*
D03*
X43815Y48009D02*
D03*
Y46479D02*
D03*
X41500Y52335D02*
D03*
Y53865D02*
D03*
X40800Y48000D02*
D03*
Y46470D02*
D03*
X42400Y48000D02*
D03*
Y46470D02*
D03*
X67900Y58265D02*
D03*
Y56735D02*
D03*
X59297Y58219D02*
D03*
Y56689D02*
D03*
X56400Y46365D02*
D03*
Y44835D02*
D03*
X57900D02*
D03*
Y46365D02*
D03*
X59400Y44835D02*
D03*
Y46365D02*
D03*
X67005Y62157D02*
D03*
Y60627D02*
D03*
X58420Y62157D02*
D03*
Y60627D02*
D03*
X63297Y43719D02*
D03*
Y42189D02*
D03*
X64997D02*
D03*
Y43719D02*
D03*
X70637Y42703D02*
D03*
Y41173D02*
D03*
X72263Y42675D02*
D03*
Y41145D02*
D03*
X73127Y47114D02*
D03*
Y48644D02*
D03*
X44400Y52235D02*
D03*
Y53765D02*
D03*
X76962Y29486D02*
D03*
Y31016D02*
D03*
X28042Y56410D02*
D03*
Y57940D02*
D03*
X78600Y29500D02*
D03*
Y31030D02*
D03*
X29693Y56407D02*
D03*
Y57937D02*
D03*
X60900Y46365D02*
D03*
Y44835D02*
D03*
D50*
X62179Y56428D02*
D03*
Y58228D02*
D03*
X64211Y58239D02*
D03*
Y56439D02*
D03*
X68986Y43013D02*
D03*
Y41213D02*
D03*
X66700Y42100D02*
D03*
Y43900D02*
D03*
X50200Y27300D02*
D03*
Y29100D02*
D03*
X48100D02*
D03*
Y27300D02*
D03*
X64084Y62495D02*
D03*
Y60695D02*
D03*
X61417Y60670D02*
D03*
Y62470D02*
D03*
D51*
X45635Y48100D02*
D03*
X47165D02*
D03*
X40965Y49500D02*
D03*
X39435D02*
D03*
X69370Y49100D02*
D03*
X70900D02*
D03*
X69435Y51000D02*
D03*
X70965D02*
D03*
X69435Y54100D02*
D03*
X70965D02*
D03*
X56400Y53900D02*
D03*
X54870D02*
D03*
X56366Y48692D02*
D03*
X54836D02*
D03*
X55165Y42200D02*
D03*
X53635D02*
D03*
X74035Y52100D02*
D03*
X75565D02*
D03*
X75670Y55118D02*
D03*
X74140D02*
D03*
X50470Y49600D02*
D03*
X52000D02*
D03*
X70869Y45822D02*
D03*
X69339D02*
D03*
X69314Y47193D02*
D03*
X70844D02*
D03*
X40186Y54966D02*
D03*
X38656D02*
D03*
X55200Y36600D02*
D03*
X53670D02*
D03*
X67200Y52400D02*
D03*
X65670D02*
D03*
X63535Y46100D02*
D03*
X65065D02*
D03*
X32900Y27900D02*
D03*
X31370D02*
D03*
X32900Y26100D02*
D03*
X31370D02*
D03*
X50335Y52900D02*
D03*
X51865D02*
D03*
X74219Y61978D02*
D03*
X72689D02*
D03*
X74219Y60178D02*
D03*
X72689D02*
D03*
X69339Y44425D02*
D03*
X70869D02*
D03*
D61*
X53400Y38400D02*
D03*
X55200D02*
D03*
X55200Y40400D02*
D03*
X53400D02*
D03*
D98*
X62897Y50154D02*
D03*
X64297Y48754D02*
D03*
X61597D02*
D03*
X64297Y51554D02*
D03*
X61597D02*
D03*
X36400Y46900D02*
D03*
X34468Y49886D02*
D03*
X36703Y49606D02*
D03*
X34442Y46914D02*
D03*
X37390Y47016D02*
D03*
X38368Y49497D02*
D03*
X28042Y55042D02*
D03*
X41422Y55093D02*
D03*
X47219Y54601D02*
D03*
X49701Y49562D02*
D03*
X48902Y48126D02*
D03*
X43832Y45194D02*
D03*
X39702Y25222D02*
D03*
X46050Y32944D02*
D03*
X43612Y33553D02*
D03*
X44374Y33579D02*
D03*
X45263Y33553D02*
D03*
X44374Y32410D02*
D03*
X45187Y32385D02*
D03*
X40945Y25375D02*
D03*
X41834Y26187D02*
D03*
X79400Y58395D02*
D03*
X26677Y28756D02*
D03*
X50935Y42189D02*
D03*
Y36627D02*
D03*
Y32385D02*
D03*
X49581Y47600D02*
D03*
X48795Y47257D02*
D03*
X58396Y59851D02*
D03*
X66933Y59804D02*
D03*
X71918Y45253D02*
D03*
X62988Y41104D02*
D03*
X52377Y44905D02*
D03*
X72998Y55149D02*
D03*
X59670Y62170D02*
D03*
X68005D02*
D03*
X73050Y52172D02*
D03*
X76600Y52100D02*
D03*
X45161Y29108D02*
D03*
X30886Y30810D02*
D03*
X74344Y42022D02*
D03*
X41885Y25400D02*
D03*
X40919Y26187D02*
D03*
X43612Y32385D02*
D03*
X53814Y56455D02*
D03*
X57760Y43704D02*
D03*
X60710Y43964D02*
D03*
X40986Y29343D02*
D03*
X39869D02*
D03*
X34442Y29210D02*
D03*
X39599Y34290D02*
D03*
X39878Y30734D02*
D03*
X39599Y33071D02*
D03*
X40970Y30709D02*
D03*
X73381Y33579D02*
D03*
X57607Y51257D02*
D03*
X50673Y57836D02*
D03*
X51791Y62332D02*
D03*
X46177D02*
D03*
X78816Y49098D02*
D03*
X78791Y44298D02*
D03*
X78689Y40488D02*
D03*
X78613Y36195D02*
D03*
X73508D02*
D03*
X66040Y33579D02*
D03*
X67767Y33604D02*
D03*
X76937Y32563D02*
D03*
X71896Y46772D02*
D03*
X65866Y40566D02*
D03*
X71911Y51308D02*
D03*
X49682Y48641D02*
D03*
X44503Y55050D02*
D03*
X71890Y54154D02*
D03*
Y49149D02*
D03*
X62184Y59200D02*
D03*
X64199Y59202D02*
D03*
X67897Y59200D02*
D03*
X57055Y43593D02*
D03*
X56325Y43574D02*
D03*
X55169Y43586D02*
D03*
X68047Y43713D02*
D03*
X68377Y49149D02*
D03*
Y51029D02*
D03*
Y54102D02*
D03*
X56447Y47295D02*
D03*
X52959Y49454D02*
D03*
X52908Y52857D02*
D03*
X53823Y53924D02*
D03*
X49632Y53848D02*
D03*
X59389Y59200D02*
D03*
X70612Y43400D02*
D03*
X62179Y55347D02*
D03*
X57429Y48743D02*
D03*
X53721Y48844D02*
D03*
X37384Y54975D02*
D03*
X41123Y45110D02*
D03*
X56500Y30150D02*
D03*
X54331D02*
D03*
Y27254D02*
D03*
X56500D02*
D03*
X52300Y24663D02*
D03*
X54332D02*
D03*
X58395D02*
D03*
X56500D02*
D03*
X52300Y32461D02*
D03*
Y34417D02*
D03*
Y30201D02*
D03*
Y27254D02*
D03*
X56500Y32512D02*
D03*
Y34595D02*
D03*
X61503Y32512D02*
D03*
Y34595D02*
D03*
Y36678D02*
D03*
X56500D02*
D03*
X63094Y30836D02*
D03*
X65557Y30810D02*
D03*
X60681Y30836D02*
D03*
Y24663D02*
D03*
X65557D02*
D03*
X63094D02*
D03*
X68377Y45768D02*
D03*
Y44526D02*
D03*
X43600Y55050D02*
D03*
X48400Y55275D02*
D03*
X75825Y37400D02*
D03*
X38035Y45179D02*
D03*
X47660Y59129D02*
D03*
X46235Y59179D02*
D03*
X53150Y59475D02*
D03*
X36975Y42250D02*
D03*
X48400Y53775D02*
D03*
X34475Y56125D02*
D03*
X65534Y62495D02*
D03*
X62642Y62495D02*
D03*
X66900Y34700D02*
D03*
X67300Y40600D02*
D03*
X45402Y39700D02*
D03*
X43802D02*
D03*
X28500Y42500D02*
D03*
X26500D02*
D03*
X32521Y51600D02*
D03*
X60900Y47295D02*
D03*
X59400D02*
D03*
X57900D02*
D03*
X52300Y36600D02*
D03*
X66700Y44800D02*
D03*
X32900Y24700D02*
D03*
X52300Y42200D02*
D03*
Y40400D02*
D03*
Y38400D02*
D03*
X53735Y35500D02*
D03*
X56500Y39300D02*
D03*
X61503Y39346D02*
D03*
X68377Y47139D02*
D03*
X32496Y53555D02*
D03*
X30496D02*
D03*
X28496D02*
D03*
X26496D02*
D03*
X32521Y49928D02*
D03*
Y46428D02*
D03*
Y44428D02*
D03*
Y42500D02*
D03*
X30521D02*
D03*
X64979Y44800D02*
D03*
X71000Y62075D02*
D03*
X78578Y32631D02*
D03*
X68377Y52400D02*
D03*
X76740Y55018D02*
D03*
X63279Y44800D02*
D03*
X66079Y46121D02*
D03*
X62320Y45926D02*
D03*
X33700Y32700D02*
D03*
X57493Y53980D02*
D03*
X59293Y55347D02*
D03*
X67900D02*
D03*
X64211D02*
D03*
X34295Y57655D02*
D03*
X26642Y40477D02*
D03*
X34142Y40377D02*
D03*
X41447Y51357D02*
D03*
X42000Y49500D02*
D03*
X44700Y48100D02*
D03*
X45900Y51400D02*
D03*
X44400Y51414D02*
D03*
D101*
X70625Y42716D02*
X70637Y42703D01*
X70625Y42716D02*
Y43387D01*
X70612Y43400D02*
X70625Y43387D01*
D104*
X38368Y49497D02*
X38369Y49499D01*
X39431D01*
X39432Y49497D01*
X28042Y55042D02*
Y56410D01*
X29690D01*
X46937Y54278D02*
X47219Y54560D01*
Y54601D01*
X46937Y53002D02*
Y54278D01*
X76976Y31030D02*
X78600D01*
X76962Y31016D02*
X76976Y31030D01*
X37384Y55000D02*
X37394Y54990D01*
X38631D01*
X38656Y54966D01*
Y55041D01*
X43906Y48100D02*
X45635D01*
X46865Y51400D02*
Y51445D01*
X48475D01*
X72592Y62075D02*
X72692Y61975D01*
X71000Y62075D02*
X72592D01*
X72689Y60178D02*
Y61978D01*
X52400Y36600D02*
X53670D01*
X52400Y36600D02*
X52400Y36600D01*
X53670D02*
X53670Y36600D01*
X32900Y24700D02*
Y27900D01*
X78565Y32605D02*
X78568Y32608D01*
X78565Y32618D02*
X78568Y32615D01*
X78565Y31065D02*
Y32605D01*
X78568Y32608D02*
Y32615D01*
X53725Y35509D02*
X53735Y35500D01*
X53683Y36318D02*
X53725Y36275D01*
Y35509D02*
Y36275D01*
X40965Y49500D02*
X42000D01*
X45900Y51400D02*
X46865D01*
D107*
X27900Y37359D02*
D03*
X50200Y25400D02*
D03*
X47660D02*
D03*
X32275Y61075D02*
D03*
X34815D02*
D03*
D108*
X27900Y34819D02*
D03*
D109*
X45120Y25400D02*
D03*
X37355Y61075D02*
D03*
D110*
X73875Y30375D02*
D03*
X68725D02*
D03*
X73875Y25225D02*
D03*
X68725D02*
D03*
X71300Y27800D02*
D03*
D111*
X28500Y26400D02*
D03*
X77500D02*
D03*
Y60825D02*
D03*
X28500D02*
D03*
M02*
