G04*
G04 #@! TF.GenerationSoftware,Altium Limited,Altium Designer,21.6.1 (37)*
G04*
G04 Layer_Color=8388736*
%FSLAX43Y43*%
%MOMM*%
G71*
G04*
G04 #@! TF.SameCoordinates,E4B45546-35E5-4839-ABBE-925A39E423B5*
G04*
G04*
G04 #@! TF.FilePolarity,Negative*
G04*
G01*
G75*
%ADD67C,1.100*%
%ADD68R,2.000X2.500*%
%ADD69R,1.100X0.700*%
%ADD70R,0.500X1.000*%
%ADD71R,0.400X0.400*%
%ADD72R,0.900X1.700*%
%ADD73R,1.050X0.900*%
%ADD74R,1.500X1.000*%
%ADD75R,0.900X1.050*%
%ADD76R,0.700X0.700*%
G04:AMPARAMS|DCode=77|XSize=0.27mm|YSize=1.02mm|CornerRadius=0mm|HoleSize=0mm|Usage=FLASHONLY|Rotation=0.000|XOffset=0mm|YOffset=0mm|HoleType=Round|Shape=Octagon|*
%AMOCTAGOND77*
4,1,8,-0.068,0.510,0.068,0.510,0.135,0.443,0.135,-0.443,0.068,-0.510,-0.068,-0.510,-0.135,-0.443,-0.135,0.443,-0.068,0.510,0.0*
%
%ADD77OCTAGOND77*%

G04:AMPARAMS|DCode=78|XSize=0.27mm|YSize=1.02mm|CornerRadius=0mm|HoleSize=0mm|Usage=FLASHONLY|Rotation=270.000|XOffset=0mm|YOffset=0mm|HoleType=Round|Shape=Octagon|*
%AMOCTAGOND78*
4,1,8,0.510,0.068,0.510,-0.068,0.443,-0.135,-0.443,-0.135,-0.510,-0.068,-0.510,0.068,-0.443,0.135,0.443,0.135,0.510,0.068,0.0*
%
%ADD78OCTAGOND78*%

%ADD79R,6.380X6.380*%
%ADD80R,1.100X2.600*%
G04:AMPARAMS|DCode=81|XSize=1.6mm|YSize=1.5mm|CornerRadius=0mm|HoleSize=0mm|Usage=FLASHONLY|Rotation=225.000|XOffset=0mm|YOffset=0mm|HoleType=Round|Shape=Rectangle|*
%AMROTATEDRECTD81*
4,1,4,0.035,1.096,1.096,0.035,-0.035,-1.096,-1.096,-0.035,0.035,1.096,0.0*
%
%ADD81ROTATEDRECTD81*%

%ADD82R,0.900X2.800*%
%ADD83R,0.700X0.700*%
%ADD84R,1.100X1.350*%
%ADD85R,0.850X0.950*%
%ADD86R,1.000X1.500*%
%ADD87R,1.000X1.100*%
%ADD88R,0.862X1.751*%
%ADD89R,5.100X5.100*%
%ADD90R,0.400X1.600*%
%ADD91R,1.600X0.400*%
%ADD92C,1.600*%
%ADD93R,1.600X1.600*%
%ADD94R,1.600X1.600*%
%ADD95C,2.600*%
%ADD96C,4.100*%
%ADD97C,0.700*%
%ADD98C,0.600*%
D67*
X33700Y32700D02*
D03*
X53150Y59475D02*
D03*
X67300Y40600D02*
D03*
X71000Y62075D02*
D03*
X37394Y54990D02*
D03*
X75825Y37400D02*
D03*
D68*
X64550D02*
D03*
X69050D02*
D03*
D69*
X38225Y37350D02*
D03*
Y36400D02*
D03*
Y35450D02*
D03*
X40975D02*
D03*
Y36400D02*
D03*
Y37350D02*
D03*
D70*
X35850Y30425D02*
D03*
X36500D02*
D03*
X37150D02*
D03*
Y28175D02*
D03*
X36500D02*
D03*
X35850D02*
D03*
D71*
X36726Y48100D02*
D03*
Y48600D02*
D03*
X37313D02*
D03*
Y48100D02*
D03*
X37900Y48600D02*
D03*
Y48100D02*
D03*
D72*
X26600D02*
D03*
X30000D02*
D03*
D73*
X36500Y37165D02*
D03*
Y35635D02*
D03*
X39700Y26300D02*
D03*
Y27830D02*
D03*
X38684Y30629D02*
D03*
Y32159D02*
D03*
X47675Y56785D02*
D03*
Y58315D02*
D03*
X27623Y57638D02*
D03*
Y56107D02*
D03*
X59600Y30830D02*
D03*
Y29300D02*
D03*
X61700Y29335D02*
D03*
Y30865D02*
D03*
X64500Y29300D02*
D03*
Y30830D02*
D03*
X66600Y29300D02*
D03*
Y30830D02*
D03*
X59600Y24570D02*
D03*
Y26100D02*
D03*
X61700Y24570D02*
D03*
Y26100D02*
D03*
X64500Y24570D02*
D03*
Y26100D02*
D03*
X66600Y24570D02*
D03*
Y26100D02*
D03*
X42443Y41811D02*
D03*
Y40281D02*
D03*
X42700Y37265D02*
D03*
Y35735D02*
D03*
X57700Y29300D02*
D03*
Y30830D02*
D03*
X40800Y56320D02*
D03*
Y57850D02*
D03*
X75717Y46714D02*
D03*
Y45184D02*
D03*
D74*
X30175Y35422D02*
D03*
Y37222D02*
D03*
X40800Y42100D02*
D03*
Y40300D02*
D03*
D75*
X42530Y34000D02*
D03*
X41000D02*
D03*
X42530Y32300D02*
D03*
X41000D02*
D03*
X35454Y31900D02*
D03*
X36984D02*
D03*
X45367Y42600D02*
D03*
X43837D02*
D03*
X43837Y40700D02*
D03*
X45367D02*
D03*
X40770Y44100D02*
D03*
X42300D02*
D03*
X44710Y58325D02*
D03*
X46240D02*
D03*
X64470Y34700D02*
D03*
X66000D02*
D03*
X69365D02*
D03*
X67835D02*
D03*
X59570Y27700D02*
D03*
X61100D02*
D03*
X62370D02*
D03*
X63900D02*
D03*
X65135D02*
D03*
X66665D02*
D03*
X27773Y40446D02*
D03*
X29303D02*
D03*
X35435Y33600D02*
D03*
X36965D02*
D03*
X31238Y40446D02*
D03*
X32768D02*
D03*
X72844Y45212D02*
D03*
X74374D02*
D03*
X74397Y46660D02*
D03*
X72867D02*
D03*
D76*
X34400Y48100D02*
D03*
X35400D02*
D03*
X32400D02*
D03*
X31400D02*
D03*
D77*
X46516Y46200D02*
D03*
X46114D02*
D03*
X45712D02*
D03*
X45310D02*
D03*
X44908D02*
D03*
X44506D02*
D03*
X44104D02*
D03*
X43702D02*
D03*
X43300D02*
D03*
X42898D02*
D03*
X42496D02*
D03*
X42094D02*
D03*
X41692D02*
D03*
X41290D02*
D03*
X40888D02*
D03*
X40486D02*
D03*
X40084D02*
D03*
Y54000D02*
D03*
X40486D02*
D03*
X40888D02*
D03*
X41290D02*
D03*
X41692D02*
D03*
X42094D02*
D03*
X42496D02*
D03*
X42898D02*
D03*
X43300D02*
D03*
X43702D02*
D03*
X44104D02*
D03*
X44506D02*
D03*
X44908D02*
D03*
X45310D02*
D03*
X45712D02*
D03*
X46114D02*
D03*
X46516D02*
D03*
D78*
X39400Y46884D02*
D03*
X47200Y53316D02*
D03*
Y52914D02*
D03*
Y52512D02*
D03*
Y52110D02*
D03*
Y51708D02*
D03*
Y51306D02*
D03*
Y50904D02*
D03*
Y50502D02*
D03*
Y50100D02*
D03*
Y49698D02*
D03*
Y49296D02*
D03*
Y48894D02*
D03*
Y48492D02*
D03*
Y48090D02*
D03*
Y47688D02*
D03*
Y47286D02*
D03*
Y46884D02*
D03*
X39400Y47286D02*
D03*
Y47688D02*
D03*
Y48090D02*
D03*
Y48492D02*
D03*
Y48894D02*
D03*
Y49296D02*
D03*
Y49698D02*
D03*
Y50100D02*
D03*
Y50502D02*
D03*
Y50904D02*
D03*
Y51306D02*
D03*
Y51708D02*
D03*
Y52110D02*
D03*
Y52512D02*
D03*
Y52914D02*
D03*
Y53316D02*
D03*
D79*
X43300Y50100D02*
D03*
D80*
X34900Y36400D02*
D03*
X31900D02*
D03*
D81*
X47350Y34250D02*
D03*
X44650Y36950D02*
D03*
D82*
X38100Y25600D02*
D03*
X35900D02*
D03*
D83*
X33400Y48100D02*
D03*
Y49100D02*
D03*
D84*
X46250Y56775D02*
D03*
X44750D02*
D03*
D85*
X36975Y44375D02*
D03*
Y43025D02*
D03*
X38025D02*
D03*
Y44375D02*
D03*
D86*
X59700Y38200D02*
D03*
X61500D02*
D03*
X58200Y40100D02*
D03*
X60000D02*
D03*
X56500Y38200D02*
D03*
X58300D02*
D03*
X39425Y59575D02*
D03*
X41225D02*
D03*
D87*
X29025Y56125D02*
D03*
X33125D02*
D03*
Y57725D02*
D03*
X29025D02*
D03*
D88*
X57727Y36054D02*
D03*
X58997D02*
D03*
X60267D02*
D03*
Y33006D02*
D03*
X57727D02*
D03*
D89*
X62897Y50154D02*
D03*
D90*
X68897Y42404D02*
D03*
X68397D02*
D03*
X67897D02*
D03*
X67397D02*
D03*
X66897D02*
D03*
X66397D02*
D03*
X65897D02*
D03*
X65397D02*
D03*
X64897D02*
D03*
X63397D02*
D03*
X62897D02*
D03*
X62397D02*
D03*
X61897D02*
D03*
X61397D02*
D03*
X60897D02*
D03*
X60397D02*
D03*
X59897D02*
D03*
X59397D02*
D03*
X58897D02*
D03*
X58397D02*
D03*
X57897D02*
D03*
X57397D02*
D03*
X56897D02*
D03*
Y57904D02*
D03*
X57397D02*
D03*
X57897D02*
D03*
X58397D02*
D03*
X58897D02*
D03*
X59397D02*
D03*
X59897D02*
D03*
X60397D02*
D03*
X60897D02*
D03*
X61397D02*
D03*
X61897D02*
D03*
X62397D02*
D03*
X62897D02*
D03*
X63397D02*
D03*
X63897D02*
D03*
X64397D02*
D03*
X64897D02*
D03*
X65397D02*
D03*
X65897D02*
D03*
X66397D02*
D03*
X66897D02*
D03*
X67397D02*
D03*
X67897D02*
D03*
X68397D02*
D03*
X68897D02*
D03*
X64397Y42404D02*
D03*
X63897D02*
D03*
D91*
X55147Y44154D02*
D03*
Y44654D02*
D03*
Y45154D02*
D03*
Y45654D02*
D03*
Y46154D02*
D03*
Y46654D02*
D03*
Y47154D02*
D03*
Y47654D02*
D03*
Y48154D02*
D03*
Y48654D02*
D03*
Y49154D02*
D03*
Y49654D02*
D03*
Y50154D02*
D03*
Y50654D02*
D03*
Y51154D02*
D03*
Y51654D02*
D03*
Y52154D02*
D03*
Y52654D02*
D03*
Y53154D02*
D03*
Y53654D02*
D03*
Y54154D02*
D03*
Y54654D02*
D03*
Y55154D02*
D03*
Y55654D02*
D03*
Y56154D02*
D03*
X70647D02*
D03*
Y55654D02*
D03*
Y55154D02*
D03*
Y54654D02*
D03*
Y54154D02*
D03*
Y53654D02*
D03*
Y53154D02*
D03*
Y52654D02*
D03*
Y52154D02*
D03*
Y51654D02*
D03*
Y51154D02*
D03*
Y50654D02*
D03*
Y50154D02*
D03*
Y49654D02*
D03*
Y49154D02*
D03*
Y48654D02*
D03*
Y48154D02*
D03*
Y47654D02*
D03*
Y47154D02*
D03*
Y46654D02*
D03*
Y46154D02*
D03*
Y45654D02*
D03*
Y45154D02*
D03*
Y44654D02*
D03*
Y44154D02*
D03*
D92*
X27900Y37359D02*
D03*
X50200Y25400D02*
D03*
X47660D02*
D03*
X32275Y61075D02*
D03*
X34815D02*
D03*
D93*
X27900Y34819D02*
D03*
D94*
X45120Y25400D02*
D03*
X37355Y61075D02*
D03*
D95*
X73875Y30375D02*
D03*
X68725D02*
D03*
X73875Y25225D02*
D03*
X68725D02*
D03*
X71300Y27800D02*
D03*
D96*
X28500Y26400D02*
D03*
X77500D02*
D03*
Y60825D02*
D03*
X28500D02*
D03*
D97*
X62897Y50154D02*
D03*
D98*
X30886Y30810D02*
D03*
X74344Y42022D02*
D03*
X70612Y43400D02*
D03*
X37384Y54975D02*
D03*
X75825Y37400D02*
D03*
X53150Y59475D02*
D03*
X67300Y40600D02*
D03*
X71000Y62075D02*
D03*
X33700Y32700D02*
D03*
M02*
