G04*
G04 #@! TF.GenerationSoftware,Altium Limited,Altium Designer,21.6.1 (37)*
G04*
G04 Layer_Color=32896*
%FSLAX43Y43*%
%MOMM*%
G71*
G04*
G04 #@! TF.SameCoordinates,E4B45546-35E5-4839-ABBE-925A39E423B5*
G04*
G04*
G04 #@! TF.FilePolarity,Positive*
G04*
G01*
G75*
%ADD12C,0.254*%
%ADD16C,0.152*%
%ADD22C,0.111*%
%ADD24C,0.125*%
%ADD25C,0.175*%
%ADD29C,0.198*%
D12*
X70900Y23500D02*
X70981Y23419D01*
X80500D01*
Y33100D01*
X25500Y63775D02*
X35100D01*
X25500Y54175D02*
Y63775D01*
X80500Y54175D02*
Y63775D01*
X70900D02*
X80500D01*
X25500Y23400D02*
X35100D01*
X25500D02*
Y33000D01*
D16*
X46494Y52200D02*
X47306D01*
X46189Y50803D02*
X46519Y50803D01*
X46189D02*
X46189Y51133D01*
X47611Y53267D02*
X47611Y53597D01*
X47281D02*
X47611Y53597D01*
Y51133D02*
X47611Y50803D01*
X47281D02*
X47611Y50803D01*
X46189Y53597D02*
X46189Y53267D01*
Y53597D02*
X46519Y53597D01*
X48069Y52210D02*
X48881D01*
X47764Y50813D02*
X48094Y50813D01*
X47764D02*
X47764Y51143D01*
X49186Y53277D02*
X49186Y53607D01*
X48856D02*
X49186Y53607D01*
Y51143D02*
X49186Y50813D01*
X48856D02*
X49186Y50813D01*
X47764Y53607D02*
X47764Y53277D01*
Y53607D02*
X48094Y53607D01*
X43409Y47244D02*
X44221D01*
X44196Y48641D02*
X44526Y48641D01*
Y48311D02*
X44526Y48641D01*
X43104Y45847D02*
X43104Y46177D01*
Y45847D02*
X43434Y45847D01*
X43104Y48641D02*
X43104Y48311D01*
Y48641D02*
X43434Y48641D01*
X44526Y46177D02*
X44526Y45847D01*
X44196D02*
X44526Y45847D01*
X46400Y47694D02*
Y48506D01*
X45003Y48481D02*
X45003Y48811D01*
X45003Y48811D02*
X45333Y48811D01*
X47467Y47389D02*
X47797Y47389D01*
X47797Y47389D02*
X47797Y47719D01*
X45003Y47389D02*
X45333Y47389D01*
X45003Y47719D02*
X45003Y47389D01*
X47467Y48811D02*
X47797Y48811D01*
X47797Y48811D02*
X47797Y48481D01*
X41094Y53100D02*
X41906D01*
X40789Y51703D02*
X41119Y51703D01*
X40789D02*
X40789Y52033D01*
X42211Y54167D02*
X42211Y54497D01*
X41881D02*
X42211Y54497D01*
Y52033D02*
X42211Y51703D01*
X41881D02*
X42211Y51703D01*
X40789Y54497D02*
X40789Y54167D01*
Y54497D02*
X41119Y54497D01*
X40200Y49094D02*
Y49906D01*
X41597Y48789D02*
X41597Y49119D01*
X41267Y48789D02*
X41597Y48789D01*
X38803Y50211D02*
X39133Y50211D01*
X38803Y49881D02*
X38803Y50211D01*
X41267D02*
X41597Y50211D01*
X41597Y50211D02*
X41597Y49881D01*
X38803Y48789D02*
X39133Y48789D01*
X38803Y49119D02*
X38803Y48789D01*
X40394Y47235D02*
X41206D01*
X41181Y48632D02*
X41511Y48632D01*
Y48302D02*
X41511Y48632D01*
X40089Y45838D02*
X40089Y46168D01*
Y45838D02*
X40419Y45838D01*
X40089Y48632D02*
X40089Y48302D01*
Y48632D02*
X40419Y48632D01*
X41511Y46168D02*
X41511Y45838D01*
X41181D02*
X41511Y45838D01*
X41994Y47235D02*
X42806D01*
X42781Y48632D02*
X43111Y48632D01*
Y48302D02*
X43111Y48632D01*
X41689Y45838D02*
X41689Y46168D01*
Y45838D02*
X42019Y45838D01*
X41689Y48632D02*
X41689Y48302D01*
Y48632D02*
X42019Y48632D01*
X43111Y46168D02*
X43111Y45838D01*
X42781D02*
X43111Y45838D01*
X61544Y57328D02*
X62814D01*
X61239Y55728D02*
X61671D01*
X61239D02*
Y56185D01*
X62687Y55728D02*
X63119D01*
Y56185D01*
X61239Y58471D02*
Y58928D01*
X61671D01*
X62687D02*
X63119D01*
Y58471D02*
Y58928D01*
X63576Y57339D02*
X64846D01*
X64719Y58939D02*
X65151D01*
Y58482D02*
Y58939D01*
X63271D02*
X63703D01*
X63271Y58482D02*
Y58939D01*
X65151Y55739D02*
Y56196D01*
X64719Y55739D02*
X65151D01*
X63271D02*
X63703D01*
X63271D02*
Y56196D01*
X70135Y48694D02*
Y49506D01*
X68738Y49481D02*
X68738Y49811D01*
X68738Y49811D02*
X69068Y49811D01*
X71202Y48389D02*
X71532Y48389D01*
X71532Y48389D02*
X71532Y48719D01*
X68738Y48389D02*
X69068Y48389D01*
X68738Y48719D02*
X68738Y48389D01*
X71202Y49811D02*
X71532Y49811D01*
X71532Y49811D02*
X71532Y49481D01*
X70200Y50594D02*
Y51406D01*
X68803Y51381D02*
X68803Y51711D01*
X68803Y51711D02*
X69133Y51711D01*
X71267Y50289D02*
X71597Y50289D01*
X71597Y50289D02*
X71597Y50619D01*
X68803Y50289D02*
X69133Y50289D01*
X68803Y50619D02*
X68803Y50289D01*
X71267Y51711D02*
X71597Y51711D01*
X71597Y51711D02*
X71597Y51381D01*
X70200Y53694D02*
Y54506D01*
X68803Y54481D02*
X68803Y54811D01*
X68803Y54811D02*
X69133Y54811D01*
X71267Y53389D02*
X71597Y53389D01*
X71597Y53389D02*
X71597Y53719D01*
X68803Y53389D02*
X69133Y53389D01*
X68803Y53719D02*
X68803Y53389D01*
X71267Y54811D02*
X71597Y54811D01*
X71597Y54811D02*
X71597Y54481D01*
X67189Y58897D02*
X67519Y58897D01*
X67189D02*
X67189Y58567D01*
X68281Y56103D02*
X68611Y56103D01*
Y56433D02*
X68611Y56103D01*
X68281Y58897D02*
X68611Y58897D01*
Y58567D02*
X68611Y58897D01*
X67189Y56103D02*
X67189Y56433D01*
Y56103D02*
X67519Y56103D01*
X67494Y57500D02*
X68306D01*
X58586Y58851D02*
X58916Y58851D01*
X58586D02*
X58586Y58521D01*
X59678Y56057D02*
X60008Y56057D01*
Y56387D02*
X60008Y56057D01*
X59678Y58851D02*
X60008Y58851D01*
Y58521D02*
X60008Y58851D01*
X58586Y56057D02*
X58586Y56387D01*
Y56057D02*
X58916Y56057D01*
X58891Y57454D02*
X59703D01*
X55635Y53494D02*
Y54306D01*
X57032Y53189D02*
X57032Y53519D01*
X56702Y53189D02*
X57032Y53189D01*
X54238Y54611D02*
X54568Y54611D01*
X54238Y54281D02*
X54238Y54611D01*
X56702D02*
X57032Y54611D01*
X57032Y54611D02*
X57032Y54281D01*
X54238Y53189D02*
X54568Y53189D01*
X54238Y53519D02*
X54238Y53189D01*
X55601Y48285D02*
Y49098D01*
X56998Y47981D02*
X56998Y48311D01*
X56667Y47981D02*
X56998Y47981D01*
X54204Y49403D02*
X54534Y49403D01*
X54204Y49073D02*
X54204Y49403D01*
X56667D02*
X56998Y49403D01*
X56998Y49403D02*
X56998Y49073D01*
X54204Y47981D02*
X54534Y47981D01*
X54204Y48311D02*
X54204Y47981D01*
X54300Y37765D02*
Y39035D01*
X52700Y38908D02*
Y39340D01*
X53157D01*
X52700Y37460D02*
Y37892D01*
Y37460D02*
X53157D01*
X55443Y39340D02*
X55900D01*
Y38908D02*
Y39340D01*
Y37460D02*
Y37892D01*
X55443Y37460D02*
X55900D01*
X54300Y39765D02*
Y41035D01*
X55900Y39460D02*
Y39892D01*
X55443Y39460D02*
X55900D01*
Y40908D02*
Y41340D01*
X55443D02*
X55900D01*
X52700Y39460D02*
X53157D01*
X52700D02*
Y39892D01*
Y40908D02*
Y41340D01*
X53157D01*
X55797Y42911D02*
X55797Y42581D01*
X55467Y42911D02*
X55797Y42911D01*
X53003Y41819D02*
X53003Y41489D01*
X53003Y41489D02*
X53333Y41489D01*
X55797D02*
X55797Y41819D01*
X55467Y41489D02*
X55797Y41489D01*
X53003Y42911D02*
X53333Y42911D01*
X53003Y42581D02*
X53003Y42911D01*
X54400Y41794D02*
Y42606D01*
X55994Y45600D02*
X56806D01*
X56781Y46997D02*
X57111Y46997D01*
Y46667D02*
X57111Y46997D01*
X55689Y44203D02*
X55689Y44533D01*
Y44203D02*
X56019Y44203D01*
X55689Y46997D02*
X55689Y46667D01*
Y46997D02*
X56019Y46997D01*
X57111Y44533D02*
X57111Y44203D01*
X56781D02*
X57111Y44203D01*
X58281Y44203D02*
X58611Y44203D01*
Y44533D02*
X58611Y44203D01*
X57189Y46997D02*
X57519Y46997D01*
X57189D02*
X57189Y46667D01*
Y44203D02*
X57519Y44203D01*
X57189D02*
X57189Y44533D01*
X58611Y46667D02*
X58611Y46997D01*
X58281D02*
X58611Y46997D01*
X57494Y45600D02*
X58306D01*
X59781Y44203D02*
X60111Y44203D01*
Y44533D02*
X60111Y44203D01*
X58689Y46997D02*
X59019Y46997D01*
X58689D02*
X58689Y46667D01*
Y44203D02*
X59019Y44203D01*
X58689D02*
X58689Y44533D01*
X60111Y46667D02*
X60111Y46997D01*
X59781D02*
X60111Y46997D01*
X58994Y45600D02*
X59806D01*
X73403Y51719D02*
X73403Y51389D01*
X73403Y51389D02*
X73733Y51389D01*
X76197Y52811D02*
X76197Y52481D01*
X75867Y52811D02*
X76197Y52811D01*
X73403Y52481D02*
X73403Y52811D01*
X73403Y52811D02*
X73733Y52811D01*
X75867Y51389D02*
X76197Y51389D01*
X76197Y51389D02*
X76197Y51719D01*
X74800Y51694D02*
Y52506D01*
X74905Y54712D02*
Y55524D01*
X76302Y54407D02*
X76302Y54737D01*
X75971Y54407D02*
X76302Y54407D01*
X73508Y55829D02*
X73838Y55829D01*
X73508Y55499D02*
X73508Y55829D01*
X75971D02*
X76302Y55829D01*
X76302Y55829D02*
X76302Y55499D01*
X73508Y54407D02*
X73838Y54407D01*
X73508Y54737D02*
X73508Y54407D01*
X66599Y61392D02*
X67412D01*
X67386Y62789D02*
X67716Y62789D01*
Y62459D02*
X67716Y62789D01*
X66294Y59995D02*
X66294Y60325D01*
Y59995D02*
X66624Y59995D01*
X66294Y62789D02*
X66294Y62459D01*
Y62789D02*
X66624Y62789D01*
X67716Y60325D02*
X67716Y59995D01*
X67386D02*
X67716Y59995D01*
X58014Y61392D02*
X58826D01*
X58801Y62789D02*
X59131Y62789D01*
Y62459D02*
X59131Y62789D01*
X57709Y59995D02*
X57709Y60325D01*
Y59995D02*
X58039Y59995D01*
X57709Y62789D02*
X57709Y62459D01*
Y62789D02*
X58039Y62789D01*
X59131Y60325D02*
X59131Y59995D01*
X58801D02*
X59131Y59995D01*
X51235Y49194D02*
Y50006D01*
X49838Y49981D02*
X49838Y50311D01*
X49838Y50311D02*
X50168Y50311D01*
X52302Y48889D02*
X52632Y48889D01*
X52632Y48889D02*
X52632Y49219D01*
X49838Y48889D02*
X50168Y48889D01*
X49838Y49219D02*
X49838Y48889D01*
X52302Y50311D02*
X52632Y50311D01*
X52632Y50311D02*
X52632Y49981D01*
X68351Y42113D02*
X69621D01*
X69494Y43713D02*
X69926D01*
Y43256D02*
Y43713D01*
X68047D02*
X68478D01*
X68047Y43256D02*
Y43713D01*
X69926Y40513D02*
Y40970D01*
X69494Y40513D02*
X69926D01*
X68047D02*
X68478D01*
X68047D02*
Y40970D01*
X66065Y43000D02*
X67335D01*
X65760Y41400D02*
X66192D01*
X65760D02*
Y41857D01*
X67208Y41400D02*
X67640D01*
Y41857D01*
X65760Y44143D02*
Y44600D01*
X66192D01*
X67208D02*
X67640D01*
Y44143D02*
Y44600D01*
X62891Y42954D02*
X63703D01*
X63678Y44351D02*
X64008Y44351D01*
Y44021D02*
X64008Y44351D01*
X62586Y41557D02*
X62586Y41887D01*
Y41557D02*
X62916Y41557D01*
X62586Y44351D02*
X62586Y44021D01*
Y44351D02*
X62916Y44351D01*
X64008Y41887D02*
X64008Y41557D01*
X63678D02*
X64008Y41557D01*
X65378Y41557D02*
X65708Y41557D01*
Y41887D02*
X65708Y41557D01*
X64286Y44351D02*
X64616Y44351D01*
X64286D02*
X64286Y44021D01*
Y41557D02*
X64616Y41557D01*
X64286D02*
X64286Y41887D01*
X65708Y44021D02*
X65708Y44351D01*
X65378D02*
X65708Y44351D01*
X64591Y42954D02*
X65403D01*
X71501Y46533D02*
X71501Y46203D01*
X71171Y46533D02*
X71501Y46533D01*
X68707Y45441D02*
X68707Y45110D01*
X68707Y45110D02*
X69037Y45110D01*
X71501D02*
X71501Y45441D01*
X71171Y45110D02*
X71501Y45110D01*
X68707Y46533D02*
X69037Y46533D01*
X68707Y46203D02*
X68707Y46533D01*
X70104Y45415D02*
Y46228D01*
X70079Y46787D02*
Y47600D01*
X68682Y47574D02*
X68682Y47904D01*
X68682Y47904D02*
X69012Y47904D01*
X71145Y46482D02*
X71476Y46482D01*
X71476Y46482D02*
X71476Y46812D01*
X68682Y46482D02*
X69012Y46482D01*
X68682Y46812D02*
X68682Y46482D01*
X71145Y47904D02*
X71476Y47904D01*
X71476Y47904D02*
X71476Y47574D01*
X40818Y55677D02*
X40818Y55347D01*
X40488Y55677D02*
X40818Y55677D01*
X38024Y54585D02*
X38024Y54254D01*
X38024Y54254D02*
X38354Y54254D01*
X40818D02*
X40818Y54585D01*
X40488Y54254D02*
X40818Y54254D01*
X38024Y55677D02*
X38354Y55677D01*
X38024Y55347D02*
X38024Y55677D01*
X39421Y54559D02*
Y55372D01*
X55832Y37311D02*
X55832Y36981D01*
X55502Y37311D02*
X55832Y37311D01*
X53038Y36219D02*
X53038Y35889D01*
X53038Y35889D02*
X53368Y35889D01*
X55832D02*
X55832Y36219D01*
X55502Y35889D02*
X55832Y35889D01*
X53038Y37311D02*
X53368Y37311D01*
X53038Y36981D02*
X53038Y37311D01*
X54435Y36193D02*
Y37006D01*
X70231Y41938D02*
X71044D01*
X71018Y43335D02*
X71349Y43335D01*
Y43005D02*
X71349Y43335D01*
X69926Y40541D02*
X69926Y40872D01*
Y40541D02*
X70256Y40541D01*
X69926Y43335D02*
X69926Y43005D01*
X69926Y43335D02*
X70256Y43335D01*
X71349Y40872D02*
X71349Y40541D01*
X71018D02*
X71349Y40541D01*
X71552Y43307D02*
X71882Y43307D01*
X71552D02*
X71552Y42977D01*
X72644Y40513D02*
X72974Y40513D01*
Y40843D02*
X72974Y40513D01*
X72644Y43307D02*
X72974Y43307D01*
Y42977D02*
X72974Y43307D01*
X71552Y40513D02*
X71552Y40843D01*
Y40513D02*
X71882Y40513D01*
X71857Y41910D02*
X72669D01*
X73508Y46482D02*
X73838Y46482D01*
Y46812D02*
X73838Y46482D01*
X72415Y49276D02*
X72746Y49276D01*
X72415D02*
X72415Y48946D01*
Y46482D02*
X72746Y46482D01*
X72415D02*
X72415Y46812D01*
X73838Y48946D02*
X73838Y49276D01*
X73508D02*
X73838Y49276D01*
X72720Y47879D02*
X73533D01*
X67832Y53111D02*
X67832Y52781D01*
X67502Y53111D02*
X67832Y53111D01*
X65038Y52019D02*
X65038Y51689D01*
X65038Y51689D02*
X65368Y51689D01*
X67832D02*
X67832Y52019D01*
X67502Y51689D02*
X67832Y51689D01*
X65038Y53111D02*
X65368Y53111D01*
X65038Y52781D02*
X65038Y53111D01*
X66435Y51994D02*
Y52806D01*
X43994Y53000D02*
X44806D01*
X43689Y51603D02*
X44019Y51603D01*
X43689D02*
X43689Y51933D01*
X45111Y54067D02*
X45111Y54397D01*
X44781D02*
X45111Y54397D01*
Y51933D02*
X45111Y51603D01*
X44781D02*
X45111Y51603D01*
X43689Y54397D02*
X43689Y54067D01*
Y54397D02*
X44019Y54397D01*
X49565Y28200D02*
X50835D01*
X49260Y26600D02*
X49692D01*
X49260D02*
Y27057D01*
X50708Y26600D02*
X51140D01*
Y27057D01*
X49260Y29343D02*
Y29800D01*
X49692D01*
X50708D02*
X51140D01*
Y29343D02*
Y29800D01*
X49040Y29343D02*
Y29800D01*
X48608D02*
X49040D01*
X47160D02*
X47592D01*
X47160Y29343D02*
Y29800D01*
X49040Y26600D02*
Y27057D01*
X48608Y26600D02*
X49040D01*
X47160D02*
Y27057D01*
Y26600D02*
X47592D01*
X47465Y28200D02*
X48735D01*
X62903Y45719D02*
X62903Y45389D01*
X62903Y45389D02*
X63233Y45389D01*
X65697Y46811D02*
X65697Y46481D01*
X65367Y46811D02*
X65697Y46811D01*
X62903Y46481D02*
X62903Y46811D01*
X62903Y46811D02*
X63233Y46811D01*
X65367Y45389D02*
X65697Y45389D01*
X65697Y45389D02*
X65697Y45719D01*
X64300Y45694D02*
Y46506D01*
X32135Y27494D02*
Y28306D01*
X33532Y27189D02*
X33532Y27519D01*
X33202Y27189D02*
X33532Y27189D01*
X30738Y28611D02*
X31068Y28611D01*
X30738Y28281D02*
X30738Y28611D01*
X33202D02*
X33532Y28611D01*
X33532Y28611D02*
X33532Y28281D01*
X30738Y27189D02*
X31068Y27189D01*
X30738Y27519D02*
X30738Y27189D01*
X77343Y28854D02*
X77673Y28854D01*
Y29185D02*
X77673Y28854D01*
X76251Y31648D02*
X76581Y31648D01*
X76251D02*
X76251Y31318D01*
Y28854D02*
X76581Y28854D01*
X76251D02*
X76251Y29185D01*
X77673Y31318D02*
X77673Y31648D01*
X77343D02*
X77673Y31648D01*
X76556Y30251D02*
X77368D01*
X27635Y57175D02*
X28448D01*
X27330Y55778D02*
X27661Y55778D01*
X27330D02*
X27330Y56109D01*
X28753Y58242D02*
X28753Y58572D01*
X28423D02*
X28753Y58572D01*
Y56109D02*
X28753Y55778D01*
X28423D02*
X28753Y55778D01*
X27330Y58572D02*
X27330Y58242D01*
Y58572D02*
X27661Y58572D01*
X32135Y25694D02*
Y26506D01*
X33532Y25389D02*
X33532Y25719D01*
X33202Y25389D02*
X33532Y25389D01*
X30738Y26811D02*
X31068Y26811D01*
X30738Y26481D02*
X30738Y26811D01*
X33202D02*
X33532Y26811D01*
X33532Y26811D02*
X33532Y26481D01*
X30738Y25389D02*
X31068Y25389D01*
X30738Y25719D02*
X30738Y25389D01*
X78981Y28868D02*
X79311Y28868D01*
Y29198D02*
X79311Y28868D01*
X77889Y31662D02*
X78219Y31662D01*
X77889D02*
X77889Y31332D01*
Y28868D02*
X78219Y28868D01*
X77889D02*
X77889Y29198D01*
X79311Y31332D02*
X79311Y31662D01*
X78981D02*
X79311Y31662D01*
X78194Y30265D02*
X79006D01*
X29286Y57172D02*
X30099D01*
X28981Y55775D02*
X29312Y55775D01*
X28981D02*
X28981Y56106D01*
X30404Y58239D02*
X30404Y58569D01*
X30074D02*
X30404Y58569D01*
Y56106D02*
X30404Y55775D01*
X30074D02*
X30404Y55775D01*
X28981Y58569D02*
X28981Y58239D01*
Y58569D02*
X29312Y58569D01*
X63449Y61595D02*
X64719D01*
X64592Y63195D02*
X65024D01*
Y62738D02*
Y63195D01*
X63144D02*
X63576D01*
X63144Y62738D02*
Y63195D01*
X65024Y59995D02*
Y60452D01*
X64592Y59995D02*
X65024D01*
X63144D02*
X63576D01*
X63144D02*
Y60452D01*
X60782Y61570D02*
X62052D01*
X60477Y59969D02*
X60909D01*
X60477D02*
Y60427D01*
X61925Y59969D02*
X62357D01*
Y60427D01*
X60477Y62713D02*
Y63170D01*
X60909D01*
X61925D02*
X62357D01*
Y62713D02*
Y63170D01*
X51100Y52494D02*
Y53306D01*
X49703Y53281D02*
X49703Y53611D01*
X49703Y53611D02*
X50033Y53611D01*
X52167Y52189D02*
X52497Y52189D01*
X52497Y52189D02*
X52497Y52519D01*
X49703Y52189D02*
X50033Y52189D01*
X49703Y52519D02*
X49703Y52189D01*
X52167Y53611D02*
X52497Y53611D01*
X52497Y53611D02*
X52497Y53281D01*
X60494Y45600D02*
X61306D01*
X61281Y46997D02*
X61611Y46997D01*
Y46667D02*
X61611Y46997D01*
X60189Y44203D02*
X60189Y44533D01*
Y44203D02*
X60519Y44203D01*
X60189Y46997D02*
X60189Y46667D01*
Y46997D02*
X60519Y46997D01*
X61611Y44533D02*
X61611Y44203D01*
X61281D02*
X61611Y44203D01*
X74851Y62689D02*
X74851Y62359D01*
X74521Y62689D02*
X74851Y62689D01*
X72057Y61597D02*
X72057Y61267D01*
X72057Y61267D02*
X72387Y61267D01*
X74851D02*
X74851Y61597D01*
X74521Y61267D02*
X74851Y61267D01*
X72057Y62689D02*
X72387Y62689D01*
X72057Y62359D02*
X72057Y62689D01*
X73454Y61572D02*
Y62384D01*
X74851Y60889D02*
X74851Y60559D01*
X74521Y60889D02*
X74851Y60889D01*
X72057Y59797D02*
X72057Y59467D01*
X72057Y59467D02*
X72387Y59467D01*
X74851D02*
X74851Y59797D01*
X74521Y59467D02*
X74851Y59467D01*
X72057Y60889D02*
X72387Y60889D01*
X72057Y60559D02*
X72057Y60889D01*
X73454Y59772D02*
Y60584D01*
X70104Y44018D02*
Y44831D01*
X68707Y44806D02*
X68707Y45136D01*
X68707Y45136D02*
X69037Y45136D01*
X71171Y43713D02*
X71501Y43713D01*
X71501Y43713D02*
X71501Y44044D01*
X68707Y43713D02*
X69037Y43713D01*
X68707Y44044D02*
X68707Y43713D01*
X71171Y45136D02*
X71501Y45136D01*
X71501Y45136D02*
X71501Y44806D01*
D22*
X70472Y44606D02*
X70564Y44699D01*
X70748D01*
X70841Y44606D01*
Y44237D01*
X70748Y44145D01*
X70564D01*
X70472Y44237D01*
X69918Y44699D02*
X70103Y44606D01*
X70287Y44422D01*
Y44237D01*
X70195Y44145D01*
X70010D01*
X69918Y44237D01*
Y44330D01*
X70010Y44422D01*
X70287D01*
X69734Y44237D02*
X69641Y44145D01*
X69457D01*
X69365Y44237D01*
Y44606D01*
X69457Y44699D01*
X69641D01*
X69734Y44606D01*
Y44514D01*
X69641Y44422D01*
X69365D01*
X74143Y59893D02*
Y60447D01*
X73866D01*
X73774Y60354D01*
Y60170D01*
X73866Y60078D01*
X74143D01*
X73958D02*
X73774Y59893D01*
X73589D02*
X73405D01*
X73497D01*
Y60447D01*
X73589Y60354D01*
X72851Y59893D02*
Y60447D01*
X73128Y60170D01*
X72759D01*
X73824Y62158D02*
X73917Y62250D01*
X74101D01*
X74193Y62158D01*
Y61789D01*
X74101Y61697D01*
X73917D01*
X73824Y61789D01*
X73271Y62250D02*
X73455Y62158D01*
X73640Y61973D01*
Y61789D01*
X73548Y61697D01*
X73363D01*
X73271Y61789D01*
Y61881D01*
X73363Y61973D01*
X73640D01*
X72717Y62250D02*
X73086D01*
Y61973D01*
X72902Y62066D01*
X72810D01*
X72717Y61973D01*
Y61789D01*
X72810Y61697D01*
X72994D01*
X73086Y61789D01*
X61091Y45225D02*
X61183Y45133D01*
Y44949D01*
X61091Y44856D01*
X60722D01*
X60630Y44949D01*
Y45133D01*
X60722Y45225D01*
X61091Y45410D02*
X61183Y45502D01*
Y45687D01*
X61091Y45779D01*
X60999D01*
X60907Y45687D01*
Y45594D01*
Y45687D01*
X60814Y45779D01*
X60722D01*
X60630Y45687D01*
Y45502D01*
X60722Y45410D01*
X61091Y45963D02*
X61183Y46056D01*
Y46240D01*
X61091Y46332D01*
X60999D01*
X60907Y46240D01*
X60814Y46332D01*
X60722D01*
X60630Y46240D01*
Y46056D01*
X60722Y45963D01*
X60814D01*
X60907Y46056D01*
X60999Y45963D01*
X61091D01*
X60907Y46056D02*
Y46240D01*
X51472Y53090D02*
X51565Y53182D01*
X51749D01*
X51841Y53090D01*
Y52721D01*
X51749Y52629D01*
X51565D01*
X51472Y52721D01*
X51011Y52629D02*
Y53182D01*
X51288Y52906D01*
X50919D01*
X50365Y53182D02*
X50734D01*
Y52906D01*
X50550Y52998D01*
X50458D01*
X50365Y52906D01*
Y52721D01*
X50458Y52629D01*
X50642D01*
X50734Y52721D01*
X29413Y56490D02*
X29967D01*
Y56766D01*
X29874Y56859D01*
X29690D01*
X29598Y56766D01*
Y56490D01*
Y56674D02*
X29413Y56859D01*
Y57043D02*
Y57228D01*
Y57135D01*
X29967D01*
X29874Y57043D01*
X29967Y57873D02*
Y57504D01*
X29690D01*
X29782Y57689D01*
Y57781D01*
X29690Y57873D01*
X29505D01*
X29413Y57781D01*
Y57597D01*
X29505Y57504D01*
X78334Y29566D02*
X78887D01*
Y29842D01*
X78795Y29935D01*
X78610D01*
X78518Y29842D01*
Y29566D01*
Y29750D02*
X78334Y29935D01*
Y30119D02*
Y30304D01*
Y30211D01*
X78887D01*
X78795Y30119D01*
Y30580D02*
X78887Y30673D01*
Y30857D01*
X78795Y30949D01*
X78703D01*
X78610Y30857D01*
Y30765D01*
Y30857D01*
X78518Y30949D01*
X78426D01*
X78334Y30857D01*
Y30673D01*
X78426Y30580D01*
X32817Y25832D02*
Y26385D01*
X32540D01*
X32448Y26293D01*
Y26109D01*
X32540Y26016D01*
X32817D01*
X32632D02*
X32448Y25832D01*
X32263D02*
X32079D01*
X32171D01*
Y26385D01*
X32263Y26293D01*
X31433Y25832D02*
X31802D01*
X31433Y26201D01*
Y26293D01*
X31525Y26385D01*
X31710D01*
X31802Y26293D01*
X28223Y56808D02*
X28316Y56716D01*
Y56531D01*
X28223Y56439D01*
X27854D01*
X27762Y56531D01*
Y56716D01*
X27854Y56808D01*
X28316Y57361D02*
X28223Y57177D01*
X28039Y56992D01*
X27854D01*
X27762Y57085D01*
Y57269D01*
X27854Y57361D01*
X27947D01*
X28039Y57269D01*
Y56992D01*
X28316Y57915D02*
X28223Y57730D01*
X28039Y57546D01*
X27854D01*
X27762Y57638D01*
Y57822D01*
X27854Y57915D01*
X27947D01*
X28039Y57822D01*
Y57546D01*
X77144Y29884D02*
X77236Y29792D01*
Y29607D01*
X77144Y29515D01*
X76775D01*
X76683Y29607D01*
Y29792D01*
X76775Y29884D01*
X77236Y30437D02*
X77144Y30253D01*
X76959Y30068D01*
X76775D01*
X76683Y30161D01*
Y30345D01*
X76775Y30437D01*
X76867D01*
X76959Y30345D01*
Y30068D01*
X76683Y30899D02*
X77236D01*
X76959Y30622D01*
Y30991D01*
X32499Y28096D02*
X32591Y28189D01*
X32775D01*
X32868Y28096D01*
Y27727D01*
X32775Y27635D01*
X32591D01*
X32499Y27727D01*
X31945Y28189D02*
X32130Y28096D01*
X32314Y27912D01*
Y27727D01*
X32222Y27635D01*
X32037D01*
X31945Y27727D01*
Y27820D01*
X32037Y27912D01*
X32314D01*
X31761Y28096D02*
X31668Y28189D01*
X31484D01*
X31392Y28096D01*
Y28004D01*
X31484Y27912D01*
X31576D01*
X31484D01*
X31392Y27820D01*
Y27727D01*
X31484Y27635D01*
X31668D01*
X31761Y27727D01*
X66814Y52674D02*
X67183D01*
Y52398D01*
X66999D01*
X67183D01*
Y52121D01*
X66630Y52674D02*
Y52121D01*
X66353D01*
X66261Y52213D01*
Y52305D01*
X66353Y52398D01*
X66630D01*
X66353D01*
X66261Y52490D01*
Y52582D01*
X66353Y52674D01*
X66630D01*
X65707D02*
X66076D01*
Y52398D01*
X65892Y52490D01*
X65799D01*
X65707Y52398D01*
Y52213D01*
X65799Y52121D01*
X65984D01*
X66076Y52213D01*
X73401Y47511D02*
Y47142D01*
X73124D01*
Y47327D01*
Y47142D01*
X72847D01*
X73401Y47696D02*
X72847D01*
Y47973D01*
X72939Y48065D01*
X73032D01*
X73124Y47973D01*
Y47696D01*
Y47973D01*
X73216Y48065D01*
X73308D01*
X73401Y47973D01*
Y47696D01*
X72847Y48526D02*
X73401D01*
X73124Y48249D01*
Y48618D01*
X72537Y41542D02*
Y41173D01*
X72260D01*
Y41358D01*
Y41173D01*
X71984D01*
X72537Y41727D02*
X71984D01*
Y42004D01*
X72076Y42096D01*
X72168D01*
X72260Y42004D01*
Y41727D01*
Y42004D01*
X72353Y42096D01*
X72445D01*
X72537Y42004D01*
Y41727D01*
X72445Y42280D02*
X72537Y42373D01*
Y42557D01*
X72445Y42649D01*
X72353D01*
X72260Y42557D01*
Y42465D01*
Y42557D01*
X72168Y42649D01*
X72076D01*
X71984Y42557D01*
Y42373D01*
X72076Y42280D01*
X70911Y41568D02*
Y41199D01*
X70635D01*
Y41383D01*
Y41199D01*
X70358D01*
X70911Y41752D02*
X70358D01*
Y42029D01*
X70450Y42121D01*
X70542D01*
X70635Y42029D01*
Y41752D01*
Y42029D01*
X70727Y42121D01*
X70819D01*
X70911Y42029D01*
Y41752D01*
X70358Y42675D02*
Y42306D01*
X70727Y42675D01*
X70819D01*
X70911Y42583D01*
Y42398D01*
X70819Y42306D01*
X54724Y36875D02*
X55093D01*
Y36599D01*
X54908D01*
X55093D01*
Y36322D01*
X54539Y36875D02*
Y36322D01*
X54262D01*
X54170Y36414D01*
Y36506D01*
X54262Y36599D01*
X54539D01*
X54262D01*
X54170Y36691D01*
Y36783D01*
X54262Y36875D01*
X54539D01*
X53986Y36322D02*
X53801D01*
X53893D01*
Y36875D01*
X53986Y36783D01*
X39788Y55240D02*
X40157D01*
Y54963D01*
X39973D01*
X40157D01*
Y54686D01*
X39604Y55240D02*
Y54686D01*
X39327D01*
X39235Y54778D01*
Y54871D01*
X39327Y54963D01*
X39604D01*
X39327D01*
X39235Y55055D01*
Y55147D01*
X39327Y55240D01*
X39604D01*
X38681D02*
X38866Y55147D01*
X39050Y54963D01*
Y54778D01*
X38958Y54686D01*
X38774D01*
X38681Y54778D01*
Y54871D01*
X38774Y54963D01*
X39050D01*
X70446Y47375D02*
X70538Y47467D01*
X70723D01*
X70815Y47375D01*
Y47006D01*
X70723Y46914D01*
X70538D01*
X70446Y47006D01*
X69893Y47467D02*
X70262D01*
Y47191D01*
X70077Y47283D01*
X69985D01*
X69893Y47191D01*
Y47006D01*
X69985Y46914D01*
X70169D01*
X70262Y47006D01*
X69339Y46914D02*
X69708D01*
X69339Y47283D01*
Y47375D01*
X69432Y47467D01*
X69616D01*
X69708Y47375D01*
X70370Y46003D02*
X70462Y46096D01*
X70647D01*
X70739Y46003D01*
Y45634D01*
X70647Y45542D01*
X70462D01*
X70370Y45634D01*
X69817Y46096D02*
X70186D01*
Y45819D01*
X70001Y45911D01*
X69909D01*
X69817Y45819D01*
Y45634D01*
X69909Y45542D01*
X70093D01*
X70186Y45634D01*
X69632Y45542D02*
X69448D01*
X69540D01*
Y46096D01*
X69632Y46003D01*
X65180Y42584D02*
X65273Y42492D01*
Y42307D01*
X65180Y42215D01*
X64811D01*
X64719Y42307D01*
Y42492D01*
X64811Y42584D01*
X65273Y43137D02*
Y42768D01*
X64996D01*
X65088Y42953D01*
Y43045D01*
X64996Y43137D01*
X64811D01*
X64719Y43045D01*
Y42861D01*
X64811Y42768D01*
X65180Y43322D02*
X65273Y43414D01*
Y43598D01*
X65180Y43691D01*
X64811D01*
X64719Y43598D01*
Y43414D01*
X64811Y43322D01*
X65180D01*
X63479Y42584D02*
X63571Y42492D01*
Y42307D01*
X63479Y42215D01*
X63110D01*
X63017Y42307D01*
Y42492D01*
X63110Y42584D01*
X63017Y43045D02*
X63571D01*
X63294Y42768D01*
Y43137D01*
X63110Y43322D02*
X63017Y43414D01*
Y43599D01*
X63110Y43691D01*
X63479D01*
X63571Y43599D01*
Y43414D01*
X63479Y43322D01*
X63386D01*
X63294Y43414D01*
Y43691D01*
X51599Y49788D02*
X51692Y49880D01*
X51876D01*
X51968Y49788D01*
Y49419D01*
X51876Y49327D01*
X51692D01*
X51599Y49419D01*
X51138Y49327D02*
Y49880D01*
X51415Y49604D01*
X51046D01*
X50492Y49880D02*
X50677Y49788D01*
X50861Y49604D01*
Y49419D01*
X50769Y49327D01*
X50585D01*
X50492Y49419D01*
Y49511D01*
X50585Y49604D01*
X50861D01*
X58602Y61024D02*
X58694Y60932D01*
Y60747D01*
X58602Y60655D01*
X58233D01*
X58141Y60747D01*
Y60932D01*
X58233Y61024D01*
X58141Y61485D02*
X58694D01*
X58417Y61209D01*
Y61578D01*
X58141Y62039D02*
X58694D01*
X58417Y61762D01*
Y62131D01*
X67187Y61024D02*
X67279Y60932D01*
Y60747D01*
X67187Y60655D01*
X66818D01*
X66726Y60747D01*
Y60932D01*
X66818Y61024D01*
X66726Y61485D02*
X67279D01*
X67003Y61209D01*
Y61578D01*
X67187Y61762D02*
X67279Y61854D01*
Y62039D01*
X67187Y62131D01*
X67095D01*
X67003Y62039D01*
Y61947D01*
Y62039D01*
X66910Y62131D01*
X66818D01*
X66726Y62039D01*
Y61854D01*
X66818Y61762D01*
X75272Y55300D02*
X75364Y55392D01*
X75549D01*
X75641Y55300D01*
Y54931D01*
X75549Y54839D01*
X75364D01*
X75272Y54931D01*
X74811Y54839D02*
Y55392D01*
X75088Y55115D01*
X74719D01*
X74165Y54839D02*
X74534D01*
X74165Y55208D01*
Y55300D01*
X74257Y55392D01*
X74442D01*
X74534Y55300D01*
X75069Y52277D02*
X75161Y52369D01*
X75346D01*
X75438Y52277D01*
Y51908D01*
X75346Y51816D01*
X75161D01*
X75069Y51908D01*
X74608Y51816D02*
Y52369D01*
X74885Y52093D01*
X74516D01*
X74331Y51816D02*
X74147D01*
X74239D01*
Y52369D01*
X74331Y52277D01*
X59592Y45225D02*
X59685Y45133D01*
Y44949D01*
X59592Y44856D01*
X59223D01*
X59131Y44949D01*
Y45133D01*
X59223Y45225D01*
X59592Y45410D02*
X59685Y45502D01*
Y45687D01*
X59592Y45779D01*
X59500D01*
X59408Y45687D01*
Y45594D01*
Y45687D01*
X59316Y45779D01*
X59223D01*
X59131Y45687D01*
Y45502D01*
X59223Y45410D01*
X59685Y45963D02*
Y46332D01*
X59592D01*
X59223Y45963D01*
X59131D01*
X58094Y45225D02*
X58186Y45133D01*
Y44949D01*
X58094Y44856D01*
X57725D01*
X57633Y44949D01*
Y45133D01*
X57725Y45225D01*
X58094Y45410D02*
X58186Y45502D01*
Y45687D01*
X58094Y45779D01*
X58002D01*
X57909Y45687D01*
Y45594D01*
Y45687D01*
X57817Y45779D01*
X57725D01*
X57633Y45687D01*
Y45502D01*
X57725Y45410D01*
X58186Y46332D02*
X58094Y46148D01*
X57909Y45963D01*
X57725D01*
X57633Y46056D01*
Y46240D01*
X57725Y46332D01*
X57817D01*
X57909Y46240D01*
Y45963D01*
X56595Y45225D02*
X56687Y45133D01*
Y44949D01*
X56595Y44856D01*
X56226D01*
X56134Y44949D01*
Y45133D01*
X56226Y45225D01*
X56595Y45410D02*
X56687Y45502D01*
Y45687D01*
X56595Y45779D01*
X56503D01*
X56411Y45687D01*
Y45594D01*
Y45687D01*
X56319Y45779D01*
X56226D01*
X56134Y45687D01*
Y45502D01*
X56226Y45410D01*
X56687Y46332D02*
Y45963D01*
X56411D01*
X56503Y46148D01*
Y46240D01*
X56411Y46332D01*
X56226D01*
X56134Y46240D01*
Y46056D01*
X56226Y45963D01*
X54774Y42397D02*
X54867Y42489D01*
X55051D01*
X55143Y42397D01*
Y42028D01*
X55051Y41935D01*
X54867D01*
X54774Y42028D01*
X54590Y42397D02*
X54498Y42489D01*
X54313D01*
X54221Y42397D01*
Y42304D01*
X54313Y42212D01*
X54405D01*
X54313D01*
X54221Y42120D01*
Y42028D01*
X54313Y41935D01*
X54498D01*
X54590Y42028D01*
X53760Y41935D02*
Y42489D01*
X54036Y42212D01*
X53667D01*
X55867Y48874D02*
X55959Y48966D01*
X56143D01*
X56236Y48874D01*
Y48505D01*
X56143Y48412D01*
X55959D01*
X55867Y48505D01*
X55682Y48874D02*
X55590Y48966D01*
X55405D01*
X55313Y48874D01*
Y48781D01*
X55405Y48689D01*
X55498D01*
X55405D01*
X55313Y48597D01*
Y48505D01*
X55405Y48412D01*
X55590D01*
X55682Y48505D01*
X55129Y48412D02*
X54944D01*
X55036D01*
Y48966D01*
X55129Y48874D01*
X55994Y54081D02*
X56086Y54173D01*
X56270D01*
X56363Y54081D01*
Y53712D01*
X56270Y53619D01*
X56086D01*
X55994Y53712D01*
X55809Y54081D02*
X55717Y54173D01*
X55532D01*
X55440Y54081D01*
Y53988D01*
X55532Y53896D01*
X55625D01*
X55532D01*
X55440Y53804D01*
Y53712D01*
X55532Y53619D01*
X55717D01*
X55809Y53712D01*
X55256Y54081D02*
X55163Y54173D01*
X54979D01*
X54887Y54081D01*
Y53712D01*
X54979Y53619D01*
X55163D01*
X55256Y53712D01*
Y54081D01*
X59491Y57087D02*
X59583Y56995D01*
Y56810D01*
X59491Y56718D01*
X59122D01*
X59030Y56810D01*
Y56995D01*
X59122Y57087D01*
X59030Y57641D02*
Y57272D01*
X59399Y57641D01*
X59491D01*
X59583Y57548D01*
Y57364D01*
X59491Y57272D01*
X59122Y57825D02*
X59030Y57917D01*
Y58102D01*
X59122Y58194D01*
X59491D01*
X59583Y58102D01*
Y57917D01*
X59491Y57825D01*
X59399D01*
X59306Y57917D01*
Y58194D01*
X68076Y57138D02*
X68168Y57046D01*
Y56861D01*
X68076Y56769D01*
X67707D01*
X67615Y56861D01*
Y57046D01*
X67707Y57138D01*
X67615Y57691D02*
Y57322D01*
X67984Y57691D01*
X68076D01*
X68168Y57599D01*
Y57415D01*
X68076Y57322D01*
Y57876D02*
X68168Y57968D01*
Y58153D01*
X68076Y58245D01*
X67984D01*
X67892Y58153D01*
X67799Y58245D01*
X67707D01*
X67615Y58153D01*
Y57968D01*
X67707Y57876D01*
X67799D01*
X67892Y57968D01*
X67984Y57876D01*
X68076D01*
X67892Y57968D02*
Y58153D01*
X70573Y54284D02*
X70665Y54376D01*
X70850D01*
X70942Y54284D01*
Y53915D01*
X70850Y53823D01*
X70665D01*
X70573Y53915D01*
X70020Y53823D02*
X70389D01*
X70020Y54192D01*
Y54284D01*
X70112Y54376D01*
X70296D01*
X70389Y54284D01*
X69835Y54376D02*
X69466D01*
Y54284D01*
X69835Y53915D01*
Y53823D01*
X70573Y51185D02*
X70665Y51277D01*
X70850D01*
X70942Y51185D01*
Y50816D01*
X70850Y50724D01*
X70665D01*
X70573Y50816D01*
X70020Y50724D02*
X70389D01*
X70020Y51093D01*
Y51185D01*
X70112Y51277D01*
X70296D01*
X70389Y51185D01*
X69466Y51277D02*
X69651Y51185D01*
X69835Y51001D01*
Y50816D01*
X69743Y50724D01*
X69559D01*
X69466Y50816D01*
Y50908D01*
X69559Y51001D01*
X69835D01*
X70497Y49280D02*
X70589Y49372D01*
X70774D01*
X70866Y49280D01*
Y48911D01*
X70774Y48819D01*
X70589D01*
X70497Y48911D01*
X69944Y48819D02*
X70313D01*
X69944Y49188D01*
Y49280D01*
X70036Y49372D01*
X70220D01*
X70313Y49280D01*
X69390Y49372D02*
X69759D01*
Y49096D01*
X69575Y49188D01*
X69482D01*
X69390Y49096D01*
Y48911D01*
X69482Y48819D01*
X69667D01*
X69759Y48911D01*
X42574Y46902D02*
X42667Y46810D01*
Y46625D01*
X42574Y46533D01*
X42205D01*
X42113Y46625D01*
Y46810D01*
X42205Y46902D01*
X42113Y47086D02*
Y47271D01*
Y47179D01*
X42667D01*
X42574Y47086D01*
X42205Y47548D02*
X42113Y47640D01*
Y47824D01*
X42205Y47917D01*
X42574D01*
X42667Y47824D01*
Y47640D01*
X42574Y47548D01*
X42482D01*
X42390Y47640D01*
Y47917D01*
X40974Y46902D02*
X41066Y46810D01*
Y46625D01*
X40974Y46533D01*
X40605D01*
X40513Y46625D01*
Y46810D01*
X40605Y46902D01*
X40513Y47086D02*
Y47271D01*
Y47179D01*
X41066D01*
X40974Y47086D01*
Y47548D02*
X41066Y47640D01*
Y47824D01*
X40974Y47917D01*
X40882D01*
X40790Y47824D01*
X40697Y47917D01*
X40605D01*
X40513Y47824D01*
Y47640D01*
X40605Y47548D01*
X40697D01*
X40790Y47640D01*
X40882Y47548D01*
X40974D01*
X40790Y47640D02*
Y47824D01*
X40525Y49686D02*
X40617Y49779D01*
X40802D01*
X40894Y49686D01*
Y49317D01*
X40802Y49225D01*
X40617D01*
X40525Y49317D01*
X40341Y49225D02*
X40156D01*
X40248D01*
Y49779D01*
X40341Y49686D01*
X39879Y49779D02*
X39510D01*
Y49686D01*
X39879Y49317D01*
Y49225D01*
X41685Y52769D02*
X41778Y52677D01*
Y52492D01*
X41685Y52400D01*
X41316D01*
X41224Y52492D01*
Y52677D01*
X41316Y52769D01*
X41224Y52954D02*
Y53138D01*
Y53046D01*
X41778D01*
X41685Y52954D01*
X41778Y53784D02*
Y53415D01*
X41501D01*
X41593Y53599D01*
Y53692D01*
X41501Y53784D01*
X41316D01*
X41224Y53692D01*
Y53507D01*
X41316Y53415D01*
X46621Y48289D02*
X46713Y48382D01*
X46898D01*
X46990Y48289D01*
Y47920D01*
X46898Y47828D01*
X46713D01*
X46621Y47920D01*
X46437Y47828D02*
X46252D01*
X46344D01*
Y48382D01*
X46437Y48289D01*
X45975Y47828D02*
X45791D01*
X45883D01*
Y48382D01*
X45975Y48289D01*
X43997Y46927D02*
X44089Y46835D01*
Y46650D01*
X43997Y46558D01*
X43628D01*
X43536Y46650D01*
Y46835D01*
X43628Y46927D01*
X43536Y47112D02*
Y47296D01*
Y47204D01*
X44089D01*
X43997Y47112D01*
Y47573D02*
X44089Y47665D01*
Y47850D01*
X43997Y47942D01*
X43628D01*
X43536Y47850D01*
Y47665D01*
X43628Y47573D01*
X43997D01*
D24*
X61632Y61147D02*
X61736Y61043D01*
Y60835D01*
X61632Y60731D01*
X61216D01*
X61112Y60835D01*
Y61043D01*
X61216Y61147D01*
X61112Y61667D02*
X61736D01*
X61424Y61355D01*
Y61771D01*
X61632Y61979D02*
X61736Y62083D01*
Y62291D01*
X61632Y62395D01*
X61216D01*
X61112Y62291D01*
Y62083D01*
X61216Y61979D01*
X61632D01*
X64299Y61173D02*
X64403Y61069D01*
Y60861D01*
X64299Y60757D01*
X63883D01*
X63779Y60861D01*
Y61069D01*
X63883Y61173D01*
X64299Y61380D02*
X64403Y61484D01*
Y61692D01*
X64299Y61796D01*
X64195D01*
X64091Y61692D01*
Y61588D01*
Y61692D01*
X63987Y61796D01*
X63883D01*
X63779Y61692D01*
Y61484D01*
X63883Y61380D01*
Y62004D02*
X63779Y62108D01*
Y62316D01*
X63883Y62420D01*
X64299D01*
X64403Y62316D01*
Y62108D01*
X64299Y62004D01*
X64195D01*
X64091Y62108D01*
Y62420D01*
X66915Y42580D02*
X67019Y42476D01*
Y42268D01*
X66915Y42164D01*
X66500D01*
X66396Y42268D01*
Y42476D01*
X66500Y42580D01*
X66396Y43099D02*
X67019D01*
X66707Y42788D01*
Y43203D01*
X66915Y43411D02*
X67019Y43515D01*
Y43723D01*
X66915Y43827D01*
X66811D01*
X66707Y43723D01*
X66603Y43827D01*
X66500D01*
X66396Y43723D01*
Y43515D01*
X66500Y43411D01*
X66603D01*
X66707Y43515D01*
X66811Y43411D01*
X66915D01*
X66707Y43515D02*
Y43723D01*
X69201Y41691D02*
X69305Y41587D01*
Y41379D01*
X69201Y41275D01*
X68786D01*
X68682Y41379D01*
Y41587D01*
X68786Y41691D01*
X68682Y42210D02*
X69305D01*
X68993Y41899D01*
Y42314D01*
X69305Y42522D02*
Y42938D01*
X69201D01*
X68786Y42522D01*
X68682D01*
X54728Y40601D02*
X54832Y40705D01*
X55039D01*
X55143Y40601D01*
Y40185D01*
X55039Y40081D01*
X54832D01*
X54728Y40185D01*
X54520Y40601D02*
X54416Y40705D01*
X54208D01*
X54104Y40601D01*
Y40497D01*
X54208Y40393D01*
X54312D01*
X54208D01*
X54104Y40289D01*
Y40185D01*
X54208Y40081D01*
X54416D01*
X54520Y40185D01*
X53896Y40601D02*
X53792Y40705D01*
X53584D01*
X53480Y40601D01*
Y40497D01*
X53584Y40393D01*
X53688D01*
X53584D01*
X53480Y40289D01*
Y40185D01*
X53584Y40081D01*
X53792D01*
X53896Y40185D01*
X54728Y38620D02*
X54832Y38724D01*
X55039D01*
X55143Y38620D01*
Y38204D01*
X55039Y38100D01*
X54832D01*
X54728Y38204D01*
X54520Y38620D02*
X54416Y38724D01*
X54208D01*
X54104Y38620D01*
Y38516D01*
X54208Y38412D01*
X54312D01*
X54208D01*
X54104Y38308D01*
Y38204D01*
X54208Y38100D01*
X54416D01*
X54520Y38204D01*
X53480Y38100D02*
X53896D01*
X53480Y38516D01*
Y38620D01*
X53584Y38724D01*
X53792D01*
X53896Y38620D01*
X64426Y56931D02*
X64530Y56827D01*
Y56619D01*
X64426Y56515D01*
X64010D01*
X63906Y56619D01*
Y56827D01*
X64010Y56931D01*
X63906Y57554D02*
Y57139D01*
X64322Y57554D01*
X64426D01*
X64530Y57451D01*
Y57243D01*
X64426Y57139D01*
X63906Y58074D02*
X64530D01*
X64218Y57762D01*
Y58178D01*
X62394Y56905D02*
X62498Y56801D01*
Y56594D01*
X62394Y56490D01*
X61978D01*
X61874Y56594D01*
Y56801D01*
X61978Y56905D01*
X61874Y57529D02*
Y57113D01*
X62290Y57529D01*
X62394D01*
X62498Y57425D01*
Y57217D01*
X62394Y57113D01*
Y57737D02*
X62498Y57841D01*
Y58049D01*
X62394Y58153D01*
X62290D01*
X62186Y58049D01*
Y57945D01*
Y58049D01*
X62082Y58153D01*
X61978D01*
X61874Y58049D01*
Y57841D01*
X61978Y57737D01*
D25*
X65024Y45669D02*
Y46542D01*
X64588D01*
X64442Y46397D01*
Y46106D01*
X64588Y45960D01*
X65024D01*
X64733D02*
X64442Y45669D01*
X64151Y46542D02*
X63569D01*
Y46397D01*
X64151Y45815D01*
Y45669D01*
X43967Y52273D02*
X44840D01*
Y52710D01*
X44695Y52855D01*
X44404D01*
X44258Y52710D01*
Y52273D01*
Y52564D02*
X43967Y52855D01*
Y53583D02*
X44840D01*
X44404Y53146D01*
Y53728D01*
X48759Y52068D02*
X48904Y51922D01*
Y51631D01*
X48759Y51486D01*
X48177D01*
X48031Y51631D01*
Y51922D01*
X48177Y52068D01*
Y52359D02*
X48031Y52504D01*
Y52795D01*
X48177Y52941D01*
X48759D01*
X48904Y52795D01*
Y52504D01*
X48759Y52359D01*
X48613D01*
X48468Y52504D01*
Y52941D01*
X47184Y52042D02*
X47329Y51897D01*
Y51606D01*
X47184Y51460D01*
X46602D01*
X46457Y51606D01*
Y51897D01*
X46602Y52042D01*
X47184Y52333D02*
X47329Y52479D01*
Y52770D01*
X47184Y52915D01*
X47039D01*
X46893Y52770D01*
X46748Y52915D01*
X46602D01*
X46457Y52770D01*
Y52479D01*
X46602Y52333D01*
X46748D01*
X46893Y52479D01*
X47039Y52333D01*
X47184D01*
X46893Y52479D02*
Y52770D01*
D29*
X47600Y27381D02*
X48590D01*
Y27876D01*
X48425Y28041D01*
X48095D01*
X47930Y27876D01*
Y27381D01*
Y27711D02*
X47600Y28041D01*
X48590Y29031D02*
X48425Y28701D01*
X48095Y28371D01*
X47765D01*
X47600Y28536D01*
Y28866D01*
X47765Y29031D01*
X47930D01*
X48095Y28866D01*
Y28371D01*
X49708Y27381D02*
X50698D01*
Y27876D01*
X50533Y28041D01*
X50203D01*
X50038Y27876D01*
Y27381D01*
Y27711D02*
X49708Y28041D01*
X50698Y29031D02*
Y28371D01*
X50203D01*
X50368Y28701D01*
Y28866D01*
X50203Y29031D01*
X49873D01*
X49708Y28866D01*
Y28536D01*
X49873Y28371D01*
M02*
